<svg id="Capa_1" data-name="Capa 1" xmlns="http://www.w3.org/2000/svg" viewBox="0 0 179.4 127.76"><defs><style>.cls-1{fill:#e3c176;}.cls-2{fill:#5f5349;}.cls-3{fill:#332d2e;}.cls-4{fill:#7a827e;}.cls-5{fill:#e38e81;}.cls-6{fill:#c47d49;}.cls-7{fill:#e4a067;}.cls-8{fill:#f9bc7f;}.cls-9{fill:none;stroke:#1d1d1b;stroke-miterlimit:10;}.cls-10{fill:#c58ebf;}.cls-11{fill:#6abb82;}.cls-12{fill:#a3c9bd;}.cls-13{fill:#eec170;}.cls-14{fill:#4d372c;}.cls-15{fill:#1e362e;}.cls-16{fill:#312829;}</style></defs><path class="cls-1" d="M495.13,459.78a13.05,13.05,0,0,0-3.93.45,40.4,40.4,0,0,1-4.24.59,64.49,64.49,0,0,1-8.9.2,24.66,24.66,0,0,1-3.84-.43c-.82-.17-1.59-.37-1.76-1.29a.78.78,0,0,1,0-.34l1-.75.13,0a29.28,29.28,0,0,1,3.44-.74c2.64-.48,5.3-.84,7.95-1.24,2.16-.33,4.54-.77,6.27-2.21a2.78,2.78,0,0,0,1.14-2.74,2.72,2.72,0,0,0-2.38-1.78,10,10,0,0,0-1.1-.08c1.17-.76,2.33-2,1.64-3.37a3.23,3.23,0,0,0-2.17-1.45,16.72,16.72,0,0,0-3.8-.51,53.23,53.23,0,0,0-7.57.44c-1.86.19-3.72.18-5.57.36s-3.82.42-5,1.82a1.72,1.72,0,0,0-.48,1.38,12.7,12.7,0,0,0-3.48-.47c-1.95.12-3.74.92-5.73.68s-4-.88-6.15-.31c-1.2.32-3,.5-3.77,1.63a1.14,1.14,0,0,0-.16.36,3,3,0,0,0-2.67.37,1.56,1.56,0,0,0,.4,2.78,4.46,4.46,0,0,0,1.54.23,3.41,3.41,0,0,1,1.62.1c.69.36,1.22.94,1.94,1.26a6,6,0,0,0,2.59.45,12.06,12.06,0,0,1,2.75.09,17.17,17.17,0,0,0,2.85.33,5.35,5.35,0,0,0,2.41-.4,3.67,3.67,0,0,1,1.14-.47,3.11,3.11,0,0,1,1.08.26,7.39,7.39,0,0,0,2.34.59,6.11,6.11,0,0,0,2.82-.65,5.13,5.13,0,0,0,1-.63c.27-.22.48-.46.72-.37s.64.41,1,.54a4.42,4.42,0,0,0,1.13.26,5,5,0,0,0,2.34-.09,3.68,3.68,0,0,0,1-.67,1.81,1.81,0,0,1,.21-.18l.07-.05,0,.05c.36.2.69.41,1,.57l-1.21.5a14.49,14.49,0,0,0-3.43,2l-.05.05-.1.08c-.21.17-.41.48-.7.45s-.49-.26-.73-.32a2.33,2.33,0,0,0-1.2,0,1.18,1.18,0,0,0-.91,1,5.89,5.89,0,0,0-2.85.23,3.14,3.14,0,0,0-2.32,2.15.8.8,0,0,0,.54,1c1.42.51,3.24-.68,4.52-1.15a6.51,6.51,0,0,1,2.39-.59H470l.23,0,.06,0c0,.17.09.34.14.5a5.11,5.11,0,0,1-.94.84c-.66.46-1.36.86-2.05,1.27a9.9,9.9,0,0,0-3.39,2.65c-.85,1.37.51,2.65,1.92,2.22,1.62-.49,2.86-2.06,4.06-3a7.42,7.42,0,0,1,1.46-.88,2.64,2.64,0,0,1,2.08,0c1.58.52,3.16,1,4.78,1.36a25.41,25.41,0,0,0,8.15.57,29.44,29.44,0,0,0,5.75-1.07c1.65-.52,3.89-1.45,3.93-3.48A1.06,1.06,0,0,0,495.13,459.78Zm-24.49.29Z" transform="translate(-316.77 -357.51)"/><path class="cls-2" d="M484.56,450.25a1.2,1.2,0,0,0-1.33-.15.81.81,0,0,0-.46-.43,2.44,2.44,0,0,0-.85-.13,1.18,1.18,0,0,0-.73-1l-.16,0,0,0a1.58,1.58,0,0,0-.85-.32l-.44-.06-.19,0-.08,0h-.06c-.32-.18-.54-.48-.87-.64a.82.82,0,0,0-.94.17,1.34,1.34,0,0,0-1.89,0,.71.71,0,0,0-.42-.67,1.73,1.73,0,0,0-1-.18,2.54,2.54,0,0,0-.39-1,.86.86,0,0,0-.61-.4.78.78,0,0,0-.4.09,1.56,1.56,0,0,0-.27-.4.46.46,0,0,0,.15-.16.58.58,0,0,0-.08-.64c-.26-.36-.88-.63-1.26-.27a.68.68,0,0,0-.17.28h-.7a1.5,1.5,0,0,0,0-.24.64.64,0,0,0-.27-.43.57.57,0,0,0-.15-.46.67.67,0,0,0-.65-.17.81.81,0,0,0-.47.4,1.13,1.13,0,0,0-.6-.07,1.25,1.25,0,0,0-.54-.92,1.21,1.21,0,0,0-1.16-.12,1.05,1.05,0,0,0-.57-.38.69.69,0,0,0-.55.11c-.52-.69-1.66-1.07-2.16-.33a.83.83,0,0,0-.47,0,.63.63,0,0,0-.39.32,1.62,1.62,0,0,0-1,.17,1.38,1.38,0,0,0-.55.73c-.12-.07-.26-.12-.37-.2a.25.25,0,0,0-.35,0,2.11,2.11,0,0,0-.36.5.34.34,0,0,0,0-.2.48.48,0,0,0-.61-.31.66.66,0,0,0-.51.49.38.38,0,0,0,0,.15,2.64,2.64,0,0,0-.49.08,2.7,2.7,0,0,0-1.69.91.72.72,0,0,0-.12.21.61.61,0,0,0-.57,0,1.2,1.2,0,0,0-.46.41l-.12-.12a1.14,1.14,0,0,0-.51-.2.39.39,0,0,0-.2-.37,1,1,0,0,0-.93,0,1.32,1.32,0,0,0-.61,1.2,1.37,1.37,0,0,0-.34.38,3,3,0,0,0-.43,1.29.59.59,0,0,0-.44.27.7.7,0,0,0-.08.27,1.33,1.33,0,0,0-1.52.73.86.86,0,0,0-.7,0,1,1,0,0,0-.28.25.82.82,0,0,0-.25-.2.91.91,0,0,0-.79.06,1.9,1.9,0,0,0-.82.84h0a.59.59,0,0,0-.51-.09,1,1,0,0,0-.56.45.54.54,0,0,0-.14.32s0,0,0,.05a.2.2,0,0,0,0,.11h0a.26.26,0,0,0-.22.25.72.72,0,0,0,.39.64,1,1,0,0,0-.19.27c-.18,0-.35,0-.55,0s-.28.21-.2.35c.34.6.94.41,1.42.13a1.77,1.77,0,0,0,.87.5.33.33,0,0,0-.3.16l0,.06a.13.13,0,0,0-.11.16.59.59,0,0,0,.22.35.39.39,0,0,0,.33.05h0l0,0c-.06,0,.05,0,.05,0h0a.28.28,0,0,0,.1-.09.35.35,0,0,0,.05-.42.57.57,0,0,0-.16-.15h0a2,2,0,0,0,1,.05,2.14,2.14,0,0,0,1.39.63,1.33,1.33,0,0,0,1.26-.5l.19.09h0a.31.31,0,0,0-.27.18.68.68,0,0,0,0,.14s0,0,0,0a.47.47,0,0,0,.16.43.27.27,0,0,0,.36,0,.2.2,0,0,0,.09-.12l0,0a.6.6,0,0,0,.06-.19.44.44,0,0,0-.05-.27.22.22,0,0,0-.07-.09l.42.14a2.77,2.77,0,0,0,1,.16,1.59,1.59,0,0,0,1.22.71,1.43,1.43,0,0,0,1.16-.41,1.77,1.77,0,0,0,.81.27.88.88,0,0,0,.82-.34,1.06,1.06,0,0,0,.68.11,2.15,2.15,0,0,1,.69-.19c.28,0,.51.22.78.27a.67.67,0,0,0,.66-.22,1.65,1.65,0,0,0,1.65-.05.6.6,0,0,0,.74.27,2.39,2.39,0,0,1,.44-.18,1.49,1.49,0,0,1,.58.09,4,4,0,0,0,1.5.21l.21,0a.39.39,0,0,0,.11.32.68.68,0,0,0,.71.15.62.62,0,0,0,.45-.62,3.44,3.44,0,0,0,1.48.45,1.78,1.78,0,0,0,1.59-.59.92.92,0,0,0,.66.11,2.24,2.24,0,0,1,.71-.14,3.38,3.38,0,0,0,.83.11,1,1,0,0,0,.46-.17,1.18,1.18,0,0,0,1.57-.06,3.92,3.92,0,0,0,1.36.63,1.3,1.3,0,0,0,.93-.1.88.88,0,0,0,.36-.45,2.19,2.19,0,0,0,2.13-.48,1.18,1.18,0,0,0,1.69-.17,1.52,1.52,0,0,0,1-.16.75.75,0,0,0,.44.29.91.91,0,0,0,.79-.26.62.62,0,0,0,.18-.75l-.08-.12a1.75,1.75,0,0,1,.51-.43c.21-.08.44,0,.66,0a.85.85,0,0,0,.71-.55A.28.28,0,0,0,484.56,450.25Zm-32.75,2.85Zm.2.19a.17.17,0,0,0,0-.07h0A.13.13,0,0,1,452,453.29Zm17.85-9.16-.09,0,.06,0,.07.06v0Zm-10.06-.85h0v0Z" transform="translate(-316.77 -357.51)"/><path class="cls-2" d="M445.61,451a.44.44,0,0,0-.24-.66.58.58,0,0,0-.68.23.29.29,0,0,0,0,.31l.06,0a.38.38,0,0,0,.18.22A.47.47,0,0,0,445.61,451Z" transform="translate(-316.77 -357.51)"/><path class="cls-2" d="M444.81,452Z" transform="translate(-316.77 -357.51)"/><path class="cls-2" d="M444.8,451.44a.31.31,0,0,0-.3.09.22.22,0,0,0-.08.13v.07a.37.37,0,0,0,0,.15.23.23,0,0,0,.15.12h0a.18.18,0,0,0,.22,0h0l.1,0a.24.24,0,0,0,.12-.2A.35.35,0,0,0,444.8,451.44Zm.07.53,0,0v0Z" transform="translate(-316.77 -357.51)"/><path class="cls-2" d="M447.87,453h0Z" transform="translate(-316.77 -357.51)"/><path class="cls-2" d="M483.85,451.41s-.05-.06-.09-.07l-.12,0a.32.32,0,0,0-.37.15.42.42,0,0,0,0,.16.39.39,0,0,0,.09.23l0,0,.1.1.13.05a.51.51,0,0,0,.38-.06.3.3,0,0,0,.1-.4A.32.32,0,0,0,483.85,451.41Zm0,0h0l0,0Zm-.08-.06Zm.07,0h0l0,0Z" transform="translate(-316.77 -357.51)"/><path class="cls-3" d="M446,450.48a.33.33,0,0,0,.38-.12l.08,0a.29.29,0,0,0,.27,0,.46.46,0,0,0,.27.47c.19.06.29-.08.33-.24.15.11.39.21.49,0s-.19-.38-.38-.4-.07.08,0,.09.37.1.3.26-.33,0-.4-.11a.07.07,0,0,0-.11.05c0,.13-.06.29-.22.21a.41.41,0,0,1-.17-.4,0,0,0,0,0-.07,0,.17.17,0,0,1-.28-.14c0-.08-.1-.11-.15-.07a.32.32,0,0,1,.2-.18.11.11,0,0,1,.14.08.26.26,0,0,0,0,.21c0,.08.14.07.15,0a.57.57,0,0,0,0-.13s.1,0,.16,0a.34.34,0,0,0,.11.19.09.09,0,0,0,.15-.08.34.34,0,0,0-.08-.17.22.22,0,0,1,.28-.22.38.38,0,0,0,.13.09c.1,0,.14-.09.09-.15a.33.33,0,0,0-.13-.11.31.31,0,0,1,0-.19.19.19,0,0,1,.11-.12.19.19,0,0,0,0,.08.08.08,0,0,0,.13.07c.1,0,.2-.15.13-.26a.2.2,0,0,1,.1,0l.09,0a.5.5,0,0,0-.13.26c-.05.28.4.24.47,0a.3.3,0,0,0-.08-.28.62.62,0,0,1,.44-.08c.06,0,.13-.05.09-.11s0-.25.18-.27a1.14,1.14,0,0,1,.32,0,.22.22,0,0,0,.18.08c.07,0,.1-.09.05-.14l0,0,.08-.05a.42.42,0,0,1,.29,0l.07,0c-.11.06-.27.19-.25.32s.38,0,.47-.09v0a.07.07,0,0,0,0,.07.26.26,0,0,0,.24,0,0,0,0,0,0,0-.06.8.8,0,0,0-.08-.16.34.34,0,0,1,.26-.14c0,.05.09.07.15.07s.1-.08.05-.12l0,0,0,0a1.32,1.32,0,0,1,.2-.12.59.59,0,0,1,.47-.06c.08,0,.14-.09.08-.15s0-.26.13-.33l.13-.07a.27.27,0,0,0,.13.13.09.09,0,0,0,.13-.05c0-.1,0-.22-.08-.26a.54.54,0,0,1,.38-.25c.07.1.12.11.27.08s.07-.09,0-.13l-.05,0a.72.72,0,0,1,.43.05c.05,0,.11,0,.1-.08a.45.45,0,0,0-.12-.27c0-.06-.07-.09,0-.16a.14.14,0,0,1,.22,0h0l0,0c.08.06.18-.08.1-.14v0h0c-.18-.12.14-.31.24-.34a1.11,1.11,0,0,0,.26-.07,1.13,1.13,0,0,0,.26-.31.67.67,0,0,0,.4-.17.58.58,0,0,0,.1.12.08.08,0,0,0,.1,0l.14-.14c.08.07.19.14.29.09a.17.17,0,0,0,.07-.22v0a.33.33,0,0,1,.14,0s0,0,0,.06.19.1.29.06a.09.09,0,0,0,0-.15.47.47,0,0,0-.12-.07.24.24,0,0,1,.08-.09.41.41,0,0,1,.38-.11.29.29,0,0,0-.21.19c0,.17.14.25.27.25a.32.32,0,0,0,.36-.23.21.21,0,0,0-.11-.23.59.59,0,0,1,.35-.16.37.37,0,0,0,.27.1c.07,0,.12-.09.06-.13a.54.54,0,0,0-.24-.12.26.26,0,0,1,.1-.36c.09-.05.28-.08.31,0v0a.57.57,0,0,0-.3.15.09.09,0,0,0,0,.1c.11.15.31.05.41-.08a3.93,3.93,0,0,1,.49,0h0c.1,0,.13-.16,0-.17h0l.12-.08a.66.66,0,0,1,.3-.12c.05,0,.11-.05.08-.11-.12-.32.4-.42.63-.28a.12.12,0,0,0,.05,0s0,0,0,0,.16-.05.11-.12a.34.34,0,0,0-.12-.12.25.25,0,0,1,.06-.14c.11-.09.24,0,.34,0s.16-.06.1-.13l-.07-.09h0a.31.31,0,0,0,.22-.16.54.54,0,0,1,.51,0l0,0s0,.09,0,.11l.14,0a.08.08,0,0,0,.09-.11l0-.05a.59.59,0,0,1,.49,0c.11,0,.15-.11.07-.17s0-.24.12-.3a.59.59,0,0,1,.2,0c0,.08,0,.17.14.23a.1.1,0,0,0,.14,0,.34.34,0,0,0,0-.26l.12-.06h0l-.05.06c0,.05,0,.12.08.1a.61.61,0,0,0,.29-.18c.16-.05.34-.05.39.1a.08.08,0,0,0,.15,0c0-.17.28-.17.49-.12a.35.35,0,0,0,.24.1c.08,0,.11-.1.06-.15a.49.49,0,0,0-.13-.08.83.83,0,0,1,.15-.11.92.92,0,0,1,.36-.17.1.1,0,0,0,.06-.18.41.41,0,0,1,.25-.11.21.21,0,0,1,.2.06l0,0a.5.5,0,0,0-.24.12.08.08,0,0,0,0,.1.22.22,0,0,0,.35,0,.11.11,0,0,0,0,.05.07.07,0,0,0,0,.05h.15s0,0,0-.06a.3.3,0,0,0,0-.2h0a.52.52,0,0,1,.21-.07c.11,0,.31,0,.3.15s.16.1.17,0,.25-.15.3-.05-.09.2-.18.12-.21.05-.12.12a.27.27,0,0,0,.2.08c0,.07.08.13.2.12l.12,0c.08.08.24,0,.36,0s.52-.23.64-.05a.28.28,0,0,0,0,.13.06.06,0,0,0,.06.08.15.15,0,0,0,.13,0s0-.06,0-.09,0-.05,0-.07.2-.08.32,0,.3.25.13.35,0,.21.09.15a.38.38,0,0,1,.41,0h0a.51.51,0,0,0-.21,0s0,0,0,0a.46.46,0,0,1,.26,0c.07.07.05.16-.05.25s0,.09,0,.08a.27.27,0,0,0,.19-.23l0,0a.28.28,0,0,1,.08.29.37.37,0,0,0-.13.15s0,.09.06.06a.27.27,0,0,0,.11-.1c.12-.06.27-.05.24.13a.06.06,0,0,0,.1.07.61.61,0,0,1,.46,0,.34.34,0,0,0,0,.48.35.35,0,0,0,.47,0c0,.19.14.23.27.18a.51.51,0,0,0,.14.15.23.23,0,0,0,.37-.06.53.53,0,0,0,.28,0,.74.74,0,0,0,.26-.1s.11-.07.15-.06l0,0a.15.15,0,0,0,0,.2.09.09,0,0,0,.16,0s0-.06,0-.08l.05,0a.77.77,0,0,1,.26,0,.63.63,0,0,1,.34.12c0,.13,0,.24.18.27a.12.12,0,0,0,.09,0,.39.39,0,0,0,.46-.11.38.38,0,0,0-.08-.57.51.51,0,0,0-.62.14.1.1,0,0,0,0,.1.91.91,0,0,0-.43-.1,1,1,0,0,0-.26.06.21.21,0,0,0-.27-.08c-.09,0-.17.09-.26.12a.41.41,0,0,1-.16,0h-.1l0-.11a.1.1,0,0,0-.18-.07.24.24,0,0,0-.06.2.09.09,0,0,1-.15,0l-.06-.07c.14-.11.23-.28.11-.39a.23.23,0,0,0-.37,0,.5.5,0,0,0-.06-.42.38.38,0,0,0,.13-.09.49.49,0,0,0,.48-.1.26.26,0,0,0,0-.39.45.45,0,0,0-.47,0,.08.08,0,0,0,0,.15.07.07,0,0,0-.08,0l0,.1a.2.2,0,0,1-.23.09l-.09,0h0c-.11,0-.12.15,0,.18l.06,0h-.08a.57.57,0,0,0-.66,0,.25.25,0,0,0-.21-.17h-.08a.4.4,0,0,0-.21-.35.28.28,0,0,0-.1-.17.64.64,0,0,0-.42-.15c0-.3-.55-.68-.79-.43a.29.29,0,0,0-.22-.08.67.67,0,0,0-.19.05c.14-.14.11-.39-.13-.4s-.58.19-.58.44l-.09,0h0a.24.24,0,0,0,.12-.34.35.35,0,0,0-.54-.08.57.57,0,0,0-.74,0h0a.37.37,0,0,0-.08-.15.53.53,0,0,0-.81.15.06.06,0,0,0,0,0,1.06,1.06,0,0,0-.46.3l-.06.08c-.23,0-.51,0-.6.15a.44.44,0,0,0-.32-.07.22.22,0,0,0-.08-.23.29.29,0,0,0-.47.31l-.12.09c-.28-.07-.79.18-.69.47a.58.58,0,0,0-.41.11.59.59,0,0,0-.55,0,.28.28,0,0,0-.14-.27.3.3,0,0,0-.33.19.5.5,0,0,0,0,.36.33.33,0,0,0-.31.08.37.37,0,0,0-.1.22c-.33-.08-.79.12-.73.47a1,1,0,0,0-.44.24.18.18,0,0,0-.07.09,1.62,1.62,0,0,0-.22,0,.3.3,0,0,0-.35-.25.44.44,0,0,0-.39.56.88.88,0,0,0-.42.23.55.55,0,0,0-.73.14.35.35,0,0,0-.06.09.51.51,0,0,0-.43.07.56.56,0,0,0-.2.11l0,0a.56.56,0,0,0,.1-.69c-.37-.5-1,0-1,.45h0c-.21.08-.15.39,0,.52l.07,0a.7.7,0,0,1-.15.19c-.11.09-.27.06-.4.14s-.27.23-.26.37a.31.31,0,0,0-.24.13.26.26,0,0,0-.05.24.62.62,0,0,0,.14.19.79.79,0,0,0-.56.08.7.7,0,0,0-.58.4.48.48,0,0,0-.18.07c-.16.1-.33.29-.3.47a1.1,1.1,0,0,0-.6.24,1,1,0,0,1-.49.3l-.13-.05a.65.65,0,0,0-.49-.13.75.75,0,0,0-.33.17c-.33-.1-.83,0-.74.38a.78.78,0,0,0-.46.12.42.42,0,0,0-.14-.09.27.27,0,0,0-.35.05.34.34,0,0,0-.18,0,.38.38,0,0,0-.18.44.45.45,0,0,0-.35.29.25.25,0,0,0-.12,0l-.1,0a.18.18,0,0,0-.18-.09.37.37,0,0,0-.31.28l-.05,0a.08.08,0,0,0-.09,0,.52.52,0,0,0-.19.38A.11.11,0,0,0,446,450.48Zm26.35-6.2a.16.16,0,0,1,.11.26.26.26,0,0,1-.35,0l0-.08v0a1.17,1.17,0,0,1,0-.11.13.13,0,0,0,0-.06A.31.31,0,0,1,472.39,444.28Zm-2.46-1.1c.08,0,.4-.09.23.09a.33.33,0,0,1-.16.07h-.09a.08.08,0,0,0,0,0,.1.1,0,0,0,0-.11Zm-.68.91c-.07-.07,0-.17.05-.22a.57.57,0,0,1,.15.16s0,0,0,0A.15.15,0,0,1,469.25,444.09Zm.67,0s0,0,0,0,.05.06,0,.1,0,0,0,0A.26.26,0,0,1,469.92,444.1Zm-.14.22c-.1,0-.09-.11-.08-.19l0-.07v0A.4.4,0,0,0,469.78,444.32Zm-.31-.72Zm-3.37-1.19a.22.22,0,0,1-.14,0l.1-.07a.23.23,0,0,0,.14,0Zm.27-.27s-.09.05-.13.07h-.05v0a.07.07,0,0,0-.06-.1C466.22,442.07,466.44,442,466.37,442.14Zm-2.13,0a.11.11,0,0,1-.07,0,.31.31,0,0,1,.12-.05S464.27,442.12,464.24,442.12Zm-2.29.35v0a.66.66,0,0,0-.22.12.06.06,0,0,0,0-.09C461.51,442.3,462.07,442.21,462,442.47Zm-2.35.54c.06,0,.06.13,0,.18v0a.62.62,0,0,0-.2.15h0a.35.35,0,0,1,0-.13C459.4,443.16,459.47,443,459.6,443Zm-3.22,2.37c0,.08-.14.09-.21.08-.24,0,0-.16.13-.16l0,0S456.41,445.33,456.38,445.38Zm-1.69,0a.17.17,0,0,1-.12,0s0-.08.1-.07a.09.09,0,0,1,.07,0Zm0-.6a.35.35,0,0,1,.14.4v0c-.17-.14-.36-.07-.43.17a.06.06,0,0,0,0,.07.59.59,0,0,0,.11.08.92.92,0,0,1-.25.15c.07-.2.06-.43-.19-.45C454.12,444.93,454.41,444.57,454.71,444.77Zm-.58.63c.07.05,0,.17,0,.25a.29.29,0,0,1-.11-.11C454,445.45,454,445.33,454.13,445.4ZM450,448.83l-.06,0a.43.43,0,0,1,.16-.14A.21.21,0,0,1,450,448.83Zm.4,0a0,0,0,0,1-.05,0l0,0Zm-.12-.12h0Zm-2.07.76-.11,0s0-.06,0-.07a.86.86,0,0,1,.07-.1.16.16,0,0,1,0,.07C448.26,449.45,448.26,449.45,448.22,449.48Zm-2,.67.06.06a.15.15,0,0,1-.14.1A.4.4,0,0,1,446.24,450.15Z" transform="translate(-316.77 -357.51)"/><path class="cls-3" d="M483.77,450.31a.41.41,0,0,0-.25.11.51.51,0,0,0-.45-.05.8.8,0,0,0-.49-.32l-.23,0a.67.67,0,0,0-.22-.38.73.73,0,0,0-.23-.54.09.09,0,0,0-.16,0c0,.2-.16.4-.39.28a.1.1,0,0,1-.05,0,.47.47,0,0,0,.21-.23.09.09,0,0,0,0-.11.27.27,0,0,0-.41.22c-.13,0-.26,0-.26-.15h.08a.09.09,0,0,0,.1-.14c-.14-.21-.64-.56-.9-.47a.64.64,0,0,0-.17-.16.54.54,0,0,0-.47-.09.52.52,0,0,0-.59-.23.77.77,0,0,0-.55-.28l-.06-.1a.49.49,0,0,0-.71-.09.5.5,0,0,0-.67-.23.41.41,0,0,0-.13.1,1.18,1.18,0,0,0-1.11,0,.62.62,0,0,0-.38,0,.78.78,0,0,0,0-.31.16.16,0,0,0-.12-.13.33.33,0,0,0-.1-.17.59.59,0,0,0-.58-.19l-.07,0a.53.53,0,0,0-.32-.08.5.5,0,0,0-.3-.16.36.36,0,0,0,0-.27.65.65,0,0,0-.4-.31.7.7,0,0,0-.24-.06.6.6,0,0,0-.45-.52.68.68,0,0,0-.35-.36c-.08,0-.13.1-.06.13a.53.53,0,0,1,.21.18.41.41,0,0,1,0,.09.34.34,0,0,0-.14.13.1.1,0,0,0,.09.15c.13,0,.2,0,.22-.12a.36.36,0,0,1,.24.32c-.15,0-.25.1-.17.28a.09.09,0,0,0,.1,0A.3.3,0,0,0,473,446a1.24,1.24,0,0,1,.27.06c.25.1.35.3.2.52l-.05.06c-.05.08.06.17.12.1l.05-.05c.06-.07.14-.05.21,0a.58.58,0,0,0-.12.1.08.08,0,0,0,0,.13.53.53,0,0,0,.42.1h0a.17.17,0,0,0,.05.15c.17.17.37,0,.3-.23a.34.34,0,0,0-.06-.12h0a.52.52,0,0,1,.37.12c.05,0,.13.12.11.18l-.07.08c-.05.07.05.14.11.11a.18.18,0,0,0,.07-.05v.13a.81.81,0,0,1-.05.31c-.06.13.12.25.19.12a.26.26,0,0,1,.17-.12.37.37,0,0,0,.07.55c.35.26.72-.21.5-.54l-.09-.1a1,1,0,0,1,.83.06c0,.11,0,.2.22.19a.09.09,0,0,0,.08-.13l-.09-.11v0a.34.34,0,0,1,.22-.07.4.4,0,0,1,.33.37c0,.09.16.09.18,0s.32-.23.46-.09H478a.24.24,0,0,0-.11.42.25.25,0,0,0,.38,0,.46.46,0,0,0,.08-.21c.17,0,.36.11.33.23a.2.2,0,0,0,0,.08c0,.08.09.14.14.08a.37.37,0,0,0,.09-.14c.16-.11.53.07.39.21h0v0c-.06.08.07.17.13.1a.29.29,0,0,1,.41,0,.47.47,0,0,1,.17.15.56.56,0,0,0,0,.2.1.1,0,0,0,.16.07.26.26,0,0,0,.07-.21c.07-.05.19,0,.29.06a2,2,0,0,1,.25.18.1.1,0,0,0,0,.05.33.33,0,0,0,.29.46h.16s0,0,0,0a.49.49,0,0,0,.5.14.42.42,0,0,0,.25-.24.88.88,0,0,1,.05.15v0a.26.26,0,0,0-.18.09c-.05,0,0,.11,0,.15a.23.23,0,0,0,.29,0,.49.49,0,0,1,.11.2c-.17.05-.3.16-.22.39a.11.11,0,0,0,.12.07.39.39,0,0,0,.3-.29.84.84,0,0,1,.19,0c.14,0,.34.12.37.26a.46.46,0,0,0,0,.21.1.1,0,0,0,.18,0,.6.6,0,0,0,.07-.2.17.17,0,0,1,.15-.05.24.24,0,0,1,.15.06.2.2,0,0,0,0,.11h0a.39.39,0,0,0-.14,0,.1.1,0,0,0-.07.16.42.42,0,0,0,.12.08c0,.06-.1.14-.13.17a.29.29,0,0,1-.43,0c-.07-.08-.21,0-.15.12a.23.23,0,0,1-.15.34c-.07,0-.25,0-.3,0v0a.28.28,0,0,0,0-.09.86.86,0,0,0,0-.27.37.37,0,0,0-.49-.29c-.15,0-.34.2-.3.38s.36.19.56.16a.75.75,0,0,1,0,.15,1,1,0,0,0-.31.1.1.1,0,0,0,0,.16.29.29,0,0,0,.46,0l.05-.09a.21.21,0,0,0,.11,0,.35.35,0,0,1,.11.35,1.39,1.39,0,0,1-.06.4c0,.13-.11.16-.24.13a.86.86,0,0,1-.25-.13.13.13,0,0,0-.14-.18.14.14,0,0,1,.09-.16A.57.57,0,0,1,482,452c.12,0,.15.06.1.18s.11.13.15,0c.12-.28-.12-.41-.37-.37s-.53.19-.45.47a.82.82,0,0,1-.26-.06.82.82,0,0,0-.31,0c-.28,0-.52.12-.78,0-.1-.07-.21.06-.16.16.14.28-.67.32-.68.08a.13.13,0,0,0,0-.06c0-.11-.15-.12-.19,0a.5.5,0,0,0,0,.12c-.1.24-.61.14-.8,0h0a.1.1,0,0,0-.19,0v0s0,0-.05.05l-.08.06a.31.31,0,0,1-.13.06.46.46,0,0,0-.35-.26.11.11,0,0,0-.13.07.36.36,0,0,0,0,.31h-.08c-.1,0-.15.14-.05.18l.1,0,0,0h-.1l-.17-.05a1.08,1.08,0,0,0-.4,0,2.1,2.1,0,0,1-1.14-.1c-.1-.05-.18.09-.09.14s.11.22-.05.28a.62.62,0,0,1-.33,0,1.15,1.15,0,0,1-.61-.28c-.05-.07-.14,0-.17,0s-.42.12-.56.11-.45-.07-.68-.07-.42,0-.63,0l.09-.11a.1.1,0,0,0,0-.12c-.12-.16-.59-.31-.58,0a.51.51,0,0,0,0,.13h0c-.11,0-.18.13-.08.19h0c-.27.35-.79.06-1.16,0s-1.06.3-1.48,0a.09.09,0,0,0-.14,0,.56.56,0,0,1-.25.15c.12-.14,0-.31-.14-.36s-.52.17-.37.39a.47.47,0,0,1-.21,0,.5.5,0,0,0-.05-.13.1.1,0,0,0-.19.05.31.31,0,0,0,.05.17c0,.15-.32.15-.47.13s-.48-.08-.46-.22a.26.26,0,0,0,.05-.09c.05-.09-.07-.2-.15-.12a.59.59,0,0,0-.08.11.76.76,0,0,1-.64.13,1.12,1.12,0,0,1-.37-.09c-.07,0-.14-.07-.11-.12s-.07-.19-.15-.11l0,0a.2.2,0,0,0,0-.07.23.23,0,0,0-.15-.23.26.26,0,0,0-.31.13.09.09,0,0,0,0,.1l.1.12h0c-.1,0-.19,0-.28,0a.7.7,0,0,0-.39.15.59.59,0,0,1-.47.05c-.16,0-.34-.11-.32-.3s-.16-.13-.18,0c-.05.36-.58.15-.82.17s-.55.25-.78.07-.19-.3-.4-.37c-.06,0-.12,0-.12.09s-.21.19-.37.11h0a.11.11,0,0,0,0-.12.54.54,0,0,0-.27-.2.09.09,0,0,0-.12.1.36.36,0,0,0,.06.2.87.87,0,0,1-.36,0l-.26,0a.61.61,0,0,0-.18.05c-.07,0-.07,0-.1,0s0-.05,0-.07a.43.43,0,0,0-.09-.1c-.11-.11-.18-.11-.32,0a.1.1,0,0,0,0,.17c.05,0,.12.05.1.11s-.13.09-.17.11a.57.57,0,0,1-.54,0c-.05,0-.13,0-.16,0-.12.26-.6.12-.57-.16a.06.06,0,0,0,0,0c0-.1-.16-.13-.18,0v0h0c0,.26-.45.14-.55,0a.1.1,0,0,0-.18,0c-.07.23-.35.18-.55.11h0c.1-.21,0-.45-.24-.44a.38.38,0,0,0-.27.14.3.3,0,0,0-.07.32l0,0c-.15,0-.29-.09-.29-.24s-.18-.15-.2,0-.37.26-.34,0c0-.05-.05-.09-.1-.1-.28,0-.5-.24-.79-.24s-.57.18-.7-.07a.1.1,0,0,0-.16,0,.68.68,0,0,1-.56.19h0a.55.55,0,0,1,.22-.1.55.55,0,0,0,.18,0,.08.08,0,0,0,0-.16.4.4,0,0,0-.15,0,.29.29,0,0,1-.25-.16.29.29,0,0,0,0-.09c0-.08-.18-.08-.17,0v0h0c.06.16-.38.13-.37,0l0-.08c0-.15-.17-.2-.23-.07-.16.38-.76.09-1-.06a.11.11,0,0,0-.17.1c0,.31-.46.18-.54,0a.07.07,0,0,0-.06,0,1.24,1.24,0,0,0-.33,0,.06.06,0,0,0,0,.08.2.2,0,0,1,0,.09c-.2.07-.86.15-.78-.2,0-.11-.14-.16-.17-.05s-.19.1-.28.07-.21-.11-.05-.18,0-.11,0-.09h0a.31.31,0,0,0,.06-.28c-.09-.29-.38-.28-.58-.15a.36.36,0,0,0,0-.09.84.84,0,0,0,.29-.2c.15-.18.17-.42-.09-.5-.1,0-.17.13-.07.17s.07.2,0,.29a.68.68,0,0,1-.22.12.41.41,0,0,0-.36,0h0a.25.25,0,0,1,.08-.21l0,0s.11,0,.09-.05,0-.1-.09-.14a.11.11,0,0,0-.08,0,.38.38,0,0,0-.19.33.33.33,0,0,0-.17,0c-.11,0-.18.12-.28.16a1,1,0,0,1-.46,0,.94.94,0,0,0-.24.06c0-.09-.07-.16-.18-.13a.46.46,0,0,0-.25.31.2.2,0,0,0,.2.25.47.47,0,0,0,.31-.23.52.52,0,0,0,.31.35.3.3,0,0,0,.37-.14c.22.36.8.51,1,.11a.82.82,0,0,0,.44,0c-.05.09,0,.2.12.28a.49.49,0,0,0,.39,0c.1.3.63.28.93.17h0a.71.71,0,0,0-.13.12c0,.05,0,.13.06.11a.32.32,0,0,0,.13-.07.38.38,0,0,0,.22.17.3.3,0,0,0,.38-.22.07.07,0,0,0,0-.07.47.47,0,0,0-.48-.12.26.26,0,0,0,0-.15.75.75,0,0,1,.21,0,.47.47,0,0,0,.79.11c.31.19.77.34,1.05.14a.5.5,0,0,0,.64.05.27.27,0,0,0,.08.07c-.22.13-.39.34-.23.57a.27.27,0,0,0,.37,0,.2.2,0,0,0,0-.27,1.12,1.12,0,0,0,.44-.13c.15.21.43.16.68.13a.85.85,0,0,1,.44.07,1.14,1.14,0,0,0,.4.11.35.35,0,0,0,.6.22.68.68,0,0,0,.83.1.91.91,0,0,0,.29.08.5.5,0,0,0,.53-.16.6.6,0,0,0,.65.06.52.52,0,0,0,.82.13.78.78,0,0,0,.77,0,.42.42,0,0,0,.17-.18.23.23,0,0,0,.16.11c.08,0,.13,0,.2-.06a1.63,1.63,0,0,1,.54,0,.88.88,0,0,0,.29-.07c.23.17.61.18.71-.08a1.77,1.77,0,0,1,.17.2.46.46,0,0,0,.28.17c.28,0,.51-.16.78-.14s.6.09.78-.07a.67.67,0,0,0,.43.25.94.94,0,0,0,.41,0c.13-.05.23-.16.37-.19s.34.06.51,0l.08,0,.14,0c.08.16.39.25.54.28a1.35,1.35,0,0,0,.79-.07,1,1,0,0,0,.6.27.9.9,0,0,0,.56-.08.29.29,0,0,0,.11-.14,1,1,0,0,0,.41,0,.78.78,0,0,0,.66-.15c.49.32,1.06-.06,1.59.06s1,.35,1.33-.18h.09a1.37,1.37,0,0,0,.59.07,3.08,3.08,0,0,1,.43,0l.54.06a.88.88,0,0,0,.68-.13,1.4,1.4,0,0,0,.95.28.46.46,0,0,0,.38-.26.17.17,0,0,0,0-.12,1.69,1.69,0,0,0,.55.05l.46,0a1.43,1.43,0,0,1,.36.06c.17,0,.37.07.46-.12,0,0,0,0,0-.06a.28.28,0,0,0,.2-.12.89.89,0,0,0,.44-.23,1.21,1.21,0,0,0,.52.12.64.64,0,0,0,.43-.14c.25.24,1,.2,1-.16a1,1,0,0,0,.25,0c.16,0,.32-.06.49-.06s.45.14.66.08a.68.68,0,0,0,.69.18c.26-.11.26-.61.24-.85a.39.39,0,0,0-.06-.2.48.48,0,0,0,.37-.39.51.51,0,0,0,.56-.16.54.54,0,0,0,.1-.2c.23,0,.47-.06.5-.31S483.94,450.28,483.77,450.31ZM474,446.8h-.06l0,0Zm.21,0,0-.07.07,0Zm.18.14c0,.08-.07,0-.06,0s0-.05,0-.07S474.38,446.93,474.36,447Zm1.39,1c-.06.16-.29.09-.31-.05a.22.22,0,0,1,.1-.18l.06,0A.21.21,0,0,1,475.75,447.94Zm2.4,0c0,.09-.08.16-.15.08a.16.16,0,0,1,0-.07s.08,0,.1,0h.09Zm-32.27,3.61a.29.29,0,0,1,.11-.18c.1-.1.09,0,.08.09s0,.06.05.07S445.9,451.7,445.88,451.55Zm2.1.1a.09.09,0,0,0-.1,0c-.18.4-.73.16-.81-.2a.09.09,0,0,0-.16,0c0,.14-.12.3-.28.22a.39.39,0,0,1-.22-.28,2.14,2.14,0,0,0,.44-.08c.2-.09.34-.33.57-.15a.08.08,0,0,0,.1,0l0,0a.66.66,0,0,0,.34,0,.2.2,0,0,1,.05.17.07.07,0,0,0,.12.05c.11-.12.38-.23.43,0S448.11,451.68,448,451.65Zm2.42.79c-.08.18-.26.1-.35-.05A.32.32,0,0,1,450.4,452.44Zm2.4.52c-.14,0-.15-.14-.1-.22l.06-.06a.06.06,0,0,0,0,.07C452.84,452.81,452.93,452.93,452.8,453Zm3.43.15a.28.28,0,0,1-.13,0s0-.06,0,0a.09.09,0,0,0,0-.13c0-.06.14-.12.19-.09S456.29,453.08,456.23,453.11Zm9-.07h0l-.06-.06S465.29,453,465.28,453Zm3.16.28c-.23-.17.22-.24.22-.12s0,0,0,.06l-.17.07Zm3.81-.36-.09.06s-.09-.1-.08-.11S472.19,452.91,472.25,453Zm5.37-.23a.08.08,0,0,1-.09-.06Zm4-1.72c.15-.14.34-.08.37.09h0C481.9,451.12,481.4,451.22,481.62,451Zm1.94-.24,0,0a.24.24,0,0,0,0-.16.22.22,0,0,1,.16-.09C483.87,450.66,483.72,450.78,483.56,450.77Z" transform="translate(-316.77 -357.51)"/><path class="cls-3" d="M451.35,449c0-.05,0-.15-.09-.1-.24.17-.57.15-.77.35a.22.22,0,0,0-.29.05.55.55,0,0,0-.65.25.48.48,0,0,0-.1.28,1.19,1.19,0,0,0-.54.11.43.43,0,0,0-.24.29.53.53,0,0,0-.35,0,.54.54,0,0,0-.41.47c0,.08.1.07.11,0a.47.47,0,0,1,.67-.29.57.57,0,0,0,.1.13c.07.05.2,0,.14-.11l0-.05c-.19-.26.36-.4.65-.33a.26.26,0,0,0,.14.06.1.1,0,0,0,.07-.18l-.11-.06c0-.07,0-.19.09-.25a.33.33,0,0,1,.45-.12.1.1,0,0,0,.12,0,.11.11,0,0,1,.09-.05l0,0a.26.26,0,0,0,0,.3c.1.1.25,0,.36,0a.11.11,0,0,0,0-.11.62.62,0,0,0-.17-.26l.05,0C450.89,449.17,451.18,449.22,451.35,449Zm-.82.54v0l.06.09C450.55,449.63,450.52,449.62,450.53,449.55Z" transform="translate(-316.77 -357.51)"/><path class="cls-3" d="M455.32,452.57a.3.3,0,0,0,.29-.1.25.25,0,0,0,.07-.27c-.09-.13-.32-.07-.44,0a.08.08,0,0,0,0,.13A.24.24,0,0,0,455.32,452.57Zm.19-.25,0,0c-.09.1-.12.06-.13,0Z" transform="translate(-316.77 -357.51)"/><path class="cls-3" d="M458,448.33l.23,0a.1.1,0,0,0,0-.2c-.2,0-.51.1-.53.29a.31.31,0,0,0-.3.24c-.26-.12-.6-.15-.76.07a.59.59,0,0,0-.79.49.45.45,0,0,0,0,.16.9.9,0,0,0-.29.16.3.3,0,0,0-.11.18,1.16,1.16,0,0,0-.44.24.68.68,0,0,0-.23.47.45.45,0,0,0,.4.36,0,0,0,0,0,0-.08c-.13-.05-.28-.14-.26-.3a.55.55,0,0,1,.18-.3,1,1,0,0,1,.37-.22.45.45,0,0,0,.15.16.1.1,0,0,0,.14-.08.25.25,0,0,0-.14-.24c0-.05.08-.1.16-.14l.13-.06a.31.31,0,0,0,.11.09c.16.06.22-.09.24-.22s0-.07-.07-.07a.66.66,0,0,0-.2,0v0a.3.3,0,0,1,.07-.27.38.38,0,0,1,.53-.11.09.09,0,0,0,.14,0c.08-.23.42-.14.63,0a.22.22,0,0,0,.22.14.08.08,0,0,0,.07-.13.44.44,0,0,0-.14-.13.11.11,0,0,1,0-.06c.05-.11.13-.11.22,0s.2,0,.14-.11S457.89,448.37,458,448.33Z" transform="translate(-316.77 -357.51)"/><path class="cls-3" d="M461.5,445.48a.07.07,0,1,0-.07-.11.61.61,0,0,0-.42.47.5.5,0,0,0-.52.29.39.39,0,0,0,0,.35.56.56,0,0,0-.49.46l-.06,0a.69.69,0,0,0-.74-.13.47.47,0,0,0-.3.4c0,.2.15.28.32.25a.45.45,0,0,0,.23.08.53.53,0,0,0,.55-.31c0,.08.19.07.18,0a.44.44,0,0,1,.57-.49.1.1,0,0,0,.05-.19c-.37-.11,0-.56.27-.46.05,0,.11,0,.1-.08C461.16,445.7,461.33,445.61,461.5,445.48Zm-2.36,1.82c-.1-.05-.06-.19,0-.28a.39.39,0,0,1,.14-.08h0A.38.38,0,0,0,459.14,447.3Zm.61,0c-.1.1-.54.13-.41-.1a.47.47,0,0,1,.47-.11C459.85,447.1,459.85,447.18,459.75,447.26Z" transform="translate(-316.77 -357.51)"/><path class="cls-3" d="M472.72,447.24a.33.33,0,0,0-.21.11.67.67,0,0,0-.36-.28.44.44,0,0,0-.49.11.87.87,0,0,0-.77-.27,1.14,1.14,0,0,0-.25.06l-.09-.08a.74.74,0,0,0-.62-.17.64.64,0,0,0-1.12-.11.07.07,0,1,0,.12.07c.2-.34.86-.17.85.15a.37.37,0,0,0-.09.2c0,.07.08.15.14.08a.53.53,0,0,0,.11-.21c.12-.09.33,0,.47.09l.06.05a.3.3,0,0,0-.14.45.09.09,0,0,0,.08,0c.15,0,.37,0,.39-.24a.45.45,0,0,0-.05-.19l.19,0c.23,0,.62,0,.6.33,0,.1.14.11.17,0,.13-.37.57-.19.7.09a.28.28,0,0,0,0,.21.08.08,0,0,0,.15,0,.77.77,0,0,0,0-.15.19.19,0,0,1,.17-.12c.18,0,.18.15.17.28s.14.12.17,0C473.17,447.46,473,447.19,472.72,447.24Zm-2.09,0c0,.1-.09.12-.17.12s0-.16.13-.2A.2.2,0,0,1,470.63,447.24Z" transform="translate(-316.77 -357.51)"/><path class="cls-3" d="M473.83,449.82a1.52,1.52,0,0,0-.57-.37,1.29,1.29,0,0,0-.51-.1.33.33,0,0,0-.39-.2.64.64,0,0,0-1.1,0c0,.06.05.1.09,0,.21-.27.79-.3.84.12a.1.1,0,0,0,.12.1c.09,0,.19-.05.23,0l-.11.05a.11.11,0,0,0,0,.14c.05.09.13.19.24.15a.2.2,0,0,0,.13-.18,1.26,1.26,0,0,1,1,.51.1.1,0,0,0,.18-.05c.05-.45,1,0,1.23.1s.13-.05.09-.11.34-.43.52-.33l.09.13c.07.08.19,0,.17-.1a.28.28,0,0,0-.08-.15c-.05-.16.16-.25.34-.26a.63.63,0,0,1,.3,0,.46.46,0,0,1,.17.09s0,0,0,0l-.12.07a.1.1,0,0,0,0,.13c.12.23.4.19.4-.08h0a.71.71,0,0,1,.71.16.1.1,0,0,0,.14,0c.32-.17.53.13.85.12.16,0,.29-.11.45-.1a1.4,1.4,0,0,1,.53.27.1.1,0,0,0,.1-.18,2.13,2.13,0,0,0-.54-.28c-.2-.05-.34.05-.53.07s-.33-.11-.49-.15a.58.58,0,0,0-.41,0,.94.94,0,0,0-.85-.18.67.67,0,0,0-.48-.3.78.78,0,0,0-.65.13.34.34,0,0,0-.14.24c-.29,0-.67.16-.66.43C474.69,449.7,474.08,449.52,473.83,449.82Z" transform="translate(-316.77 -357.51)"/><path class="cls-3" d="M480.11,450.73c.19.08.33-.11.37-.26a.13.13,0,0,0,0-.12.43.43,0,0,0-.39-.11.11.11,0,0,0-.08.12.1.1,0,0,0,.06.08.19.19,0,0,0,0,.13A.18.18,0,0,0,480.11,450.73Zm.06-.17Zm0,0Zm.05,0h-.06s0-.05,0-.07l.05,0h0v0Z" transform="translate(-316.77 -357.51)"/><path class="cls-3" d="M479.63,449.44a.1.1,0,0,0-.05.07l-.05,0c-.07-.07-.17,0-.11.11a.39.39,0,0,0,.55.07.11.11,0,0,0,0-.15C479.91,449.35,479.78,449.37,479.63,449.44Z" transform="translate(-316.77 -357.51)"/><path class="cls-3" d="M444.91,451.43a.28.28,0,0,0-.16.12.23.23,0,0,0-.07.07.19.19,0,0,0,0,.22.26.26,0,0,0,.25.08.43.43,0,0,0,.26-.25.11.11,0,0,0,0-.13A.3.3,0,0,0,444.91,451.43Zm0,.31h-.08l.06-.05a.1.1,0,0,1,.06-.05h0A.2.2,0,0,1,444.93,451.74Z" transform="translate(-316.77 -357.51)"/><path class="cls-3" d="M445.48,450.69a.09.09,0,0,0-.09.07s0,0-.06,0a.45.45,0,0,0-.15.21.09.09,0,0,0,0,.07.32.32,0,0,0,.43,0,.22.22,0,0,0,.06-.19C445.66,450.72,445.57,450.69,445.48,450.69Zm-.15.25a.24.24,0,0,1,.06-.11.07.07,0,0,0,.07.06l-.08.05Z" transform="translate(-316.77 -357.51)"/><path class="cls-3" d="M447.66,452.29h-.06a0,0,0,0,0-.06,0c-.12,0-.25.14-.22.29a.29.29,0,0,0,.24.22.3.3,0,0,0,.32-.23C447.9,452.42,447.75,452.31,447.66,452.29Zm-.05.29a.12.12,0,0,1-.1,0l0,0a.18.18,0,0,1,.12-.05l.06,0S447.64,452.58,447.61,452.58Z" transform="translate(-316.77 -357.51)"/><path class="cls-3" d="M451.69,452.78a.1.1,0,0,0,0,.13l0,0,0,0a.36.36,0,0,0,0,.09.11.11,0,0,0,0,.12.29.29,0,0,0,.41-.39A.3.3,0,0,0,451.69,452.78Zm.2.18Zm0,.05h0v0l0,0h-.08a.21.21,0,0,1,.09-.1h0v0h0Zm0,0Zm0,0Z" transform="translate(-316.77 -357.51)"/><path class="cls-3" d="M451.89,453Z" transform="translate(-316.77 -357.51)"/><polygon class="cls-4" points="153.7 100.76 153.7 100.76 153.7 100.76 153.7 100.76"/><polygon class="cls-4" points="153.71 100.76 153.71 100.76 153.7 100.76 153.7 100.76 153.71 100.76"/><path class="cls-4" d="M478.21,459.27a.57.57,0,0,0-.13-.42,1.44,1.44,0,0,0-1.08-.5c-.32,0-.64,0-1,.06a3.07,3.07,0,0,1-.34,0c-.14-.33-.42-.65-.52-.95a.55.55,0,0,1,0-.34V457h0v0h.14l.39.08a1.88,1.88,0,0,0,.94.06,1.7,1.7,0,0,0,.81-.44,1,1,0,0,0,.41-.84.74.74,0,0,0-.45-.62.94.94,0,0,0-.4-1,5.48,5.48,0,0,0-1.27-.38,8.42,8.42,0,0,0-1.41-.4,1.64,1.64,0,0,0-.73,0,1.17,1.17,0,0,0-.64.58,5,5,0,0,1-.68,1.22l0,0-.05,0a2,2,0,0,1-.35.05l-1.12.1a14.21,14.21,0,0,0-4.05.63,10.79,10.79,0,0,0-3.46,2.28.35.35,0,0,0,.34.57,8.77,8.77,0,0,1,1.7-.19c.3-.06.59-.19.89-.27a3.35,3.35,0,0,1,1-.07c.35,0,.7-.08,1.06-.06s.57.06.85.09a2,2,0,0,0,.81,0c.18-.05.34-.13.52-.18h.05l0,.08,0,0-.07.09a2.16,2.16,0,0,1-.44.37,4.71,4.71,0,0,1-.48.29,17.17,17.17,0,0,0-2.71,1.67,3.55,3.55,0,0,0-1.45,3.16.39.39,0,0,0,.41.39,6.72,6.72,0,0,0,2.27-.85,23.63,23.63,0,0,1,2.47-.93c.45-.16.89-.34,1.33-.53a4.62,4.62,0,0,1,1.06-.43H473l.45.11,1.13.28a9.57,9.57,0,0,0,2.76.37.41.41,0,0,0,.38-.3,7.85,7.85,0,0,0,.62-2.6A.22.22,0,0,0,478.21,459.27Zm-7.7-1Zm0,0h0s0,0,0,0Zm0,0Zm0,0Zm0,0h0Zm0,0h0Zm0,0h0Zm5.13.09h0C475.53,458.36,475.54,458.34,475.58,458.36Zm-.39-1.36Zm-4.74,1.3h0S470.45,458.32,470.45,458.3Z" transform="translate(-316.77 -357.51)"/><polygon class="cls-4" points="153.7 100.76 153.7 100.77 153.7 100.76 153.7 100.76"/><polygon class="cls-4" points="153.7 100.76 153.7 100.76 153.7 100.76 153.7 100.76 153.7 100.76"/><path class="cls-5" d="M495.43,458.09a1.67,1.67,0,0,0-1.8-.16c-.66.24-1.26.61-1.92.85a16.25,16.25,0,0,1-5.08.89,18.73,18.73,0,0,1-4.48-.39,15.12,15.12,0,0,0-1.64-.26,3.12,3.12,0,0,0-1.52.12,1,1,0,0,0-.47.37,2,2,0,0,0-1,1.05,3.36,3.36,0,0,0-.4,1.81,1.08,1.08,0,0,0,.7,1,2.16,2.16,0,0,0,1-.09,2.33,2.33,0,0,1,.81.13,8.37,8.37,0,0,0,1.12.15,4.21,4.21,0,0,0,1.06-.07,6.92,6.92,0,0,0,1.08-.38,2.45,2.45,0,0,1,1.2-.15c.43,0,.86.15,1.29.21a12.94,12.94,0,0,0,5.13-.57c.43-.11.86-.22,1.27-.37a6.94,6.94,0,0,0,1.26-.6,8.7,8.7,0,0,0,1.56-1.05C495.2,460,496.2,458.86,495.43,458.09Z" transform="translate(-316.77 -357.51)"/><path class="cls-5" d="M478,454.66a1.47,1.47,0,0,0,.8-.63,10.92,10.92,0,0,1,.73-.92c.54-.63,1.13-1.21,1.72-1.79.32-.3.64-.6.93-.92s.54-.64.81-1,.57-.66.84-1,.52-.71.76-1.07c.37-.56.73-1.13,1.09-1.69a6.93,6.93,0,0,0,1.18-2.61,1.82,1.82,0,0,0-.26-1.33,1,1,0,0,0-1.5-.27,2.31,2.31,0,0,0-.41.65c-.13.29-.25.58-.35.88a1.8,1.8,0,0,1-.39.78,3.1,3.1,0,0,1-.87.49c-.7.35-.82,1.07-1,1.77a1.58,1.58,0,0,1-.32.78,1.53,1.53,0,0,1-.56.34,3,3,0,0,0-1.43.8,3.88,3.88,0,0,0-.5,1,1.42,1.42,0,0,1-.69.7,8.32,8.32,0,0,1-1.08.42,6.49,6.49,0,0,0-1,.47,6.82,6.82,0,0,0-1.69,1.38,4,4,0,0,0-.73.95l-.07,0a.53.53,0,0,0-.29.35.59.59,0,0,0,.49.7,2.37,2.37,0,0,0,1.36.56,1.85,1.85,0,0,0,1,0l.06,0A2.06,2.06,0,0,0,478,454.66Z" transform="translate(-316.77 -357.51)"/><path class="cls-3" d="M496,458.73c-.05-.59-.82-.78-1.3-.74a10,10,0,0,0-2,.62c-.85.27-1.72.44-2.6.63s-1.73.46-2.62.57a20.16,20.16,0,0,1-2.46.11c-.95,0-1.89-.07-2.84-.16a6.64,6.64,0,0,1-1.18-.22,8.51,8.51,0,0,0-1.11-.26,1.84,1.84,0,0,0-.9.07,1.45,1.45,0,0,0-.34.2.14.14,0,0,0-.17.05c-.07.09-.13.19-.19.28a.84.84,0,0,0-.12-.68,1.34,1.34,0,0,0-1.08-.48,5.34,5.34,0,0,0-1.32.14c-.26-.43-.5-.88-.77-1.3h0c0-.36.34-.63.54-.89h0a1.93,1.93,0,0,0,1.51,0c.23-.11.51-.32.44-.61,0,0,0,0,0-.05.28-.14.29-.44.09-.71a.67.67,0,0,0-.14-.15,1.1,1.1,0,0,0,0-.18.28.28,0,0,0,0-.13.62.62,0,0,0,.49-.12h0c.08.05.14,0,.14-.1l.19-.15a11.55,11.55,0,0,0,1.34-1.37c1.19-1.38,2.37-2.77,3.5-4.19.59-.75,1.19-1.49,1.75-2.26a13.16,13.16,0,0,0,1.81-3.12c.27-.74.39-1.76-.49-2.13-1.42-.58-1.55,1.51-1.92,2.34a1.16,1.16,0,0,1-.65.6,2,2,0,0,0-1,.86c-.38.73-.06,1.92-1,2.26a4.52,4.52,0,0,0-1.28.49,4.42,4.42,0,0,0-.94,1.28,1.87,1.87,0,0,1-1.11.77,6.84,6.84,0,0,0-1.37.57,15,15,0,0,0-1.79,1.19,3.27,3.27,0,0,0-1.21,1.32.76.76,0,0,0,0,.29l0,0a17.45,17.45,0,0,0-1.6,2.23,11.19,11.19,0,0,0-1.83-.14,10,10,0,0,0-6.39,1.92,2.36,2.36,0,0,0-.76.78.35.35,0,0,0,.37.52,7.47,7.47,0,0,0,1-.31c.19,0,.37.08.57.06s.49-.28.77-.29.52,0,.79,0,.53-.05.79-.09a6.59,6.59,0,0,1,.88-.1c.29,0,.53.16.81.19s.42-.12.66-.17a1.3,1.3,0,0,1,.75.09c-.92,1-2.34,1.4-3.36,2.32a6.12,6.12,0,0,0-1.74,2.41,1.71,1.71,0,0,0,0,1.35.14.14,0,0,0,.16.06,7.55,7.55,0,0,0,1.8-.78c.64-.3,1.33-.45,2-.68,1.16-.41,2.24-1,3.42-1.3l.16,0a29.42,29.42,0,0,0,3.62.75l.67.09c0,.36.17.76.61.69a1.85,1.85,0,0,0,.4-.12,1,1,0,0,1,.51,0c.41.07.81.16,1.22.2a5.44,5.44,0,0,0,1.21,0,7,7,0,0,0,1.12-.27,12,12,0,0,1,2.61-.16,33.81,33.81,0,0,0,5.47-.85,11.74,11.74,0,0,0,4.81-2C495.57,459.58,496,459.2,496,458.73Zm-18.68,3.1a.47.47,0,0,1,.06-.15,1.13,1.13,0,0,0,0,.18l0,.2h0S477.27,461.91,477.3,461.83Zm-1.55-2.28a.37.37,0,0,1,0-.16h.05a.52.52,0,0,1,.3.12.35.35,0,0,1,.07.29.2.2,0,0,1-.22.17s0,0-.06-.07-.05,0-.07,0a.7.7,0,0,1-.13-.26A.08.08,0,0,0,475.75,459.55Zm-1.84-4.26a.71.71,0,0,1,.37-.29,2.76,2.76,0,0,1,1.1-.21,3.42,3.42,0,0,1,1.48.31,1.23,1.23,0,0,1,.25.17,1.59,1.59,0,0,0-.06.37l-.12-.07a5.29,5.29,0,0,0-1.77-.51c-.37-.05-1,0-1.19.32a.64.64,0,0,0-.1.13A.35.35,0,0,1,473.91,455.29Zm.26.48a.69.69,0,0,1,.73-.18c.24.16.33.7-.08.59a.11.11,0,0,0-.14.13,1.1,1.1,0,0,1-.5-.5S474.18,455.78,474.17,455.77Zm1.14.33a.62.62,0,0,0-.1-.53.63.63,0,0,0-.48-.26.94.94,0,0,1,.34,0,.55.55,0,0,1,.41.43A.43.43,0,0,1,475.31,456.1Zm1.55.37a1.94,1.94,0,0,1-1.47-.11.66.66,0,0,0,.17-1,6,6,0,0,1,1,.32,1.21,1.21,0,0,1,.53.34C477.29,456.24,477,456.39,476.86,456.47Zm.46-.66a.63.63,0,0,1,0-.36C477.41,455.59,477.46,455.73,477.32,455.81Zm-1.05-1.15a3.76,3.76,0,0,0-1.25-.09,2.26,2.26,0,0,0-1.1.37.67.67,0,0,0-.1,1l0,0c0,.39.39.59.79.62a1.34,1.34,0,0,0,.5.14,1.57,1.57,0,0,0-.35.61,4,4,0,0,0-1.25-1.16,3.82,3.82,0,0,0-.72-.31,9.06,9.06,0,0,1,1.24-2,2.77,2.77,0,0,0,.78.33l.64.25a6.17,6.17,0,0,0,1.12.3,1.43,1.43,0,0,1,.47.14.18.18,0,0,1,.1.15A2.29,2.29,0,0,0,476.27,454.66Zm-3.7,1.11-.19-.07a10.16,10.16,0,0,1,.84-1.22A11.13,11.13,0,0,0,472.57,455.77Zm2.1-3.36a9.43,9.43,0,0,1,1.31-1,11.72,11.72,0,0,1,1.32-.78c.42-.2.87-.31,1.29-.48a1.85,1.85,0,0,0,.9-.73,3.92,3.92,0,0,1,1-1.32,6.54,6.54,0,0,1,1.2-.41,1.35,1.35,0,0,0,.75-.85c.12-.37.12-.77.21-1.16a1.51,1.51,0,0,1,.81-1,2,2,0,0,0,.83-.56,2.55,2.55,0,0,0,.3-.7,4.05,4.05,0,0,1,.63-1.63.75.75,0,0,1,1.1.14,1.17,1.17,0,0,1,.14,1,8.32,8.32,0,0,1-1.43,2.89c-.59.86-1.24,1.68-1.9,2.49-1.07,1.31-2.15,2.6-3.23,3.9-.31.39-.62.77-.95,1.15a5.93,5.93,0,0,1-1.24,1.16h0l-.46-.06a7.45,7.45,0,0,1-.94-.19c-.37-.1-.74-.17-1.11-.27s-.73-.32-1.09-.5h0C473.84,453.13,474.44,452.61,474.67,452.41Zm-8.23,9.21a8.3,8.3,0,0,1,.94-1,8,8,0,0,1,1.43-.93,6.66,6.66,0,0,0,1.91-1.38c-.08.36-1.29,1.24-1.42,1.33l-.93.64a7.62,7.62,0,0,0-1.45,1.33,2.86,2.86,0,0,0-.64,1.07,5.27,5.27,0,0,1-.43,1.19l0,0-.16.05C465.34,463.17,466,462.2,466.44,461.62Zm4.69.15c-.59.24-1.17.51-1.76.72s-1.34.4-2,.68c-.42.19-.81.43-1.23.61a6.48,6.48,0,0,0,.29-.88,3,3,0,0,1,.63-1.16,7.62,7.62,0,0,1,1.48-1.36c.35-.24.72-.48,1.07-.73a7.66,7.66,0,0,0,1.07-.89,1,1,0,0,0,.25-.43,1.54,1.54,0,0,1,.51,1.21c0,.43-.11.9.18,1.27a1.93,1.93,0,0,0,.82.54A6.85,6.85,0,0,0,471.13,461.77Zm2.92-.3a11,11,0,0,1-1.59-.44,1.5,1.5,0,0,1-.6-.41.88.88,0,0,1-.13-.55,2.75,2.75,0,0,0-.2-1.45,1.65,1.65,0,0,0-1-.83,1.74,1.74,0,0,0-.75-.06,2.68,2.68,0,0,0-.3.12.59.59,0,0,1-.45,0,2.38,2.38,0,0,0-.64-.15,3.84,3.84,0,0,0-.83.09A12,12,0,0,1,466,458a1,1,0,0,0-.57.18.64.64,0,0,1-.44.11c-.11,0-.21-.06-.31-.07a4,4,0,0,0-.95.28c-.07,0-.27.08-.31,0s.2-.35.27-.41a8.9,8.9,0,0,1,5.73-2.19,15.1,15.1,0,0,1,1.78,0,5.68,5.68,0,0,1,1.82.37,3.54,3.54,0,0,1,1.5,1.18c.4.53.68,1.13,1,1.68a.14.14,0,0,0,.17.07l.13,0a.29.29,0,0,0-.1,0,.28.28,0,0,0-.19.19c-.31-.14-.64-.17-1-.29a.8.8,0,0,1-.24-.14.71.71,0,0,0-.06-.24,1.1,1.1,0,0,0-.59-.61,1.07,1.07,0,0,0-1.37.24,1,1,0,0,0,0,1.39,1.32,1.32,0,0,0,1.46.18,1,1,0,0,0,.6-.76,1,1,0,0,0,.25.12,5.82,5.82,0,0,1,.92.3,1.43,1.43,0,0,0,0,.22.52.52,0,0,0,.45.4.4.4,0,0,0,.36-.19.33.33,0,0,0,.1-.42,1,1,0,0,0-.15-.2.63.63,0,0,0-.26-.2.36.36,0,0,0-.2,0A5.3,5.3,0,0,1,477,459c.42,0,1,.13,1.06.64a1.32,1.32,0,0,1-.2.7l-.27.56a6.9,6.9,0,0,0-.41.87.64.64,0,0,0,0,.27A28.87,28.87,0,0,1,474.05,461.47Zm.05-2.45c0,.4-.35.65-.69.74a1,1,0,0,1-1.07-.32.6.6,0,0,1-.08-.16.86.86,0,0,0,.3.05.08.08,0,0,0,.07,0,.83.83,0,0,0,.73.18.6.6,0,0,0,.46-.5.76.76,0,0,0-.44-.68.85.85,0,0,0-.24-.08h.19a.7.7,0,0,1,.35.12,2.55,2.55,0,0,1,.26.38,1,1,0,0,0,.15.2S474.1,459,474.1,459Zm-1.43,0c0-.37.24-.78.65-.53.17.11.36.32.26.54a.43.43,0,0,1-.41.24A.71.71,0,0,1,472.67,459.06Zm-.24.06h0a.1.1,0,0,0-.17-.07.73.73,0,0,1,.09-.35.28.28,0,0,0,0,.09A.82.82,0,0,0,472.43,459.12Zm23,.15a5.93,5.93,0,0,1-1.64,1.11,11.72,11.72,0,0,1-2.37.91c-.82.23-1.67.37-2.5.55s-1.73.36-2.61.47a20.49,20.49,0,0,1-2.6.12,5.39,5.39,0,0,0-1.13.09c-.34.07-.67.2-1,.28a5.33,5.33,0,0,1-2.35-.06,1.88,1.88,0,0,0-.94-.07c-.18.05-.49.24-.64,0a.52.52,0,0,1-.06-.35c.11,0,.14-.2.05-.25a4.27,4.27,0,0,1,.18-.61c.18-.46.41-.91.63-1.35a2,2,0,0,0,.13-.25,1.4,1.4,0,0,1,.66-.34,5.17,5.17,0,0,1,2.05.34,8.69,8.69,0,0,0,1.14.16c.44,0,.89.08,1.33.1a19.14,19.14,0,0,0,4.72-.25c.82-.17,1.64-.38,2.47-.55a16.93,16.93,0,0,0,2.41-.68,3.47,3.47,0,0,1,1.78-.37c.22.05.54.2.56.45A.71.71,0,0,1,495.41,459.27Z" transform="translate(-316.77 -357.51)"/><path class="cls-6" d="M378.77,411.56l-.77-.13c-.46-.17-.89-.48-1.41-.19l-.93-.12c-.09-.16-.2-.17-.31,0h-.28c-.08-.29-.28-.3-.52-.24l-.76,0c-.14-.2-.3-.2-.47,0H373c-.17-.43-.52-.24-.82-.26l-.46,0a.4.4,0,0,0-.62,0h-.28a1.33,1.33,0,0,0-1.43-.3h-.59c-.46-.46-1.06-.34-1.61-.38l-.76,0c-.12-.2-.3-.17-.48-.14h-.3c-.17-.24-.41-.16-.64-.14l-.61,0a1.8,1.8,0,0,0-1.26-.27l-.76,0c-.15-.2-.3-.2-.47,0h-.28c-.17-.43-.53-.24-.82-.26l-.61,0a2.26,2.26,0,0,0-1.42-.28l-.45,0a.8.8,0,0,0-.94-.05h-.28c-.23-.45-.64-.21-1-.25-2.41-.25-4.82-.52-7.21-.91-2.65-.43-5.31-.77-8-1.17l-7.4-1.16c-1.89-.29-3.77-.58-5.66-.85a7,7,0,0,1-1.2-.27c0-.35.28-.4.52-.48l17-5.59q6.14-2,12.25-4.06a3.93,3.93,0,0,1,1.7-.13l7.34.83c.12.28.3.22.5.08L371,395c.08.2.17.24.29,0l6.38.7c.17.32.38.32.62.08l.35,0c.1.45.53.31.77.32,1,.07,1.95.5,2.94.11l.33,0c.05.34.33.26.54.28l3,.37a2.34,2.34,0,0,0,1.63-.06l.63.05a2.86,2.86,0,0,0,2.32.26l.34.05c.76.73,1.67.4,2.54.32l.27,0a3.15,3.15,0,0,0,2.46.24l.33,0c.36.48.92.36,1.39.42,1.92.23,3.84.42,5.76.66a4.24,4.24,0,0,0,2.18,0l.48.05c.27.43.62.27,1,.14a.14.14,0,0,1,.06.11s0,0,0,.06a.39.39,0,0,0,.06.11c.17.25-.11.25-.19.29-.39.14-.8.22-1.18.39-2.36,1.05-4.71,2.13-7.07,3.17-1.73.77-3.48,1.5-5.22,2.25-2,.84-3.89,1.81-5.88,2.52-1.52.55-2.91,1.36-4.43,1.86S380.57,411.54,378.77,411.56Z" transform="translate(-316.77 -357.51)"/><path class="cls-7" d="M378.48,412.16c1.8,0,3.21-1.15,4.83-1.68s2.91-1.31,4.42-1.85c2-.72,3.93-1.68,5.89-2.53,1.73-.75,3.48-1.48,5.21-2.25,2.37-1,4.72-2.12,7.08-3.17.38-.17.79-.25,1.17-.39.09,0,.37,0,.2-.29a.94.94,0,0,1,0-.16,1.33,1.33,0,0,1,.74,0c0,.33.1.49.44.47q2.41,3.93,4.82,7.85c1.29,2.13,2.55,4.27,3.87,6.37.39.62.73,1.25,1.1,1.88s.26.95-.34,1.25c-1.36.7-2.69,1.46-4.06,2.13-1.94.93-3.83,1.94-5.7,3a3,3,0,0,0-1.63.63c-2.86,1.47-5.69,3-8.53,4.49-2.06,1.08-4.14,2.12-6.19,3.21-.64.34-1,.23-1.39-.38-1.85-2.76-3.54-5.61-5.22-8.48-1.57-2.7-3.22-5.35-4.83-8-.14-.25-.23-.52-.35-.78s-.36-.7-.86-.64C379.05,412.45,378.69,412.37,378.48,412.16Z" transform="translate(-316.77 -357.51)"/><path class="cls-6" d="M408.59,447.85a56.44,56.44,0,0,0,0,5.67,2,2,0,0,1-1,1.93c-2.05,1.33-4.17,2.54-6.18,3.92-2.51,1.72-5.15,3.24-7.68,4.93-2.34,1.56-4.76,3-7.16,4.44-2.08,1.26-4.1,2.62-6.13,4a1.26,1.26,0,0,1-.78.28l0,0c0-1.75,0-3.51,0-5.27.06-10.39,0-20.78,0-31.18,0-2.28,0-4.56,0-6.85v-4.54c0-3.73,0-7.46,0-11.18a2.78,2.78,0,0,0-.12-1.43l0-.3c.49-.06.68.27.85.64s.21.53.35.77c1.61,2.68,3.27,5.33,4.84,8,1.67,2.87,3.36,5.72,5.21,8.48.41.61.75.72,1.39.38,2.05-1.09,4.13-2.13,6.19-3.21,2.85-1.49,5.67-3,8.53-4.49a3,3,0,0,1,1.63-.63q0,12.46,0,24.92A1.76,1.76,0,0,0,408.59,447.85Z" transform="translate(-316.77 -357.51)"/><path class="cls-8" d="M379.41,412.21l0,.3c-.27,0-.38.21-.51.41-2,3.17-3.7,6.5-5.63,9.71-1.45,2.44-2.86,4.9-4.31,7.35a.89.89,0,0,1-1.06.51c-2.34-.38-4.66-.85-7-1.3-2.61-.51-5.24-.89-7.83-1.46-1.91-.42-3.84-.76-5.76-1.14-2.27-.45-4.55-.87-6.83-1.28-2-.37-4-.8-6-1.21-1.56-.32-3.13-.6-4.71-.83a31.19,31.19,0,0,0-3.58-.63c-2.3-.67-4.68-1-7-1.42-.63-.13-1.26-.29-1.89-.44s-.57-.42-.34-.81c.71-1.2,1.46-2.37,2.16-3.57s1.47-2.65,2.22-4q2-3.42,3.92-6.84c.28-.48.56-1,.86-1.45.15-.25.35-.46.7-.33a7,7,0,0,0,1.2.27c1.89.27,3.77.56,5.66.85l7.4,1.16c2.65.4,5.31.74,8,1.17,2.39.39,4.8.66,7.21.91.21.52.63.22,1,.25h.28a.68.68,0,0,0,.94.05l.45,0a1.33,1.33,0,0,0,1.42.28l.61,0c.15.47.52.25.82.26H362c.14.22.3.23.47,0l.76,0a1.06,1.06,0,0,0,1.26.27l.61,0c.14.37.37.35.64.14h.3c.09.3.24.37.48.14l.76,0a2.06,2.06,0,0,0,1.61.38h.59a2.23,2.23,0,0,0,1.43.3h.28c.19.25.4.24.62,0l.46,0c.16.46.52.24.82.26h.28c.14.21.3.22.47,0l.76,0c.07.3.29.28.52.24h.28c.09.17.19.19.31,0l.93.12a1.51,1.51,0,0,0,1.41.19l.77.13C379,411.77,379.34,411.85,379.41,412.21Z" transform="translate(-316.77 -357.51)"/><path class="cls-7" d="M326.15,422.64a31.19,31.19,0,0,1,3.58.63c1.58.23,3.15.51,4.71.83,2,.41,4,.84,6,1.21,2.28.41,4.56.83,6.83,1.28,1.92.38,3.85.72,5.76,1.14,2.59.57,5.22.95,7.83,1.46,2.32.45,4.64.92,7,1.3a.89.89,0,0,0,1.06-.51c1.45-2.45,2.86-4.91,4.31-7.35,1.93-3.21,3.64-6.54,5.63-9.71.13-.2.24-.4.51-.41a2.78,2.78,0,0,1,.12,1.43c-.21.07-.35-.52-.54-.13-.52,1.05-1,2.13-1.43,3.22-.36.9-.58,1.87-.94,2.77-1.28,3.16-2.6,6.31-3.9,9.46-.59,1.42-1.19,2.84-1.78,4.27-.19.45-.52.82-1,.6-1.42-.64-3-.61-4.44-1s-3-.7-4.52-1c-1.71-.33-3.45-.58-5.16-.91-2-.4-4.09-.86-6.13-1.27-2.3-.46-4.6-.89-6.9-1.35-2.14-.42-4.28-.87-6.41-1.31-1.95-.39-3.91-.69-5.84-1.14-1.3-.3-2.63-.48-3.95-.72-.19-.1-.08-.47-.4-.46Z" transform="translate(-316.77 -357.51)"/><path class="cls-8" d="M379.55,473l-.15.17a5.36,5.36,0,0,0-2.89-.63.41.41,0,0,1-.22,0c-1.48-.88-3.22-.77-4.81-1.23a54.35,54.35,0,0,0-5.75-1.32c-2.71-.48-5.32-1.33-8-1.76-.44-.07-.77-.45-1.25-.36,0-.71,0-1.43,0-2.14a.77.77,0,0,1,.33-.79l.42.06c.09.15.18.29.36.09l.27.05c.08.18.17.31.35.09l.42.08c.09.16.18.3.36.09l.28,0c.54.48,1,.24,1.47-.16a2.09,2.09,0,0,0,1.07-2c0-2.77,0-5.55,0-8.32.2-.31.26-.6-.14-.8a3.45,3.45,0,0,0-2.18-2.21c-.11-.27-.27-.33-.5-.12l-.9-.2c-.07-.18-.15-.32-.35-.11l-1.05-.21c-.08-.17-.16-.31-.35-.1l-1-.21c-.08-.17-.16-.32-.35-.11l-.9-.19a1,1,0,0,0-1.13-.28l-1-.21c-.08-.16-.17-.3-.36-.1l-.42-.07a.64.64,0,0,0-1,0l-.27.06c-.23-.19-.29,0-.33.16l-.44.34c-.23,0-.33.11-.27.34l-.12.39c-.16.07-.32.15-.1.35l0,2.47c-.55.35-1.11,0-1.65,0-.73,0-1,.15-1,.93,0,3.39,0,6.78,0,10.16a8,8,0,0,1-3.65-.54,8.43,8.43,0,0,0-1.67-.27c-2.13-.45-4.26-.92-6.37-1.45s-4.19-1-6.32-1.33a1.39,1.39,0,0,1-1.32-1.56q0-17.28,0-34.57c1.32.24,2.65.42,3.95.72,1.93.45,3.89.75,5.84,1.14,2.13.44,4.27.89,6.41,1.31,2.3.46,4.6.89,6.9,1.35,2,.41,4.08.87,6.13,1.27,1.71.33,3.45.58,5.16.91,1.52.29,3,.61,4.52,1s3,.35,4.44,1c.5.22.83-.15,1-.6.59-1.43,1.19-2.85,1.78-4.27,1.3-3.15,2.62-6.3,3.9-9.46.36-.9.58-1.87.94-2.77.43-1.09.91-2.17,1.43-3.22.19-.39.33.2.54.13,0,3.72,0,7.45,0,11.18a.35.35,0,0,0-.28.39v3.76c0,.21.07.35.28.39,0,2.29,0,4.57,0,6.85,0,10.4,0,20.79,0,31.18C379.51,469.45,379.59,471.21,379.55,473Z" transform="translate(-316.77 -357.51)"/><polygon class="cls-8" points="21.18 88.82 20.14 106.04 62.63 115.61 44.81 86.58 21.18 88.82"/><path class="cls-9" d="M326.91,423a112.33,112.33,0,0,0,.54,12.44,31.78,31.78,0,0,1,.24,3.64c0,1-.13,1.92-.23,2.87a121.59,121.59,0,0,0-.53,18,1.72,1.72,0,0,0,1.59,1.5c.79.07,1.58-.13,2.37-.05A11.61,11.61,0,0,1,333,462a21.51,21.51,0,0,0,3.49.56,23.48,23.48,0,0,1,7.87,2.48c.69.36,1.71-.1,2.5-.1a3.57,3.57,0,0,0,2.25,1.4,10.51,10.51,0,0,0,2.51.18,39.25,39.25,0,0,1,12.34,2c1.75.58,3.27.52,5,1.07a18.64,18.64,0,0,0,5.3.85,7.55,7.55,0,0,1,1.58.12c.68.16,2.26,1.47,2.88,1.28.95-.29.78-2,.86-2.82a53.17,53.17,0,0,0,.26-8.92c-.24-3.31-1-6.6-.8-9.91.14-2.31.73-4.57.88-6.87a38.14,38.14,0,0,0-.18-5.45,201.12,201.12,0,0,1-.34-25.63c-2.64,6.15-7.05,11.88-11.4,17a3.87,3.87,0,0,1-1.3,1.12,3.29,3.29,0,0,1-3.1-.56,18.14,18.14,0,0,0-2.73-1.84,11.11,11.11,0,0,0-3.35-.57c-7.2-.63-14-5.1-21.15-4-4.45-.88-9-1.62-13.45-2.49a14.28,14.28,0,0,0-5.47-.36c-.21-.66.33-1.29.81-1.78a35.65,35.65,0,0,0,3.69-4.35,56,56,0,0,0,4-7l1.9-3.74c9.66,1,18.8,2.26,28.47,3.29,7.53.8,15.27,1.67,21.94,5.25" transform="translate(-316.77 -357.51)"/><path class="cls-9" d="M379.43,471.55c1.65.38,3.11-1,4.4-2.11A34.9,34.9,0,0,1,389,466l2.72-1.6c2.49-1.47,5-2.95,7.59-4.24a8.56,8.56,0,0,0,1.32-.74c.4-.29.74-.65,1.12-1,1.93-1.63,4.75-2.27,6.06-4.44-.63-10.88-.42-21.72,0-32.61" transform="translate(-316.77 -357.51)"/><path class="cls-9" d="M378.3,412.28l3.51-1.32,4.72-1.79,2.47-.93c.72-.27,1.44-.54,2.13-.86a17.39,17.39,0,0,0,2.63-1.48c1.69-1.16,3.8-1.29,5.61-2.25.49-.25,1-.52,1.44-.78a45.36,45.36,0,0,1,7.09-3.05,15.05,15.05,0,0,0,2.68,5c.74,1.05,1.61,2,2.42,3a32.83,32.83,0,0,1,5.11,8.63l.26.74c-1.73-.28-3.09,1.39-4.67,2.14a24.19,24.19,0,0,1-3.29.9,15.39,15.39,0,0,0-2.93,1.32l-2.25,1.2c-4.14,2.21-8.29,4.42-12.57,6.37a2.27,2.27,0,0,1-3.58-1.32A107.26,107.26,0,0,0,378.3,412.28Z" transform="translate(-316.77 -357.51)"/><path class="cls-9" d="M327.62,403.09,335,401.4a12.3,12.3,0,0,0,3.31-1.11c.6-.34,1.14-.79,1.73-1.15,1.93-1.2,4.28-1.46,6.46-2.13s4.2-1.78,6.33-2.57a10.9,10.9,0,0,1,6.7-.64" transform="translate(-316.77 -357.51)"/><path class="cls-9" d="M386.87,397.13c1.18-.11,2.29.48,3.44.74a15.16,15.16,0,0,0,3.09.22c2.38,0,4.76.27,7.13.52l7.12.73" transform="translate(-316.77 -357.51)"/><path class="cls-10" d="M448.71,471.9c0-3.29-.12-6.59-.27-9.88s-.25-6.57-.3-9.86c0-1.64-.06-3.28-.19-4.92a9.76,9.76,0,0,0-.74-3.55,8,8,0,0,0-4.42-3.66,22.8,22.8,0,0,0-5.89-1.34,53.07,53.07,0,0,0-7.13-.39,21.85,21.85,0,0,0-4,.36c-1.19.25-2.36.59-3.56.83a8.48,8.48,0,0,1-1.48.2,5.93,5.93,0,0,1-.73,0h-.18l-.32-.09a.89.89,0,0,0-.76.09c-.21,0-.43,0-.65,0a16.09,16.09,0,0,0-3.21.61,20.14,20.14,0,0,0-3.06,1.14,8.6,8.6,0,0,0-2.15,1.36c-1.66,1.52-2.16,3.92-2.37,6.06a46.48,46.48,0,0,0,.05,6.57c.33,6.48.31,13,.67,19.45a10.72,10.72,0,0,0,.8,3.8,7.93,7.93,0,0,0,2,2.78,8.06,8.06,0,0,0,3.23,1.8,39.23,39.23,0,0,0,4.46.78,91,91,0,0,0,9.75,1,66.94,66.94,0,0,0,9.5.07c2.62-.24,5.56-.72,7.74-2.31a7.47,7.47,0,0,0,2.9-4.73A32,32,0,0,0,448.71,471.9Z" transform="translate(-316.77 -357.51)"/><path class="cls-11" d="M472.78,431.54a15.46,15.46,0,0,0-1.91-2.5c-.1-.23-.19-.47-.3-.71a10.66,10.66,0,0,0-1.73-2.66c-.28-1.12-.36-2.29-.65-3.41a8.66,8.66,0,0,0-1.83-3.58,12.06,12.06,0,0,0-2.48-1.95,8.51,8.51,0,0,1-2.48-2,13,13,0,0,1-1.42-3.1c-.43-1.18-1-2.3-1.47-3.46a24,24,0,0,1-1.16-3.31,31.1,31.1,0,0,0-1.12-4,19.48,19.48,0,0,0-3.84-6.3,11.17,11.17,0,0,0-5.54-3.14,10.91,10.91,0,0,0-3.42-.19,5.74,5.74,0,0,0-3.19,1.06c-1.41,1.18-1.08,3.16-.93,4.77a6.32,6.32,0,0,1-.25,2.73,6.55,6.55,0,0,1-.39,1,9.48,9.48,0,0,0-.1-1.68l0-.23a4,4,0,0,0-.1-.5c-.07-.24-.14-.49-.23-.73a9.86,9.86,0,0,0-.67-1.48,6.48,6.48,0,0,0-1.88-2.18,3.18,3.18,0,0,0-2.51-.57,3.94,3.94,0,0,0-2.32,1.86,6,6,0,0,0-.68,5.13,10.54,10.54,0,0,0,.88,1.9c-1.27,7.24-.68,14.68-1,22,0,.41,0,.83-.07,1.25-.06-.67-.17-1.34-.29-2-.51-2.62-1.44-5.13-2.08-7.71-.17-.72-.28-1.45-.43-2.17a2.56,2.56,0,0,0-.05-.27,5.25,5.25,0,0,0,.42-1.43,4.91,4.91,0,0,0-.07-1.78c.34-.38.69-.75,1-1.15a10,10,0,0,0,2-3.27,6.65,6.65,0,0,0,0-4,7,7,0,0,0-1.72-3c.09-2.93.06-5.85.17-8.78.05-1.33.12-2.66.19-4,.29.34.59.68.87,1l.07.09h0v0l.13.19a.75.75,0,0,0,1.27.51.89.89,0,0,0,.21-.32.45.45,0,0,0,.53-.53,3,3,0,0,1,1-3l.29-.23a.44.44,0,0,0,.36-.24,4.74,4.74,0,0,1,2.66-.69,2.61,2.61,0,0,1,1.66.67,7.2,7.2,0,0,1,.95,1.36,4.34,4.34,0,0,0,1.58,1.52,18.11,18.11,0,0,0,2.24.8c2.1.75,4,4.68,6.6,2.73a4.2,4.2,0,0,0,.81-.82,2.43,2.43,0,0,0,.69-1.25,3.44,3.44,0,0,0-.05-.45l0-.11.33-.15a1.55,1.55,0,0,0,.53-.3c.25-.22.48-.48.73-.71a7,7,0,0,0,.83-.81,4.31,4.31,0,0,0,.93-2.28c.25-1.8,0-3.63.17-5.45a6.81,6.81,0,0,1,.49-2.13,4.76,4.76,0,0,1,1.49-2c.42-.3.18-1.09-.38-.89a11.6,11.6,0,0,0-2.11,1,9.84,9.84,0,0,1-1.75.87c-1.6.54-3.27.13-4.93.2a13.27,13.27,0,0,0-4.55,1,6.25,6.25,0,0,1-2.46.65,20.52,20.52,0,0,0-2.48,0,6.49,6.49,0,0,0-2.43.93,13,13,0,0,1-1.32.72c0-.74,0-1.47.05-2.21s.24-1.53.37-2.31a.85.85,0,0,0-1.63-.45,8.76,8.76,0,0,0-.4,2.49,19.84,19.84,0,0,0,0,2.67.49.49,0,0,0,0,.12c-.9,0-1.86-.32-2.74-.41l-.39,0c0-.49,0-1,0-1.46a9,9,0,0,0-.15-2.69.6.6,0,0,0-1.15,0,10,10,0,0,0-.22,2.44c0,.68-.07,1.35-.11,2a2.67,2.67,0,0,0-1.22,1.18,3.38,3.38,0,0,0,.11,3.26,8.83,8.83,0,0,0,.67,1.15.49.49,0,0,1,0,.12c-.21,3.73-.4,7.46-.4,11.2,0,.94,0,1.87.08,2.8a5,5,0,0,0-.56-.08,2,2,0,0,0,.22-1,1.93,1.93,0,0,0-1.5-1.94,6.07,6.07,0,0,0-2.4.09A30.35,30.35,0,0,1,414,395c-2.6-.35-5.33-.63-7.68-1.88-.66-.35-1.29-.76-2-1.08s-1.42-.63-2.14-.92c-1-.38-1.95-.76-2.9-1.2a5.67,5.67,0,0,0,1.37-.87,10,10,0,0,0,1.66-2.11c1-1.48,1.83-3,3.61-3.6a.61.61,0,0,0,.3-.21l.17,0a.56.56,0,0,0,0-1.12,15.3,15.3,0,0,1-1.8-.26,6.32,6.32,0,0,0-1.94-.05,6,6,0,0,0-2.52,1.33,3.19,3.19,0,0,1-2.27.85,10.48,10.48,0,0,1-2.28-.86,5.29,5.29,0,0,0-2.75-.4,4.7,4.7,0,0,0-1.49.55,6.49,6.49,0,0,1-1.27.62c-.91.25-1.82-.34-2.66-.62a4.54,4.54,0,0,0-3.06.13,27.94,27.94,0,0,1-4,1.46,4.11,4.11,0,0,0-.89-.38,5.73,5.73,0,0,0-2-.17.52.52,0,0,0-.26,1,4.1,4.1,0,0,0,3.06.8l.13,0a6,6,0,0,1,.62.48c1,.9,1.87,1.94,2.79,2.91s2.17,1.91,3.68,1.63a12.61,12.61,0,0,1,1.8-.49,1.68,1.68,0,0,1,1.21.59c.78.81,1.25,1.88,2,2.68a4.67,4.67,0,0,0,3.78,1.21c1.28-.16,2.49-.76,3.8-.69a6.16,6.16,0,0,1,3.1,1.49,8.43,8.43,0,0,0,3.28,1.63,11.9,11.9,0,0,0,1.59.18l.65,0,.27,0h.11a1,1,0,0,1-.11.17,7,7,0,0,1-.62.71c-.86.91-1.82,1.7-2.7,2.59a11.85,11.85,0,0,0-1.22,1.42,6,6,0,0,0-3.76.6,24.33,24.33,0,0,0-4.72,3.13c-.74.56-1.48,1.11-2.26,1.6a8.21,8.21,0,0,1-2.05,1c-1.09.31-2.22.48-3.31.8a18.13,18.13,0,0,0-3.09,1.2c-1.24.62-2.35,1.45-3.53,2.18a12.41,12.41,0,0,1-3.7,1.59.38.38,0,0,0,.11.74c1.85,0,3.64-.53,5.49-.68a10.2,10.2,0,0,1,5,.87c.75.34,1.48.73,2.22,1.12a7.65,7.65,0,0,0,1.93.88c1.25.27,2-.89,2.93-1.55l.35-.23.11-.06h0a.61.61,0,0,1,.13,0h.25a12.07,12.07,0,0,0,1.59.05,4.75,4.75,0,0,0,2.16-.73c.56-.37,1.06-.83,1.61-1.21a3.73,3.73,0,0,1,1.91-.67s0,.06,0,.09a5.12,5.12,0,0,0,0,1.11,6,6,0,0,0-1.84.13.65.65,0,0,0-.38.94c1.52,3.59,2.4,8.09,6.33,9.87a6.39,6.39,0,0,0,1.12.37,4.57,4.57,0,0,0-.94.33,11.81,11.81,0,0,0-3.16,2.78,8.29,8.29,0,0,1-1.77,1.47,6.59,6.59,0,0,0-2,1.44.7.7,0,0,0,0,1A7.9,7.9,0,0,0,405,433.9c1.49.26,3,.41,4.51.55a7.79,7.79,0,0,0,3.86-.35,4.8,4.8,0,0,0,2.07-1.5,16.28,16.28,0,0,0,.25,2.4c.25,1.31.69,2.59.84,3.92a5.44,5.44,0,0,1-.92,3.77c-.4.61.37,1.21.94.93,3.05-1.5,6.46-2.08,9.73-3a11.41,11.41,0,0,0,0,2.74.62.62,0,0,0,.08.24c0,.45,0,.89,0,1.34a1,1,0,0,0,1,1c.14,0,.29,0,.43,0h0a1,1,0,0,0,.58.22,2.46,2.46,0,0,0,.54,0,3.17,3.17,0,0,0,1.3,0,2.84,2.84,0,0,0,1.82-2.8,14.87,14.87,0,0,0-.12-1.76,7.92,7.92,0,0,1,0-1.82,14.85,14.85,0,0,1,.32-1.64c.18-.12.36-.24.53-.37a19.25,19.25,0,0,0,3.91-3.59,6,6,0,0,0,1.62,2.93,5.78,5.78,0,0,0,2.84,1.56c1.38.29,2.75-.07,4.14,0a24.32,24.32,0,0,1,3.64.94,8.21,8.21,0,0,0,3.69-.07c2-.52,3.42-1.94,5.18-2.87a16.13,16.13,0,0,1,8.72-1.41.56.56,0,0,0,.39-.95,4.17,4.17,0,0,0-2-1.31,6.93,6.93,0,0,0-2-.14,7.12,7.12,0,0,1-2.06-.1,3.68,3.68,0,0,1-1.74-1.1c-.52-.53-.95-1.14-1.48-1.67a5.89,5.89,0,0,0-2.26-1.4c-.72-.26-1.47-.39-2.19-.64a4.36,4.36,0,0,1-1.73-1.27c-1.87-2.08-2.85-4.92-5.16-6.66a6.33,6.33,0,0,0-8.35.72l-.26.3.85-2.16c.62-1.63,1.24-3.27,2-4.84.45-.09.89-.19,1.34-.26a6.62,6.62,0,0,1,1-.09,4.42,4.42,0,0,1,.78,0,3,3,0,0,1,.65.18l.2.11.15.09.12.08a4,4,0,0,1,.9,1.07,25.92,25.92,0,0,0,2.21,3.58,6.48,6.48,0,0,0,3.08,1.9,11.56,11.56,0,0,0,2.26.43c.94.1,1.92-.06,2.86.12a3.4,3.4,0,0,1,1.57.67,11.34,11.34,0,0,0,1.67,1.35,5.73,5.73,0,0,0,2.59.67,16.74,16.74,0,0,1,2.35.1,4.7,4.7,0,0,1,2.21,1.2,14.64,14.64,0,0,1,1.27,1.22,6.4,6.4,0,0,0,.93,2,13,13,0,0,0,1.1,1.35,6.77,6.77,0,0,0,.59,1.21,5.18,5.18,0,0,0,1.54,1.48C472.44,432.82,473.09,432.09,472.78,431.54ZM418,425.76c-.48-.4-1-.82-1.48-1.19a2.3,2.3,0,0,0,.58-.87c.81-.52,1.66-1,2.46-1.54.16-.11.33-.23.48-.35a8.19,8.19,0,0,0,.6,1.09l.4.59a15,15,0,0,0-2.52,2.12c-.11.1-.21.21-.31.32Zm4.43-3a14.86,14.86,0,0,1-1.31-1.86,8,8,0,0,0,1.13-1.33c0,.12.07.24.1.35.24.88.45,1.76.71,2.62C422.85,422.61,422.65,422.69,422.44,422.77Zm-13.16-25.39Zm.11.28h0Zm22.66,17.51c0-2.9,0-5.79.08-8.69,0-.81.06-1.62.11-2.42.15.22.29.45.42.68.79,1.46.45,3.28.68,4.87a6.43,6.43,0,0,0,.34,1.34c-.21.4-.39.82-.57,1.23A29.52,29.52,0,0,0,432.05,415.17Zm-5.47,3.89c.33,1.32.7,2.64,1,4a6.09,6.09,0,0,0-2.56-.73h-.38c-.28-.9-.5-1.82-.75-2.72a13.55,13.55,0,0,0-.54-1.67c.8-.9,1.71-1.75,2.48-2.67A33.05,33.05,0,0,0,426.58,419.06Zm-12.66,10.12a2.71,2.71,0,0,0-.27-2,1.73,1.73,0,0,0-.19-.28,9.8,9.8,0,0,1,1.24-1.34,6.21,6.21,0,0,0,.82-.3c.57.55,1.09,1.15,1.62,1.73l.11.11a10.26,10.26,0,0,0-.87,1.31,7.43,7.43,0,0,0-.77,2.07A3.17,3.17,0,0,0,413.92,429.18Zm22.19-3.71c0,.63.13,1.25.22,1.87a3.37,3.37,0,0,0-.76-.31l-.1,0c0-.12.07-.23.1-.34.16-.54.34-1.08.52-1.62C436.1,425.19,436.1,425.33,436.11,425.47Zm1.27-8.73c-.54,1.2-1,2.43-1.53,3.65s-1.05,2.51-1.5,3.79c-.33.95-.62,1.91-.89,2.87a8.86,8.86,0,0,0-1.67.64l-.12.07.18-1.42c.17-1.43.34-2.86.54-4.29a54.88,54.88,0,0,1,1.77-8.69c.1-.31.21-.61.32-.92a4.19,4.19,0,0,0,1.39,1.22,5.2,5.2,0,0,0,2.76.55C438.18,415,437.77,415.88,437.38,416.74Z" transform="translate(-316.77 -357.51)"/><path class="cls-12" d="M421.42,390.37a6.69,6.69,0,0,1-.89-.08l-.24-.05c.23-.08.47-.13.71-.19,1.23-.29,2.58-.68,2.72-2.15a2.34,2.34,0,0,0-.79-2,1.94,1.94,0,0,0-1.74-.47,4.75,4.75,0,0,0-.66-1.89,9.14,9.14,0,0,0-4.47-3.61,10,10,0,0,0-5.91-.28,9.52,9.52,0,0,0-3.34,1.29,9.27,9.27,0,0,0-2.54,2.75c-.4.59-.82,1.15-1.25,1.72s-.84,1.32-1.26,2a3.7,3.7,0,0,1-1.5,1.56,6.15,6.15,0,0,0-1.61.83.37.37,0,0,0,.16.62c.84.29,1.71.39,2.55.64a10.14,10.14,0,0,1,2.54,1.44,15.66,15.66,0,0,0,4.65,2.3c1.69.43,3.42.48,5.13.77.87.15,1.74.32,2.62.42a15.56,15.56,0,0,0,2.73,0,15.25,15.25,0,0,0,5.24-1.22c.5-.24,1.17-.41,1.47-.92a2,2,0,0,0-.17-2C424.72,390.47,422.83,390.44,421.42,390.37Zm-1.64-.29s0,0,0,0S419.78,390.07,419.78,390.08Z" transform="translate(-316.77 -357.51)"/><path class="cls-12" d="M450.55,364.9a2.73,2.73,0,0,1-1.85-.39,16.69,16.69,0,0,1-1.48-1.31c-1.18-.95-2.78-.93-4.22-1a12.88,12.88,0,0,0-4.95.85,13.85,13.85,0,0,0-2.22,1.09c-.32.2-.65.4-1,.63a4.17,4.17,0,0,0,0-3.16,5.09,5.09,0,0,0-5.47-3.18,3.83,3.83,0,0,1-1.61.09c-.32-.11-.53-.5-.8-.7a1.88,1.88,0,0,0-1.44-.31c-.63.08-1.26.12-1.89.2-1.39.16-2.74.51-4.15.56a9.06,9.06,0,0,1-3.94-.73c-.31-.14-.74.16-.51.51,1.15,1.78-.42,3.61-.42,5.45a22.56,22.56,0,0,0,.54,2.57c.1,1-.36,1.88,0,2.84a5.94,5.94,0,0,0,1.7,2c.76.72,1.43,1.52,2.15,2.27a4.3,4.3,0,0,0,2,1.27c.39.1.79.13,1.18.21a5.79,5.79,0,0,0,1.29.21,2.86,2.86,0,0,0,2.19-1.39c.26-.34.49-.7.75-1a1.89,1.89,0,0,1,.78-.73.58.58,0,0,0,.15.11,3.52,3.52,0,0,0-.69.64c-.46.57-1,1.67-.32,2.29s1.42.11,1.95-.21a17.49,17.49,0,0,1,2.53-1.66,4.78,4.78,0,0,1,1.88-.25h1.88a10.16,10.16,0,0,0,1.91-.11,8.43,8.43,0,0,0,1.66-.59,28.48,28.48,0,0,0,3.21-1.51,9.44,9.44,0,0,0,2.41-2.35,4.73,4.73,0,0,1,3.26-1.86c1.24-.14,2.58.19,3.68-.54C451.09,365.48,451,364.86,450.55,364.9Zm-17.08,3c.23.47.75.76,1,1.18a3.8,3.8,0,0,1-1.16.14,6.92,6.92,0,0,0-1.69.21,9,9,0,0,0-2.4,1.09A4.59,4.59,0,0,1,430,370a13.22,13.22,0,0,0,2.75-2.24c.19-.19.38-.4.56-.6A1.64,1.64,0,0,0,433.47,367.9Z" transform="translate(-316.77 -357.51)"/><path class="cls-12" d="M444.89,386.63c-.42-.28-.91-.44-1.35-.69a2.35,2.35,0,0,1-.92-1.05,13.1,13.1,0,0,0-1.67-2.56,3.1,3.1,0,0,0-1.17-.88,3.94,3.94,0,0,0-1.45-.18,11,11,0,0,0-2.79.36,5.78,5.78,0,0,0-3.48,3.31,4.56,4.56,0,0,0,.73,5,.56.56,0,0,0-.25.17,1.44,1.44,0,0,0,.16,2.17,6.21,6.21,0,0,0,2.66,1.07,27.18,27.18,0,0,0,2.85.42,6.29,6.29,0,0,0,1.06.07,3.55,3.55,0,0,0,2-.7,4.39,4.39,0,0,1,2.41-1.13c1,0,2.06.27,3.1.14a.5.5,0,0,0,.49-.49A5.88,5.88,0,0,0,444.89,386.63Z" transform="translate(-316.77 -357.51)"/><path class="cls-13" d="M418.88,387.18a11.68,11.68,0,0,0-2.19-2.66.82.82,0,0,0-1.39.67,6.77,6.77,0,0,0,1,2.89,15,15,0,0,0,1.65,2.6.48.48,0,0,0,.79-.21h0a.58.58,0,0,0,.43.56h.15a1.85,1.85,0,0,0,1.07-.51.59.59,0,0,0,.09-.71C420,388.94,419.47,388,418.88,387.18Z" transform="translate(-316.77 -357.51)"/><path class="cls-13" d="M428.88,369q-.18-.61-.33-1.23c-.22-.85-.43-1.69-.68-2.53a12.74,12.74,0,0,0-2.22-4.65.53.53,0,0,0-.82.1c-1,1.52-.34,3.67.25,5.21a16.76,16.76,0,0,0,1.32,2.69,5.68,5.68,0,0,0,1.56,1.91.43.43,0,0,0,.24.06h0c.3.6,1.16.17,1-.43A11.58,11.58,0,0,0,428.88,369Z" transform="translate(-316.77 -357.51)"/><path class="cls-13" d="M437,362.36a.58.58,0,0,0-.81,0,6.56,6.56,0,0,0-1.83,3.6,6.09,6.09,0,0,0,.2,4,.35.35,0,0,0,.63-.09.55.55,0,0,0,.45,0v0c.05,0,.08-.07.13-.1h0a1.36,1.36,0,0,0,.26-.45l.24-.69c.24-.7.47-1.41.67-2.12a13.58,13.58,0,0,0,.47-2.35A2.37,2.37,0,0,0,437,362.36Z" transform="translate(-316.77 -357.51)"/><path class="cls-13" d="M435.79,369.76Z" transform="translate(-316.77 -357.51)"/><path class="cls-13" d="M436.32,385.75c-.5.7-1.1,1.32-1.59,2a4.32,4.32,0,0,0-.75,2.36.24.24,0,0,0,.46.06c0-.06,0-.12.05-.17l0,0a.59.59,0,0,0,1.1-.07,0,0,0,0,0,0,0h0c0-.06.05-.12.08-.17s.17-.28.26-.41c.23-.32.46-.64.67-1a3.47,3.47,0,0,0,.62-2.45C437.19,385.39,436.56,385.43,436.32,385.75Z" transform="translate(-316.77 -357.51)"/><path class="cls-14" d="M425.3,440.8a3.22,3.22,0,0,0-1.62.17c-.78.19-1.54.45-2.3.7a30.94,30.94,0,0,1-4.2,1.31,3.78,3.78,0,0,1-1.11.08l-.14,0h0a0,0,0,0,0,0,0,.49.49,0,0,0-.5-.49,3,3,0,0,0-2.08.79.74.74,0,0,0,.2,1.25h0a4.36,4.36,0,0,0,2.3.65c.6.09,1.19.1,1.79.14s1.07.12,1.61.19a21.79,21.79,0,0,0,6.4,0,.77.77,0,0,0,.56-.74c0-.86.05-1.74,0-2.6A1.37,1.37,0,0,0,425.3,440.8Zm-9.39,2.27s0,0,0,0Zm0-.07,0,0Z" transform="translate(-316.77 -357.51)"/><path class="cls-14" d="M443.47,443.59c0-.74-.56-1.08-1.22-1.24h0a4.29,4.29,0,0,0-2.91-1.18c-2.17-.17-4.42-.75-6.59-.3a2.09,2.09,0,0,0-1.78,2,5.55,5.55,0,0,0,.5,2.76.4.4,0,0,0,.34.22,3,3,0,0,0,2.43.38c.48-.07.94-.16,1.41-.26l.49-.09.2,0,.63-.07c1-.09,2.08-.16,3.11-.31l.41-.05a6.3,6.3,0,0,0,.84-.18C442.23,445,443.45,444.6,443.47,443.59Z" transform="translate(-316.77 -357.51)"/><path class="cls-15" d="M412.84,428a.39.39,0,0,0,0-.78.39.39,0,0,0,0,.78Z" transform="translate(-316.77 -357.51)"/><path class="cls-15" d="M472.47,429.68a25.54,25.54,0,0,1-4-5.73,23,23,0,0,0-3.6-5.51c-.78-.78-1.7-1.38-2.52-2.1a10.53,10.53,0,0,1-2-2.24,24.42,24.42,0,0,1-1.63-3.18,15.36,15.36,0,0,1-.95-3.67,12,12,0,0,0-1.26-3.31,37.36,37.36,0,0,1-1.52-3.5,18.65,18.65,0,0,0-1.66-3.16,13.25,13.25,0,0,0-2.16-2.73,8.69,8.69,0,0,0-2.51-1.72c-.38-.16-.78-.28-1.17-.42a.54.54,0,0,0,.2-.7,6.22,6.22,0,0,0-.32-.56A7.43,7.43,0,0,1,447,390a4.9,4.9,0,0,0-.81-1.51,3.71,3.71,0,0,0-.58-.54c.84.56,1.18,1.65,1.9,2.34a1.81,1.81,0,0,0,2.5.2c.86-.73.55-1.67.35-2.6a4.27,4.27,0,0,0,1.91-1.15,6.6,6.6,0,0,0,1.32-2.63,8.81,8.81,0,0,0,.21-3.54,20.22,20.22,0,0,1-.07-3.73,7.27,7.27,0,0,1,1.29-3.43c.12-.2-.16-.4-.33-.24a6.94,6.94,0,0,1-3.76,1.29c-.6.08-1.2.11-1.8.2a12.24,12.24,0,0,0-2.29.74,5.16,5.16,0,0,1-2.39.52,4.4,4.4,0,0,1-1-.37,4.18,4.18,0,0,0-1.17-.29,4.32,4.32,0,0,0-2.25.27c-.52.27-.8.86-1.33,1.09a7.57,7.57,0,0,1-2.12.33,10,10,0,0,0-2.41.59l-.15.07v-.09c.09-.91.11-1.84.26-2.74a11.2,11.2,0,0,0,.27-2.3l.48,0a2.3,2.3,0,0,0,1.48-.32,6.09,6.09,0,0,1,1.56-.81,18.73,18.73,0,0,0,2.91-1.15,5.91,5.91,0,0,0,2.18-2,3.18,3.18,0,0,1,1.31-1.21,9.53,9.53,0,0,1,2.08-.67,7.46,7.46,0,0,1,2.31-.1,4.56,4.56,0,0,0,1.8.09c.1,0,.19-.18.11-.28-.28-.37-.87-.33-1.28-.33a3.64,3.64,0,0,1-.81,0c-.4-.08-.55-.32-.66-.69a3.31,3.31,0,0,0-.91-1.59,4.22,4.22,0,0,0-1.67-.89,9.55,9.55,0,0,0-4.54,0,6.68,6.68,0,0,0-3.11,1.31,2.25,2.25,0,0,0,.31-1.16.68.68,0,0,0-.68-.62c-.41,0-.73.44-1,.74a6.24,6.24,0,0,0-1,2.15,1.39,1.39,0,0,0-.68.63,7.17,7.17,0,0,0-.62,1.16,2.54,2.54,0,0,0-.1,2.42,1,1,0,0,0,.72.38.57.57,0,0,0,.11.16l0,0c-.3,0-.61,0-.91,0a7.24,7.24,0,0,0-1.86.15h0l-.34.06a6.09,6.09,0,0,0-1.76.69c-.35.17-.71.36-1,.55,0-.07,0-.14-.05-.2l.11-.06c.23-.14.28-.43.4-.66a4.3,4.3,0,0,1,1.08-1.13c1.37-1.14,3.1-2,4.18-3.45a3.28,3.28,0,0,0,.73-2.44,4.65,4.65,0,0,0-1.26-2.42,5.78,5.78,0,0,0-2.23-1.28,11.48,11.48,0,0,0-3.22-1,4.28,4.28,0,0,0-1.71.15,2.35,2.35,0,0,1-1.75-.25,8.3,8.3,0,0,0-1.74-.59,6.46,6.46,0,0,0-1.81,0,12.77,12.77,0,0,0-1.94.37,8.09,8.09,0,0,1-1.87.39c-.55,0-1.62.11-2.09-.33a.84.84,0,0,0-.18-.23.19.19,0,0,0-.3.23.73.73,0,0,0,.16.22,2.52,2.52,0,0,1,.21.88,3.47,3.47,0,0,1,0,1.16c-.14.48-.44.91-.6,1.4a4.41,4.41,0,0,0-.26,1.73,14.51,14.51,0,0,0,.94,3.41c.3.92.2,2,.75,2.83a16.78,16.78,0,0,0,2.08,2.22,9.53,9.53,0,0,0,2,2,4.79,4.79,0,0,0,4.34.2c1.36-.74,1.58-2.92,3.13-3.2a.22.22,0,0,0,0,.14,1.68,1.68,0,0,0,.17.54,2.29,2.29,0,0,0-1.18,1.35,2,2,0,0,0,.07,1.61c.54.62,1.15-.7,1.29-1a1.59,1.59,0,0,1,.15-.29,14,14,0,0,0-.12,1.85c-.09.83-.23,1.65-.29,2.48,0,.07,0,.13,0,.19a2.07,2.07,0,0,0-1,.18,2,2,0,0,0-1.05,1.38,2.61,2.61,0,0,0,.53,1.82,12,12,0,0,0,1.36,1.4q-.15,4.72-.18,9.45c0,2.07,0,4.15.08,6.22a4.75,4.75,0,0,0-.7-.64,4.11,4.11,0,0,0-.82-.46,1.55,1.55,0,0,0,.08-.23,2.59,2.59,0,0,0-.74-1.92,4.59,4.59,0,0,0-1-1.06,2,2,0,0,0-.12-2.59c-.87-1-2.06-.81-3.23-.89a3.31,3.31,0,0,1-.54-.06.22.22,0,0,0-.14-.21,2.62,2.62,0,0,1,1.22-.42,2.41,2.41,0,0,0,1.14-.51,2.67,2.67,0,0,0,1.17-1.85,2.18,2.18,0,0,0-1-1.51,2.56,2.56,0,0,0-1.79-.64.77.77,0,0,0-.3.11,4,4,0,0,0-.42-1.33,7.6,7.6,0,0,0-4.1-3.4,11.19,11.19,0,0,0-5.3-.38,10.42,10.42,0,0,0-4.6,1.92c-1.92-.49-3.68.43-5.48,1a9.3,9.3,0,0,1-3.21.59,25.31,25.31,0,0,1-3.05-.79,5.53,5.53,0,0,0-2.55.25,3,3,0,0,1-1.33.1c-.48-.07-.95-.23-1.44-.31-1.91-.3-3.71.7-5.51,1.13a9,9,0,0,1-3.64.21,8.07,8.07,0,0,0-2.91-.43c-.19,0-.18.29-.05.38a2.56,2.56,0,0,0,1.56.36,2.17,2.17,0,0,1,1.85.7c.46.52.85,1.11,1.32,1.63a10.25,10.25,0,0,0,1.69,1.32c1.13.79,2.32,1.58,3.75,1.33a3.5,3.5,0,0,1,2.26-.05A2.69,2.69,0,0,1,391,391.1a6.51,6.51,0,0,0,1.91,2.83,4.68,4.68,0,0,0,3.49.57,6.62,6.62,0,0,0,1.82-.66,2.57,2.57,0,0,1,1-.35,2.13,2.13,0,0,1,1.09.35,5,5,0,0,0,1.81.69,4.72,4.72,0,0,1,2.15.45c.6.42.7,1.21,1.05,1.8a2.24,2.24,0,0,0,1.51,1,4.66,4.66,0,0,0,2,.08c.44-.09.9-.33,1.36-.45-.24.17-.47.35-.71.54-.81.63-1.61,1.28-2.41,1.93a10.17,10.17,0,0,0-3,4c-1.59-.55-3.4.51-4.71,1.31a41.55,41.55,0,0,1-5.87,3.26c-2,.81-4,1.41-6,2.12a17.06,17.06,0,0,0-4.88,2.3c-.65.5-1.26,1-1.94,1.5l-.57.35a5.53,5.53,0,0,1-1.53.19.16.16,0,0,0-.08.29,2.14,2.14,0,0,0,2-.27l.83-.25a9.6,9.6,0,0,1,1.48-.34c.53-.06,1.08-.06,1.61-.07a16,16,0,0,1,3.39.17,19,19,0,0,1,2.92,1,4.67,4.67,0,0,0,2.79.15,8.28,8.28,0,0,0,1.18-.42,6.21,6.21,0,0,1,1.27-.46,2.84,2.84,0,0,1,1,.17,2.1,2.1,0,0,0,1.4,0c.72-.31,1.14-1,1.83-1.36a1.72,1.72,0,0,1,.54-.18l0,0c-.21.11-.1.41.12.43.81,0,1.63,0,2.44,0s1.59.19,1.91.86a8.34,8.34,0,0,1-3.15,0c-.25-.06-.43.31-.18.44a2.49,2.49,0,0,1,1.33,1.56c.22.7.33,1.42.58,2.11a6.53,6.53,0,0,0,2.59,3.35,17.42,17.42,0,0,1,1.86,1.21c.54.44,1,.93,1.58,1.39a6.36,6.36,0,0,0,2.73,1.48,5.12,5.12,0,0,1,.1.54,3.89,3.89,0,0,0-4.36-.36,11.16,11.16,0,0,0-3.25,3.38c-.27.38-.51.78-.8,1.14a3.21,3.21,0,0,1-1.18.88,6.64,6.64,0,0,0-2.33,1.28.2.2,0,0,0,.14.33,7.52,7.52,0,0,0,2.11-.2,9,9,0,0,1,2.43-.11c1.24.13,2.48.35,3.72.5,1.68.2,3.9.52,5.37-.54a2.4,2.4,0,0,0,1-2.21,1.1,1.1,0,0,1,.36.49.2.2,0,0,0,.24.13l.24-.13a9,9,0,0,0,.2,2.44,14.16,14.16,0,0,0,.74,2.48c.42,1.06,1.14,2.13,1.08,3.31s-1.11,1.8-1,2.94a.25.25,0,0,0,.38.21,13.34,13.34,0,0,0,1.32-.9,4.43,4.43,0,0,1,1.83-.62c1.58-.27,3.17-.44,4.75-.68h.1a.17.17,0,0,0,.09.13c.26.17.32.6.35.91a1.63,1.63,0,0,0-.47-.16,2.53,2.53,0,0,0-2.43.71.23.23,0,0,0,0,.29c.74.68,1.87.49,2.78.8a1.88,1.88,0,0,0-.14.68,2,2,0,0,0-.07.31.94.94,0,0,0,.24.82.61.61,0,0,0,.05.33l-.86-.08c-1.33-.1-2.68,0-4-.14a12.9,12.9,0,0,1-3.25-.69c-.5-.18-1-.36-1.5-.51a1.93,1.93,0,0,0-1.06-.1c-.38.12-.22.74.17.61a1.64,1.64,0,0,1,.89.16c.47.14.92.31,1.38.47a12,12,0,0,0,3.14.66c1.4.11,2.8,0,4.19.11,1.21.07,2.41.26,3.61.32a7.89,7.89,0,0,0,3.64-.46.27.27,0,0,0,.23-.19h0a.21.21,0,0,0-.06-.24.24.24,0,0,0-.12-.4.71.71,0,0,0-.52.17h0a5.82,5.82,0,0,0,.1-2A5.7,5.7,0,0,1,434,441.5c.75-.37,1.54-.55,2.3-.88.25-.11.6-.27.62-.58s-.32-.51-.58-.62a3.34,3.34,0,0,0-4.36,1.38c0-.11,0-.23,0-.34a3.94,3.94,0,0,0-.17-1.74.05.05,0,0,1,0,0l.57-.3a9.2,9.2,0,0,0,2.65-2.24,16.73,16.73,0,0,0,2-3,7.88,7.88,0,0,0,.16,1.27,4.86,4.86,0,0,0,1.23,2.27c1.34,1.35,3.39,1.51,5.18,1.68,1.13.11,2.25.16,3.38.22s2.24.16,3.36.12a27.35,27.35,0,0,0,3.7-.48,6.67,6.67,0,0,0,3.14-1.17,5.69,5.69,0,0,1,3-1.52c1-.05,2,.22,3,.19a.24.24,0,0,0,.24-.28,1.3,1.3,0,0,0,1.31-.19.27.27,0,0,0-.05-.41,3.27,3.27,0,0,0-1.2-.4h0a8.37,8.37,0,0,0-1-.33,22.75,22.75,0,0,1-3.11-1.67c-1.43-.85-2.93-1.55-4.41-2.3a7.58,7.58,0,0,1-1.75-1.1,5.71,5.71,0,0,1-1.11-1.39,32.16,32.16,0,0,1-1.49-3.21,9.75,9.75,0,0,0-5.2-5.23c-2.44-.88-5,.32-6.78,2a4.11,4.11,0,0,0-1.45,3.37c.14,1.5.89,3.12.45,4.61l-.17.05a2.93,2.93,0,0,0-1.92-1.66l-.31-.06a.53.53,0,0,0,.08-.15,4.68,4.68,0,0,0,.08-.54c.05-.31.15-.61.23-.92.4-1.43.72-2.91,1.24-4.32a40.94,40.94,0,0,1,1.95-4.33c.39-.77.9-1.47,1.29-2.25.28-.56.64-1.45,0-1.84a9.62,9.62,0,0,1,3.76.86c2.29,1.27,3.34,3.89,5.36,5.47a5.18,5.18,0,0,0,3.44,1.06,5.7,5.7,0,0,1,2.18.17,15.8,15.8,0,0,0,2.15.68c1.65.29,3.33.4,5,.77a11.75,11.75,0,0,1,4,1.82,10.6,10.6,0,0,1,1.73,1.4c.49.52.92,1.09,1.37,1.65a11.75,11.75,0,0,1,1,1.41,5.11,5.11,0,0,0,1,1.24,1.78,1.78,0,0,0,1.26.45A.27.27,0,0,0,472.47,429.68Zm-34.83-33.32c-.6-1.78-2.06-4-4.2-3.73a.59.59,0,0,0,.05-.23v0a3,3,0,0,0,.45.14c.66.13,1.32.23,2,.38s1.4.44,2.1.66a3.28,3.28,0,0,0,1.35.25,18.2,18.2,0,0,0,.13,5.75,8.36,8.36,0,0,1,0,2,.29.29,0,0,0,0,.09,3.37,3.37,0,0,1-1.81,2.06l-.35.23a8.21,8.21,0,0,1,.47-1.69,9,9,0,0,0,.36-2.36A10.25,10.25,0,0,0,437.64,396.36Zm-8.1,33.94-.06-.11a3.56,3.56,0,0,0,.26-.94,2.62,2.62,0,0,0,.09.56.24.24,0,0,0,.39.1,3.5,3.5,0,0,0,1-2,4.22,4.22,0,0,0,.22.77l0,0v.12A6.59,6.59,0,0,1,429.54,430.3Zm-17.06-.49a2.61,2.61,0,0,0,.53-1.32c0-.18.06-.36.09-.53.41.58.65,1.25,1,1.85A5.7,5.7,0,0,0,412.48,429.81Zm.49-3.12c0-.15,0-.29,0-.44l.2,0A3.61,3.61,0,0,0,413,426.69Zm-.57,2.63c0-.1.08-.2.13-.3A2.71,2.71,0,0,1,412.4,429.32Zm2.3.47a2.79,2.79,0,0,1-.5-.91,7.21,7.21,0,0,0-1-1.55,4,4,0,0,1,.34-1.05,4.44,4.44,0,0,0,2.19-.71,2.5,2.5,0,0,0,.72-.83,3.56,3.56,0,0,1,.49-.69,1.46,1.46,0,0,1-.55.88.23.23,0,0,0,.1.39c.54.19.81.7,1.15,1.13a7.87,7.87,0,0,0-.69,2,1.78,1.78,0,0,1-1.45,1.41C415.26,429.87,414.91,430,414.7,429.79Zm-.84-4a6.65,6.65,0,0,1,2.07-1.62c.18-.11.36-.2.54-.29-.23.28-.39.63-.62.94A3.07,3.07,0,0,1,413.86,425.78Zm3.62,2.89a.19.19,0,0,0-.1,0,8.29,8.29,0,0,1,.75-2.09.23.23,0,0,0,0-.28A5.65,5.65,0,0,0,417,425a1.4,1.4,0,0,0,.4-1.45.15.15,0,0,0-.08-.11c.54-.26,1.08-.49,1.63-.73l1.36-.6.33-.15s0,.05,0,.08a3.72,3.72,0,0,0,.67,1.72s0,.1,0,.15.14.1.2,0a.13.13,0,0,0,.14,0,1.65,1.65,0,0,0,.17-1.6,3.8,3.8,0,0,0-.38-.82v0l.09-.07a3.78,3.78,0,0,0,.85-1.56c.05.26.13.5.18.71.16.55.35,1.09.53,1.63a4.94,4.94,0,0,1,.35,1.29.12.12,0,0,0,.24,0,6.58,6.58,0,0,0-.52-2.5,10.37,10.37,0,0,1-.34-1.44,1.63,1.63,0,0,1,0-.82c.88,1.18.59,2.92,1.1,4.25a1.61,1.61,0,0,0,.31.55,10.12,10.12,0,0,0-1.12.25c-.23.06-.46.14-.69.22a8.7,8.7,0,0,0-2.79,1.52l-.14.1a5.53,5.53,0,0,0-1.42,1.66l-.21.44c-.07.15-.14.3-.2.45v0Zm3.68-7c.08.14.16.28.23.43a1.72,1.72,0,0,1,.14,1.38,6.5,6.5,0,0,0-.55-1.7ZM427,424l.08-.06a1.27,1.27,0,0,0,.18-.27l.09.58,0,0ZM425.82,414l.15-.22a3.37,3.37,0,0,1,.63,1.71,19.06,19.06,0,0,1,.25,2.82c0,.17,0,.33,0,.5-.14-.46-.27-.93-.38-1.39-.15-.65-.34-1.28-.48-1.93A4.76,4.76,0,0,1,425.82,414Zm2,10.75a22.07,22.07,0,0,1-.36-2.44v-.1a7.59,7.59,0,0,0-.1-1.17c-.06-1.06-.09-2.13-.14-3.18,0-.28,0-.56-.05-.83.05.34.11.69.17,1a28.13,28.13,0,0,1,.72,5.08A3.33,3.33,0,0,1,427.86,424.71Zm-1.19-12c0,.71.13,1.41.23,2.12a3,3,0,0,0-.69-1.44C426.37,413.17,426.52,412.94,426.67,412.71Zm-1.24,1.82v.07a11.06,11.06,0,0,0,.37,1.8c.34,1.29.71,2.58,1,3.88.05.21.09.41.13.62,0,.51.07,1,.12,1.52a1.64,1.64,0,0,1,0,.22,2.12,2.12,0,0,1-.26,1c-.13.17-.21.1-.4,0a3.09,3.09,0,0,0-1.39-.39c-.11,0-.36.06-.46,0s-.24-.45-.28-.59c-.51-1.47-.22-3.15-1.27-4.42,0,0,0,0,0,0,.29-.5.66-1,1-1.44C424.47,416,424.94,415.27,425.43,414.53Zm6-11.88a14.74,14.74,0,0,0,.32-2.72c0,.1.09.2.12.3a2.25,2.25,0,0,1,0,1.18c-.2,1-.39,2-.53,3a47.74,47.74,0,0,0-.3,6.21c-.07,4-.62,8-.91,12.08,0-1.1.05-2.2.13-3.3.15-2.22.21-4.44.24-6.66s.23-4.43.4-6.65A22.65,22.65,0,0,1,431.44,402.65Zm-2,26.07-.09.11c-.08.07,0,.19.06.22a3.56,3.56,0,0,1-.14.63c-.3-1-.12-2-.36-3.05a5.09,5.09,0,0,1,.4,1A3.82,3.82,0,0,1,429.43,428.72Zm2-.21a12.24,12.24,0,0,1,0-3.2c.11-1.29.25-2.56.48-3.83.5-2.67,1.16-5.32,1.81-8,.33-1.35.69-2.69,1.06-4a1.55,1.55,0,0,1,.31,1,6.14,6.14,0,0,1-.53,1.82,29.13,29.13,0,0,0-1,3.93c-.66,2.74-1.33,5.48-1.73,8.27A34.13,34.13,0,0,0,431.45,428.51Zm3.06-19.58c-.81,2.66-1.42,5.38-2.05,8.09a58.24,58.24,0,0,0-1.2,6.38c0-.78.06-1.57.11-2.36.12-2.09.37-4.17.56-6.26s.27-4.25.4-6.37c.07-1.15.14-2.31.29-3.45.11-.9.26-1.79.37-2.69a9,9,0,0,1,.63,1.76c.31,1.26.33,2.56.61,3.82a6.61,6.61,0,0,0,.32,1A.16.16,0,0,0,434.51,408.93Zm-2.6-1.47c-.14,2.06-.21,4.14-.36,6.21-.28,3.77-.9,7.54-.73,11.34.06,1.34.22,3.05-.62,4.21a17.87,17.87,0,0,1,.21-2.08c0-1.07,0-2.14.11-3.21.12-2.15.33-4.3.52-6.45s.4-4.39.45-6.59a53.28,53.28,0,0,1,.29-6.32c.17-1.16.46-2.3.6-3.45a.31.31,0,0,0,0-.09l.21.43C432.44,403.46,432.05,405.44,431.91,407.46Zm-.73-10.66a8.28,8.28,0,0,0,.32,2.06.27.27,0,0,0-.15.21,20.28,20.28,0,0,1-.33,3.3,22.63,22.63,0,0,0-.49,2.83c-.21,2.1-.41,4.2-.48,6.31s-.06,4.23-.18,6.34-.21,4.33-.23,6.5c0,.82,0,1.62.05,2.44a8.8,8.8,0,0,1,0,1.15,6.27,6.27,0,0,0-1.48-2.81l0-.06a2.71,2.71,0,0,0,.36-1.19,11.27,11.27,0,0,0-.11-2.53c-.2-1.59-.6-3.14-.81-4.72a41.48,41.48,0,0,1-.51-4.57,19.14,19.14,0,0,0,1.8-3.73,12.52,12.52,0,0,0,.5-5.89,9.36,9.36,0,0,0-.66-2.35c0-1.73.2-3.45.24-5.17,0-1.93,0-3.86,0-5.78,0-1.67-.06-3.34-.08-5a9.83,9.83,0,0,1,.62,1.09c.28.59.5,1.21.79,1.79a2.61,2.61,0,0,0,1.08,1.3.21.21,0,0,0,.28-.07,2.11,2.11,0,0,0,.19-1.11v-.28a3.34,3.34,0,0,0,.12.76,5.65,5.65,0,0,0,.59,1.3c-.1.42-.18.84-.25,1.26a.77.77,0,0,0-.13.41,1,1,0,0,0,0,.3,18.06,18.06,0,0,0-.12,2.43A5.29,5.29,0,0,0,431.18,396.8Zm-2.74-18.32.17,0c-.11,1.46-.16,2.91-.13,4.38v0l-.21-.23c0-.14,0-.29,0-.44C428.33,381,428.36,379.74,428.44,378.48Zm.55.19a17.16,17.16,0,0,0,2,.95,1.69,1.69,0,0,0,1.62-.45l.37-.31c0,.73-.08,1.46-.09,2.19a11.43,11.43,0,0,0,0,1.85.09.09,0,0,0,.17,0,13.26,13.26,0,0,1,.07-1.4c.05-.82.11-1.64.18-2.47,0-.16,0-.33,0-.5l.16-.12c-.07.61-.13,1.22-.15,1.83,0,.86-.05,1.71-.08,2.57l-.09.12c-.83.27-1.38,1.38-1.63,2.14a4.19,4.19,0,0,0-.15,1.41,4.45,4.45,0,0,1,0,1.36,2.84,2.84,0,0,1-.78-1.09c-.26-.53-.47-1.09-.71-1.63a10.27,10.27,0,0,0-1-1.7C428.86,381.84,428.88,380.26,429,378.67Zm.28-5.94a.23.23,0,0,0-.07-.07,3.66,3.66,0,0,1,2.14-.63,19.17,19.17,0,0,1,2.6.38,2.68,2.68,0,0,0-.22.58,15.89,15.89,0,0,0-.41,2.27c-.13,1-.23,2-.3,3l-.59.52a1.48,1.48,0,0,1-1.11.47,4,4,0,0,1-1.25-.54,11.18,11.18,0,0,0-1-.48l.06-.85c.09-.9.17-1.79.32-2.69A2.76,2.76,0,0,0,429.27,372.73Zm2.57,12.89a3.47,3.47,0,0,1,.48-1.29c.07-.12.14-.24.22-.36-.07.15-.15.3-.21.46a5.68,5.68,0,0,0-.5,2.26A9.55,9.55,0,0,1,431.84,385.62Zm3.05,2.76c.3-.48.65-.94.95-1.42.16-.26.81-1.43,1.2-1.25s.12.83,0,1.05a5.71,5.71,0,0,1-.66,1.15,22.24,22.24,0,0,1-1.36,1.83c-.24.27-.5.49-.82.41C434.06,389.61,434.65,388.76,434.89,388.38Zm4.55,5.12-.12,0a2.22,2.22,0,0,1-.8-.12c-.5-.14-1-.34-1.45-.52a15.68,15.68,0,0,0-2.43-.6,2.18,2.18,0,0,1-1.39-.53,1.58,1.58,0,0,1-.41-1.2c.06-.16.27-.17.52-.13a10.09,10.09,0,0,1,1.35.88,9.71,9.71,0,0,0,2.4,1.17,12.49,12.49,0,0,0,1.37.35,5.4,5.4,0,0,1,.88.15.47.47,0,0,1,.21.12C439.52,393.23,439.48,393.36,439.44,393.5Zm-6.63-3.57c0-.15.06-.3.08-.45a2.82,2.82,0,0,0,.38.51A1.46,1.46,0,0,0,432.81,389.93Zm-.25,1.6.05.06c.12.15.26.28.37.43a.6.6,0,0,1,.08.68,2,2,0,0,0-.68.32C432.43,392.52,432.49,392,432.56,391.53Zm7,5.83c0-.13,0-.26,0-.39.06.45.14.91.21,1.36a6.31,6.31,0,0,1,0,2.45A32.66,32.66,0,0,0,439.57,397.36Zm6.66-8c.27.51.42,1.09.64,1.62a4.25,4.25,0,0,0,.31.6c0,.06.15.18.15.26,0,.27-.18.17-.31.1a9.41,9.41,0,0,0-1-.53,8.54,8.54,0,0,0-2.47-.67,4.41,4.41,0,0,0-2.41.34,3.37,3.37,0,0,0-1.5,1.8,1,1,0,0,0-.29-.18c-.4-.15-.84-.18-1.25-.31a13.92,13.92,0,0,1-1.82-.62,14.54,14.54,0,0,1-1.92-1.18l0,0h.05a1.7,1.7,0,0,0,1-.71,22.52,22.52,0,0,0,1.53-2.1c.37-.58.93-1.56.41-2.23s-1.05.05-1.36.43-.71,1.09-1.07,1.64a5.38,5.38,0,0,0-1,2.2,1.34,1.34,0,0,0,0,.2,1.75,1.75,0,0,1-.72-.73l-.21-.38c0-.07,0-.14,0-.21a.22.22,0,0,0-.29-.25,3.72,3.72,0,0,1-.49-2.34,6.44,6.44,0,0,1,1.06-2.65l.13-.18h0a.21.21,0,0,0,.2-.19V383a3.7,3.7,0,0,1,4.73-1,8.15,8.15,0,0,1,1.27,1.08,7,7,0,0,1,1.11,1.25c.54.85.84,1.89,1.72,2.46a8.19,8.19,0,0,0,1.31.61,7,7,0,0,1,1.34.81A3.56,3.56,0,0,1,446.23,389.36ZM444,391.22a4.91,4.91,0,0,0-3.8,1.82,3.5,3.5,0,0,0-.23.35,3,3,0,0,1,1.91-2.11A4.74,4.74,0,0,1,444,391.22Zm9.3-14.66a23,23,0,0,0,.07,4.62,7.88,7.88,0,0,1-.91,4.36,3.86,3.86,0,0,1-2.49,1.95.26.26,0,0,0-.18.31c.17.89.66,1.94-.38,2.49s-1.79-.46-2.3-1.17a4.38,4.38,0,0,0-1.66-1.7,15.16,15.16,0,0,1-2.17-.88,1.59,1.59,0,0,1-.74-1,1.18,1.18,0,0,1,.45-1.05c.61-.63,1.3-1.21,1.93-1.83,1.53-1.5,3-3,4.53-4.54a17.8,17.8,0,0,1,4.57-3.77A6.14,6.14,0,0,0,453.29,376.56Zm-18.83,1.34a11.36,11.36,0,0,1,2.45-.51,7.24,7.24,0,0,0,1.91-.35c.53-.24.8-.78,1.28-1.09a3.76,3.76,0,0,1,2.56-.26,12.54,12.54,0,0,0,1.94.63,6.06,6.06,0,0,0,2.1-.48,14,14,0,0,1,2.44-.75c.67-.1,1.35-.14,2-.23a15.53,15.53,0,0,0,1.58-.29,23.61,23.61,0,0,0-3.51,3.13c-1.75,1.79-3.51,3.57-5.31,5.32-.57.56-1.46,1.11-1.75,1.89a1.41,1.41,0,0,0,0,1,3.3,3.3,0,0,1-.29-.41c-.32-.54-.56-1.13-.92-1.65a9.76,9.76,0,0,0-1.21-1.28,4.5,4.5,0,0,0-2.9-1.5,4.19,4.19,0,0,0-3.19,1.3c0-.69,0-1.37.06-2.06s.1-1.46.18-2.19A2.94,2.94,0,0,1,434.46,377.9Zm-.59-3c-.12.87-.15,1.75-.24,2.63,0,.11,0,.22,0,.33l-.18.12a37.85,37.85,0,0,1,.54-4.26,7.75,7.75,0,0,1,.21-.83A17.38,17.38,0,0,1,433.87,374.91Zm.47-2.39Zm1-2.91-.08-.05.11,0Zm.54-.2.48-.14.09,0a2.7,2.7,0,0,1-.64.36A1,1,0,0,0,435.85,369.41Zm1.21-6.69c.24-.22.67-.39.66.12a3.54,3.54,0,0,1-.51,1.39c-.21.42-.39.83-.56,1.26a18.94,18.94,0,0,0-.86,2.39c-.06.25-.09.53-.13.81l-.21.56a3,3,0,0,1-.42.05,2.78,2.78,0,0,1,.12-1c.07-.38.15-.76.21-1.14a10,10,0,0,1,.95-3.37A5,5,0,0,1,437.06,362.72Zm-2.86,5.07a4.64,4.64,0,0,1,.46-1.26,3.58,3.58,0,0,1,.62-1l-.12.54c-.17.93-.39,1.87-.49,2.8a1.79,1.79,0,0,0,0,.4C434.06,369.06,434.1,368.29,434.2,367.79Zm-5.72,3.66a.14.14,0,0,0,0,.23c-.06,0-.12-.08-.16-.21Zm-3.14,1.82c-.9,1.33-2.93,1.21-4.27.68a5.59,5.59,0,0,1-2.11-1.82c-.68-.78-1.51-1.42-2.12-2.27s-.51-2-.85-2.95a10.37,10.37,0,0,1-.89-3.39,4.58,4.58,0,0,1,.5-2,3.37,3.37,0,0,0,.43-1.26,4.71,4.71,0,0,0-.08-1.38,4,4,0,0,0,.93.16,7.22,7.22,0,0,0,2.49-.26,11.84,11.84,0,0,1,3.44-.55c1.16,0,2.09.69,3.19.94a1.68,1.68,0,0,0,1-.05,4.19,4.19,0,0,1,1.76-.14,12.72,12.72,0,0,1,3.2,1,4.46,4.46,0,0,1,2.25,1.61,3.15,3.15,0,0,1,.57,3c-.68,1.69-2.44,2.57-3.81,3.63a6.77,6.77,0,0,0-2,1.9c-.06.12-.11.25-.17.37s-.11.07-.13-.13c0-.39-.09-.77-.13-1.16s-.07-1.08-.17-1.62-.22-1.2-.32-1.81-.14-1.22-.23-1.83a9.05,9.05,0,0,0-.37-1.7c-.12-.34-.31-.83-.72-.91-.63-.12-.9.73-1,1.19a8,8,0,0,0,0,2.71,8.26,8.26,0,0,0,.55,1.68c.27.61.45,1.24.68,1.86a5.12,5.12,0,0,0,.77,1.44c.12.17.28.32.4.48l0,0C426.75,370.7,426.11,372.13,425.34,373.27Zm3-3.09a5.45,5.45,0,0,1-.67-1,17.88,17.88,0,0,1-.63-1.73c-.18-.5-.43-1-.59-1.47a7,7,0,0,1-.33-1.93c0-.32,0-.64,0-.95a2,2,0,0,1,.37-1.27c.38-.37.63.48.7.74a9.62,9.62,0,0,1,.35,1.76c.24,1.91.6,3.81.77,5.73A.57.57,0,0,1,428.33,370.18Zm-.79,4.17c-.11.13-.19.27-.28.15a.93.93,0,0,1-.06-.47,2,2,0,0,1,1.22-1.89.44.44,0,0,0,.27,0l.06,0h0a.19.19,0,0,0,.19-.24l0-.09a1.09,1.09,0,0,0,0-.18c.54-.26,1-.57,1.57-.83a8.63,8.63,0,0,1,1.11-.4l.17,0a6,6,0,0,1,2.07-.07,7.18,7.18,0,0,0,1.73.2.2.2,0,0,0,.18-.25.86.86,0,0,0-.11-.24l.12,0a4.91,4.91,0,0,0,1.32-.88c.54-.45,1.06-.92,1.59-1.39a5.52,5.52,0,0,1,1.7-1.12,14.18,14.18,0,0,0,1.62-.67c.15-.08.06-.26-.07-.28a4.39,4.39,0,0,0-2.95,1.21c-.92.74-1.46,1.85-2.65,2.22l-.43.14c0-.19.07-.39.11-.58.1-.34.21-.67.3-1s.13-.48.2-.72.25-.62.36-.93.28-.67.43-1a3.25,3.25,0,0,1,1.06-1.12,6.7,6.7,0,0,1,2.14-.73,10.39,10.39,0,0,1,4.44-.13,4,4,0,0,1,1.77.81,3.15,3.15,0,0,1,.94,1.6,1.17,1.17,0,0,0,.37.58,5.49,5.49,0,0,0-.81,0,9.12,9.12,0,0,0-3.08.9c-.86.43-1.19,1.21-1.79,1.9a6.37,6.37,0,0,1-2.48,1.62c-.9.37-1.87.6-2.76,1-.44.2-.82.63-1.28.75A4.7,4.7,0,0,1,434,372a12.7,12.7,0,0,0-3.19-.36,3.76,3.76,0,0,0-2.51,1.27C428,373.35,427.89,373.93,427.54,374.35Zm12.68-8.11a3.85,3.85,0,0,1,.91-.34Zm-11.64,10.48c.07-.71.17-1.39.19-2.1,0-.38,0-1.14.26-1.49A3.49,3.49,0,0,1,429,375c-.14.73-.18,1.47-.25,2.21,0,.32-.06.64-.08,1l-.18,0Q428.51,377.41,428.58,376.72Zm-1.11,5.2A3,3,0,0,1,426.3,380a1.5,1.5,0,0,1,1.17-1.53,2.3,2.3,0,0,1,.52,0c-.05.77-.08,1.54-.11,2.32,0,.51,0,1-.05,1.52Zm.68,5.86c0-1.49.06-3,.11-4.48a3.25,3.25,0,0,1,.23.29c.08,3.59.17,7.18.09,10.77,0,1.65-.19,3.31-.25,5a5.72,5.72,0,0,0-.39-.57C428.13,395.1,428.08,391.44,428.15,387.78Zm.15,12.77v.14a.2.2,0,0,0,.13.18c.05.13.09.27.13.41,1.17,3.88-.21,7.81-2.33,11.08-.61.94-1.29,1.85-1.88,2.8-.31.48-.6,1-.91,1.45s-.65.92-.91,1.42c-.35.68-.5,1.44-.78,2.15a2.9,2.9,0,0,1-.57.92A.34.34,0,0,0,421,421a.13.13,0,0,0-.17.12.43.43,0,0,0,.05.16l-.19.12a.23.23,0,0,0-.19.11l-.75.33c-2,.92-4.29,1.69-5.88,3.28a4.22,4.22,0,0,0-.53.67,3.75,3.75,0,0,1-.48,0,3.24,3.24,0,0,1,.09-1.07c.23-.9.54-1.77.75-2.68s.37-1.83.62-2.74.55-1.75.88-2.61c.62-1.63,1.2-3.28,1.78-4.93a15,15,0,0,1,1-2.44c.39-.7,1-1.25,1.39-2a1.74,1.74,0,0,0,.08-1.15,3.2,3.2,0,0,0,.9-1.91,9.09,9.09,0,0,0,.18-1.56,10,10,0,0,1,.14-2.45,3.43,3.43,0,0,1,.29-.76,2.18,2.18,0,0,0,.69-.17c.45-.19.84-.5,1.28-.72a5,5,0,0,1,1.57-.34,2.63,2.63,0,0,0,1.22-.43A4.57,4.57,0,0,1,428.3,400.55Zm-9.25,1.64a5.86,5.86,0,0,0,0-2.94l.33,0,.84.17.27,0a3.2,3.2,0,0,0-.18.52,12.07,12.07,0,0,0-.15,2.75c0,.57-.13,2.57-.84,3.06a.42.42,0,0,0-.51-.05,1.83,1.83,0,0,1-.27-1.62C418.67,403.49,418.88,402.85,419.05,402.19Zm2.05-6.46c.22,0,.53.84.59,1a8,8,0,0,1,.25.79c-.15-.27-.32-.53-.49-.79C421.4,396.62,420.84,395.77,421.1,395.73Zm4,1.94h0l-.25.08c-.5.12-1,.14-1.5.29a10,10,0,0,0-1.28.61,4.27,4.27,0,0,1-.61.24A4,4,0,0,1,425.08,397.67Zm.35-1.71a1.59,1.59,0,0,1,.36,1,.89.89,0,0,1-.08.29,4.86,4.86,0,0,0-3.4.33,4.8,4.8,0,0,0-.44-1.29,3.07,3.07,0,0,0-.33-.6,6.16,6.16,0,0,0,2.2-.74,3.05,3.05,0,0,0,.49-.38,2.37,2.37,0,0,1,.43.4A6.49,6.49,0,0,1,425.43,396Zm-4-10.08a2.78,2.78,0,0,1,1.89,1.06,1.08,1.08,0,0,1,.3.9,2.39,2.39,0,0,1-.75,1.11,2.2,2.2,0,0,1-1.12.63,4.26,4.26,0,0,0-1.21.33,1.32,1.32,0,0,0-.49.4,1.94,1.94,0,0,1-.12-1.21l.6-1.18a4.25,4.25,0,0,0,.43-1.24,3,3,0,0,0,0-.6A.58.58,0,0,1,421.44,385.88Zm-2.06,4.51c0,.18-.24.44-.45.32s0-.54.12-.68l.25-.2A1.13,1.13,0,0,1,419.38,390.39Zm-.93-.13a22.57,22.57,0,0,1-.94-2.27c-.43-.95-.8-1.92-1.22-2.88-.08-.18-.43-1,.08-.81.3.11.51.61.65.88l1.38,2.71c.22.44.44.88.64,1.33l.13.28c-.12.08-.26.15-.37.24A1.15,1.15,0,0,0,418.45,390.26Zm-3.51-9.32a7.74,7.74,0,0,1,4.68,2.69,3.85,3.85,0,0,1,1,2.4c-.07.12-.13.24-.19.36a9.81,9.81,0,0,0-.69,1.9,5.74,5.74,0,0,0-.19.82l0,0c-.37-.88-.84-1.72-1.29-2.56a19.55,19.55,0,0,0-1.15-2.17c-.27-.39-.75-.83-1.22-.44s0,1.31.19,1.8c.34.94.81,1.8,1.21,2.71a8.16,8.16,0,0,0,1.07,2.15.14.14,0,0,0,.15.05.63.63,0,0,0,1,.31.81.81,0,0,0,.3-.42.73.73,0,0,0,.29.23c.22.26.71.28,1,.3,1.17.11,2.58-.16,3.25,1.09a1.46,1.46,0,0,1-.32,1.89h0l-.05.06a4.5,4.5,0,0,1-1.79.89,19.07,19.07,0,0,1-3.85.42,20.53,20.53,0,0,1-3.32-.25c-1.12-.13-2.24-.18-3.37-.26a13.27,13.27,0,0,1-3.25-.51,8.7,8.7,0,0,1-2.3-1.29,23.54,23.54,0,0,0-2.21-1.47l-1.23-.75a3.18,3.18,0,0,0-1.22-.53,12.21,12.21,0,0,1-1.48-.06l-.26-.06c-.33-.11.09,0,.22,0a1.27,1.27,0,0,0,.9,0,2.54,2.54,0,0,0,1-.64,8.27,8.27,0,0,0,1.33-2.16,16.06,16.06,0,0,1,1.36-2.43,10.29,10.29,0,0,1,2.26-2.11,11.09,11.09,0,0,1,2.66-1.5A11.22,11.22,0,0,1,414.94,380.94Zm-26,2.76a25.64,25.64,0,0,0,2.61.38,22.9,22.9,0,0,1,2.6-.49,15.31,15.31,0,0,1,3,.79,6.4,6.4,0,0,0,2.85-.15c2-.47,4-1.73,6.13-1.48l-.3.23a9.77,9.77,0,0,0-2,2.09,20.39,20.39,0,0,0-1.32,2.54c-.13.27-.27.56-.43.84h0a14.73,14.73,0,0,0-1.48.11,8.32,8.32,0,0,1-2.23-.57c-1.35-.41-2.65-1-4-1.33a18.53,18.53,0,0,0-4.34-.33,16.8,16.8,0,0,1-4.67-.63c-.78-.23-1.56-.49-2.36-.67l.29,0C385.14,384.72,387,383.64,388.94,383.7Zm20.46,13.53a4.86,4.86,0,0,1-1.82.15,2.29,2.29,0,0,1-1.78-.83c-.31-.5-.42-1.1-.77-1.57-.9-1.2-2.44-.68-3.65-1.19a8.07,8.07,0,0,0-1.85-.83,3,3,0,0,0-1.87.52,4.88,4.88,0,0,1-3.78.34,3.14,3.14,0,0,1-1.55-1.16,10.1,10.1,0,0,1-.77-1.5,2.94,2.94,0,0,0-2.44-2c-.73,0-1.41.29-2.13.31a3.87,3.87,0,0,1-2-.72,17.45,17.45,0,0,1-2.15-1.43,14.27,14.27,0,0,1-1.55-1.75,4.26,4.26,0,0,0-.41-.43,7.48,7.48,0,0,0,.82,0c1.05.22,2.07.48,3.1.8a12.94,12.94,0,0,0,4.42.75,27,27,0,0,1,4.59.24,37.61,37.61,0,0,1,4,1.29,13.91,13.91,0,0,0,2.37.67c.56.08,1.12-.15,1.67-.11a2.82,2.82,0,0,1-1.08,1.06c-.41.2-.65,0-1.06,0a.51.51,0,0,0-.59.37c-.08.47.74.56,1.05.59a6.58,6.58,0,0,1,1.47,0,7.69,7.69,0,0,1,1.55.89,27.92,27.92,0,0,1,2.35,1.54,11.63,11.63,0,0,0,2.2,1.42,9.79,9.79,0,0,0,2.94.64c1.15.12,2.31.16,3.47.27s2.26.31,3.4.35c.72,0,1.45,0,2.17-.07l.93-.08a1.2,1.2,0,0,0,.12.68,6.83,6.83,0,0,0,1.05,1.4,3.56,3.56,0,0,0-1.06,1.16,2.89,2.89,0,0,1-.5,0,2.64,2.64,0,0,0-1.28-.07,4.58,4.58,0,0,0-1.55-2.15,5.28,5.28,0,0,0-5.34-.47,9.17,9.17,0,0,0-1.37.76A4.42,4.42,0,0,0,409.4,397.23Zm-1.11,2.35c.83-.67,1.64-1.38,2.53-2l.31-.21s0,0,.05,0a5.38,5.38,0,0,1,5.27-.63,4.19,4.19,0,0,1,2.2,2.7,6.12,6.12,0,0,1-.17,3.09c-.24.92-.79,2.76.1,3.49a.2.2,0,0,0,.11.3.92.92,0,0,0,.46,0v0a1.51,1.51,0,0,1,0,.6c-.16.63-.81,1.11-1.16,1.64a16.81,16.81,0,0,0-1.77,4.16c-.51,1.52-1.13,3-1.67,4.5a37.38,37.38,0,0,0-1.28,4.86c-.1.46-.2.92-.33,1.37a6.45,6.45,0,0,0-.32,1.22,3.37,3.37,0,0,0,0,.55,7.88,7.88,0,0,0-.47-1.07c-.88-1.6-2.48-2.56-3.83-3.7a7.38,7.38,0,0,1-1.78-2,5.73,5.73,0,0,1-.41-3.47,6.93,6.93,0,0,0,0-1.51c-.08-.57-.35-1-.47-1.59-.26-1.12,1-1.12,1.3-1.92s-.57-1-1.11-1.18a2.1,2.1,0,0,1-1.65-1.59,5.2,5.2,0,0,1,.24-2.92.16.16,0,0,0,.08-.23,8.57,8.57,0,0,1,1.59-2.55A16.47,16.47,0,0,1,408.29,399.58Zm-8.86,13.81c-.32.25-.6.56-.93.8a1.7,1.7,0,0,1-1.61.16,3.37,3.37,0,0,0-1-.16,4.26,4.26,0,0,0-1.17.34,6.19,6.19,0,0,1-3,.59,18.66,18.66,0,0,1-2.81-1,10.05,10.05,0,0,0-3.36-.39,14.81,14.81,0,0,0-3.64.38l-.6.19.43-.34c.51-.39,1-.82,1.55-1.16a16.88,16.88,0,0,1,2.77-1.27c2-.79,4.05-1.38,6.05-2.09a29.78,29.78,0,0,0,5.77-2.78c1-.66,2.09-1.35,3.2-1.92a4.22,4.22,0,0,1,2.87-.59,4.67,4.67,0,0,0-.18.64c-.39,1.68-.23,3.83,1.68,4.42.32.1.84.09,1.07.35s-.37.74-.59.9a1.48,1.48,0,0,0-.63.83,2.22,2.22,0,0,0,.23,1.38s0,0,0,.06a1.17,1.17,0,0,0-1.2-.29,8.41,8.41,0,0,0-1,.31,3.47,3.47,0,0,1-1.4.12A3.22,3.22,0,0,0,399.43,413.39Zm4.28-.25c.52-.2,1.15-.43,1.47-.06A4.53,4.53,0,0,1,403.71,413.14Zm6.2,11.05c-.5-.44-1-.91-1.48-1.34a12.52,12.52,0,0,0-1.68-1.11,6,6,0,0,1-2.69-3.48c-.22-.7-.32-1.44-.6-2.12a2.88,2.88,0,0,0-.62-.91,14.54,14.54,0,0,0,2.63-.18.24.24,0,0,0,.16-.28,1.68,1.68,0,0,0-1-1.16,3.23,3.23,0,0,0,1-.16l.07,0a13.74,13.74,0,0,1-.05,2.79,4.64,4.64,0,0,0,.81,2.94c1,1.53,2.69,2.44,4,3.67a7.16,7.16,0,0,1,1.85,2.85A6.62,6.62,0,0,1,409.91,424.19Zm5.08,6.55a1.91,1.91,0,0,1-.74,1.91c-1.33,1.05-3.46.76-5,.59-1.21-.13-2.42-.31-3.63-.45a8,8,0,0,0-2.24,0,11,11,0,0,1-2.14.22,11.18,11.18,0,0,1,1.86-.85,4.16,4.16,0,0,0,1.8-1.52,13.55,13.55,0,0,1,3.3-3.73,3.38,3.38,0,0,1,2.22-.61,3.91,3.91,0,0,1,2.15,1,3.39,3.39,0,0,1-.3,1.32,4.25,4.25,0,0,0-.41,1.18,23.9,23.9,0,0,0-5,.76,8.74,8.74,0,0,0-3.67,1.59.1.1,0,0,1-.05,0h0l0,0h0c-.12.15,0,.4.22.28a8.82,8.82,0,0,1,3.31-1.51c1-.22,2.06-.22,3.09-.37s1.82-.37,2.74-.47a7.54,7.54,0,0,1,.82,0,5.39,5.39,0,0,1,1.5.28A.79.79,0,0,1,415,430.74Zm1,.24a1.69,1.69,0,0,0-.65-.65l.29-.05a2.51,2.51,0,0,0,.84-.34,3.62,3.62,0,0,0-.21.8A1.22,1.22,0,0,1,416,431Zm1.46,4.57a12.7,12.7,0,0,1-.76-3.32,6.72,6.72,0,0,1,.07-1.55,2.11,2.11,0,0,0,.18-.27,5.88,5.88,0,0,0,.55-1.16,7.74,7.74,0,0,1,5.36-4.86,5.25,5.25,0,0,1,3.56-.05,3.11,3.11,0,0,1,1.07.7c0,.07,0,.13,0,.2a.22.22,0,0,0,.27.15,4,4,0,0,1,.63,1.27c.34,1.23,0,2.52.55,3.65a4,4,0,0,1-.24.38,22.55,22.55,0,0,1-2.33,2.65c-.85.86-1.67,1.74-2.55,2.57-1,1-2.1,1.94-3.19,2.87-.79.68-1.62,1.33-2.34,2.08a2.88,2.88,0,0,0,.42-1.67A13.75,13.75,0,0,0,417.45,435.55Zm12.94,10h0l.65,0c-.22,0-.45.06-.67.08Zm.82-6.45a.23.23,0,0,0-.34.14,10.08,10.08,0,0,0,.1,3.42,5.82,5.82,0,0,1-.17,1.67l0-.22c-.1-.58-.24-1.14-.32-1.73a19.79,19.79,0,0,1-.26-2.67.23.23,0,0,0-.46,0c0,1.76.18,3.51.21,5.27l-.2,0a.79.79,0,0,1-.65-.25,4.11,4.11,0,0,1-.07-.47c0-.47-.06-.94-.11-1.4l-.12-1.13a5.31,5.31,0,0,0-.1-1.87l0-.05a16.59,16.59,0,0,0,2.59-.92C431.24,439,431.22,439,431.21,439.1Zm-2.9,2.76c0,.09,0,.18,0,.27a7.32,7.32,0,0,0,.11,2.29,2.07,2.07,0,0,0,.24.52.66.66,0,0,1,0,.14,7.32,7.32,0,0,1-.81,0l-.11,0a10,10,0,0,1-.15-1.33c0-.42.05-.79.06-1,0-.73,0-1.46,0-2.18a.22.22,0,0,0-.44,0c0,1.05-.08,2.13,0,3.19a4.2,4.2,0,0,1-.19,1,1.3,1.3,0,0,1-.5-.45c0-.3,0-.59,0-.88s.1-.29.14-.44a1.36,1.36,0,0,0-.13-1,2.21,2.21,0,0,0-.49-1.54c.73-.12,1.47-.26,2.19-.44A13.57,13.57,0,0,0,428.31,441.86Zm-4.57.27a2.29,2.29,0,0,1,2.09-.2.55.55,0,0,1,.27.25c0,.17,0,.34,0,.5a8.38,8.38,0,0,0-1.11-.22A4,4,0,0,1,423.74,442.13Zm10.46-2.53a3.27,3.27,0,0,1,1.83.21c.08,0,.29.08.34.17s.06,0,0,.08a2.29,2.29,0,0,1-.81.32,11.37,11.37,0,0,0-2.13.88,6.52,6.52,0,0,0-1.41,1,5.48,5.48,0,0,1,.1-.56A2.67,2.67,0,0,1,434.2,439.6Zm2.83-9a1,1,0,0,1,.09-.68,3.38,3.38,0,0,1,0,1.1C437.1,430.89,437.06,430.75,437,430.61Zm25.9,4.39a.12.12,0,0,0-.13.15c-.73,0-1.44-.18-2.17-.22a4.07,4.07,0,0,0-2.31.54c-.87.49-1.55,1.29-2.46,1.69a13.24,13.24,0,0,1-2.91.68,16.29,16.29,0,0,1-3.41.33c-1.06,0-2.12-.1-3.18-.16s-2.16-.12-3.23-.23a12.39,12.39,0,0,1-2.9-.55,4.5,4.5,0,0,1-2.78-4.2c0-.3,0-.59-.07-.88a4.39,4.39,0,0,0,.17-2.58l.15-.05a.2.2,0,0,0,.15,0,2.63,2.63,0,0,1,.49,0,15.15,15.15,0,0,1,4.14,1.22c.91.31,1.87.49,2.8.71,1.15.27,2.31.52,3.46.78s2.6.59,3.92.83,2.49.39,3.74.58,2.31.4,3.48.51a17,17,0,0,1,2.35.32l.26.1h0c-.16.07-.1.32,0,.36a4.69,4.69,0,0,0,.84.08,2.82,2.82,0,0,1,.59.14A2.72,2.72,0,0,1,462.93,435Zm-25.1-9.41a5.62,5.62,0,0,1-.08-2,3.78,3.78,0,0,1,.8-1.52c1.53-1.84,4.17-3.21,6.56-2.43s4.16,3,5.18,5.26a24.12,24.12,0,0,0,1.46,3,6.21,6.21,0,0,0,2.48,2.26c1.58.83,3.21,1.56,4.76,2.47.64.37,1.28.75,1.93,1.09l-.36,0c-1.1-.11-2.18-.26-3.27-.44-2.46-.4-4.91-.74-7.35-1.27s-4.73-.94-7-1.59a33.66,33.66,0,0,0-4.29-1.3,4,4,0,0,0-.6,0A8.48,8.48,0,0,0,437.83,425.59Zm-1,3.65a2.4,2.4,0,0,1,.11.23l0,0c-.55.52-.31,1.28-.15,1.9,0,.21.08.41.11.61s-.17.46-.26.67a15.23,15.23,0,0,1-2.14,3.25,8.68,8.68,0,0,1-2.59,2.11,19.28,19.28,0,0,1-6.45,1.94c-1.6.25-3.22.41-4.82.69a4.86,4.86,0,0,0-1.86.61c-.35.23-.68.5-1,.73a1,1,0,0,1,.07-.25.17.17,0,0,0,.24-.06A14.39,14.39,0,0,1,420.9,439c1.09-.88,2.16-1.81,3.18-2.77s1.91-1.9,2.85-2.87a17.2,17.2,0,0,0,2.27-2.69l0,.05a.26.26,0,0,0,.28.12,6.19,6.19,0,0,0,2.15-1.5.23.23,0,0,0,.24-.21,3.88,3.88,0,0,1,2.63-1.19A2.58,2.58,0,0,1,436.87,429.24Zm2.31-13.54a27.73,27.73,0,0,0-1.69,3.3,28.59,28.59,0,0,0-1.63,4.45q-.3,1.19-.63,2.34c-.09.31-.19.6-.25.91,0,.08,0,.28-.05.42a.23.23,0,0,0-.14.31h-.22a19.62,19.62,0,0,1,2-6.74c1-2.41,2.07-4.8,3.34-7.09C440.29,414,439.37,415.4,439.18,415.7Zm.49-2.53a67.93,67.93,0,0,0-3.6,7.56,33.87,33.87,0,0,0-1.35,3.51,8.7,8.7,0,0,0-.44,3.2,4,4,0,0,0-2.1.77l-.27.22a44.09,44.09,0,0,1,1-7.84c.3-1.45.65-2.9,1-4.35a33.17,33.17,0,0,1,1.1-4.05,5.89,5.89,0,0,0,.47-1.7,6.86,6.86,0,0,0,.63.7,6.18,6.18,0,0,0,3.41,1.89l.18,0S439.68,413.14,439.67,413.17Zm20.6,8.21a20.93,20.93,0,0,1-4.59-.81,6,6,0,0,0-1.89-.51c-.65,0-1.28.06-1.93,0-2.62-.33-4-2.79-5.55-4.6a7.7,7.7,0,0,0-2.74-2.16,18.7,18.7,0,0,0-4.08-.75,6.22,6.22,0,0,1-3.38-2.15,6.35,6.35,0,0,1-1.48-3.4,22.4,22.4,0,0,0-.65-3.73c-.43-1.29-1.17-2.46-1.68-3.72a8,8,0,0,1-.57-3,5,5,0,0,1,.49-2.45s0,0,0,0a.09.09,0,0,0,.05-.08h0a1.71,1.71,0,0,1,2-.7,3.83,3.83,0,0,1,2.34,2.05,8.87,8.87,0,0,1,.95,3.1,10.32,10.32,0,0,1,.05,2.08,10.85,10.85,0,0,1-.51,2.31,3.32,3.32,0,0,0-.12,1.43,2.42,2.42,0,0,0-.31.33.21.21,0,0,0,0,.29c.82.76,1.94,1.1,2.74,1.89a11.66,11.66,0,0,0,2.44,2.37c1.07.57,2.34.39,3.46.82a8.78,8.78,0,0,1,2.86,2,29.35,29.35,0,0,0,5.46,4.48c1.12.65,2.32,1.13,3.5,1.67s2.46,1.14,3.65,1.79a22.53,22.53,0,0,1,2,1.15,8.16,8.16,0,0,1,1.37,1.32l.06.07A13.46,13.46,0,0,0,460.27,421.38Zm7.46,3.37c-.15-.14-.3-.28-.46-.41a.14.14,0,0,0,0-.1,2.34,2.34,0,0,0-1-.86,4.33,4.33,0,0,1-1.32-.87c-.38-.37-.72-.79-1.1-1.16a7,7,0,0,0-1.39-1c-1.19-.71-2.42-1.35-3.67-1.95s-2.43-1.06-3.63-1.63a22.13,22.13,0,0,1-5.92-4.39,15.76,15.76,0,0,0-2.5-2.19,6.09,6.09,0,0,0-1.52-.73,9.56,9.56,0,0,0-1.76-.32,3.59,3.59,0,0,1-2-.84c-.49-.44-.89-1-1.33-1.45a5.77,5.77,0,0,0-1.43-1.17,14.08,14.08,0,0,1-1.43-.88.15.15,0,0,0,.15-.19s0-.08,0-.13a12.58,12.58,0,0,0,1.74-1.34,5.84,5.84,0,0,0,1.14-2.58c.34-1.84-.6-3.68-.4-5.54.24-2.36,2.61-3.56,4.78-3.34a4.11,4.11,0,0,1,1.59.57,12.8,12.8,0,0,0,1.47.64,9.5,9.5,0,0,1,2.71,1.6,15,15,0,0,1,4,5.87c.43,1.08.78,2.17,1.31,3.21a15.63,15.63,0,0,1,1.48,3.38,24.7,24.7,0,0,0,.79,3.53,29.63,29.63,0,0,0,1.55,3.27,13.47,13.47,0,0,0,3.89,4.17,16.93,16.93,0,0,1,4.41,6,34.61,34.61,0,0,0,1.92,3.22c-.22-.28-.46-.55-.68-.82A15.63,15.63,0,0,0,467.73,424.75Zm2.58,3.16c.38.51.77,1,1.19,1.48A4.47,4.47,0,0,1,470.31,427.91Z" transform="translate(-316.77 -357.51)"/><path class="cls-16" d="M448.45,459.69l0-.84c0-1.35,0-2.69,0-4,0-1.86.1-3.72,0-5.58a11.65,11.65,0,0,0-1.22-5.3,5.06,5.06,0,0,0-1.66-1.75,8.3,8.3,0,0,0-1.36-.61,25.44,25.44,0,0,0-4.54-1.25,9,9,0,0,0-4.1-.08,1.48,1.48,0,0,0-.95.81.24.24,0,0,0,.16.28,31.26,31.26,0,0,0,4,.44c1.29.12,2.89.26,3.89,1.18.21.19.53.51.43.83s-.46.49-.72.61a10.34,10.34,0,0,1-3,.77c-1,.14-1.92.23-2.89.31a52.62,52.62,0,0,1-6.15.26,19.41,19.41,0,0,1-2.95-.3,19.78,19.78,0,0,0-3-.45c-1.91-.07-3.8,0-5.71-.16a34.63,34.63,0,0,1-3.91-.53,10.22,10.22,0,0,1-2-.61,2.68,2.68,0,0,1-1-.67,10.07,10.07,0,0,1,5.81-2,.19.19,0,0,0,.19-.28h0c.3-.07.17-.52-.12-.46a21.08,21.08,0,0,1-2.1.24,13.94,13.94,0,0,0-1.54.3,10.6,10.6,0,0,0-3,1.25,5.1,5.1,0,0,0-2,2.28,9,9,0,0,0-.58,3.33c0,1.24.08,2.48.12,3.71.05,1.49.08,3,.08,4.46,0,3,0,6,0,9s.07,6,.17,8.94c.06,2.06-.13,4.26,1.25,5.95a8.79,8.79,0,0,0,4.17,2.51,34.77,34.77,0,0,0,4.93,1.11l3.67.69c1.31.23,2.63.51,4,.67A38,38,0,0,0,431,485c1.41,0,2.83,0,4.24,0a21.65,21.65,0,0,0,7.41-1.12c2.09-.76,4.17-2.14,4.85-4.36a12.21,12.21,0,0,0,.39-3.4c0-.81,0-1.61.06-2.41s.14-1.47.18-2.2c.05-1.18.16-2.35.24-3.53C448.5,465.23,448.55,462.45,448.45,459.69Zm-39,13.49c-.05-1.42-.09-2.84-.11-4.27-.1-5.69.05-11.39-.12-17.08,0-.6-.06-1.21-.1-1.82.55,1.44,2.46,2,3.83,2.4a72.6,72.6,0,0,0,7.85,1.68,43.47,43.47,0,0,0,9.12.47c1.5-.09,3-.26,4.51-.35s2.92-.18,4.36-.4a24.26,24.26,0,0,0,8.73-3.27c0,1.53.1,3,.2,4.58s.05,3.12,0,4.69c-.09,2.83-.29,5.66-.3,8.49,0,1.41-.1,2.81-.19,4.21q-.07,1.23-.09,2.46c-.08.23-.17.46-.27.68a4.89,4.89,0,0,1-1.28,1.57,11,11,0,0,1-4.21,2,24.62,24.62,0,0,1-4.74.82,55.94,55.94,0,0,1-5.79.05,27.3,27.3,0,0,1-3.94-.2c-1.17-.19-2.29-.56-3.44-.84-2.37-.59-4.82-.75-7.21-1.21a16.23,16.23,0,0,1-6.7-2.69l-.08,0C409.44,474.46,409.44,473.81,409.42,473.18Zm.06-28.3a4.32,4.32,0,0,1,1.61-2.08.34.34,0,0,0,0,.28c.47,1,1.81,1.36,2.76,1.62a27.26,27.26,0,0,0,4,.7,46.24,46.24,0,0,0,5.13.24,17.86,17.86,0,0,1,3.35.23,27,27,0,0,0,3.09.41,47.44,47.44,0,0,0,6.53-.17c1.11-.09,2.22-.18,3.32-.33s5.28-.65,4.3-2.62c-.64-1.3-2.44-1.66-3.72-1.84-1.54-.21-3.12-.09-4.65-.36a1.66,1.66,0,0,1,.86-.37,6.06,6.06,0,0,1,1.9,0,25.21,25.21,0,0,1,4.54,1.08,9.16,9.16,0,0,1,3.13,1.42,6.87,6.87,0,0,1,1.93,4.46c.09.75.13,1.5.15,2.25a.2.2,0,0,0-.11,0,25.47,25.47,0,0,1-7.76,3.2,29,29,0,0,1-4.25.51l-4.32.33a42.58,42.58,0,0,1-8.67-.11,84.65,84.65,0,0,1-8.46-1.62,17.41,17.41,0,0,1-2.82-.8,3,3,0,0,1-2.07-1.93.16.16,0,0,0-.22-.1A11.82,11.82,0,0,1,409.48,444.88Zm37.21,34.61a5.17,5.17,0,0,1-2,2.56,13.93,13.93,0,0,1-6.55,2.23c-1.26.12-2.52.1-3.77.11s-2.71.07-4.06,0a52.48,52.48,0,0,1-7.8-.89c-1.89-.35-3.78-.7-5.65-1.12a15.61,15.61,0,0,1-4.64-1.66,5,5,0,0,1-2.58-3.58,14.14,14.14,0,0,1-.13-1.46c3.63,2.6,8.18,2.78,12.43,3.57,1.2.22,2.35.57,3.53.87a17.75,17.75,0,0,0,3.7.46c2.19.08,4.4.17,6.59.07a26.68,26.68,0,0,0,4.79-.66,14.19,14.19,0,0,0,4.57-1.79,6.31,6.31,0,0,0,2-2v.06A10.78,10.78,0,0,1,446.69,479.49Z" transform="translate(-316.77 -357.51)"/></svg>