<svg id="Capa_1" data-name="Capa 1" xmlns="http://www.w3.org/2000/svg" viewBox="0 0 192.82 130.67">
  <defs>
    <style>
      .cls-1 {
        fill: none;
        stroke: #1d1d1b;
        stroke-miterlimit: 10;
      }

      .cls-2 {
        fill: #e2bf76;
      }

      .cls-3 {
        fill: #5e5248;
      }

      .cls-4 {
        fill: #322c2d;
      }

      .cls-5 {
        fill: #c37d49;
      }

      .cls-6 {
        fill: #e4a067;
      }

      .cls-7 {
        fill: #f8bc80;
      }

      .cls-8 {
        fill: #79807d;
      }

      .cls-9 {
        fill: #dcb158;
      }

      .cls-10 {
        fill: #a2c8bc;
      }

      .cls-11 {
        fill: #87c6a2;
      }

      .cls-12 {
        fill: #f3d19a;
      }

      .cls-13 {
        fill: #4c372b;
      }
    </style>
  </defs>
  <path class="cls-1" d="M89.45,411.58l6.64-1.53a11.11,11.11,0,0,0,3-1c.55-.31,1-.71,1.56-1,1.76-1.08,3.88-1.32,5.85-1.93s3.8-1.6,5.73-2.32a10,10,0,0,1,6.06-.58" transform="translate(-79.63 -365.68)"/>
  <g>
    <g>
      <path class="cls-2" d="M258.5,400.52a14.22,14.22,0,0,0-4.36.88c-1.55.44-3.13.78-4.71,1.07a74.11,74.11,0,0,1-10,1.07,27.59,27.59,0,0,1-4.36-.12c-.93-.11-1.81-.26-2.1-1.28a1.27,1.27,0,0,1,0-.38c.34-.31.67-.63,1-.93l.15-.06a32.56,32.56,0,0,1,3.79-1.16c2.91-.8,5.86-1.45,8.8-2.15,2.4-.57,5-1.3,6.83-3.08a3.12,3.12,0,0,0,1-3.18,3,3,0,0,0-2.83-1.77,8.69,8.69,0,0,0-1.25,0c1.24-1,2.43-2.45,1.52-3.94a3.66,3.66,0,0,0-2.57-1.42,18.86,18.86,0,0,0-4.31-.21,60.48,60.48,0,0,0-8.46,1.21c-2.07.4-4.16.57-6.22.94-1.9.35-4.25.84-5.45,2.52a1.9,1.9,0,0,0-.4,1.59,14.14,14.14,0,0,0-4-.19c-2.19.32-4.12,1.39-6.37,1.31-2.4-.1-4.6-.6-6.94.24-1.31.47-3.36.85-4.07,2.19a1.21,1.21,0,0,0-.15.41,3.36,3.36,0,0,0-3,.67,1.76,1.76,0,0,0,.72,3.09,5.08,5.08,0,0,0,1.74.11,3.91,3.91,0,0,1,1.83,0c.81.34,1.46.93,2.3,1.23a6.7,6.7,0,0,0,2.95.25,14,14,0,0,1,3.1-.15,18.33,18.33,0,0,0,3.23.09,5.86,5.86,0,0,0,2.66-.67,4.25,4.25,0,0,1,1.23-.64,3.34,3.34,0,0,1,1.25.19,8.75,8.75,0,0,0,2.68.44,7,7,0,0,0,3.1-1,6.1,6.1,0,0,0,1-.8c.29-.27.49-.56.77-.49s.76.4,1.17.52a5.16,5.16,0,0,0,1.3.18,5.5,5.5,0,0,0,2.61-.33,3.71,3.71,0,0,0,1.05-.84,2.39,2.39,0,0,1,.23-.22l.07-.06.06,0c.42.2.81.4,1.22.55-.44.22-.88.44-1.31.67a16.42,16.42,0,0,0-3.66,2.57l-.05.05-.11.1c-.22.22-.42.59-.74.58s-.58-.25-.85-.29a2.66,2.66,0,0,0-1.34.16,1.32,1.32,0,0,0-.93,1.25,6.58,6.58,0,0,0-3.17.53,3.58,3.58,0,0,0-2.41,2.63.92.92,0,0,0,.71,1c1.64.44,3.57-1.08,5-1.73a7.71,7.71,0,0,1,2.63-.88h.35l.08,0a3.66,3.66,0,0,0,.21.55,6.78,6.78,0,0,1-1,1c-.7.57-1.44,1.09-2.18,1.62-1.23.88-2.84,1.9-3.55,3.29-.83,1.61.82,2.92,2.36,2.31,1.78-.7,3-2.59,4.27-3.75a8.89,8.89,0,0,1,1.55-1.14,3,3,0,0,1,2.35-.15,53.75,53.75,0,0,0,5.49,1.07,28.75,28.75,0,0,0,9.21-.13,33.22,33.22,0,0,0,6.35-1.76c1.8-.73,4.23-2,4.08-4.28A1.2,1.2,0,0,0,258.5,400.52ZM231,403.17Z" transform="translate(-79.63 -365.68)"/>
      <g>
        <g>
          <path class="cls-3" d="M245.72,390.83a1.36,1.36,0,0,0-1.5,0,.88.88,0,0,0-.56-.44,2.43,2.43,0,0,0-1-.06,1.32,1.32,0,0,0-.9-1l-.19,0,0,0a1.7,1.7,0,0,0-1-.28l-.51,0-.22,0-.09,0h0l-.05,0c-.37-.17-.65-.49-1-.63a.93.93,0,0,0-1,.27,1.5,1.5,0,0,0-2.13.15.81.81,0,0,0-.54-.72,1.92,1.92,0,0,0-1.14-.1,2.87,2.87,0,0,0-.52-1.1,1,1,0,0,0-.73-.39.85.85,0,0,0-.44.14,1.53,1.53,0,0,0-.34-.42.75.75,0,0,0,.15-.2.67.67,0,0,0-.15-.71c-.33-.38-1-.62-1.43-.18a.77.77,0,0,0-.18.33l-.18,0-.6.06c0-.09,0-.19-.06-.26a.74.74,0,0,0-.34-.45.65.65,0,0,0-.22-.5A.74.74,0,0,0,228,384a1,1,0,0,0-.5.49,1.31,1.31,0,0,0-.68,0,1.44,1.44,0,0,0-.69-1,1.36,1.36,0,0,0-1.31,0,1.18,1.18,0,0,0-.68-.37.8.8,0,0,0-.61.17c-.65-.72-2-1-2.46-.16a1,1,0,0,0-.52,0,.7.7,0,0,0-.41.4,1.86,1.86,0,0,0-1.13.29,1.61,1.61,0,0,0-.55.87,4,4,0,0,1-.43-.19.29.29,0,0,0-.4,0,2.42,2.42,0,0,0-.34.6.55.55,0,0,0,0-.22.56.56,0,0,0-.72-.3.74.74,0,0,0-.53.6.5.5,0,0,0,0,.17,4.27,4.27,0,0,0-.54.13,3.11,3.11,0,0,0-1.82,1.19,2.56,2.56,0,0,0-.11.24.79.79,0,0,0-.64.09,1.36,1.36,0,0,0-.47.51l-.16-.12a1.13,1.13,0,0,0-.58-.18.44.44,0,0,0-.27-.4,1.14,1.14,0,0,0-1,.13,1.47,1.47,0,0,0-.58,1.4,1.5,1.5,0,0,0-.33.46,3.32,3.32,0,0,0-.37,1.49.65.65,0,0,0-.47.35.8.8,0,0,0-.06.3,1.49,1.49,0,0,0-1.63,1,1,1,0,0,0-.79.12,1.06,1.06,0,0,0-.29.31.79.79,0,0,0-.3-.2,1,1,0,0,0-.88.14,2.12,2.12,0,0,0-.83,1h-.05a.68.68,0,0,0-.58-.05,1.11,1.11,0,0,0-.59.56.62.62,0,0,0-.13.38.13.13,0,0,0,0,.06.2.2,0,0,0,0,.11h0a.28.28,0,0,0-.22.3.83.83,0,0,0,.5.68,1.35,1.35,0,0,0-.19.33c-.2,0-.39,0-.62,0a.27.27,0,0,0-.19.41c.44.64,1.09.38,1.61,0a2.06,2.06,0,0,0,1,.48.35.35,0,0,0-.32.21l0,.06a.16.16,0,0,0-.11.2.71.71,0,0,0,.29.37.48.48,0,0,0,.37,0h0l0,0c-.07,0,.05,0,.05,0l0,0a.35.35,0,0,0,.11-.1.39.39,0,0,0,0-.48.38.38,0,0,0-.2-.15h0a2.37,2.37,0,0,0,1.09,0,2.4,2.4,0,0,0,1.62.57,1.47,1.47,0,0,0,1.37-.68l.23.09h0a.31.31,0,0,0-.28.22.3.3,0,0,0,0,.16.09.09,0,0,0,0,.05.53.53,0,0,0,.22.46.31.31,0,0,0,.41,0,.42.42,0,0,0,.09-.14v0a.9.9,0,0,0,.06-.22.52.52,0,0,0-.08-.3l-.1-.1a4.37,4.37,0,0,0,.49.12,3.12,3.12,0,0,0,1.18.08,1.83,1.83,0,0,0,1.44.68,1.62,1.62,0,0,0,1.26-.56,2.12,2.12,0,0,0,.94.22,1,1,0,0,0,.89-.47,1.13,1.13,0,0,0,.77.06c.26-.08.47-.27.76-.27s.59.19.9.23a.74.74,0,0,0,.71-.32,1.88,1.88,0,0,0,1.85-.2.67.67,0,0,0,.86.22,3,3,0,0,1,.47-.24,1.72,1.72,0,0,1,.67,0,4.63,4.63,0,0,0,1.7.09l.23-.05a.43.43,0,0,0,.16.34.77.77,0,0,0,.81.11.72.72,0,0,0,.45-.74,3.9,3.9,0,0,0,1.69.36,2,2,0,0,0,1.74-.81,1,1,0,0,0,.74.06,2.3,2.3,0,0,1,.79-.23,3.77,3.77,0,0,0,.95,0,1.1,1.1,0,0,0,.5-.23,1.31,1.31,0,0,0,1.75-.21,4.6,4.6,0,0,0,1.59.57,1.49,1.49,0,0,0,1-.2,1.06,1.06,0,0,0,.37-.54,2.45,2.45,0,0,0,2.34-.74,1.33,1.33,0,0,0,1.88-.36,1.64,1.64,0,0,0,1.1-.27.77.77,0,0,0,.51.28,1,1,0,0,0,.87-.36.72.72,0,0,0,.13-.86.63.63,0,0,0-.11-.12,1.91,1.91,0,0,1,.53-.53c.23-.11.5,0,.74-.05a1,1,0,0,0,.76-.68A.34.34,0,0,0,245.72,390.83Zm-36.48,6.32Zm.25.19a.25.25,0,0,0,0-.08v.08Zm19.16-12-.11,0,.06,0,.09.07v0Zm-11.38,0h0v0Z" transform="translate(-79.63 -365.68)"/>
          <path class="cls-3" d="M202.08,395.42a.5.5,0,0,0-.33-.72.65.65,0,0,0-.74.33.29.29,0,0,0,.08.34l.07,0a.46.46,0,0,0,.21.23A.54.54,0,0,0,202.08,395.42Z" transform="translate(-79.63 -365.68)"/>
          <path class="cls-3" d="M201.28,396.63Z" transform="translate(-79.63 -365.68)"/>
          <path class="cls-3" d="M201.22,396a.36.36,0,0,0-.34.12.33.33,0,0,0-.07.16s0,.08,0,.08a.31.31,0,0,0,.06.16.28.28,0,0,0,.18.12h0a.21.21,0,0,0,.24,0h0l.11-.06a.28.28,0,0,0,.11-.24A.38.38,0,0,0,201.22,396Zm.12.58,0,0v0Z" transform="translate(-79.63 -365.68)"/>
          <path class="cls-3" d="M204.81,397.46h0Z" transform="translate(-79.63 -365.68)"/>
          <path class="cls-3" d="M245,392.19l-.11-.07-.14,0a.37.37,0,0,0-.39.2.41.41,0,0,0,0,.19.36.36,0,0,0,.13.25l0,0a.34.34,0,0,0,.13.1l.14.05a.57.57,0,0,0,.42-.11.33.33,0,0,0,.08-.45A.35.35,0,0,0,245,392.19Zm.06.06h0l0,0Zm-.1-.06Zm.07,0h0l0,0Z" transform="translate(-79.63 -365.68)"/>
        </g>
        <g>
          <path class="cls-4" d="M202.51,394.76a.35.35,0,0,0,.42-.18.19.19,0,0,0,.09.05.35.35,0,0,0,.3-.07.5.5,0,0,0,.35.49c.22.06.32-.11.34-.29.19.11.47.2.55-.06s-.25-.41-.46-.42a.06.06,0,0,0,0,.11c.12,0,.42.08.36.26s-.38,0-.46-.08a.07.07,0,0,0-.12.06c0,.15,0,.34-.22.26a.45.45,0,0,1-.23-.43.05.05,0,0,0-.09,0,.19.19,0,0,1-.32-.13c0-.09-.12-.12-.18-.07A.36.36,0,0,1,203,394a.11.11,0,0,1,.16.07.35.35,0,0,0,0,.24.08.08,0,0,0,.16,0,.76.76,0,0,0,0-.15s.1,0,.17,0a.48.48,0,0,0,.15.21.1.1,0,0,0,.16-.11.45.45,0,0,0-.11-.19.25.25,0,0,1,.3-.27.38.38,0,0,0,.15.09c.11,0,.15-.12.09-.18a.42.42,0,0,0-.16-.11.3.3,0,0,1,0-.21.22.22,0,0,1,.11-.14.11.11,0,0,0,0,.08.09.09,0,0,0,.15.07c.1-.06.21-.18.12-.3h.11l.11.05a.56.56,0,0,0-.12.3c0,.32.47.23.53,0a.38.38,0,0,0-.11-.31.64.64,0,0,1,.49-.12c.06,0,.13-.08.08-.13s0-.29.18-.33a1.06,1.06,0,0,1,.36,0,.27.27,0,0,0,.2.07.09.09,0,0,0,.05-.16l0,0,.09-.06a.47.47,0,0,1,.32-.08l.09,0c-.13.08-.29.24-.25.38s.42,0,.51-.14v0s0,.06.06.08a.28.28,0,0,0,.26,0,.06.06,0,0,0,0-.07,1,1,0,0,0-.11-.17.39.39,0,0,1,.28-.18.16.16,0,0,0,.17.06.08.08,0,0,0,0-.14l0,0,0,0a1,1,0,0,1,.21-.15.69.69,0,0,1,.52-.12c.1,0,.15-.11.08-.17s0-.3.12-.39l.13-.09a.32.32,0,0,0,.16.14.1.1,0,0,0,.14-.07.23.23,0,0,0-.12-.29.63.63,0,0,1,.41-.31c.09.1.15.11.31.06a.09.09,0,0,0,0-.15l-.06,0a.91.91,0,0,1,.49,0,.09.09,0,0,0,.11-.1.64.64,0,0,0-.16-.29c0-.06-.09-.1-.07-.17a.15.15,0,0,1,.24-.06h0c.09.06.2-.1.1-.17h0c-.2-.13.13-.37.24-.41a1,1,0,0,0,.29-.11,1.12,1.12,0,0,0,.26-.37.74.74,0,0,0,.43-.22.5.5,0,0,0,.13.12.11.11,0,0,0,.11,0,1.15,1.15,0,0,1,.14-.17c.1.06.23.14.34.07a.2.2,0,0,0,.05-.26v0h.16a.14.14,0,0,0,0,.06c.06.14.22.1.33.05a.1.1,0,0,0,0-.17l-.14-.08.07-.11a.46.46,0,0,1,.42-.15.32.32,0,0,0-.21.23c0,.19.17.26.32.26a.36.36,0,0,0,.39-.3.23.23,0,0,0-.15-.24.63.63,0,0,1,.37-.22.45.45,0,0,0,.32.09.09.09,0,0,0,0-.16.64.64,0,0,0-.27-.1.28.28,0,0,1,.07-.41c.09-.07.3-.12.35,0s0,0,0,0a.71.71,0,0,0-.31.19.09.09,0,0,0,0,.12c.14.16.36,0,.45-.13a5.43,5.43,0,0,1,.56,0h0c.1,0,.13-.19,0-.2h0l.12-.11a.92.92,0,0,1,.33-.16.09.09,0,0,0,.08-.13c-.17-.35.41-.5.68-.37l.06,0h0c.08,0,.18-.07.12-.15a.53.53,0,0,0-.14-.12.17.17,0,0,1,.05-.16c.11-.11.26-.05.37,0s.19-.09.11-.16l-.09-.09h0a.37.37,0,0,0,.24-.2.59.59,0,0,1,.57-.05.05.05,0,0,1,0,0s0,.11,0,.12a.45.45,0,0,0,.16,0,.09.09,0,0,0,.09-.14l0-.05a.67.67,0,0,1,.54-.08c.12,0,.16-.13.07-.19s-.05-.28.1-.36a.81.81,0,0,1,.22-.07c0,.1,0,.19.18.25a.11.11,0,0,0,.15-.08.34.34,0,0,0-.07-.28l.13-.08h0l-.05.07c0,.06,0,.13.1.11a.84.84,0,0,0,.31-.24c.17-.07.38-.08.45.08a.09.09,0,0,0,.16-.06c-.06-.18.3-.21.54-.18a.39.39,0,0,0,.28.09.1.1,0,0,0,.06-.17l-.16-.08a.66.66,0,0,1,.15-.14.88.88,0,0,1,.4-.22.12.12,0,0,0,0-.21.43.43,0,0,1,.28-.15.28.28,0,0,1,.23,0l0,0a.63.63,0,0,0-.26.16.09.09,0,0,0,0,.11c.17.14.32.1.4,0s0,0,0,.07a.07.07,0,0,0,.06,0,.29.29,0,0,0,.16,0,.08.08,0,0,0,.05-.07.34.34,0,0,0-.07-.22h0a.4.4,0,0,1,.23-.1c.12,0,.35,0,.35.14s.19.1.19,0,.26-.19.33-.08-.08.23-.19.15-.23.08-.13.15a.33.33,0,0,0,.25.06c0,.09.09.14.23.12l.13,0c.1.08.28,0,.4,0s.56-.3.72-.12a.41.41,0,0,0,0,.16.09.09,0,0,0,.08.08.17.17,0,0,0,.14,0,.1.1,0,0,0,0-.1l0-.08c.07-.12.21-.11.36,0s.36.25.18.38,0,.23.11.16a.41.41,0,0,1,.46-.05h0a.46.46,0,0,0-.23.05s0,0,0,0a.57.57,0,0,1,.29,0c.09.08.07.17,0,.29s0,.11.06.08a.29.29,0,0,0,.19-.27l0,0a.33.33,0,0,1,.12.32.42.42,0,0,0-.14.18.06.06,0,0,0,.08.07.71.71,0,0,0,.12-.13c.12-.08.29-.08.27.12a.09.09,0,0,0,.13.08.6.6,0,0,1,.5-.06.37.37,0,0,0,0,.54.43.43,0,0,0,.54,0,.21.21,0,0,0,.31.18.8.8,0,0,0,.17.15.28.28,0,0,0,.42-.11.54.54,0,0,0,.31,0,1.22,1.22,0,0,0,.28-.14s.12-.08.16-.08a.06.06,0,0,1,0,0,.17.17,0,0,0,0,.22.1.1,0,0,0,.18-.06.28.28,0,0,0,0-.09l0,0a.75.75,0,0,1,.29-.06.71.71,0,0,1,.39.1c0,.15,0,.27.24.28a.14.14,0,0,0,.09,0,.47.47,0,0,0,.51-.18.42.42,0,0,0-.15-.63.58.58,0,0,0-.68.22.09.09,0,0,0,0,.11,1,1,0,0,0-.5-.06.79.79,0,0,0-.29.09c-.05-.09-.15-.13-.3-.07a2.54,2.54,0,0,0-.28.16.55.55,0,0,1-.17,0,.47.47,0,0,1-.12,0,.51.51,0,0,0,0-.13.11.11,0,0,0-.21-.06.27.27,0,0,0-.05.23c0,.06-.08.1-.16,0l-.07-.07c.14-.13.22-.33.08-.45a.27.27,0,0,0-.41.08.57.57,0,0,0-.11-.46l.14-.11a.58.58,0,0,0,.53-.16.3.3,0,0,0,0-.44.53.53,0,0,0-.54.08.1.1,0,0,0,0,.17s-.07,0-.09.06a.22.22,0,0,0,0,.1.23.23,0,0,1-.25.13H228c-.13,0-.11.18,0,.22h.08l-.09,0a.66.66,0,0,0-.75,0,.25.25,0,0,0-.24-.16h-.09a.45.45,0,0,0-.28-.37.32.32,0,0,0-.12-.17A.62.62,0,0,0,226,384c0-.35-.68-.72-.92-.41a.32.32,0,0,0-.26-.07.86.86,0,0,0-.21.07.25.25,0,0,0-.18-.44c-.25,0-.64.27-.62.55l-.09,0h0a.28.28,0,0,0,.11-.39.39.39,0,0,0-.61-.05.65.65,0,0,0-.83.12h0a.42.42,0,0,0-.1-.17.6.6,0,0,0-.9.25s0,0,0,0a1.29,1.29,0,0,0-.48.38l-.06.1c-.26,0-.57.05-.66.22a.51.51,0,0,0-.37,0,.23.23,0,0,0-.11-.25.33.33,0,0,0-.49.39.47.47,0,0,0-.13.11c-.33-.05-.87.27-.73.59a.64.64,0,0,0-.45.17.7.7,0,0,0-.63,0,.26.26,0,0,0-.18-.28.32.32,0,0,0-.35.24.62.62,0,0,0,0,.4.36.36,0,0,0-.33.12.33.33,0,0,0-.09.25c-.39,0-.88.22-.78.61a1.21,1.21,0,0,0-.48.31.41.41,0,0,0-.06.11h-.25a.34.34,0,0,0-.41-.24.49.49,0,0,0-.39.66,1.15,1.15,0,0,0-.45.3.61.61,0,0,0-.8.23l-.06.1a.64.64,0,0,0-.48.12,1,1,0,0,0-.22.15l0,0a.62.62,0,0,0,0-.79c-.45-.52-1.11,0-1.07.6h0c-.23.11-.13.46.07.59l.09,0a.86.86,0,0,1-.15.22c-.12.11-.31.1-.44.2a.53.53,0,0,0-.26.44.35.35,0,0,0-.26.17.29.29,0,0,0,0,.27,1.12,1.12,0,0,0,.18.2.82.82,0,0,0-.62.15.78.78,0,0,0-.62.49,1.18,1.18,0,0,0-.19.11.6.6,0,0,0-.29.55,1.24,1.24,0,0,0-.66.32,1.12,1.12,0,0,0-.13.16.52.52,0,0,0-.39.23.42.42,0,0,0-.15,0,.67.67,0,0,0-.56-.1.77.77,0,0,0-.35.22c-.38-.08-.93.13-.79.49a1,1,0,0,0-.51.18l-.16-.08a.33.33,0,0,0-.4.09.36.36,0,0,0-.2.06.43.43,0,0,0-.15.5.55.55,0,0,0-.37.37h-.14l-.1,0a.24.24,0,0,0-.22-.09.43.43,0,0,0-.32.36.1.1,0,0,0,0,0,.09.09,0,0,0-.1,0,.54.54,0,0,0-.18.44A.12.12,0,0,0,202.51,394.76Zm29-9.48a.18.18,0,0,1,.14.29.29.29,0,0,1-.39.09l-.06-.08v0a.73.73,0,0,1,.05-.12.08.08,0,0,0,0-.07A.38.38,0,0,1,231.5,385.28Zm-2.87-1c.08-.05.44-.14.26.07a.3.3,0,0,1-.17.1h-.09a.09.09,0,0,1,0-.05.12.12,0,0,0-.07-.11Zm-.68,1.08c-.08-.07,0-.18.05-.25a1.41,1.41,0,0,1,.18.17.1.1,0,0,0,0,0A.18.18,0,0,1,228,385.37Zm.76-.05s0,0,0,0,.05.07,0,.12l0,0A.19.19,0,0,1,228.71,385.32Zm-.14.26c-.11,0-.11-.12-.11-.2l0-.08v0A.61.61,0,0,0,228.57,385.58Zm-.42-.77Zm-3.89-1a.44.44,0,0,1-.16,0l.11-.09a.41.41,0,0,0,.16,0Zm.28-.33a.42.42,0,0,1-.14.09h-.05v0c0-.06,0-.1-.08-.11C224.36,383.39,224.61,383.3,224.54,383.46Zm-2.4.18a.11.11,0,0,1-.07,0,.33.33,0,0,1,.13-.07S222.18,383.64,222.14,383.64Zm-2.53.61,0,0a.63.63,0,0,0-.23.16.08.08,0,0,0,0-.11C219.1,384.1,219.72,384,219.61,384.25Zm-2.59.83c.07,0,.08.14.07.2v0a.7.7,0,0,0-.22.2h0a.37.37,0,0,1,0-.14C216.81,385.26,216.87,385.05,217,385.08Zm-3.38,3c0,.09-.15.11-.23.11-.28,0,0-.18.12-.2l.05,0S213.66,388,213.64,388.05Zm-1.91.15a.2.2,0,0,1-.13,0c0-.05,0-.09.1-.09a.11.11,0,0,1,.08,0Zm0-.68a.4.4,0,0,1,.2.43v0c-.21-.15-.42-.05-.47.22a.08.08,0,0,0,0,.09l.13.07a.91.91,0,0,1-.26.19c.05-.23,0-.48-.26-.48C211.05,387.76,211.34,387.33,211.7,387.52Zm-.59.77c.09,0,0,.18,0,.28a.32.32,0,0,1-.13-.11C210.92,388.36,211,388.21,211.11,388.29Zm-4.3,4.24-.07,0a.46.46,0,0,1,.17-.17S206.88,392.48,206.81,392.53Zm.45,0h-.06a.17.17,0,0,0,0-.05A.1.1,0,0,1,207.26,392.51Zm-.15-.13v0h0Zm-2.25,1.05s-.11,0-.12,0a.32.32,0,0,0,0-.09.35.35,0,0,1,.07-.12.22.22,0,0,1,0,.08C204.91,393.39,204.91,393.4,204.86,393.43Zm-2.16.95a.14.14,0,0,1,.08.05.18.18,0,0,1-.15.13A.56.56,0,0,1,202.7,394.38Z" transform="translate(-79.63 -365.68)"/>
          <path class="cls-4" d="M244.84,391a.52.52,0,0,0-.27.15.55.55,0,0,0-.5,0,.9.9,0,0,0-.58-.31,1.11,1.11,0,0,0-.26,0,.79.79,0,0,0-.29-.4.85.85,0,0,0-.3-.59c-.06,0-.18,0-.18.07s-.15.45-.42.35l-.06,0a.54.54,0,0,0,.22-.29s0-.09-.06-.11a.29.29,0,0,0-.43.28c-.15,0-.3,0-.31-.15h.09a.1.1,0,0,0,.1-.16c-.17-.22-.78-.58-1.06-.45a.74.74,0,0,0-.2-.16.58.58,0,0,0-.54,0,.6.6,0,0,0-.69-.21.85.85,0,0,0-.64-.26.41.41,0,0,0-.07-.11,3.71,3.71,0,0,1-1.58-.23.4.4,0,0,0-.13.13,1.35,1.35,0,0,0-1.26.1.78.78,0,0,0-.43,0,.93.93,0,0,0-.06-.34c0-.09-.09-.13-.15-.13a.41.41,0,0,0-.13-.19.69.69,0,0,0-.67-.16l-.08,0a.64.64,0,0,0-.36,0,.57.57,0,0,0-.35-.15.45.45,0,0,0,0-.3.77.77,0,0,0-.48-.32,1,1,0,0,0-.28,0,.66.66,0,0,0-.54-.54.94.94,0,0,0-.44-.38c-.09,0-.14.13,0,.16a.64.64,0,0,1,.25.18l.07.09a.42.42,0,0,0-.15.17.11.11,0,0,0,.11.15c.15,0,.22-.07.25-.15a.42.42,0,0,1,.3.34c-.17,0-.28.13-.17.33a.1.1,0,0,0,.11,0,.39.39,0,0,0,.24-.21l.3,0c.29.1.42.31.27.56a.9.9,0,0,1-.05.09c0,.09.09.18.16.09l0-.06a.17.17,0,0,1,.24,0,.8.8,0,0,0-.13.13.09.09,0,0,0,0,.14.58.58,0,0,0,.48.07h0a.25.25,0,0,0,.08.16c.21.17.41-.08.32-.29a.27.27,0,0,0-.09-.12h0a.48.48,0,0,1,.43.1c.06,0,.16.12.15.18a.39.39,0,0,0-.08.1c0,.08.07.16.14.11a.15.15,0,0,0,.06-.05.59.59,0,0,1,0,.14.82.82,0,0,1,0,.35c0,.15.17.26.23.11a.26.26,0,0,1,.18-.14.4.4,0,0,0,.13.6c.42.26.79-.3.5-.65a.94.94,0,0,0-.1-.1,1.11,1.11,0,0,1,.94,0c0,.12.06.22.27.19a.09.09,0,0,0,.07-.15.34.34,0,0,0-.12-.12l0,0a.34.34,0,0,1,.23-.1.45.45,0,0,1,.41.38c0,.1.19.08.2,0,0-.28.34-.29.51-.15l-.09,0a.26.26,0,0,0-.08.48.29.29,0,0,0,.43-.06.36.36,0,0,0,.06-.24c.2,0,.42.09.39.23l0,.09a.1.1,0,0,0,.17.07.4.4,0,0,0,.08-.16c.17-.14.6,0,.46.2h0v0c-.06.09.09.18.16.1a.34.34,0,0,1,.46-.08.7.7,0,0,1,.2.16.57.57,0,0,0,0,.23.1.1,0,0,0,.18.06.28.28,0,0,0,.06-.24c.07-.06.21,0,.33,0l.3.18a.09.09,0,0,0,0,.06c-.09.27.1.46.36.49h.18s0,0,0,0a.52.52,0,0,0,.57.11.47.47,0,0,0,.26-.29.52.52,0,0,1,.06.16l0,0a.31.31,0,0,0-.2.11.11.11,0,0,0,0,.17.27.27,0,0,0,.33,0,.51.51,0,0,1,.15.22.3.3,0,0,0-.21.45.11.11,0,0,0,.14.07.41.41,0,0,0,.3-.36l.22,0c.17,0,.4.11.45.26a.43.43,0,0,0,0,.24.11.11,0,0,0,.21,0,.6.6,0,0,0,.06-.24.2.2,0,0,1,.16-.06.37.37,0,0,1,.18,0,.29.29,0,0,0,0,.13h0a.26.26,0,0,0-.16,0,.1.1,0,0,0-.06.18l.14.08a.58.58,0,0,1-.13.2.33.33,0,0,1-.49,0c-.09-.08-.23.05-.16.15a.26.26,0,0,1-.12.4c-.08,0-.29.07-.35,0a0,0,0,0,1,0,0s0-.07,0-.1a1.6,1.6,0,0,0,0-.31.43.43,0,0,0-.58-.28c-.17.07-.37.26-.31.46s.42.19.64.13a.47.47,0,0,1,0,.17,1.07,1.07,0,0,0-.35.14.12.12,0,0,0,0,.18c.17.14.39.17.52,0a.47.47,0,0,0,.05-.1.5.5,0,0,0,.13,0c.14.08.15.23.16.38a1.78,1.78,0,0,1,0,.46c0,.14-.11.18-.26.16a.89.89,0,0,1-.3-.12.14.14,0,0,0-.17-.19c0-.06,0-.13.09-.19a.72.72,0,0,1,.31-.11c.14,0,.18.05.13.18s.14.15.18,0c.1-.33-.17-.45-.45-.38s-.58.26-.46.57a1.45,1.45,0,0,1-.3,0,.87.87,0,0,0-.36,0c-.3.05-.57.19-.87,0-.12-.06-.23.09-.16.2.18.3-.72.43-.76.16a.2.2,0,0,0,0-.07.11.11,0,0,0-.22,0,.71.71,0,0,0,0,.14c-.09.27-.68.21-.9.08h0a.11.11,0,0,0-.21,0V394s0,0,0,.06a.27.27,0,0,1-.08.07.67.67,0,0,1-.14.09A.51.51,0,0,0,238,394a.12.12,0,0,0-.14.09.38.38,0,0,0,.07.34h-.09c-.11,0-.15.18,0,.21l.11,0,0,0s-.08,0-.11,0l-.2,0a1.36,1.36,0,0,0-.45,0,2.3,2.3,0,0,1-1.3,0c-.11,0-.19.13-.08.17s.14.24,0,.32a.77.77,0,0,1-.37,0,1.24,1.24,0,0,1-.71-.26c-.06-.07-.16,0-.18.07s-.47.17-.62.17-.52,0-.78,0a5.35,5.35,0,0,1-.7.08l.09-.13a.11.11,0,0,0,0-.14c-.15-.16-.69-.28-.65.09a.57.57,0,0,0,0,.14h0c-.13,0-.19.16-.07.21l0,0c-.27.41-.88.14-1.3.11s-1.17.44-1.67.1a.11.11,0,0,0-.16,0,.48.48,0,0,1-.26.19c.12-.17,0-.35-.19-.39s-.57.24-.38.47a.34.34,0,0,1-.24,0,.37.37,0,0,0-.07-.14.11.11,0,0,0-.2.07.36.36,0,0,0,.06.19c0,.17-.34.2-.5.19s-.55,0-.54-.2a.31.31,0,0,0,.05-.1c0-.11-.1-.23-.18-.12a.38.38,0,0,0-.08.13,1,1,0,0,1-.71.21,1.63,1.63,0,0,1-.43-.08c-.08,0-.16-.06-.13-.12s-.1-.2-.18-.11l0,0a.25.25,0,0,0,0-.08.26.26,0,0,0-.2-.24.3.3,0,0,0-.33.17.11.11,0,0,0,0,.11l.12.12h0c-.11,0-.22,0-.32,0a.84.84,0,0,0-.43.19.64.64,0,0,1-.52.11c-.18,0-.38-.09-.38-.31s-.2-.13-.21,0c0,.4-.63.22-.9.26s-.59.34-.87.16-.24-.33-.48-.38a.11.11,0,0,0-.13.11c0,.22-.22.24-.41.16h0a.14.14,0,0,0,0-.14.48.48,0,0,0-.31-.19.12.12,0,0,0-.14.12.49.49,0,0,0,.1.22,1.14,1.14,0,0,1-.41.07h-.29a.8.8,0,0,0-.2.07c-.07,0-.07,0-.12,0s0-.05,0-.07a.58.58,0,0,0-.12-.1.25.25,0,0,0-.36,0,.12.12,0,0,0,0,.2s.13,0,.12.1-.14.12-.19.15a.67.67,0,0,1-.6,0,.12.12,0,0,0-.18,0c-.11.31-.66.19-.65-.13v0c0-.11-.19-.13-.2,0v0h0c0,.29-.5.19-.63,0a.11.11,0,0,0-.19,0c-.06.27-.38.25-.61.19v0c.09-.24,0-.5-.32-.46a.42.42,0,0,0-.29.18c-.06.09-.12.27,0,.36l0,0c-.17,0-.33-.07-.34-.24s-.22-.15-.23,0c0,.29-.39.32-.39,0a.1.1,0,0,0-.11-.1c-.33,0-.59-.23-.92-.2s-.63.26-.79,0a.12.12,0,0,0-.18,0,.74.74,0,0,1-.61.26h0a.86.86,0,0,1,.23-.13.52.52,0,0,0,.21,0,.09.09,0,0,0,0-.18l-.17,0a.33.33,0,0,1-.3-.16.29.29,0,0,0,0-.09c0-.09-.22-.07-.19,0v0h0c.07.17-.41.19-.42,0a.29.29,0,0,0,0-.09.13.13,0,0,0-.26-.05c-.14.44-.85.16-1.12,0-.08,0-.2,0-.18.12,0,.35-.5.26-.6,0a.08.08,0,0,0-.07,0,1,1,0,0,0-.37.08.05.05,0,0,0,0,.08l0,.1c-.22.1-.95.26-.9-.15a.1.1,0,0,0-.19,0c0,.14-.2.13-.31.1s-.24-.1-.07-.19,0-.13-.06-.1h0a.33.33,0,0,0,0-.32c-.12-.32-.44-.28-.66-.11l-.05-.1a.83.83,0,0,0,.3-.26c.15-.21.15-.48-.14-.55-.12,0-.18.16-.07.2s.1.22,0,.33a.78.78,0,0,1-.24.16.48.48,0,0,0-.4,0h0a.31.31,0,0,1,.06-.25l.05,0s.11,0,.08-.06,0-.11-.11-.15a.1.1,0,0,0-.09,0,.4.4,0,0,0-.18.38.32.32,0,0,0-.19,0c-.11.05-.19.15-.3.21a1.25,1.25,0,0,1-.51.09.58.58,0,0,0-.26.09c0-.1-.09-.17-.21-.13a.48.48,0,0,0-.26.37.22.22,0,0,0,.25.26.64.64,0,0,0,.33-.28.59.59,0,0,0,.38.36.35.35,0,0,0,.4-.2c.28.38.94.5,1.16,0a.94.94,0,0,0,.5,0c-.06.1,0,.22.16.3a.52.52,0,0,0,.44,0c.14.33.73.25,1.06.11h0a1,1,0,0,0-.13.16.07.07,0,0,0,.08.11.34.34,0,0,0,.14-.09.41.41,0,0,0,.25.17c.22.06.36-.08.41-.28a.06.06,0,0,0,0-.07.5.5,0,0,0-.54-.1.94.94,0,0,0,0-.16.86.86,0,0,1,.23-.05.53.53,0,0,0,.9.05c.36.19.9.31,1.18.06a.59.59,0,0,0,.73,0l.1.07c-.23.16-.4.42-.2.65a.28.28,0,0,0,.41,0,.23.23,0,0,0,0-.31,1.37,1.37,0,0,0,.47-.19c.19.23.51.14.78.09a.82.82,0,0,1,.49,0,1.56,1.56,0,0,0,.46.09.41.41,0,0,0,.7.18.78.78,0,0,0,.95,0,1.05,1.05,0,0,0,.33.06.54.54,0,0,0,.57-.23.7.7,0,0,0,.75,0,.59.59,0,0,0,.92.07.94.94,0,0,0,.86-.11.45.45,0,0,0,.18-.22.29.29,0,0,0,.2.11c.09,0,.13-.06.21-.09s.42,0,.61,0a.67.67,0,0,0,.31-.1c.28.17.7.15.79-.16a2.18,2.18,0,0,1,.21.22.62.62,0,0,0,.34.15c.31,0,.56-.22.86-.23s.67,0,.87-.14a.73.73,0,0,0,.5.23.91.91,0,0,0,.46,0c.15-.06.25-.19.4-.25s.38,0,.57,0l.09-.05a.29.29,0,0,0,.16,0c.1.18.46.25.63.27a1.51,1.51,0,0,0,.88-.16,1,1,0,0,0,.7.25.92.92,0,0,0,.62-.15.36.36,0,0,0,.12-.16A1.09,1.09,0,0,0,228,396a.86.86,0,0,0,.72-.23c.58.31,1.19-.17,1.8-.08s1.18.29,1.47-.33l.1,0a1.66,1.66,0,0,0,.66,0,2.72,2.72,0,0,1,.49,0l.61,0c.25,0,.59,0,.76-.21a1.51,1.51,0,0,0,1.09.22.53.53,0,0,0,.4-.32.23.23,0,0,0,0-.14,2.22,2.22,0,0,0,.63,0l.51-.07a1.39,1.39,0,0,1,.41,0c.19,0,.41,0,.5-.18a.2.2,0,0,0,0-.07.34.34,0,0,0,.22-.15,1,1,0,0,0,.47-.3,1.51,1.51,0,0,0,.6.08.72.72,0,0,0,.46-.2c.31.24,1.11.13,1.16-.28a.86.86,0,0,0,.28,0c.19,0,.36-.1.54-.11s.53.12.76,0a.78.78,0,0,0,.79.15c.28-.16.24-.72.19-1a.69.69,0,0,0-.09-.23.53.53,0,0,0,.38-.47.58.58,0,0,0,.61-.23.67.67,0,0,0,.1-.23.47.47,0,0,0,.53-.4C245.15,391.15,245,390.92,244.84,391Zm-11.32-3h-.08l.05,0Zm.23,0-.05-.07.08,0Zm.22.14c0,.09-.08,0-.07,0a.22.22,0,0,1,0-.08Q234,388.06,234,388.12Zm1.65,1a.18.18,0,0,1-.35,0,.24.24,0,0,1,.09-.21l.06-.06C235.56,388.82,235.67,388.93,235.62,389.08Zm2.69-.23c0,.1-.07.18-.16.1s-.05-.05-.05-.07.08-.05.11-.05h.1ZM202.44,396c0-.08.05-.17.1-.22s.1,0,.1.1,0,.07.06.07S202.48,396.15,202.44,396Zm2.37-.1a.13.13,0,0,0-.12.06c-.16.47-.81.25-.92-.14a.09.09,0,0,0-.18,0c0,.16-.11.35-.3.28a.5.5,0,0,1-.27-.3,3,3,0,0,0,.49-.13c.22-.12.34-.4.62-.22a.09.09,0,0,0,.11,0,.05.05,0,0,0,0,0,.81.81,0,0,0,.38,0,.21.21,0,0,1,.08.19c0,.06.09.08.13,0s.41-.3.49,0S205,395.9,204.81,395.88Zm2.79.66c-.08.22-.29.14-.4,0A.39.39,0,0,1,207.6,396.54Zm2.73.36c-.14.05-.17-.14-.12-.23a.41.41,0,0,1,0-.09.08.08,0,0,0,0,.09C210.36,396.72,210.48,396.85,210.33,396.9Zm3.87-.16a.35.35,0,0,1-.14.06l0-.06a.11.11,0,0,0,0-.15c.05-.07.16-.14.21-.12S214.27,396.7,214.2,396.74Zm10.16-.95v0l-.07-.06S224.36,395.73,224.36,395.79Zm3.57,0c-.28-.18.22-.3.23-.17a.1.1,0,0,1,0,.07.88.88,0,0,1-.18.1Zm4.24-.78a.39.39,0,0,1-.1.08s-.11-.1-.1-.12S232.1,395,232.17,395Zm6-.76a.09.09,0,0,1-.1-.06A.17.17,0,0,1,238.17,394.28ZM242.5,392a.24.24,0,0,1,.43.07h0C242.82,392.06,242.27,392.22,242.5,392Zm2.15-.45,0,0a.2.2,0,0,0,0-.18.25.25,0,0,1,.17-.12C245,391.36,244.84,391.5,244.65,391.51Z" transform="translate(-79.63 -365.68)"/>
          <path class="cls-4" d="M208.33,392.6c0-.06,0-.17-.1-.11-.26.22-.63.24-.84.48a.25.25,0,0,0-.32.08.67.67,0,0,0-.79.66,1.41,1.41,0,0,0-.59.18.5.5,0,0,0-.25.35.66.66,0,0,0-.39,0,.62.62,0,0,0-.42.57c0,.09.13.07.13,0a.53.53,0,0,1,.72-.39.4.4,0,0,0,.13.13c.08.06.22,0,.14-.13l-.05-.05c-.23-.28.37-.48.7-.44a.25.25,0,0,0,.16.05.11.11,0,0,0,.07-.2l-.13-.05c-.05-.08,0-.22.07-.3a.38.38,0,0,1,.5-.18.09.09,0,0,0,.13,0,.12.12,0,0,1,.09-.07s0,0,0,0a.3.3,0,0,0,.06.34c.13.09.29,0,.41,0a.1.1,0,0,0,0-.12.64.64,0,0,0-.21-.29l.05-.05C207.83,392.83,208.16,392.86,208.33,392.6Zm-.86.69v0l.08.09C207.5,393.37,207.46,393.37,207.47,393.29Z" transform="translate(-79.63 -365.68)"/>
          <path class="cls-4" d="M213.13,396.22a.32.32,0,0,0,.31-.14.23.23,0,0,0,.05-.3c-.11-.15-.36-.06-.49,0a.1.1,0,0,0,0,.15C213,396.06,213,396.18,213.13,396.22Zm.18-.29,0,0c-.09.12-.13.08-.15,0Z" transform="translate(-79.63 -365.68)"/>
          <path class="cls-4" d="M215.72,391.21a.66.66,0,0,1,.25-.07c.14,0,.12-.24,0-.22s-.57.16-.57.38a.33.33,0,0,0-.31.29c-.31-.11-.7-.11-.85.15a.66.66,0,0,0-.84.63.37.37,0,0,0,.05.17,1.48,1.48,0,0,0-.32.21.32.32,0,0,0-.1.22,1.14,1.14,0,0,0-.47.31.76.76,0,0,0-.21.55c0,.24.27.33.48.36.06,0,.07-.07,0-.09s-.33-.13-.33-.31a.72.72,0,0,1,.18-.36,1.15,1.15,0,0,1,.39-.28.47.47,0,0,0,.18.16.1.1,0,0,0,.15-.1.27.27,0,0,0-.18-.25c0-.06.08-.12.17-.18l.14-.08a.42.42,0,0,0,.14.09c.18.06.24-.12.24-.26a.09.09,0,0,0-.09-.08.85.85,0,0,0-.22,0v0a.34.34,0,0,1,0-.31.43.43,0,0,1,.59-.17c.06,0,.14,0,.15-.08.07-.25.45-.19.7-.08a.25.25,0,0,0,.26.14.09.09,0,0,0,.07-.15.61.61,0,0,0-.17-.14s0,0,0-.07a.15.15,0,0,1,.25-.06.1.1,0,0,0,.15-.14C215.58,391.3,215.61,391.26,215.72,391.21Z" transform="translate(-79.63 -365.68)"/>
          <path class="cls-4" d="M219.39,387.68a.08.08,0,0,0-.09-.13.69.69,0,0,0-.43.58.56.56,0,0,0-.55.37.41.41,0,0,0,0,.39.65.65,0,0,0-.51.56l-.07,0a.77.77,0,0,0-.84-.06.52.52,0,0,0-.3.47c0,.22.2.29.39.25a.46.46,0,0,0,.26.07.58.58,0,0,0,.58-.4c.06.09.23.06.21-.06a.49.49,0,0,1,.59-.61.11.11,0,0,0,0-.22c-.42-.08-.08-.63.26-.54a.1.1,0,0,0,.11-.1C219,388,219.21,387.83,219.39,387.68ZM216.92,390c-.12-.06-.1-.22,0-.33a.28.28,0,0,1,.14-.1h0A.4.4,0,0,0,216.92,390Zm.68-.11c-.11.12-.6.2-.47-.07s.31-.21.51-.18S217.7,389.73,217.6,389.84Z" transform="translate(-79.63 -365.68)"/>
          <path class="cls-4" d="M232.15,388.58a.43.43,0,0,0-.23.14.83.83,0,0,0-.42-.28.54.54,0,0,0-.55.17,1,1,0,0,0-.89-.22,1,1,0,0,0-.27.08l-.11-.08a.81.81,0,0,0-.71-.13.73.73,0,0,0-1.27,0,.08.08,0,0,0,.14.06c.19-.4,1-.27,1,.09a.61.61,0,0,0-.09.23c0,.09.11.16.17.08a.6.6,0,0,0,.11-.25c.13-.11.37,0,.54.06l.07.05a.34.34,0,0,0-.11.52.1.1,0,0,0,.08,0c.18,0,.42-.09.42-.31a.37.37,0,0,0-.08-.21l.22-.05c.25,0,.69,0,.7.32,0,.12.17.11.2,0,.1-.43.62-.27.79,0a.37.37,0,0,0,.07.24.1.1,0,0,0,.17-.07.94.94,0,0,0,0-.16.22.22,0,0,1,.18-.15c.2,0,.22.15.22.3s.17.12.19,0C232.67,388.79,232.49,388.49,232.15,388.58Zm-2.35.2c0,.11-.08.14-.18.15s0-.18.13-.24A.41.41,0,0,1,229.8,388.78Z" transform="translate(-79.63 -365.68)"/>
          <path class="cls-4" d="M233.64,391.37A1.62,1.62,0,0,0,233,391a1.45,1.45,0,0,0-.59-.06.37.37,0,0,0-.45-.19.71.71,0,0,0-1.24.05c0,.06.07.11.11.05.2-.33.86-.42.95.05a.11.11,0,0,0,.15.1c.1-.05.2-.07.26,0l-.12.07a.12.12,0,0,0,0,.16c.07.09.17.19.29.14a.21.21,0,0,0,.12-.21,1.44,1.44,0,0,1,1.16.47.11.11,0,0,0,.2-.07c0-.5,1.16-.14,1.38,0s.14-.08.09-.14.34-.5.56-.42a.76.76,0,0,0,.11.14c.09.08.21,0,.18-.13a.37.37,0,0,0-.1-.16c-.07-.17.15-.29.35-.32a.69.69,0,0,1,.35,0,.72.72,0,0,1,.2.09l0,0-.13.09a.11.11,0,0,0,0,.15c.15.25.46.18.44-.13h0a.8.8,0,0,1,.81.12.12.12,0,0,0,.16,0c.34-.23.61.09,1,.05.17,0,.32-.15.5-.15a1.63,1.63,0,0,1,.62.24c.13.07.22-.13.1-.2a2.56,2.56,0,0,0-.64-.27c-.23,0-.38.1-.59.14s-.39-.1-.57-.13a.64.64,0,0,0-.45.08,1.09,1.09,0,0,0-1-.11.82.82,0,0,0-.57-.3.93.93,0,0,0-.72.21.36.36,0,0,0-.13.28c-.33,0-.74.25-.7.55C234.6,391.15,233.89,391,233.64,391.37Z" transform="translate(-79.63 -365.68)"/>
          <path class="cls-4" d="M240.78,391.79c.21.07.36-.15.39-.33a.14.14,0,0,0,0-.13.46.46,0,0,0-.44-.08.12.12,0,0,0-.08.14.14.14,0,0,0,.08.09.23.23,0,0,0,0,.14A.21.21,0,0,0,240.78,391.79Zm.05-.19Zm0,0Zm0,0v0h-.05s0,0,0,0a.24.24,0,0,1,0-.08l.06,0h0l0,0Z" transform="translate(-79.63 -365.68)"/>
          <path class="cls-4" d="M240.12,390.39a.1.1,0,0,0-.05.09l-.06,0a.09.09,0,0,0-.11.13.43.43,0,0,0,.62,0,.14.14,0,0,0,0-.18C240.42,390.26,240.27,390.3,240.12,390.39Z" transform="translate(-79.63 -365.68)"/>
          <path class="cls-4" d="M201.33,395.93a.29.29,0,0,0-.16.15.18.18,0,0,0-.07.08.22.22,0,0,0,.06.26.28.28,0,0,0,.29.05.44.44,0,0,0,.26-.3.12.12,0,0,0,0-.14A.35.35,0,0,0,201.33,395.93Zm.06.35a.14.14,0,0,1-.09,0l.06-.06a.12.12,0,0,1,.06-.06h.06A.2.2,0,0,1,201.39,396.28Z" transform="translate(-79.63 -365.68)"/>
          <path class="cls-4" d="M201.91,395.05a.1.1,0,0,0-.1.09,0,0,0,0,0-.07,0,.5.5,0,0,0-.15.25.08.08,0,0,0,0,.08.35.35,0,0,0,.47-.09.21.21,0,0,0,0-.21A.2.2,0,0,0,201.91,395.05Zm-.15.29a.34.34,0,0,1,.06-.12.1.1,0,0,0,.08.06l-.08.05Z" transform="translate(-79.63 -365.68)"/>
          <path class="cls-4" d="M204.51,396.63h-.07a.05.05,0,0,0-.07,0c-.14.06-.27.18-.22.35a.31.31,0,0,0,.28.22.33.33,0,0,0,.34-.29C204.79,396.76,204.61,396.65,204.51,396.63Zm0,.34a.15.15,0,0,1-.11,0l0,0a.2.2,0,0,1,.13-.06.11.11,0,0,1,.07,0A.12.12,0,0,1,204.47,397Z" transform="translate(-79.63 -365.68)"/>
          <path class="cls-4" d="M209.08,396.8a.1.1,0,0,0,0,.15l0,0,0,0a.36.36,0,0,0,0,.11.11.11,0,0,0,.06.13.34.34,0,0,0,.31,0,.33.33,0,0,0,.11-.51A.35.35,0,0,0,209.08,396.8Zm.24.18Zm0,.06h0v0l0,0h-.09c0-.05.05-.08.09-.12h0v0h0Zm0,0Zm0,0Z" transform="translate(-79.63 -365.68)"/>
          <path class="cls-4" d="M209.31,397Z" transform="translate(-79.63 -365.68)"/>
        </g>
      </g>
    </g>
    <path class="cls-5" d="M139.59,413l-.75-.13c-.44-.16-.86-.46-1.35-.18l-.91-.12c-.09-.15-.19-.16-.3,0l-.27,0c-.07-.27-.27-.28-.5-.23l-.74,0a.26.26,0,0,0-.45,0h-.27c-.16-.42-.51-.24-.79-.25l-.45,0a.38.38,0,0,0-.6,0h-.27a1.28,1.28,0,0,0-1.39-.29l-.57,0c-.44-.44-1-.33-1.55-.36l-.74,0c-.11-.19-.29-.16-.46-.13h-.29c-.17-.24-.4-.16-.62-.14l-.59,0a1.8,1.8,0,0,0-1.22-.26l-.73,0a.27.27,0,0,0-.46,0h-.27c-.16-.42-.51-.24-.79-.25l-.59,0a2.12,2.12,0,0,0-1.37-.28l-.44,0a.77.77,0,0,0-.91-.05h-.26c-.23-.44-.62-.2-1-.25-2.33-.24-4.65-.5-7-.88-2.56-.42-5.13-.75-7.69-1.13-2.39-.36-4.78-.75-7.17-1.12-1.82-.28-3.64-.56-5.46-.82a7.62,7.62,0,0,1-1.17-.26c0-.34.28-.39.51-.47l16.43-5.4,11.85-3.93a3.8,3.8,0,0,1,1.64-.12c2.36.25,4.73.53,7.09.79.12.27.3.22.49.09l4.78.53c.08.19.17.23.28,0l6.18.68c.16.31.37.31.6.08l.33,0c.11.44.52.3.75.31.94.07,1.88.48,2.84.1l.32,0c0,.33.32.25.52.28l2.87.35a2.23,2.23,0,0,0,1.57-.06l.61,0a2.71,2.71,0,0,0,2.24.25l.33.05c.74.71,1.61.39,2.45.31l.27,0a3,3,0,0,0,2.38.23l.32,0c.35.46.88.35,1.35.41,1.85.22,3.71.41,5.56.63a4.08,4.08,0,0,0,2.11,0l.46,0c.26.42.61.26.94.14a.13.13,0,0,1,.06.11s0,0,0,.06a.33.33,0,0,0,.06.1c.17.25-.1.25-.19.28-.37.14-.77.22-1.13.38-2.29,1-4.56,2.06-6.84,3.07-1.68.74-3.37,1.44-5.05,2.17-1.9.82-3.76,1.75-5.69,2.44-1.47.52-2.81,1.31-4.28,1.79S141.33,413,139.59,413Z" transform="translate(-79.63 -365.68)"/>
    <path class="cls-6" d="M139.31,413.55c1.74,0,3.1-1.11,4.67-1.63s2.81-1.26,4.28-1.79c1.93-.69,3.79-1.62,5.69-2.44,1.68-.73,3.37-1.43,5-2.17,2.29-1,4.56-2.06,6.84-3.07.37-.16.77-.24,1.14-.38.09,0,.35,0,.18-.27l0-.17a1.46,1.46,0,0,1,.72,0c0,.33.1.48.42.46q2.34,3.8,4.66,7.6c1.25,2.05,2.47,4.12,3.75,6.15.37.6.7,1.22,1.06,1.82s.25.91-.33,1.21c-1.32.68-2.6,1.42-3.93,2.05-1.87.91-3.7,1.88-5.51,2.9-.63-.06-1.08.36-1.58.61-2.76,1.43-5.49,2.9-8.25,4.34-2,1.05-4,2.05-6,3.11-.62.33-1,.22-1.34-.37-1.79-2.67-3.43-5.43-5.05-8.2-1.52-2.61-3.11-5.17-4.67-7.76a7.19,7.19,0,0,1-.34-.75c-.16-.36-.35-.68-.83-.62C139.86,413.83,139.52,413.76,139.31,413.55Z" transform="translate(-79.63 -365.68)"/>
    <path class="cls-5" d="M168.42,448.06c-.16,1.83-.07,3.66,0,5.49a1.89,1.89,0,0,1-1,1.86c-2,1.29-4,2.46-6,3.79-2.43,1.67-5,3.14-7.43,4.77-2.26,1.51-4.6,2.89-6.93,4.3-2,1.21-4,2.53-5.92,3.82a1.24,1.24,0,0,1-.75.28l0,0c0-1.7,0-3.4,0-5.1.06-10.05,0-20.1,0-30.15,0-2.21,0-4.42,0-6.62v-4.4l0-10.81a2.5,2.5,0,0,0-.11-1.38l0-.29c.47-.06.66.26.82.62s.2.51.34.75c1.56,2.58,3.16,5.15,4.68,7.76,1.61,2.77,3.25,5.53,5,8.2.39.59.73.7,1.34.37,2-1.06,4-2.06,6-3.11,2.75-1.44,5.48-2.92,8.25-4.34.49-.25,1-.67,1.57-.61q0,12,0,24.1A1.77,1.77,0,0,0,168.42,448.06Z" transform="translate(-79.63 -365.68)"/>
    <path class="cls-7" d="M140.21,413.6l0,.29c-.27,0-.37.2-.49.4-1.93,3.06-3.59,6.29-5.44,9.39-1.41,2.35-2.78,4.74-4.17,7.1a.87.87,0,0,1-1,.5c-2.26-.37-4.5-.83-6.75-1.27-2.52-.48-5.07-.85-7.57-1.4-1.85-.41-3.72-.74-5.57-1.11-2.19-.43-4.4-.83-6.6-1.23-2-.36-3.9-.77-5.85-1.17-1.5-.32-3-.58-4.55-.81a33.85,33.85,0,0,0-3.46-.61c-2.23-.64-4.53-.94-6.8-1.37-.62-.12-1.22-.28-1.83-.42s-.55-.41-.33-.79c.68-1.16,1.41-2.29,2.08-3.45s1.43-2.56,2.16-3.84l3.78-6.61c.28-.47.55-.94.84-1.41.15-.24.34-.44.67-.31a7.62,7.62,0,0,0,1.17.26c1.82.26,3.64.54,5.46.82,2.39.37,4.78.76,7.17,1.12,2.56.38,5.13.71,7.69,1.13,2.32.38,4.64.64,7,.88.21.5.62.21,1,.25H119a.65.65,0,0,0,.91.05l.44,0a1.31,1.31,0,0,0,1.37.28l.59,0c.15.45.5.23.79.25h.27c.14.22.29.22.46,0l.73,0a1,1,0,0,0,1.22.26l.59,0c.14.36.36.34.62.14h.29c.08.29.23.35.46.13l.74,0a1.92,1.92,0,0,0,1.55.36l.57,0a2.32,2.32,0,0,0,1.39.29h.27a.36.36,0,0,0,.6,0l.45,0c.15.44.5.23.79.25h.27q.21.32.45,0l.74,0c.07.29.28.28.5.23l.27,0c.09.16.19.18.3,0l.91.12c.43.2.86.44,1.35.18l.75.13C139.8,413.17,140.14,413.25,140.21,413.6Z" transform="translate(-79.63 -365.68)"/>
    <path class="cls-6" d="M88.71,423.68a33.85,33.85,0,0,1,3.46.61c1.52.23,3,.49,4.55.81,2,.4,3.89.81,5.85,1.17,2.2.4,4.41.8,6.6,1.23,1.85.37,3.72.7,5.57,1.11,2.5.55,5.05.92,7.57,1.4,2.25.44,4.49.9,6.75,1.27a.87.87,0,0,0,1-.5c1.39-2.36,2.76-4.75,4.17-7.1,1.85-3.1,3.51-6.33,5.44-9.39.12-.2.22-.39.49-.4a2.5,2.5,0,0,1,.11,1.38c-.2.07-.33-.5-.52-.13q-.75,1.53-1.38,3.12c-.35.87-.56,1.81-.91,2.68-1.24,3.06-2.51,6.1-3.77,9.14-.57,1.38-1.15,2.76-1.72,4.13-.19.44-.51.79-1,.58-1.38-.61-2.88-.58-4.3-1s-2.91-.67-4.37-1c-1.66-.32-3.34-.56-5-.88-2-.39-3.94-.83-5.92-1.23l-6.67-1.3c-2.07-.41-4.14-.84-6.2-1.27-1.88-.38-3.78-.67-5.65-1.1-1.26-.29-2.54-.47-3.82-.69-.18-.11-.07-.46-.38-.46Z" transform="translate(-79.63 -365.68)"/>
    <path class="cls-7" d="M140.34,472.35l-.14.16a5.19,5.19,0,0,0-2.79-.61.41.41,0,0,1-.22,0c-1.43-.85-3.11-.74-4.65-1.19a53.22,53.22,0,0,0-5.56-1.27c-2.62-.47-5.14-1.29-7.76-1.7-.42-.07-.74-.44-1.2-.35,0-.7,0-1.39,0-2.08a.75.75,0,0,1,.32-.76l.41.06c.09.15.17.28.34.08l.27.06c.08.17.16.29.34.08l.41.08c.08.15.17.29.34.09l.27,0c.53.46,1,.23,1.42-.16a2,2,0,0,0,1-1.94c0-2.68,0-5.37,0-8.05.2-.3.25-.58-.14-.77A3.32,3.32,0,0,0,121,452c-.11-.26-.27-.32-.49-.11l-.87-.2c-.07-.17-.15-.31-.33-.11l-1-.2c-.08-.16-.16-.3-.34-.09l-1-.21c-.08-.16-.16-.3-.35-.1l-.87-.19a.94.94,0,0,0-1.08-.27l-1-.2c-.08-.16-.16-.29-.34-.1l-.41-.06a.61.61,0,0,0-1,0l-.26.05c-.22-.18-.28,0-.31.15l-.43.33c-.22,0-.32.11-.26.33l-.11.38c-.16.07-.32.15-.1.34l0,2.39c-.52.34-1.06,0-1.59,0-.7,0-1,.15-.94.9,0,3.27,0,6.55,0,9.83a7.84,7.84,0,0,1-3.52-.53,7.4,7.4,0,0,0-1.62-.26c-2.06-.44-4.12-.89-6.16-1.4s-4-1-6.11-1.28a1.37,1.37,0,0,1-1.28-1.52q0-16.71,0-33.42c1.28.22,2.56.4,3.82.69,1.87.43,3.77.72,5.65,1.1,2.06.43,4.13.86,6.2,1.27l6.67,1.3c2,.4,3.94.84,5.92,1.23,1.66.32,3.34.56,5,.88,1.46.29,2.93.59,4.37,1s2.92.34,4.3,1c.47.21.79-.14,1-.58.57-1.37,1.15-2.75,1.72-4.13,1.26-3,2.53-6.08,3.77-9.14.35-.87.56-1.81.91-2.68q.63-1.59,1.38-3.12c.19-.37.32.2.52.13l0,10.81a.34.34,0,0,0-.28.38v3.64a.34.34,0,0,0,.28.38c0,2.2,0,4.41,0,6.62,0,10,0,20.1,0,30.15C140.3,469,140.38,470.65,140.34,472.35Z" transform="translate(-79.63 -365.68)"/>
    <polygon class="cls-7" points="20.48 80.92 19.48 97.57 60.57 106.83 43.34 78.75 20.48 80.92"/>
    <path class="cls-1" d="M89.44,424a109.7,109.7,0,0,0,.52,12,29.88,29.88,0,0,1,.23,3.53c0,.92-.12,1.85-.22,2.77a117.68,117.68,0,0,0-.51,17.41A1.67,1.67,0,0,0,91,461.21c.76.08,1.53-.12,2.29,0a11.86,11.86,0,0,1,2.07.59,21.15,21.15,0,0,0,3.37.55,22.91,22.91,0,0,1,7.61,2.39c.67.35,1.66-.09,2.42-.09a3.42,3.42,0,0,0,2.17,1.35,10.4,10.4,0,0,0,2.43.18,37.81,37.81,0,0,1,11.93,2c1.7.56,3.17.51,4.88,1a18.57,18.57,0,0,0,5.12.82,7.87,7.87,0,0,1,1.54.11c.66.16,2.18,1.42,2.78,1.24.92-.28.75-1.91.83-2.72a50.82,50.82,0,0,0,.25-8.63c-.23-3.2-1-6.38-.77-9.58.13-2.24.71-4.42.85-6.65a37.09,37.09,0,0,0-.18-5.27,197.06,197.06,0,0,1-.33-24.78c-2.55,5.94-6.81,11.49-11,16.4a3.81,3.81,0,0,1-1.25,1.08,3.2,3.2,0,0,1-3-.54,17.27,17.27,0,0,0-2.64-1.79,10.63,10.63,0,0,0-3.24-.54c-7-.62-13.54-4.94-20.44-3.87-4.31-.85-8.7-1.57-13-2.41a14,14,0,0,0-5.29-.35c-.21-.63.31-1.25.78-1.72a34,34,0,0,0,3.57-4.2,54.32,54.32,0,0,0,3.89-6.8l1.83-3.61c9.35,1,18.19,2.18,27.54,3.17,7.28.78,14.76,1.62,21.22,5.08" transform="translate(-79.63 -365.68)"/>
    <path class="cls-1" d="M140.23,471c1.6.37,3-1,4.25-2a33.93,33.93,0,0,1,5-3.33l2.63-1.55c2.42-1.42,4.83-2.84,7.35-4.09a9.4,9.4,0,0,0,1.27-.72c.38-.28.72-.63,1.08-.94,1.87-1.58,4.6-2.19,5.86-4.29-.61-10.52-.41-21,0-31.54" transform="translate(-79.63 -365.68)"/>
    <path class="cls-1" d="M139.13,413.66l3.4-1.27,4.57-1.73,2.38-.9c.7-.26,1.39-.53,2.06-.83a16.23,16.23,0,0,0,2.54-1.43c1.64-1.12,3.68-1.25,5.43-2.18.47-.24.93-.5,1.39-.75a43.13,43.13,0,0,1,6.85-2.95,14.53,14.53,0,0,0,2.6,4.85c.71,1,1.55,1.93,2.34,2.88a32,32,0,0,1,4.94,8.35l.26.72c-1.68-.27-3,1.34-4.53,2.06a21,21,0,0,1-3.18.87,15.55,15.55,0,0,0-2.82,1.28l-2.18,1.16c-4,2.14-8,4.28-12.16,6.16a3,3,0,0,1-1.84.38c-.77-.19-1.24-.95-1.62-1.65A104.05,104.05,0,0,0,139.13,413.66Z" transform="translate(-79.63 -365.68)"/>
    <path class="cls-1" d="M147.42,399a10.85,10.85,0,0,1,3.33.71,14.1,14.1,0,0,0,3,.21c2.31,0,4.61.27,6.91.51l6.88.71" transform="translate(-79.63 -365.68)"/>
    <g>
      <g>
        <path class="cls-8" d="M250.5,392.33a2,2,0,0,0-2.43.3c-.25.21-.46.46-.7.69l0,0h0c-.23.07-.07,0,0,0a1.15,1.15,0,0,0-.2,0,5,5,0,0,1-1.66-.64,6.12,6.12,0,0,0-2.31-.69,8.45,8.45,0,0,0-2.4.3,10.2,10.2,0,0,0-4,2.25c-2.35,2-3.95,4.85-5.56,7.47s-3.6,5.21-4.48,8.28a26.62,26.62,0,0,0-.71,6.29c-.07,2.29-.07,4.6-.31,6.88a1.11,1.11,0,0,0,1.1,1.31c3.37.26,6.92.23,10-1.23a14.45,14.45,0,0,0,4.27-3.39c.67-.72,1.31-1.45,2-2.15s1.42-1.3,2.11-2c1.49-1.44,2.77-3.07,4.12-4.63,1.12-1.3,2.39-2.42,3.56-3.67a7.57,7.57,0,0,0,1.87-3,5,5,0,0,0-.43-3.48,14.83,14.83,0,0,0-3-3.71c-.44-.46-.75-.81-.59-1.47a3.67,3.67,0,0,1,.43-.93,1.07,1.07,0,0,0,.81-1.08A2.29,2.29,0,0,0,250.5,392.33Zm-3.17,1Zm0,0c-.1.11-.07,0,0,0Z" transform="translate(-79.63 -365.68)"/>
        <path class="cls-9" d="M270.84,366.21c-2.13-1.55-4.26.64-5.69,2.08-1,1-1.93,1.88-2.82,2.91s-1.91,2.36-2.8,3.58c-1.8,2.44-3.47,5-5.48,7.27-.92,1-2,1.87-3,2.87a4.85,4.85,0,0,0-1.46,3.7,3.06,3.06,0,0,1,0,.8,2.28,2.28,0,0,1-.38.68,2.85,2.85,0,0,0-.54,1.51,2.26,2.26,0,0,0,.77,1.56,3.37,3.37,0,0,0,.91.63,1.44,1.44,0,0,0,.25.08,1.09,1.09,0,0,0,.54.11,1.7,1.7,0,0,0,2,.19c.44-.23.7-.73,1.17-.89a5.65,5.65,0,0,0,1.84-.74,7.6,7.6,0,0,0,2.19-3.36,15.18,15.18,0,0,1,2-3.6c1.88-2.43,4.32-4.19,6.57-6.23a18.75,18.75,0,0,0,4.83-6.4C272.66,370.81,273,367.8,270.84,366.21Z" transform="translate(-79.63 -365.68)"/>
      </g>
      <g>
        <path class="cls-4" d="M269.74,366.27l-.31-.13a.66.66,0,0,0-.87.2,6.12,6.12,0,0,0-2.33,1.34,40.37,40.37,0,0,0-3.18,3,27.36,27.36,0,0,0-3.3,4.06c-.94,1.42-1.71,2.95-2.58,4.41a16.11,16.11,0,0,1-3.19,4.1,36.54,36.54,0,0,0-3.29,2.64,4,4,0,0,0-1,3.66,2.23,2.23,0,0,0,.13.39.25.25,0,0,0-.29.08,2,2,0,0,0,0,2.55.86.86,0,0,0-.48.25,10,10,0,0,0-1.32,1.51l-.11.19h0a1.72,1.72,0,0,1-.61.29,7,7,0,0,1-2.6-1,7.61,7.61,0,0,0-3.56-.83,6,6,0,0,0-3.66,1.5,15.46,15.46,0,0,0-2.49,3.2c-1.74,2.68-3.81,5.13-5.44,7.9-.41.7-.79,1.42-1.17,2.14a15.24,15.24,0,0,0-1,2A29.08,29.08,0,0,0,226,414a12.7,12.7,0,0,0-.14,4.39c.11.68.27,1.36.39,2s.15,1.15.29,1.7a2.22,2.22,0,0,0,.28.68c-.06.26.2.46.45.53a4.92,4.92,0,0,0,1.87-.09,15.4,15.4,0,0,1,2.14-.15,10.26,10.26,0,0,0,3.89-.55c2.68-1,4.61-3,6.59-5,1.13-1.15,2.42-2.11,3.48-3.32s2.23-2.42,3.36-3.62,2.18-2.44,3.31-3.62c.78-.82,2-1.63,2.08-2.85a5,5,0,0,0-1.1-2.87,12.38,12.38,0,0,0-1.18-1.77c-.46-.54-1.06-.93-1.54-1.44v0a10.07,10.07,0,0,1-.56-.88,2.21,2.21,0,0,1-.14-.52,21.11,21.11,0,0,0,2-2.82v0a3.2,3.2,0,0,0,.72.19c.8.09,1.16-.44,1.5-1a2.38,2.38,0,0,0,.74-.09c.89.22,1.86-1,2.27-1.64.9-1.45,1.62-3,2.53-4.46a24,24,0,0,1,3.34-4.24c1.26-1.25,2.69-2.3,4-3.52a21.54,21.54,0,0,0,5.44-7.62,3.62,3.62,0,0,0,.11-2.86l.06-.15c.14-.44-.22-.85-.51-1.13A3.47,3.47,0,0,0,269.74,366.27Zm.86,1.63c-.25-.18-.5-.35-.76-.51a5.56,5.56,0,0,1-.57-.42h0a1.83,1.83,0,0,1,.52,0l.14.11a10.07,10.07,0,0,1,1.09,1l.07.09A2.87,2.87,0,0,1,270.6,367.9ZM250,398.73c.49.69,1,1.35,1.51,2s1.39,1.9,1,3a7.91,7.91,0,0,1-1.23,1.77c-.51.66-1,1.32-1.58,2-1,1.21-2.19,2.31-3.28,3.47-2.09,2.21-4,4.64-6.2,6.69a18.41,18.41,0,0,1-3.78,2.66,14,14,0,0,1-3.72,1.47c-1.47.27-3,.2-4.48.42l-.44.05a5.77,5.77,0,0,0-.17-.66,11.71,11.71,0,0,1-.37-1.66,16.88,16.88,0,0,1,.07-4.49,18.56,18.56,0,0,1,1.18-4.56,25.54,25.54,0,0,1,2.32-4.1c.91-1.42,1.86-2.83,2.8-4.23s1.84-2.79,2.81-4.15a19.2,19.2,0,0,1,3.05-3.61,2.66,2.66,0,0,1,3-.34,9,9,0,0,0,3.71,1,3.71,3.71,0,0,0,1-.12,4.44,4.44,0,0,1-.24.49c-.8,1.52-2.64,3-2.3,4.88a.2.2,0,0,0,.21.15.93.93,0,0,0,.23,0l.1,0h0a2.94,2.94,0,0,0,1.09-.83c.52-.56.93-1.21,1.42-1.79a8.67,8.67,0,0,1,1.27-1.07h0l.22.4A3.59,3.59,0,0,0,250,398.73Zm-2.56-1.13c-.44.5-.81,1.07-1.21,1.6a1,1,0,0,0-.08.11l0,0a22.08,22.08,0,0,1,2.44-3.07,12.36,12.36,0,0,0,1.4-1.58c.23-.35.51-.89.93-1-.58.8-1.17,1.61-1.82,2.35C248.56,396.62,247.91,397,247.42,397.6Zm1.58-4c.22-.24.43-.66.77-.53l.61.25a1.8,1.8,0,0,0-.3.26,6.78,6.78,0,0,0-.54.78,6.18,6.18,0,0,1-.84,1,24.61,24.61,0,0,0-3.72,4.91,3.49,3.49,0,0,1,.86-2c.47-.69,1-1.33,1.45-2,.21-.35.33-.74.53-1.1A8,8,0,0,1,249,393.65Zm-4.64.9c-.21-.08-.43-.16-.64-.26l-.62-.28.46.17C243.83,394.29,244.1,394.42,244.36,394.55Zm-17.63,25.61a17.77,17.77,0,0,1-.45-4.24,24.07,24.07,0,0,1,.83-4.37,15,15,0,0,1,.63-2.07c.29-.68.67-1.32,1-2a57.55,57.55,0,0,1,5.27-7.85c.84-1.1,1.57-2.28,2.41-3.37a6.35,6.35,0,0,1,3.18-2.42l.14,0a6.66,6.66,0,0,0-1.6,1.4,34.06,34.06,0,0,0-2.79,3.64c-1.8,2.65-3.57,5.33-5.28,8a22.9,22.9,0,0,0-2.17,3.94,19,19,0,0,0-1.06,4.13,18.08,18.08,0,0,0-.19,4.09A11.7,11.7,0,0,0,227,421c.11.4.26.79.33,1.2,0,0,0,.07,0,.12l-.17.06a2.56,2.56,0,0,1-.17-.6C226.88,421.26,226.83,420.7,226.73,420.16Zm5.86,2.36c-.65,0-1.31,0-2,0a19.28,19.28,0,0,0-2,.21,6.25,6.25,0,0,1-.87.07h0l.16-.05a19.53,19.53,0,0,1,2.16-.23,15.15,15.15,0,0,0,4-.59,19.31,19.31,0,0,0,6.61-4.06,20.28,20.28,0,0,1-4.12,3.39A9,9,0,0,1,232.59,422.52Zm20.11-17.21c-1.08,1.14-2.12,2.32-3.17,3.49s-2.16,2.31-3.24,3.47-2.08,2.33-3.27,3.37l-.76.7c1.6-1.67,3.06-3.48,4.65-5.16,1.06-1.12,2.17-2.18,3.16-3.35.51-.6,1-1.2,1.47-1.81a16.12,16.12,0,0,0,1.26-1.72,2.29,2.29,0,0,0,.29-1.3A2,2,0,0,1,252.7,405.31Zm-.73-12a4.57,4.57,0,0,1-1.31-.6,1.61,1.61,0,0,1-.82-2.12,11.13,11.13,0,0,0,3.2,2.24A.94.94,0,0,1,252,393.31Zm4-2.24a3.83,3.83,0,0,1-.82.93,1.71,1.71,0,0,1-.58.31l-.09-.06c.24-.24.6-.39.85-.61a7.1,7.1,0,0,0,1-1.22C256.26,390.64,256.13,390.86,256,391.07Zm15.7-21.37a4.46,4.46,0,0,1-.47,1.71,22.2,22.2,0,0,1-4.52,6.43c-1.21,1.23-2.55,2.27-3.83,3.42-.31.27-.61.56-.9.85a19.51,19.51,0,0,0-1.89,1.86,14,14,0,0,0-2,2.94,32.48,32.48,0,0,1-1.93,3.13,5,5,0,0,1-1.29,1.43,3.78,3.78,0,0,0-.84.61l-.55-.1a5.63,5.63,0,0,1-1.89-.92,2.9,2.9,0,0,1-1.24-3.3,5.21,5.21,0,0,1,2.33-2.68,15.93,15.93,0,0,0,2.89-2.42c1.89-2.12,3-4.76,4.52-7.15a31.44,31.44,0,0,1,5.79-6.56,8.11,8.11,0,0,1,2.72-1.87,1.64,1.64,0,0,0,.28.31c.33.29.73.49,1.09.75a3.46,3.46,0,0,0,1.15.69,1,1,0,0,0,.38,0A1.81,1.81,0,0,1,271.7,369.7Z" transform="translate(-79.63 -365.68)"/>
        <path class="cls-4" d="M265.92,370.13a1.64,1.64,0,0,0,.56,2.32.17.17,0,0,0,.06.11,1.15,1.15,0,0,0,1.74-.58,1.18,1.18,0,0,0,.18-.45v-.08a1.59,1.59,0,0,0,0-.53A1.42,1.42,0,0,0,265.92,370.13Zm1,1.72a.74.74,0,0,1,.08-.74c.14-.2.37-.38.57-.17C268.08,371.42,267.49,371.93,267,371.85Zm-.27-1.54a.59.59,0,0,1,.49-.11,1.33,1.33,0,0,0-.76.71,1.22,1.22,0,0,0-.07.17A.93.93,0,0,1,266.69,370.31Z" transform="translate(-79.63 -365.68)"/>
      </g>
    </g>
    <g>
      <g>
        <path class="cls-10" d="M161.85,449.55a4.14,4.14,0,0,1,2.21-2.66,17.11,17.11,0,0,1,3.16-1.16,29.12,29.12,0,0,1,4.52-1.07,69.72,69.72,0,0,1,10.32-.44c3.53,0,7.06.12,10.58.4s7,.28,10.43.58c.87.08,1.74.18,2.6.29.48.07,1,.1,1.45.14a.37.37,0,0,1,.18-.08c.34-.05.69-.09,1-.12a6.56,6.56,0,0,1,1.17,0,20.06,20.06,0,0,1,2.9.42,12.26,12.26,0,0,1,2.89,1,6.31,6.31,0,0,1,2.1,1.55,3.48,3.48,0,0,1,.84,2.56,16.43,16.43,0,0,1-1.48,4.4,35.69,35.69,0,0,0-1.43,4.65c-.44,1.66-.86,3.33-1.34,5s-.9,3.32-1.23,5-.61,3.39-.95,5.08a18.23,18.23,0,0,1-.56,2.32,14.61,14.61,0,0,1-.93,2.06,22.15,22.15,0,0,0-1.77,3.59c-.74,2.3-1.21,4.83-2.61,6.85a8.54,8.54,0,0,1-3,2.53,23.88,23.88,0,0,1-4.12,1.79,30.77,30.77,0,0,1-18.47.71,32.25,32.25,0,0,1-4.4-1.53,11.67,11.67,0,0,1-3.41-2.07,7.44,7.44,0,0,1-2-3.71,44.12,44.12,0,0,1-1-4.81c-.55-3.37-1.31-6.68-2.14-10q-.63-2.51-1.25-5c-.41-1.68-.73-3.4-1.16-5.08a39.77,39.77,0,0,0-1.67-4.62,26.16,26.16,0,0,1-1.27-4.15A10.66,10.66,0,0,1,161.85,449.55Z" transform="translate(-79.63 -365.68)"/>
        <g>
          <path class="cls-11" d="M192,447.13a61.26,61.26,0,0,1,.71-6.2A52.64,52.64,0,0,1,197,429.57a49.52,49.52,0,0,1,2.66-5.11,36.16,36.16,0,0,1,3.4-4.67c.61-.71,1.28-1.35,1.9-2s1.25-1.47,1.92-2.16a14.62,14.62,0,0,1,4.37-2.9c3.9-1.92,7.92-4,12.36-4.15.53,0,.82.82.29,1a5.41,5.41,0,0,0-1.72,1.11,7.93,7.93,0,0,0-1.3,1.69,16.87,16.87,0,0,0-1.62,4.16,30.09,30.09,0,0,1-1.32,4.68,31.27,31.27,0,0,1-2.69,4.48,16.89,16.89,0,0,0-1.4,2.4c-.4.86-.73,1.75-1.15,2.6a27.4,27.4,0,0,1-3.4,4.5c-2.39,3-5.36,5.45-8.1,8.13a53.93,53.93,0,0,0-4,5c-1.31,1.62-3.05,2.82-4.42,4.38a.61.61,0,0,1-.41.2.8.8,0,0,1-1.54-.28,9.42,9.42,0,0,1,.61-2.77A12.35,12.35,0,0,0,192,447.13Z" transform="translate(-79.63 -365.68)"/>
          <path class="cls-11" d="M195,452.06a.85.85,0,0,0,.17,1.31,3.8,3.8,0,0,0,2.74.46,17.62,17.62,0,0,0,2.6-.53,7.75,7.75,0,0,0,4-2.38,9,9,0,0,0,1.27-2.1,6.34,6.34,0,0,1,.42-.82l.13-.13,0,0,.14-.09c.56-.34,1.23-.51,1.78-.87a2.45,2.45,0,0,0,1-1.7,14.44,14.44,0,0,0-.72-6.21.47.47,0,0,0-.89,0c0,.07,0,.13,0,.19a1.1,1.1,0,0,0-.25,0,2.77,2.77,0,0,0-1,.68c-.42.35-.82.72-1.22,1.09a25.58,25.58,0,0,1-2.42,2,11.84,11.84,0,0,0-3.12,3c-.38.58-.71,1.19-1,1.8a10.77,10.77,0,0,1-1,1.71C196.88,450.41,195.81,451.1,195,452.06ZM206.29,448Z" transform="translate(-79.63 -365.68)"/>
          <path class="cls-11" d="M154.39,411.76a33.37,33.37,0,0,1,4.33,6.32,47.7,47.7,0,0,0,4,6c1.46,1.81,3,3.53,4.59,5.25a23.13,23.13,0,0,0,4.84,4.32.49.49,0,0,0,0,.21,9.32,9.32,0,0,0,1.19,3.46c.47.92,1,1.79,1.42,2.74s.69,1.91,1,2.86c.22.66.46,1.31.71,2s.48,1.59.76,2.37c.19.53.4,1.05.62,1.56.09.22.19.44.29.66,0,.05.05.11.08.16v0l0,0c.3.72.56,1.46.87,2.18a4.16,4.16,0,0,0,2.88,2.79,11.62,11.62,0,0,0,2.28.17,5.73,5.73,0,0,0,1.94-.27,1,1,0,0,0,.7-1.22l0,0a4.09,4.09,0,0,0,.6.07h.25a.76.76,0,0,0,.92.4c.15.29.58.44.75.05.8-1.72.57-3.59.67-5.43,0-1,.21-2,.32-3s.24-2.11.36-3.17c.4-3.68.83-7.35,1-11.05a18,18,0,0,0-.29-4.69c.27.56.55,1.12.85,1.67a7.38,7.38,0,0,1,1.1,3.06.73.73,0,0,0,1.27.45l.16.06a.69.69,0,0,0,.28,0,.36.36,0,0,0,.44,0,6.35,6.35,0,0,0,1.21-2.23c.36-.77.7-1.54,1.09-2.3a43.76,43.76,0,0,1,2.27-4c.39-.61.79-1.25,1.23-1.83s1-1,1.45-1.5a3.4,3.4,0,0,0,.91-1.87,7.37,7.37,0,0,0-.25-1.86c-.2-1.37.05-2.78-.38-4.12a.68.68,0,0,0-.82-.46,6.93,6.93,0,0,0-3.27,2.54,21.23,21.23,0,0,0-4,7.52,15,15,0,0,0-.75,5,25.71,25.71,0,0,1,.24,2.94,10.11,10.11,0,0,0-.51-1.22c0-.6,0-1.2,0-1.79a23.16,23.16,0,0,0-.52-3.89c-.22-1.2-.43-2.41-.75-3.59a17.64,17.64,0,0,0-1.25-3.21c-1-2-2.21-3.88-3.32-5.81-2.22-3.87-4.41-7.89-7.62-11a.69.69,0,0,0-1.16.48c-.21,2.1-.66,4.28-.26,6.4a3.48,3.48,0,0,0,.67,1.5.56.56,0,0,0-.19.42c-.06,3.93.13,7.87-.18,11.8-.13,1.74-.28,3.47-.54,5.19a33.8,33.8,0,0,0-.6,4.69,23.15,23.15,0,0,0,.82,6,.51.51,0,0,0-.17-.07c-.15-.11-.3-.2-.46-.3a19.25,19.25,0,0,1-1.63-9.45.64.64,0,0,0,.31-.81,3.48,3.48,0,0,0-.32-.64.68.68,0,0,0-.62-.37c-1.16-1.07-2.29-2.17-3.46-3.22a36.71,36.71,0,0,0-3.91-3.13,40.9,40.9,0,0,0-4.55-2.49c-1.63-.84-3.21-1.75-4.91-2.45-.69-.29-1.4-.52-2.1-.78a6.05,6.05,0,0,1-1.9-.95A.71.71,0,0,0,154.39,411.76Zm30.9,40.05a27.46,27.46,0,0,1-2.11-3.08c-.42-1.3-.8-2.6-1.26-3.89a27.68,27.68,0,0,0-3.59-7.37l-.49-.62.78.47a.85.85,0,0,0,.22.09.49.49,0,0,0,.66-.1l.13-.1c.14.43.28.85.43,1.27.52,1.47,1.12,2.92,1.76,4.36s1.36,2.68,1.88,4.09.93,3,1.44,4.5Zm3.13-32.35c-1.07-1.77-2.22-3.48-3.23-5.27-.34-.62-.68-1.23-1-1.83a59.4,59.4,0,0,1,3.34,5.32C187.81,418.26,188.12,418.86,188.42,419.46Zm-.61,33.91h0C187.88,453.36,187.86,453.4,187.81,453.37Z" transform="translate(-79.63 -365.68)"/>
        </g>
        <g>
          <path class="cls-12" d="M194.81,450.67c1-1,1.9-2.07,2.81-3.14.5-.58,1-1.19,1.47-1.76s1-1.11,1.58-1.66a14.55,14.55,0,0,0,1.44-1.7c.41-.58.77-1.21,1.13-1.82a16,16,0,0,1,2.46-3.27c1-.94,2-1.77,3-2.68a16.77,16.77,0,0,0,2.71-3.17c.81-1.22,1.54-2.49,2.38-3.69A27.52,27.52,0,0,0,216.3,424c.19-.4.35-.82.5-1.24s.13-.58.19-.87a54.21,54.21,0,0,1,1.78-6.12c.62-1.74,2-3,2.81-4.61.09-.19.39-.06.33.14a16.83,16.83,0,0,1-1.45,3l-.8,1.91c-.23.73-.42,1.47-.64,2.2-.28.95-.55,1.9-.77,2.86-.43,1.85-.74,3.73-1.24,5.57a22,22,0,0,1-2.12,5,27.69,27.69,0,0,1-6.47,8,45.43,45.43,0,0,0-4.32,3.49c-.63.66-1.21,1.36-1.79,2.07s-1.24,1.39-1.83,2.11-1.34,1.72-2,2.61c-.52.72-1,1.48-1.55,2.17-.89,1.12-2.37,2.5-3.93,1.93a.53.53,0,0,1-.36-.64A7.28,7.28,0,0,1,194.81,450.67Z" transform="translate(-79.63 -365.68)"/>
          <path class="cls-12" d="M156,416.48c.86,1.25,1.83,2.43,2.75,3.62,1.33,1.72,2.71,3.38,4.14,5s3,3.26,4.54,4.87,2.85,3.09,4.38,4.52h0a27,27,0,0,1,2.47,6.8,74.56,74.56,0,0,0,2.09,8.23c.7,1.91,2.12,4.9,4.67,4.11a.54.54,0,0,0,.38-.51,8,8,0,0,0-1.64-3.9,27.43,27.43,0,0,1-2-3.74,37.29,37.29,0,0,1-1.62-4.85,18.77,18.77,0,0,0-1.81-4.57,17.52,17.52,0,0,0-1.24-1.81.67.67,0,0,0-.15-.29l-.13-.14h0c.34.13.73-.28.41-.57A34,34,0,0,1,169,428.7c-2.24-2.85-4.26-5.84-6.77-8.48-1.45-1.53-3-3-4.34-4.65a42.42,42.42,0,0,0-2.69-3.69c1.64.82,3.31,1.59,5,2.36s3.45,1.59,5.11,2.52c1.51.85,2.91,1.85,4.33,2.84a33.12,33.12,0,0,1,6.46,5.23v0a44.53,44.53,0,0,0,1.06,9.28,63.43,63.43,0,0,0,2.83,9c.57,1.45,1.18,2.89,1.8,4.33l.48,1.07c.07.17.14.33.22.5l.14.32c.12.29.22.58.32.88a14.84,14.84,0,0,0,1.06,2.46c.36.62.92,1.33,1.71,1.32a1.46,1.46,0,0,0,1.23-2,6.18,6.18,0,0,0-.64-1.41c-.27-.49-.51-1-.75-1.49l-1.08-2.3c-.62-1.65-1.31-3.28-1.94-4.93-.51-1.35-1.05-2.69-1.55-4a43.34,43.34,0,0,1-1.3-6.37c-.76-6-.19-12.07-.25-18.1a13.29,13.29,0,0,0,.18-1.56,21.62,21.62,0,0,0,0-4.48c.82,1.12,1.71,2.2,2.55,3.31a63.91,63.91,0,0,1,4.37,6.44,22.67,22.67,0,0,1,2.72,7.3c.5,2.54.71,5.12,1.06,7.69.06.46.13.92.2,1.38-.2,2.9-.71,5.77-1,8.66-.12,1.22-.19,2.43-.3,3.64a22.71,22.71,0,0,0-.15,3.4,5.71,5.71,0,0,0,.64,2.63,3.65,3.65,0,0,0,.22,1.29.48.48,0,0,0,.79.2,2.64,2.64,0,0,0,.69-.83l.13-.12a3.69,3.69,0,0,0,.76-1.86,15.23,15.23,0,0,0,.23-1.65c.21-.86.51-1.67.77-2.51.35-1.14.62-2.3.91-3.46.5-2,1.2-3.87,1.86-5.78s1.29-3.67,2-5.46a36.08,36.08,0,0,1,5.92-9.84c4.76-5.46,10.65-10.59,18-11.89.27-.05.19-.44-.06-.45h-.18a.62.62,0,0,0-.54-.78,18.13,18.13,0,0,0-5.39.48,14.72,14.72,0,0,0-5.12,2.14,29.17,29.17,0,0,0-4.58,3.86,27.23,27.23,0,0,0-3.72,4.57c-.18.29-.36.59-.52.89a.28.28,0,0,0-.28,0c-1.84.8-2.84,2.9-3.73,4.58a45.1,45.1,0,0,0-2.93,6c-.64,1.8-1.21,3.63-1.73,5.47,0-1.3,0-2.6-.07-3.9,0-1.78,0-3.56-.21-5.33a27.68,27.68,0,0,0-2.84-9.47,40.9,40.9,0,0,0-2.38-4,22.51,22.51,0,0,0-2.86-3.73c-1.17-1.19-2.53-2.2-3.74-3.36a19.45,19.45,0,0,1-3.35-3.84c-.18-.29-.67-.1-.56.23a12.35,12.35,0,0,0,.55,1.3.5.5,0,0,0-.21.39c.06,2.77.11,5.54,0,8.31a.32.32,0,0,0-.23.3c0,.71-.13,1.42-.23,2.12-.23,1.49-.48,3-.63,4.47,0,.45-.09.9-.14,1.34a14.53,14.53,0,0,0-1.93-2.14,28.17,28.17,0,0,0-8-4.93c-1.9-.81-3.83-1.54-5.79-2.21s-3.86-.67-5.69-1.37c-.45-.17-.76.51-.41.78a.45.45,0,0,0-.31.4C154.07,413.55,155.08,415.19,156,416.48Zm35.28,29.22-.06-7.25c.05.58.1,1.15.14,1.72.1,1.42.15,2.84.16,4.26Z" transform="translate(-79.63 -365.68)"/>
        </g>
        <g>
          <path class="cls-13" d="M213.39,451.79c.08,0,.13,0,0,0Z" transform="translate(-79.63 -365.68)"/>
          <path class="cls-13" d="M202.52,451.58a2.38,2.38,0,0,0,1.11-.81,9.63,9.63,0,0,0,.59-1.26,1.72,1.72,0,0,1,2.05-1.14,2,2,0,0,1,1,.54,1.59,1.59,0,0,1,1.31.06,1.45,1.45,0,0,1,.44.33,3.14,3.14,0,0,1,1.77-.1,1.59,1.59,0,0,1,1.85-.38,1.88,1.88,0,0,1,.92,1.39,1.37,1.37,0,0,1,1.1.44.33.33,0,0,1-.32.55l0,0a.81.81,0,0,1-1,.55l.07,0,.06,0h0l-.21,0-.48.06c-.4.07-.81.13-1.2.21-.62.13-1.21.35-1.81.52a12.86,12.86,0,0,1-2.21.42c-1.28.16-2.55.36-3.83.53a12.24,12.24,0,0,1-1.81.13,9.41,9.41,0,0,1-1.76-.22.56.56,0,0,1-.24-.93C200.5,451.81,201.65,452,202.52,451.58Z" transform="translate(-79.63 -365.68)"/>
          <path class="cls-13" d="M165.22,449.52a3.89,3.89,0,0,0,1.36-.08,6.64,6.64,0,0,1,1.26,0,6.5,6.5,0,0,1,1.7.28,1.51,1.51,0,0,1,.89-.84,2.65,2.65,0,0,1,1.22,0,2.48,2.48,0,0,1,3.54-.68,1.17,1.17,0,0,1,.86-.21c.89.16.93,1,1,1.69a3.29,3.29,0,0,0,1.65,2.4.23.23,0,0,1,.11.38.93.93,0,0,1-1.21.1.6.6,0,0,1-.55.37,8.69,8.69,0,0,1-1.76-.18c-.6-.07-1.21-.1-1.81-.18-1.26-.16-2.53-.33-3.78-.55-.92-.17-1.85-.36-2.75-.58a5.15,5.15,0,0,1-2.26-1C164.35,450,164.77,449.41,165.22,449.52Z" transform="translate(-79.63 -365.68)"/>
        </g>
      </g>
      <g>
        <path d="M153.25,410.69a23.26,23.26,0,0,0,2.73,5.74,46.63,46.63,0,0,0,3.13,4.73,49.39,49.39,0,0,0,4,4.46c1.27,1.28,2.54,2.57,3.89,3.77a22.68,22.68,0,0,0,2.35,1.87.28.28,0,0,0,.05.27,21.47,21.47,0,0,1,3.82,6.15c.69,2,.64,4.19,1.19,6.23a34.64,34.64,0,0,0,1.2,3.74c.77,2,1.95,4.4,3.92,5.46a.72.72,0,0,0-.25.34c-.09.29.26.43.45.28a.24.24,0,0,0,.06.09c.5.42,1.39.25,2,.19a12.74,12.74,0,0,1,2.14-.11,3.77,3.77,0,0,0,1.83-.08.84.84,0,0,0,.42-.36l.91.08c.8.19,1.79.08,2.51.31a.21.21,0,0,0,.27-.15h0c1.07,0,2.14,0,3.21.05s2.06,0,3.09,0c.79,0,1.58.13,2.37.17a14.91,14.91,0,0,0,2.5,0,2.53,2.53,0,0,0,1.58-.61.24.24,0,0,0-.17-.4c-2.69-.26-5.59.69-8.2-.16l.23-.1a9.43,9.43,0,0,1,1.63.09,24.63,24.63,0,0,0,2.71.16c1.67,0,3.74-.17,5.11-1.24a2,2,0,0,0,.73-1.07c.12-.44.09-.91.2-1.35.27-1.07,1.46-1.53,2.27-2.12a4.49,4.49,0,0,0,1.63-2,5.4,5.4,0,0,0,.28-2.29,14.7,14.7,0,0,1,0-4.54,31.47,31.47,0,0,0,6.72-8.72c1.73-3.64,2.2-7.68,3.39-11.5a20.92,20.92,0,0,1,3.79-7.66q.36-.27.75-.51a.2.2,0,0,0,.06-.32c.18-.17.37-.33.56-.48a.28.28,0,0,0-.27-.46,7.76,7.76,0,0,1-3.68.08,8.82,8.82,0,0,0-3.5.29,22.4,22.4,0,0,0-6.2,2.86,48,48,0,0,0-4.75,3.78c-.84.74-1.68,1.48-2.5,2.24.32-2.21-.51-4.44-.44-6.66a.25.25,0,0,0-.5,0c0,.69-.7,1.29-1.16,1.72a15.42,15.42,0,0,0-1.44,1.59c-1,1.33-1.86,2.79-2.77,4.19a14.42,14.42,0,0,0-2.11,4.53,20.42,20.42,0,0,0-.44,5.06c0,1.38.07,2.77.08,4.16l-.12.32c0-.09-.06-.19-.09-.26a7.9,7.9,0,0,1-.28-1.35c-.12-.92-.17-1.84-.24-2.76a28.17,28.17,0,0,0-.44-3c-.25-1.41-.55-2.81-.91-4.19a34.57,34.57,0,0,0-3-7.87,58.88,58.88,0,0,0-4.78-7c-1.55-2.08-3.49-3.95-4.57-6.34-.12-.27-.52-.07-.45.19,0,0,0,.06,0,.09a.19.19,0,0,0-.24.15,32.1,32.1,0,0,0,.27,5.36c-.22-.28-.45-.57-.66-.87a10.11,10.11,0,0,1-1.21-2.33,6.15,6.15,0,0,0-1.1-2c-.19-.21-.54.06-.39.29,1.91,2.9,1.48,6.76,1.46,10.06,0,1.85-.07,3.68-.26,5.52s-.43,3.79-.5,5.7v.08a12.73,12.73,0,0,0-3.51-3.39,47.08,47.08,0,0,0-4.73-3.18,39.7,39.7,0,0,0-5-2.33,39.63,39.63,0,0,0-9-2.86l-.42-.13a.21.21,0,0,0-.2.06l-.73-.07A.27.27,0,0,0,153.25,410.69ZM171.46,432a9.23,9.23,0,0,0-3.08-3.82c-1.22-1-2.47-2-3.61-3.13a41.5,41.5,0,0,1-4-4.41c-1.3-1.7-2.42-3.55-3.56-5.36-.51-.8-1-1.59-1.54-2.37a6.89,6.89,0,0,1-1-1.91l.85.15c1.66.64,3.23,1.47,4.82,2.26s3.49,1.59,5.15,2.55,3.31,2,4.91,3.15a19.73,19.73,0,0,1,4,3.36c.47.56.88,1.15,1.33,1.72a3.82,3.82,0,0,0,1.22,1.18h0a27.46,27.46,0,0,0,2.49,12.51c-.22-.26-.44-.51-.67-.75a19.89,19.89,0,0,0-4.57-3.65c-.75-.43-1.54-.78-2.32-1.14l-.5-.23A.17.17,0,0,0,171.46,432Zm9.34,20.05a14.27,14.27,0,0,0-1-1.61c-.33-.47-.68-.94-1-1.42a8.37,8.37,0,0,1-.83-1.83c-.6-1.69-1-3.44-1.52-5.15a36.31,36.31,0,0,0-1.59-4.86,21.73,21.73,0,0,0-2.43-3.66,9.2,9.2,0,0,1,3.42,2.19,23,23,0,0,1,4.59,7.3c.79,1.8,1.61,3.59,2.5,5.35a14.73,14.73,0,0,0,1.35,2.3c.45.6.94,1.16,1.43,1.73a1.29,1.29,0,0,1,0,.19.28.28,0,0,0,.12.18.53.53,0,0,1,0,.13,39.08,39.08,0,0,0-4.05-.19l-.71,0A3.27,3.27,0,0,0,180.8,452.07Zm12.59-15.92a29.26,29.26,0,0,0-1,5.51c-.08,1-.13,2.11-.24,3.17a26,26,0,0,1-.78,2.88c-.29.87-.68,1.74-1,2.64.41-2.54.8-5.08,1.08-7.64.73-6.63.91-13.52-1.05-20a26.86,26.86,0,0,0-2.47-5.71,21.79,21.79,0,0,1,1.69,3,59.08,59.08,0,0,1,3.17,10.09A21.41,21.41,0,0,1,193.39,436.15ZM186.79,453a1,1,0,0,1-.43-.4.64.64,0,0,0,0-.07v-.19a3,3,0,0,0-.25-2A12,12,0,0,0,185,447.7c-.16-.44-.32-.87-.49-1.3a32.07,32.07,0,0,0-2-4.22c-.64-1.53-1.15-3.09-1.64-4.67a39.55,39.55,0,0,1-2.11-10.42,74.73,74.73,0,0,1,.87-10.34,39.71,39.71,0,0,0,0-9.56,32.05,32.05,0,0,1,2.94,3.64c1.15,1.48,2.48,2.79,3.58,4.3,4,5.45,5.27,12.19,5.37,18.81.1,6.46-1,12.87-2,19.22C188.58,453.11,187.69,453.05,186.79,453Zm-6.4-13.05c.15.34.3.68.44,1,.33.81.57,1.66.91,2.48a35.91,35.91,0,0,0,2.53,4.26l.27.5c.38,1.12.7,2.26,1,3.39a16,16,0,0,1-1.3-1.68,24.23,24.23,0,0,1-1.52-2.9c-1.43-3-2.52-6.12-4.32-8.9a16.53,16.53,0,0,0-1.61-2.13A21.62,21.62,0,0,1,180.39,439.93Zm2.81,4.87h0a11.52,11.52,0,0,1-1.08-2.13C182.52,443.37,182.87,444.08,183.2,444.8Zm-6.14-21.88c0,.63,0,1.27,0,1.91a6.65,6.65,0,0,1-1.28-1.48,14.61,14.61,0,0,0-1.46-1.77,30,30,0,0,0-4.38-3.39c-1.62-1.08-3.25-2.15-5-3.07s-3.52-1.67-5.26-2.53l-1.35-.67.9.3c1.66.56,3.29,1.22,4.92,1.88a37.77,37.77,0,0,1,4.92,2.38c1.56.92,3,2,4.5,3A11.73,11.73,0,0,1,177.06,422.92Zm2.73-16.29v.05l-.32-.28a.25.25,0,0,0-.41.24,41.43,41.43,0,0,1-.06,11.45,51.23,51.23,0,0,0-.63,10.12,45.32,45.32,0,0,0,2.24,10c.23.72.48,1.43.74,2.13-.12-.18-.25-.36-.38-.53-.4-.94-.82-1.86-1.2-2.81a30.5,30.5,0,0,1-1.69-5.35,33.06,33.06,0,0,1-.59-5.61,46.15,46.15,0,0,1,0-5.64c.16-1.95.45-3.9.61-5.85.14-1.69.11-3.38.16-5.07a29.36,29.36,0,0,0-.17-5.12,13.32,13.32,0,0,0,1,1.5Zm0-5.93a11.3,11.3,0,0,1,.15,2.39A15.9,15.9,0,0,1,179.81,400.7Zm14.48,32.64c-.13.36-.25.72-.37,1.09a1.77,1.77,0,0,1,0-.23,27.07,27.07,0,0,0-.95-5.5,45.84,45.84,0,0,0-3.46-10.08c-1.77-3.36-4.51-6.11-6.87-9.06-.62-.78-1.21-1.59-1.8-2.39-.17-.23-.34-.45-.52-.67,0-1.67.26-3.32.12-5a22.6,22.6,0,0,0,1.76,2.39c1,1.19,1.95,2.39,2.87,3.63a46.13,46.13,0,0,1,4.73,7.26,37.07,37.07,0,0,1,2.81,8.34,46.53,46.53,0,0,1,1,6.54,20.27,20.27,0,0,0,.32,2.57A3.59,3.59,0,0,0,194.29,433.34Zm8.59-15s0,0,0,.05c-.43.41-.84.83-1.24,1.27a30.64,30.64,0,0,0-5.75,9.47c-.26.65-.52,1.3-.77,2,0-1.15-.06-2.3-.05-3.45a17,17,0,0,1,.71-5.21,20.25,20.25,0,0,1,2.45-4.47,24,24,0,0,1,2.78-4,16.16,16.16,0,0,0,1.47-1.5C202.65,414.42,203.25,416.38,202.88,418.33Zm20.19-8.89-.19.19a30.35,30.35,0,0,0-6.49,2.16c-1.18.56-2.29,1.24-3.41,1.91s-2.19,1.32-3.25,2a24.9,24.9,0,0,0-5.07,4.43,34.6,34.6,0,0,0-3.86,5.65c-1.16,2.12-2.13,4.36-3.12,6.57s-1.92,4.37-2.74,6.61a35.52,35.52,0,0,0-1.47,4.84c-.24,1.17-.48,2.35-.75,3.52a26.68,26.68,0,0,1-1.12,3.83,5.26,5.26,0,0,1-.64,1.29l-.4.08a5.94,5.94,0,0,1,.13-1.33c.38-1.27,1.13-2.5,1.5-3.73a15.32,15.32,0,0,0,.52-3c.33-1.49.61-3,.85-4.49a29.55,29.55,0,0,0,.37-3.76c.2-.72.43-1.43.67-2.14,0-.12.08-.24.13-.37a.2.2,0,0,0,.28-.19c0-.27.05-.55.07-.82q.82-2.33,1.8-4.59a28.78,28.78,0,0,1,6.07-9.07c1.35-1.36,2.83-2.61,4.29-3.86a33.08,33.08,0,0,1,4.88-3.61,20.89,20.89,0,0,1,2.66-1.26,16.81,16.81,0,0,1,3.18-1C219.66,409,221.39,409.63,223.07,409.44Zm-5.22,8.81c-.67,1.92-1.34,3.85-2.15,5.72a38.15,38.15,0,0,1-2.77,5.25,57.21,57.21,0,0,1-3.46,4.87c-1.2,1.54-2.43,3.06-3.77,4.47-2.64,2.79-5.49,5.35-7.92,8.34-1.67,2.06-3.51,4.42-6.06,5.34.09-.18.18-.36.24-.51a22.21,22.21,0,0,0,1.25-4.24c.26-1.18.48-2.36.72-3.54a34.87,34.87,0,0,1,1.49-5c.85-2.36,1.85-4.66,2.88-6.95s1.92-4.32,3.1-6.38a32,32,0,0,1,4.19-5.81,26.64,26.64,0,0,1,5.36-4.33A53,53,0,0,1,217,412a30.19,30.19,0,0,1,5.32-1.77l-.12.16C219.93,412.36,218.82,415.48,217.85,418.25Zm-22.36,33.82a19.43,19.43,0,0,0,4.79-5.15,26.64,26.64,0,0,1,3.8-4.21c1.45-1.3,3-2.52,4.36-3.86l.05,0a20.72,20.72,0,0,0,0,4.24,4.45,4.45,0,0,1-.45,2.24,6,6,0,0,1-2.27,1.94,3.15,3.15,0,0,0-1.63,2.06,4,4,0,0,1-.29,1.47,2.09,2.09,0,0,1-1,.75,8.25,8.25,0,0,1-2.64.65,14.9,14.9,0,0,1-2.5.11C197,452.23,196.25,452.12,195.49,452.07Zm3.23,1.42c1-.07,1.93-.16,2.88-.14a5.76,5.76,0,0,1-1.51.16C199.64,453.53,199.18,453.51,198.72,453.49Zm-7.76-.28a2.15,2.15,0,0,0,.32-.29c3.15-.85,5.25-3.73,7.24-6.17,2.45-3,5.39-5.58,8-8.44,1.33-1.46,2.55-3,3.74-4.58s2.32-3.17,3.35-4.84a55.87,55.87,0,0,0,4.84-11,30.9,30.9,0,0,1,1.42-3.55,33.17,33.17,0,0,0-1.55,4.28c-1.1,3.79-1.62,7.81-3.5,11.33a31.61,31.61,0,0,1-5.8,7.4.13.13,0,0,0-.1.08l0,0c-.52.5-1,1-1.56,1.47-1.41,1.3-2.92,2.49-4.32,3.8a26.25,26.25,0,0,0-3.51,4.08c-1.33,1.89-2.9,4.06-5,5.19a2.54,2.54,0,0,0-1.41.39.32.32,0,0,0-.14.2,6.45,6.45,0,0,1-.66.12c-.28,0-.29.49,0,.46a6.58,6.58,0,0,0,1-.18c.21.08.41.15.62.21Zm-1.05,0v0a.08.08,0,0,1,0,0Zm-9.71.25a5.69,5.69,0,0,0,.59.16.27.27,0,0,0,.34-.19.34.34,0,0,0,0-.1c.67,0,1.34,0,2,0s1.57.07,2.36.13a.86.86,0,0,1-.39.1,12.09,12.09,0,0,1-1.59-.07,11.31,11.31,0,0,0-1.74.12c-.32,0-.64.06-1,.06a1.27,1.27,0,0,1-.75-.12l-.06,0,0,0Zm-9.4-21,.76.37a.24.24,0,0,0-.1.36,25.78,25.78,0,0,1,3.11,4.78c.62,1.56,1,3.23,1.49,4.84s.88,3.37,1.51,5a12.53,12.53,0,0,0,1.68,2.9c.33.46.65.93.94,1.42a5.36,5.36,0,0,1,.35.68l-.28,0a6,6,0,0,1-2.72-2.46,17.91,17.91,0,0,1-1.82-3.95,25.31,25.31,0,0,1-1.13-4.18,21.74,21.74,0,0,0-1.4-6A23,23,0,0,0,170.8,432.45Zm-16.91-21.53.35,0a6.78,6.78,0,0,0,1,2.07c.61.91,1.21,1.83,1.79,2.77a61.22,61.22,0,0,0,3.5,5.24,40.21,40.21,0,0,0,3.92,4.33c1.16,1.14,2.46,2.09,3.7,3.14a8.79,8.79,0,0,1,2.69,3.09,24.13,24.13,0,0,1-4.16-3.18,61.1,61.1,0,0,1-7.6-8.15,49.59,49.59,0,0,1-3-4.68A21.24,21.24,0,0,1,153.89,410.92Z" transform="translate(-79.63 -365.68)"/>
        <path d="M161.6,449.67a1.78,1.78,0,0,0,.32.57c0,.05,0,.11,0,.16a15.19,15.19,0,0,0,.57,2.66c.54,2.26,1.25,4.48,1.93,6.7s1.41,4.51,2,6.79,1.09,4.55,1.52,6.85.79,4.61,1.38,6.88,1.32,4.47,2.06,6.67c.28.85.5,1.71.73,2.57a7.87,7.87,0,0,0,.94,2.35c1,1.4,2.74,2.09,4.26,2.64a26.52,26.52,0,0,0,5.72,1.51c2.15.27,4.33.22,6.5.29a20.9,20.9,0,0,0,6.06-.44,36.94,36.94,0,0,0,4-1.26l.42-.17a2.09,2.09,0,0,0,.87-.36c2.23-1,4.51-2.32,5.31-4.66,1.41-4.11,1.39-8.56,3-12.61a115,115,0,0,0,4.15-13.05c.57-2.18,1.13-4.36,1.73-6.53.3-1.11.62-2.22.94-3.32.19-.65.34-1.34.57-2a4,4,0,0,0,1.21-1.19c.61-1,0-2-.92-2.56a12.64,12.64,0,0,0-3.61-1.37,20.43,20.43,0,0,0-5.55-.77.3.3,0,0,0,0,.59,16.55,16.55,0,0,1,2.61.29,29,29,0,0,1,4.38,1.13,10.72,10.72,0,0,1,1.59.71c.38.21.89.51,1,1a1,1,0,0,1-.18.69l-.12-.08a.36.36,0,0,0-.48.13,5.43,5.43,0,0,0-.41.84c-.27.17-.52.3-.71.41a19.15,19.15,0,0,1-3.53,1.56,29.82,29.82,0,0,1-9.27.93h-1c2.86-.35,5.7-.89,8.56-1.23a13.29,13.29,0,0,0,4.09-1.11h.06l.11-.07.39-.2a2.86,2.86,0,0,0,1.44-1.3,1.25,1.25,0,0,0-.67-1.46,7.05,7.05,0,0,0-1.59-.7c-.72-.27-1.45-.5-2.2-.7a19.32,19.32,0,0,0-4.48-.59c-.31,0-.34.42-.07.52a19.44,19.44,0,0,0,3.41.47,12.25,12.25,0,0,1,2.2.63,6.47,6.47,0,0,1,1.94,1,1.31,1.31,0,0,1,.5.7c0,.05.05.23.06.34l-.09.07a6.57,6.57,0,0,1-.77-.33,1.32,1.32,0,0,0-1-.14l-.09.05-.22,0c-.17-.81-1.18-1.62-1.93-1.05a1,1,0,0,0-.39.86,1,1,0,0,0-.9-.35,1.07,1.07,0,0,0-.37.11l-.18,0a.84.84,0,0,0-.1-.22,1.48,1.48,0,0,0-1.37-.72,1.28,1.28,0,0,0-.69.33,2.47,2.47,0,0,0-.79-.19.46.46,0,0,0,0-.28c-.08-.14-.26-.23-.37-.36a.25.25,0,0,0-.36,0,2.12,2.12,0,0,1-.8.31c-.32.1-.18.6.14.5a3.89,3.89,0,0,0,.81-.31l.09.1h0c0,.08,0,.15-.05.22s.07.35.24.33a2,2,0,0,1,.84.11.58.58,0,0,0,0,.19c-.06.59.44.94,1,1a.25.25,0,0,0,.3-.17,1.15,1.15,0,0,0-.54-1.26l.16-.08a.9.9,0,0,1,.87.2,1,1,0,0,1,.29.33,1,1,0,0,0-.34.24.19.19,0,0,0,.13.32.88.88,0,0,0,.29,0,1.41,1.41,0,0,0-.13.58.24.24,0,0,0,.16.21c.6.16,1.27-.12,1-.84l-.09-.18c.33-.06.68.13.77.64,0,.21.38.16.38-.05a.34.34,0,0,1,0-.15,1.4,1.4,0,0,0,1.16.19.2.2,0,0,0,.09-.33,1.24,1.24,0,0,0-1.1-.38.51.51,0,0,1,.41-.58,1,1,0,0,1,1,1.09.24.24,0,0,0,.35.21,1.24,1.24,0,0,0,.31.86l-.78.28a10.52,10.52,0,0,1-1.9.46c-1.44.19-2.87.38-4.31.6a62.43,62.43,0,0,1-9.15,1,90.53,90.53,0,0,1-9.31-.59c-3.08-.3-6.15-.67-9.23-.94-2.9-.26-5.82-.34-8.69-.81a28.19,28.19,0,0,1-2.9-.62.24.24,0,0,0,.24-.18,1.07,1.07,0,0,1,.77-.83,1.53,1.53,0,0,1,.31,0,1.92,1.92,0,0,0,.41.82.27.27,0,0,0,.41.05.79.79,0,0,0,.12-1.14,1.41,1.41,0,0,1,1.17.73c.09.16.4.16.43-.06a.69.69,0,0,1,.61-.66,1.67,1.67,0,0,0,.14,1.57c.46.53,1.47.2,1.75-.38a1,1,0,0,0-.4-1.18l.11-.09a.26.26,0,0,0,0-.29,1.4,1.4,0,0,0-.38-.42c.15-.31.42-.46.74,0a.25.25,0,0,0,.42,0,.55.55,0,0,1,.68-.26l-.12.14a.65.65,0,0,0,.71,1c.57-.15.44-.73.18-1.12a1.69,1.69,0,0,1,1.12.47c.12.1.29-.06.17-.17a1.86,1.86,0,0,0-1.58-.62,1,1,0,0,0-1.38,0,.76.76,0,0,0-1.05-.13,1.23,1.23,0,0,0-.39.54.89.89,0,0,0-.54.43,1.16,1.16,0,0,0-1.15.57,1.5,1.5,0,0,0-1.9-.43l-.06.05a1.79,1.79,0,0,0-1.75,1,3.14,3.14,0,0,0-1.38-.29.9.9,0,0,0-1.7-.4l-.38-.26a1,1,0,0,1-.19-.32.85.85,0,0,1,.06-.84l.55-.21c1.4-.53,2.89-.8,4.34-1.19,2.33-.07,4.77.25,7-.45a.29.29,0,0,0,.13-.49,2.57,2.57,0,0,0-1.24-.54,10,10,0,0,0-3.64.28c-.84.18-1.66.42-2.49.63a16.42,16.42,0,0,0-2.41.25,4.32,4.32,0,0,0-2.63,1.19h0a4.63,4.63,0,0,0-.51.31A1.44,1.44,0,0,0,161.6,449.67Zm13.27-.88s0,0,0,0,.27.37.17.47-.33,0-.36-.09S174.8,448.85,174.87,448.79Zm-2.89,1a1.09,1.09,0,0,0,.05-.17l.15.06a.25.25,0,0,0,.21.1l.09.06c.17.12.49.36.46.61s-.48.43-.7.41C171.79,450.85,171.91,450.1,172,449.82Zm-3,.26a1,1,0,0,1-.09-.17.11.11,0,0,1,.07.06A.14.14,0,0,1,168.94,450.08Zm38.37-.36a.7.7,0,0,1,.35.48.45.45,0,0,1-.36-.43S207.31,449.74,207.31,449.72Zm2,1a.76.76,0,0,1,.26-.47l.06.11C209.76,450.66,209.54,450.73,209.29,450.69Zm4.5.65a.68.68,0,0,1-.29-.7,1.3,1.3,0,0,1,.47.24.49.49,0,0,1,.16.31Zm.88-.44,0,0-.06,0a.35.35,0,0,0-.06-.14Zm-44.28-4.69c.49-.11,1-.21,1.49-.28a5.46,5.46,0,0,1,2.41,0,9.79,9.79,0,0,1-1.21.17C172.18,446.21,171.28,446.22,170.39,446.21Zm-7.88,2.44a1.39,1.39,0,0,0,.07.49.47.47,0,0,0-.17,0,.61.61,0,0,0-.24.17.49.49,0,0,1,0-.29A1,1,0,0,1,162.51,448.65Zm2.39,1.52a.21.21,0,0,0,0,.06,4.59,4.59,0,0,1-.69-.29C164.15,449.32,165.35,449.62,164.9,450.17Zm1.91.69c-.36-.1-.72-.21-1.07-.33A3,3,0,0,1,166.81,450.86Zm23.62,3.33h.1c-2.69,0-5.39,0-8.08-.24-3.54-.31-7-1.1-10.53-1.49-2.75-.3-5.77-.36-8.25-1.72a5.09,5.09,0,0,1-1.22-.87c0-.13.08-.24.25-.25h.12a2.13,2.13,0,0,0,.35.39,8.9,8.9,0,0,0,3.17,1.38,28.71,28.71,0,0,0,4.57.93c3.14.42,6.32.52,9.48.85C183.74,453.53,187.08,453.92,190.43,454.19Zm12,38.21-.14.08a20.85,20.85,0,0,0,1.75-4.87,10.41,10.41,0,0,0,.31-2.78c0-.58,0-1.17,0-1.76a2,2,0,0,1,.18-1.06,8.15,8.15,0,0,0,2.82-1.46c-.25,1.18-.44,2.37-.65,3.56s-.38,2.12-.64,3.17a11.71,11.71,0,0,1-.84,2.59A7.07,7.07,0,0,1,202.42,492.4Zm-10.12-1.18c0-1.23-.25-2.43-.28-3.66a15.14,15.14,0,0,0-.19-2.93,2.47,2.47,0,0,0-.35-.84c1.41-.05,2.81-.15,4.21-.29l.21,0c-.05,1.54,0,3.08-.09,4.62-.06,1.2-.21,2.4-.38,3.59a6.22,6.22,0,0,1-1,3c-.67.83-1.73.69-2.69.63a7.61,7.61,0,0,1,.25-2A12.26,12.26,0,0,0,192.3,491.22Zm8.3-8.06a1.17,1.17,0,0,0-.13-.25c.77-.13,1.53-.27,2.29-.43l1.09-.26a3.87,3.87,0,0,0-.06.46,17.83,17.83,0,0,0,0,1.79,10,10,0,0,1-.25,2.83c-.24.86-.47,1.71-.76,2.56a11.31,11.31,0,0,1-1.28,2.81,2.55,2.55,0,0,1-.29.38c-.43.21-.87.4-1.31.58.25-1.54.57-3.07.69-4.63.08-1.07,0-2.12.11-3.19A6.94,6.94,0,0,0,200.6,483.16Zm-5.77,12.06a5.58,5.58,0,0,0,1.13-2.89c.2-1.22.35-2.49.44-3.73.13-1.68.06-3.36.1-5,.81-.05,1.62-.32,2.42-.41.24,0,.74-.14,1,0s.2.54.22.75a17,17,0,0,1-.12,2.57c-.09,1.1,0,2.2-.13,3.3-.16,1.38-.44,2.74-.66,4.12l-.92.33A32.31,32.31,0,0,1,194.83,495.22Zm-6.63.21-.72,0a17.51,17.51,0,0,0,.42-5.64c0-2,.4-4-.11-5.9l.28-.05c.88,0,1.76,0,2.63,0,.61.36.65,1.28.7,1.94,0,.85,0,1.71.09,2.55a17,17,0,0,1,.17,3.9,15.08,15.08,0,0,0-.45,3.33C190.2,495.52,189.2,495.46,188.2,495.43ZM183.46,484a2.21,2.21,0,0,0-.15-.5q1.94.2,3.87.27c.58,1.9.12,4,.13,6a17.44,17.44,0,0,1-.45,5.63,10.63,10.63,0,0,0-3.13-.15l-.25,0a12.59,12.59,0,0,1,0-4.33c.1-1.22.15-2.43.16-3.66A15,15,0,0,0,183.46,484ZM182,495a21.92,21.92,0,0,1-2.81-.73,7.77,7.77,0,0,0,0-2.31c-.12-1.06-.33-2.11-.47-3.16a26.38,26.38,0,0,1-.18-3.08,8.92,8.92,0,0,1,.27-2.91c1.26.26,2.53.47,3.82.63a.63.63,0,0,1,.18.21,3.54,3.54,0,0,1,.25,1.4c.05,1,0,2,0,2.94,0,1.32-.17,2.64-.26,4a11.07,11.07,0,0,0,.1,3.2C182.55,495.11,182.25,495.07,182,495ZM174,481.56a40.67,40.67,0,0,0,4.16,1.14,9.32,9.32,0,0,0-.31,2.83,25.67,25.67,0,0,0,.13,3c.13,1.07.34,2.14.48,3.21a8.12,8.12,0,0,1,.06,2.31c-.54-.19-1.08-.4-1.61-.61a2.56,2.56,0,0,1-1-1,9,9,0,0,1-.63-2.28c-.19-.86-.38-1.73-.55-2.61s-.33-1.75-.52-2.62a7.1,7.1,0,0,1-.26-2.19A6.2,6.2,0,0,0,174,481.56Zm-3.75-1.21a2.17,2.17,0,0,0,.68.28,6.85,6.85,0,0,0,.91.1c.5.21,1,.41,1.52.6a1.73,1.73,0,0,1,.06.68,9.74,9.74,0,0,0-.05,1.79c.12.9.36,1.77.53,2.65s.32,1.8.52,2.69.37,1.83.6,2.72a4.29,4.29,0,0,0,.36.92,6.32,6.32,0,0,1-.92-.6,4,4,0,0,1-1.25-1.92c-.27-.8-.43-1.63-.65-2.44-.28-1-.65-2-1-3C171.15,483.37,170.69,481.87,170.29,480.35Zm-7.19-27.79c-.18-.55-.45-1.16-.59-1.76a7.92,7.92,0,0,0,1.6.87c2.9,1.24,6.17,1.21,9.24,1.63,2,.26,3.89.61,5.84.91a51,51,0,0,0,5.39.54c3.77.19,7.55.07,11.32,0,3.38,0,6.76.19,10.14.11a23.13,23.13,0,0,0,5-.58,18.52,18.52,0,0,0,4.19-1.61l.49-.26-.21.73c-1.31,4.14-2.3,8.38-3.44,12.56-.57,2.07-1.17,4.14-1.84,6.18-.36,1.07-.73,2.14-1.13,3.2s-.8,1.95-1.11,3c-.17.58-.32,1.17-.46,1.76a7.3,7.3,0,0,1-2.54,1.42,20,20,0,0,1-3.51.87,74.18,74.18,0,0,1-10.93,1l-.25,0a5.37,5.37,0,0,0-1.55.06c-1.15,0-2.3,0-3.44-.11-.92-.05-1.83-.14-2.74-.25a4.68,4.68,0,0,0-.8-.2c-.58-.1-1.18-.13-1.77-.19-.88-.17-1.76-.35-2.63-.57-1.22-.3-2.44-.66-3.63-1.08a1.8,1.8,0,0,0-.81-.47,3.7,3.7,0,0,0-.74-.13c-.75-.31-1.48-.65-2.19-1,0-.2-.1-.39-.14-.59-.5-2.21-.84-4.45-1.27-6.68a115.17,115.17,0,0,0-3.54-13C164.37,456.74,163.8,454.62,163.1,452.56Z" transform="translate(-79.63 -365.68)"/>
      </g>
    </g>
  </g>
</svg>
