<svg id="Capa_1" data-name="Capa 1" xmlns="http://www.w3.org/2000/svg" xmlns:xlink="http://www.w3.org/1999/xlink" viewBox="0 0 1491.73 883.27"><defs><style>.cls-1{fill:none;}.cls-2{clip-path:url(#clip-path);}.cls-3{fill:#a4519a;}.cls-4{fill:#88c7a3;}.cls-5{fill:#e2b8d7;}.cls-6{fill:#1e362e;}</style><clipPath id="clip-path" transform="translate(-62.32 -27.25)"><rect class="cls-1" x="140.15" y="27.25" width="1339.19" height="866.32"/></clipPath></defs><g class="cls-2"><rect class="cls-3" x="77.82" width="1339.19" height="866.32"/><path class="cls-4" d="M1216.22,854.21a18.53,18.53,0,0,0,5.51-5.29,24.58,24.58,0,0,0,2.09-4.28,53.28,53.28,0,0,0,3.91-4.81,23.67,23.67,0,0,0,3.33-7.07,52.26,52.26,0,0,1,4.49-4.32c2.36-2,4.76-3.73,7.87-4.29,2.75-.51,5.59-.24,8.37-.35a19.93,19.93,0,0,0,9.22-2.4,39.15,39.15,0,0,0,6-4.78,11.8,11.8,0,0,1,5.61-2.41c3.34-.62,6.81-.06,10.18-.4a44.09,44.09,0,0,0,8-1.55,23.2,23.2,0,0,0,11-6.77c3.36-3.82,5.17-8.5,7.87-12.76a14,14,0,0,1,3.19-3.79s.4-.27.41-.28l.55-.34c.11-.06.69-.35.72-.38a11.55,11.55,0,0,1,2.3-.64,18.45,18.45,0,0,1,2.79-.13,27.55,27.55,0,0,1,3.51.3c1.59.27,3.19.63,4.79.95,2.75,5.57,5,11.43,7.19,17.22,1,2.57,2,5.13,3,7.7-.31-.36-.61-.73-.94-1.07a22.56,22.56,0,0,0-29.74-2.56c-8.21,6.19-11.68,16.29-18.34,23.71a15.41,15.41,0,0,1-6.18,4.5c-2.55.91-5.24,1.37-7.79,2.29a21.21,21.21,0,0,0-8.06,5c-1.86,1.88-3.4,4-5.24,5.94a13.07,13.07,0,0,1-6.2,3.94,25.8,25.8,0,0,1-7.34.33,25,25,0,0,0-7.23.52,15,15,0,0,0-7.1,4.66c-1.08,1.18-.41,3.49,1.39,3.37,10.52-.71,21.56,0,31.06,5,6.25,3.33,11.45,8.38,18.45,10.22a28.88,28.88,0,0,0,13.11.24c4.35-.89,8.51-3.11,13-3.33,5-.25,9.81,1,14.74,0a20.64,20.64,0,0,0,10.11-5.53,21.39,21.39,0,0,0,5.76-10.43,68.7,68.7,0,0,0,13.91,12.79c.63.45,1.27.88,1.91,1.3a53,53,0,0,1,1.11,5.83,28.27,28.27,0,0,1,.13,6.5,52.55,52.55,0,0,0-.45,6.26c.1,4.14,2.2,8.77,6.5,10a11,11,0,0,0,4.63.12,8.27,8.27,0,0,0,1.92.12,4,4,0,0,0,2.07-.77h.06c.52-.05,1-.08,1.55-.1a3.54,3.54,0,0,0,3.46-3.46c.07-1.59.11-3.18.13-4.77a2.67,2.67,0,0,0,.29-.85,41.44,41.44,0,0,0-.08-9.77c11.63,3.31,23.77,5.4,34.65,10.73,2,1,4.76-1.14,3.32-3.32a19.49,19.49,0,0,1-3.26-13.42c.54-4.73,2.12-9.29,3-14a51.56,51.56,0,0,0,.89-8.54,17,17,0,0,0,7.41,5.33c4.5,1.85,9,1.72,13.72,1.27,5.37-.5,10.74-1.06,16.06-2,4.51-.76,9.46-1.68,13.13-4.59,1.12-.89.73-2.5,0-3.44-1.8-2.3-4.46-3.67-6.92-5.13a29.6,29.6,0,0,1-6.33-5.21c-3.42-3.56-6.7-7.72-11.24-9.92a15.43,15.43,0,0,0-3.35-1.15,22,22,0,0,0,4-1.33c14-6.35,17.12-22.36,22.54-35.15a2.3,2.3,0,0,0-1.35-3.32,21.54,21.54,0,0,0-6.54-.49,19.16,19.16,0,0,0,.09-3.95c0-.1,0-.2,0-.3a13.14,13.14,0,0,1,6.79,2.39c2,1.35,3.75,3,5.76,4.29a16.55,16.55,0,0,0,7.69,2.59,36.63,36.63,0,0,0,5.64-.17,8.81,8.81,0,0,1,.89,0h0a2.52,2.52,0,0,1,.47.13l0,0c.13.07.28.14.4.22.43.26.85.53,1.26.83,3.15,2.35,6,6.46,10.41,5.52,2.43-.52,4.74-2,6.9-3.14,2.61-1.38,5.21-2.78,7.9-4a36.23,36.23,0,0,1,17.67-3.09c6.55.5,12.94,2.43,19.54,2.42a1.36,1.36,0,0,0,.36-2.66,43.76,43.76,0,0,1-13.16-5.65c-4.2-2.59-8.13-5.54-12.55-7.76a65,65,0,0,0-11-4.28c-3.88-1.13-7.89-1.74-11.77-2.85a29.32,29.32,0,0,1-7.3-3.64c-2.78-1.76-5.42-3.73-8.05-5.7-5.32-4-10.66-8.51-16.81-11.16-4.34-1.87-8.94-3.24-13.38-2.13a43.37,43.37,0,0,0-4.36-5.08c-3.11-3.16-6.55-6-9.6-9.19a28.1,28.1,0,0,1-2.22-2.53c-.14-.2-.26-.4-.39-.6l.39,0,1-.07,2.33-.1a41.37,41.37,0,0,0,5.65-.62c4.39-.84,8.08-3.26,11.66-5.82,3.29-2.35,6.84-5.06,11-5.29,4.67-.25,9,1.88,13.54,2.45a16.59,16.59,0,0,0,13.45-4.3c2.83-2.86,4.48-6.65,7.28-9.53a5.86,5.86,0,0,1,4.31-2.11c2.2.09,4.25,1.32,6.4,1.72,5.38,1,9.58-2.09,13.11-5.8,3.29-3.45,6.39-7.14,9.94-10.33a20.75,20.75,0,0,1,2.19-1.72l.47.08a14.66,14.66,0,0,0,10.9-2.87,1.88,1.88,0,0,0-.94-3.46,20.51,20.51,0,0,0-7.19.61,16.79,16.79,0,0,0-3.17,1.35c-4.77-.86-9.52-3.62-14.07-5.2a16.33,16.33,0,0,0-10.9-.45c-3,1-6.22,3.09-9.46,2.19a22,22,0,0,1-4.52-2.2,16.33,16.33,0,0,0-5.3-1.93,18.83,18.83,0,0,0-9.8,1.4c-2.74,1.06-5.45,2.75-8.12,3.06-3.11.36-5.61-1.21-8.07-3-2.7-2-5.55-4.25-9-4.75a23.49,23.49,0,0,0-6.9.18,51.33,51.33,0,0,1-6.43.93c-2.65,0-2.49,3.7,0,4l.62,0a2.13,2.13,0,0,0,1.06.76c6.32,2.09,9.39,7.55,12.87,12.8,1.78,2.68,3.44,5.4,5.9,7.54a19.31,19.31,0,0,0,4.87,3.07c-3.36,1.58-6.84,2.92-10.31,4.3-2.57,1-5.13,2.06-7.62,3.26s-4.64,2.59-7,3.84c-8.37,4.47-18.09,5.47-27.36,6.69a107.43,107.43,0,0,1-30.85-.79c-2.81-.44-5.73-1-8.55-.3a6.92,6.92,0,0,0-5.34,6.91,7.62,7.62,0,0,0,.77,3.57,16.77,16.77,0,0,0-2,.26c.21-3.31.29-6.63.28-10,0-13.31-.68-26.6-1.44-39.88,0-.14,0-.28,0-.42a34.51,34.51,0,0,0,2.41-4.11c1.88-3.88,2.46-7.67.36-11.6a9.55,9.55,0,0,0-4.34-4.2c-.15-2.4-.28-4.8-.37-7.21-.1-2.95,0-5.84-.81-8.69a2.12,2.12,0,0,0-4.06,0c-.91,3.12-.63,6.35-.57,9.58l.09,5.18c-.46,0-.92,0-1.38.07-3.14.32-6.54,1.32-9.75,1.45l0-.41a75.13,75.13,0,0,0-.07-9.49,31.66,31.66,0,0,0-1.45-8.87,3,3,0,0,0-5.8,1.6,78.35,78.35,0,0,1,1.31,8.21c.19,2.62.18,5.24.18,7.86a51.35,51.35,0,0,1-4.67-2.54,23.38,23.38,0,0,0-8.68-3.31c-3-.37-5.85,0-8.8,0-3.22,0-5.85-1.15-8.79-2.33a48.05,48.05,0,0,0-16.2-3.67c-5.88-.24-11.82,1.21-17.52-.69a34.64,34.64,0,0,1-6.24-3.12,43.67,43.67,0,0,0-7.52-3.53c-2-.69-2.85,2.13-1.34,3.18a17,17,0,0,1,5.3,7.08,25.17,25.17,0,0,1,1.75,7.6c.56,6.45-.31,13,.58,19.41a15.64,15.64,0,0,0,3.33,8.11,25.17,25.17,0,0,0,3,2.89c.9.8,1.7,1.73,2.59,2.53a6.13,6.13,0,0,0,1.88,1.06s.8.37,1.19.52c0,.18-.06.37-.06.39a7.27,7.27,0,0,0-.18,1.6c.07,1.72,1.44,3.19,2.45,4.47a16.25,16.25,0,0,0,2.88,2.92c9.13,6.93,16-7.05,23.49-9.73,2.66-1,5.45-1.52,8-2.84a15.38,15.38,0,0,0,5.64-5.43,26.86,26.86,0,0,1,3.39-4.85,9.16,9.16,0,0,1,5.89-2.35,16.77,16.77,0,0,1,9.5,2.44,1.49,1.49,0,0,0,1.27.86c.35.26.69.53,1,.82,3,2.66,4.9,6.87,3.63,10.8-.39,1.2.88,2.11,1.88,1.92a3.21,3.21,0,0,0,.72,1.13c1.81,1.85,4.39.18,4.53-1.82.15-.23.32-.46.48-.68l0-.06,0-.06c.08-.1.17-.2.25-.31,1-1.24,2.07-2.45,3.12-3.66.24,4.73.47,9.47.65,14.21.4,10.41.31,20.83.63,31.24-3,2.82-4.94,6.93-6.13,10.81a23.69,23.69,0,0,0,0,14.31,36.21,36.21,0,0,0,7,11.65c1.16,1.4,2.39,2.75,3.63,4.08a17.41,17.41,0,0,0-.27,6.35,19.46,19.46,0,0,0,1.48,5.07l-.18,1c-.5,2.58-.9,5.17-1.53,7.74-2.25,9.2-5.58,18.14-7.37,27.45-.45,2.34-.83,4.72-1.07,7.1-.09-1.48-.18-3-.25-4.44-1.25-26.1.84-52.58-3.67-78.37a36.42,36.42,0,0,0,3.12-6.77,21.32,21.32,0,0,0-2.42-18.24c-1.92-3-4.66-5.85-8.28-6.64a11.28,11.28,0,0,0-8.91,2,23.42,23.42,0,0,0-6.71,7.76,35.08,35.08,0,0,0-2.37,5.27c-.32.86-.59,1.74-.83,2.63a14.67,14.67,0,0,0-.36,1.75c.11-.64-.11.64-.14.83a33.25,33.25,0,0,0-.36,6,29.13,29.13,0,0,1-1.4-3.46,22.69,22.69,0,0,1-.86-9.73c.53-5.73,1.7-12.76-3.32-17-3.17-2.65-7.35-3.38-11.35-3.79a38.88,38.88,0,0,0-12.17.69,39.76,39.76,0,0,0-19.74,11.15c-6.2,6.31-10.3,14.33-13.67,22.43-1.94,4.69-2.68,9.57-4,14.44a88.36,88.36,0,0,1-4.16,11.8c-1.75,4.1-3.68,8.11-5.23,12.3-1.4,3.79-2.67,7.74-5.06,11.05-2.23,3.1-5.65,5.19-8.82,7.2a41.06,41.06,0,0,0-8.8,6.94,30.4,30.4,0,0,0-6.53,12.73c-1,4-1.33,8.16-2.32,12.15a38.1,38.1,0,0,0-6.17,9.47c-.37.84-.71,1.69-1,2.53A53.13,53.13,0,0,0,1213,851C1211.87,853,1214.19,855.54,1216.22,854.21Zm191-23.17-1.11-1.16a53.12,53.12,0,0,0-9-7.53l1.42-2.12a25,25,0,0,0,2.14-3.86c.56.42,1.14.83,1.72,1.23,2.87,1.95,5.86,3.65,8.77,5.48a8.26,8.26,0,0,0,2,3.09c-1.81,1.35-3.53,2.84-5.26,4.27ZM1390,819c.93-3.07,1.67-6.21,2.52-9.31.12-.42.24-.84.35-1.25a29.81,29.81,0,0,0,4,4.72,53.18,53.18,0,0,1-4.67,6.63C1391.49,819.48,1390.75,819.22,1390,819Zm49.09-89.62c0-.08,0-.07,0,0Zm-.44,1,0,0C1438.65,730.44,1438.52,730.58,1438.64,730.4Zm-84.4,51.69q-.95-2.24-2-4.4a23.25,23.25,0,0,0,1.2-4.78c.81-5.64-.38-12.12,2.42-17.32.45-.84,1-1.65,1.49-2.45.17,2.89.31,5.77.4,8.65.32,10.3.28,20.61.26,30.92A100.64,100.64,0,0,0,1354.24,782.09ZM1380.16,793c2.74,3.29,6,6.29,8.82,9.51a58.84,58.84,0,0,0-1.94,5.94c-.88,3.23-1.65,6.48-2.64,9.68-.45,0-.91,0-1.36,0a21.55,21.55,0,0,0-9.11,2.6c1-4.74,2.39-9.44,3.54-14.12A117.1,117.1,0,0,0,1380.16,793Zm36.39,54.13a27,27,0,0,0-2.74-7.37,36.71,36.71,0,0,0-3.1-4.67l.38-.4c1.89-2.06,3.75-4.2,5.78-6.14a23.12,23.12,0,0,0,2.92,1.06,32.66,32.66,0,0,1,4.4,4.78,8.16,8.16,0,0,0-.68,1,9.63,9.63,0,0,0-1,7.27C1420.07,843.53,1417.74,845,1416.55,847.09Zm-72.94-19.19c.66,1.92,1.29,3.84,1.87,5.78.12.39.23.78.34,1.17l-.35.09a12.54,12.54,0,0,0-2.72,1.11c.34-2.21.68-4.42.81-6.66C1343.59,828.9,1343.6,828.4,1343.61,827.9Zm-9-38.61a18.71,18.71,0,0,0,9.84-1.95,15.31,15.31,0,0,0,5-4.33c.39,1.08.77,2.17,1.11,3.27,3.11,10.06,4.9,20.53,6.33,30.94.7,5.08,1.29,10.17,1.92,15.25.2,1.69.42,3.37.63,5.06l-.41-.22a29.36,29.36,0,0,0-6-2.28c-1-3.44-2-6.86-3.18-10.23-1.61-4.56-3.54-9-5.35-13.51s-3.51-8.71-5.46-13C1337.63,795.25,1336.17,792.23,1334.57,789.29Z" transform="translate(-62.32 -27.25)"/><path class="cls-5" d="M1381.07,709.58c-1.23,1.92-1.8,5-.59,7,1.06,1.79,3.46,2.42,5.23,3.25,5.88,2.73,12.24,3.85,18.67,4.34a53.16,53.16,0,0,0,9.69,0c3.14-.34,6.24-1,9.35-1.48,6.08-1.05,12.26-1.22,18.26-2.76s11.27-4.76,16.54-8.19c2.87-1.86,5.73-4.12,9-5.12,3-.9,6.12-1.23,9.08-2.29a1.33,1.33,0,0,0,.59-2.2c-1.7-1.48-3.74-2-5.75-3-2.53-1.16-3.86-3.26-5.31-5.54s-2.85-4.82-4.52-7c-1.51-2-3-4-4.42-6.1-2.55-3.77-5.2-7.28-9.06-9.8a34.25,34.25,0,0,0-11.88-4.6c-7.11-1.43-14.25-1.82-21,1-6.36,2.62-12.34,6.86-15.91,12.87a16.82,16.82,0,0,0-2.35,6.73,6.93,6.93,0,0,0-6.2,1.67,8.38,8.38,0,0,0-2.83,7.21c.53,5.26,5.32,6.63,9.71,7.68.83.2,1.68.39,2.51.66-.29.06-.57.13-.86.18a27.74,27.74,0,0,1-3.15.3C1390.83,704.68,1384.11,704.78,1381.07,709.58Zm20.64-6.25c0-.06.07,0,0,0S1401.7,703.32,1401.71,703.33Z" transform="translate(-62.32 -27.25)"/><path class="cls-5" d="M1291.38,616.58c3.94,2.62,8.71,1.44,13.1,1.91a16.92,16.92,0,0,1,11.62,6.65c2.61,3.2,5,6.2,8.58,8.35a101.63,101.63,0,0,0,11.42,5.38A28.72,28.72,0,0,0,1342,641a34.17,34.17,0,0,0,6.78.39c2.24,0,4.47,0,6.71,0a17.38,17.38,0,0,1,6.68.9c3.43,1.31,5.9,4.06,9,5.91,1.91,1.14,5,2.57,7,.75,2.36-2.2.49-6.14-1.15-8.14a12.3,12.3,0,0,0-2.48-2.28,1.65,1.65,0,0,0,.56-.42,7.06,7.06,0,0,1,2.78,2.62c.93,1.2,1.75,2.48,2.65,3.7,1.92,2.6,4.36,4.88,7.8,5a21.56,21.56,0,0,0,4.58-.74c1.4-.29,2.83-.41,4.21-.77a15.23,15.23,0,0,0,7.13-4.49c2.57-2.71,4.93-5.55,7.65-8.12,2.28-2.15,4.89-4.09,6.07-7.1,1.34-3.41-.29-6.65.07-10.12.33-3.13,1.92-6,1.91-9.16,0-6.54-5.59-13.06-1.49-19.4.81-1.24-.71-2.3-1.82-1.82a32.12,32.12,0,0,1-14.05,2.63c-5-.18-9.81-1.44-14.75-2-2.24-.27-4.5-.43-6.74-.71a6.81,6.81,0,0,0-5.13,1.11c-1,.7-1.7,2.09-2.83,2.48-1.73.6-4-.06-5.73-.32a18.16,18.16,0,0,0-19.48,11.34,14.74,14.74,0,0,0,0,11.24c-1.1-.81-2.26-1.54-3.41-2.23a48.41,48.41,0,0,0-7.92-3.88,45.65,45.65,0,0,0-17.61-3c-5.14.14-10.83.06-15,3.47-1.82,1.48-3.29,3.36-5.26,4.66a9.83,9.83,0,0,1-6.58,1.37C1290.53,613.58,1290.23,615.81,1291.38,616.58Zm62.13,5.08c.66.74,1.33,1.46,2,2.17a48.68,48.68,0,0,0,9.79,8,18,18,0,0,1,2.67,2,34.5,34.5,0,0,0-8.56-3.89,25.37,25.37,0,0,0-6-.73,14.63,14.63,0,0,1-4.12-.5c1-1.49,2.87-2.54,3.69-4.2A5.57,5.57,0,0,0,1353.51,621.66Z" transform="translate(-62.32 -27.25)"/><path class="cls-5" d="M1312.29,691.11c1.52-1,3.25-1.56,4.82-2.45a8.48,8.48,0,0,0,3.27-3.76,46.32,46.32,0,0,1,5.94-9.09,10.73,10.73,0,0,1,4.15-3.14,13.42,13.42,0,0,1,5.19-.64,36.77,36.77,0,0,1,9.91,1.28A20.6,20.6,0,0,1,1358,685.07c2.52,6,1.91,12.93-2.61,17.7a1.91,1.91,0,0,1,.89.63c2.06,2.53,2.06,5.57-.55,7.72s-6.23,3.09-9.5,3.8a101.61,101.61,0,0,1-10.12,1.51,24.13,24.13,0,0,1-3.79.25,12.85,12.85,0,0,1-7-2.52c-2.7-1.9-5.12-3.91-8.58-4-3.7-.11-7.34,1-11,.5a1.81,1.81,0,0,1-1.75-1.75C1303.56,702.34,1306.72,694.79,1312.29,691.11Z" transform="translate(-62.32 -27.25)"/><path class="cls-3" d="M1404.9,693.06c2.24-3.32,4.62-6.95,7.81-9.46,2.29-1.8,4.91-.55,4.94,2.37,0,3.55-2,7.21-3.61,10.28a51.39,51.39,0,0,1-5.86,9.27c-.83,1-2.49.34-2.83-.75h-.12a2.07,2.07,0,0,1-1.54,2l0,0a2.92,2.92,0,0,1-.5.05h0c-1.42,0-2.73-1-3.79-1.8a2.12,2.12,0,0,1-.33-2.54C1400.9,699.31,1402.81,696.14,1404.9,693.06Z" transform="translate(-62.32 -27.25)"/><path class="cls-3" d="M1369.3,628.35c.42-1.45.8-2.91,1.18-4.38.78-3,1.52-6,2.4-9,1.73-5.89,4-11.77,7.91-16.56a1.89,1.89,0,0,1,2.93.38c3.48,5.41,1.22,13-.9,18.52a59.58,59.58,0,0,1-4.7,9.59c-1.46,2.38-3.14,5.26-5.55,6.78a1.41,1.41,0,0,1-.86.22l0,.06c-1.08,2.14-4.12.58-3.68-1.55C1368.28,631,1368.9,629.71,1369.3,628.35Z" transform="translate(-62.32 -27.25)"/><path class="cls-3" d="M1340.24,604.69a2.08,2.08,0,0,1,2.9,0c3.66,3.1,5.5,8.29,6.51,12.83s1.44,10-.73,14.23a1.22,1.22,0,0,1-2.24-.32,1.86,1.86,0,0,1-1.59-.15l0,.08a3.82,3.82,0,0,1-.46-.36l0,0,0,0a4.23,4.23,0,0,1-.92-1.59c-.29-.81-.57-1.63-.85-2.44-.87-2.5-1.69-5-2.4-7.57a46.82,46.82,0,0,1-1.67-8.37C1338.63,608.83,1338.74,606.43,1340.24,604.69Z" transform="translate(-62.32 -27.25)"/><path class="cls-3" d="M1344.7,631c.29.32.08.1,0,0Z" transform="translate(-62.32 -27.25)"/><path class="cls-3" d="M1342.79,688c1.78,2.49,3.92,4.69,5.69,7.18a15.55,15.55,0,0,1,2.66,8.39.85.85,0,0,1-1.66.22,6.06,6.06,0,0,0-.16-.61l-.15-.06a2.11,2.11,0,0,1-3.92-.23.49.49,0,0,1,0-.12l0,0c-.1-.21-.2-.41-.31-.61a15.06,15.06,0,0,0-.91-1.43c-.8-1.17-1.65-2.31-2.39-3.52-1.64-2.66-2.76-5.56-2.2-8.71C1339.69,686.69,1342,686.82,1342.79,688Z" transform="translate(-62.32 -27.25)"/><path class="cls-6" d="M1426.41,837.43a.39.39,0,0,0,0-.78.39.39,0,0,0,0,.78Z" transform="translate(-62.32 -27.25)"/><path class="cls-6" d="M1214.76,846a6.43,6.43,0,0,0,4.51-1.57,18.09,18.09,0,0,0,3.46-4.42,46.42,46.42,0,0,1,3.64-5c1.61-2,3.15-4,4.9-5.85a36,36,0,0,1,6.16-5,42,42,0,0,1,14.18-6.5c5.83-1.33,11.81-1.7,17.68-2.75a53.8,53.8,0,0,0,7.64-2.42c2.62-.9,5-.66,7.76-.59a18.56,18.56,0,0,0,12.27-3.76c7.16-5.63,10.92-15,19.06-19.5,4.09-2.26,8.82-2.56,13.39-3.07-2.24,1.41-1,4.59,0,6.58,1.38,2.75,3.18,5.26,4.59,8a143,143,0,0,1,6.94,15.42c1.85,5,3,10.26,4.4,15.38a30.34,30.34,0,0,1,.83,3.25,13.75,13.75,0,0,0,.3,1.94,1.58,1.58,0,0,0,.29.51c-.37.07-.74.14-1.11.24a10.47,10.47,0,0,0-6.85,5.9,4,4,0,0,0-.59-.16c-1.59-5.33,1.08-11.11,1.58-16.43.44-4.8-1.78-8.71-5.15-12-6.27-6.09-15.46-10.36-24.14-7.23-8.45,3.05-14.88,10.64-18.51,18.62-1.74,3.82-3.15,7.8-5.3,11.41a21.62,21.62,0,0,1-4,5,27.87,27.87,0,0,1-6.25,3.9c-5.25,2.69-10.61,5.17-15.69,8.19a82.09,82.09,0,0,1-11.07,6,22.31,22.31,0,0,0-3.42,1.18h0a11.35,11.35,0,0,0-4.28,1.44.93.93,0,0,0-.18,1.44,4.67,4.67,0,0,0,4.66.69.89.89,0,0,0,.88,1c3.57.1,7.09-.87,10.65-.67,4.24.23,7.38,3,10.61,5.4,3.4,2.57,7.07,3.47,11.21,4.17a98.94,98.94,0,0,0,13.16,1.72c4,.13,8-.24,12-.44s8-.41,12-.79c6.38-.61,13.67-1.17,18.45-6a17.35,17.35,0,0,0,4.38-8.09,27.54,27.54,0,0,0,.58-4.52,60.44,60.44,0,0,0,7.19,10.83,32.42,32.42,0,0,0,9.42,8c.67.38,1.36.73,2,1.08a1.27,1.27,0,0,0-.07.12,14,14,0,0,0-.63,6.21c0,.4,0,.79,0,1.19-2.8-5.49-9.67-7.43-15.53-4.92-.92.39-2.17,1-2.07,2.22s1.34,1.69,2.22,2.07c2.7,1.16,5.53,1.8,8.17,3.13a20.12,20.12,0,0,1,6.85,5.2,20.69,20.69,0,0,0,.36,7.12h0a2.55,2.55,0,0,0-1.85-.61.87.87,0,0,0-.42,1.43.73.73,0,0,0-.21.84l0,0a1,1,0,0,0,.82.67c4.06,1.78,8.59,1.9,13,1.65s8.56-.9,12.85-1.17c5-.31,10,0,14.93-.38a42.64,42.64,0,0,0,11.19-2.33c1.62-.59,3.24-1.19,4.89-1.7.87-.26,2.27-.87,3.18-.57,1.38.46,2-1.72.59-2.18a6.85,6.85,0,0,0-3.76.39c-1.81.51-3.57,1.17-5.34,1.8a44.76,44.76,0,0,1-11.58,2.44c-4.76.39-9.55.14-14.31.51-1,.07-2,.17-3.05.28a2.58,2.58,0,0,0,.18-1.16,3.5,3.5,0,0,0,.85-2.94,5.51,5.51,0,0,0-.26-1.07,7,7,0,0,0-.48-2.43c3.22-1.1,7.24-.43,9.89-2.84a.88.88,0,0,0,.14-1.06c-1.78-2.51-5.82-3-8.64-2.53a5.56,5.56,0,0,0-1.68.6c.11-1.11.3-2.64,1.25-3.24a.62.62,0,0,0,.3-.49l.38.06c5.62.85,11.29,1.43,16.9,2.41a15.62,15.62,0,0,1,6.5,2.21,50.87,50.87,0,0,0,4.72,3.21.9.9,0,0,0,1.33-.77c.49-4-3.3-6.54-3.48-10.46-.19-4.21,2.37-8,3.87-11.78a51.21,51.21,0,0,0,2.63-8.83,33.87,33.87,0,0,0,.72-8.7,5.41,5.41,0,0,0,.85.47.69.69,0,0,0,.84-.48,4.1,4.1,0,0,1,1.27-1.74c-.6,2.69,1.12,6.16,3.46,7.87,5.23,3.8,13.13,2.65,19.11,1.93,4.42-.54,8.83-1.31,13.26-1.76a31.75,31.75,0,0,1,8.65.37c2.52.43,5,1,7.53.71a.69.69,0,0,0,.48-1.17c-2.19-2.46-5.44-3.19-8.31-4.56a11.76,11.76,0,0,1-4.2-3.12c-1-1.27-1.89-2.71-2.84-4-3.19-4.49-6.7-9.26-11.58-12-5.09-2.92-10.88-2.18-15.5,1.28a18.35,18.35,0,0,1,.33-1.92,23,23,0,0,0,9.75-5.29c1.9-1.62,3.69-3.36,5.61-5a65.31,65.31,0,0,1,6.63-4.3,23.12,23.12,0,0,0,9.23-11.92c.87-2.45,1.25-5,2-7.51a8.9,8.9,0,0,1,4.75-5.57c.89-.45.25-1.78-.66-1.56-3.64.92-7.51.56-11.21.07,1.16-2.39,4.3-2.9,6.8-3.07,2.9-.19,5.81.13,8.72,0a.82.82,0,0,0,.41-1.52l-.13-.05a6.14,6.14,0,0,1,1.92.61c2.44,1.24,3.95,3.77,6.5,4.85a7.37,7.37,0,0,0,5,0,9.77,9.77,0,0,1,3.73-.6,21.56,21.56,0,0,1,4.51,1.64,34.84,34.84,0,0,0,4.19,1.5,16.59,16.59,0,0,0,10-.55c3.49-1.23,6.72-2.88,10.4-3.55a57.25,57.25,0,0,1,12.06-.63c1.9.06,3.83,0,5.72.26a32,32,0,0,1,5.27,1.22c1,.3,2,.6,3,.87,2.28,1.28,4.77,2.05,7,1a.55.55,0,0,0-.28-1,18.87,18.87,0,0,1-5.45-.69c-.74-.4-1.43-.85-2-1.25-2.43-1.62-4.61-3.55-6.91-5.35-5-3.89-11.47-6.07-17.37-8.16-7.15-2.54-14.45-4.67-21.48-7.55-7.47-3-14-7.44-20.9-11.61-4.68-2.85-11.12-6.64-16.76-4.67-2.16-5.59-6.24-10.4-10.81-14.19-2.82-2.33-5.69-4.64-8.57-6.9-.83-.65-1.68-1.3-2.54-1.92,1.64.43,3.28,1.29,4.84,1.63a17,17,0,0,0,7.14-.29,7.94,7.94,0,0,0,5.37-3.59c1.26-2.09,1.61-4.89,3.73-6.37s5.12-1.28,7.65-1.61a18.16,18.16,0,0,0,6.46-2.47,8,8,0,0,1,3.9-1.26,9.1,9.1,0,0,1,3.7,1.26,24.53,24.53,0,0,0,6.47,2.37c4.19.78,8.82.39,12.42-2s4.89-6.3,6.8-10.06a9.49,9.49,0,0,1,4-4.49c2.66-1.33,5.3-.28,8,.18,5.12.87,9.34-1.94,13.36-4.74a35.69,35.69,0,0,0,6-4.72c1.69-1.83,3.07-3.92,4.7-5.8,1.84-2.1,3.91-2.47,6.58-2.5,2,0,3.92-.05,5.57-1.26.45-.34.51-1.21-.18-1.34-3.54-.67-7,.87-10.37,1.53-4.15.8-8.87.2-12.94-.77-6.44-1.52-12.84-5.1-19.64-4-1.73.27-3.4.84-5.13,1.11a11,11,0,0,1-4.74-.38c-3.08-.83-5.87-1.46-9.07-.89-3.68.66-7.08,2.66-10.85,2.82a33.1,33.1,0,0,1-11.42-2.08c-6.41-2.11-12.7-5.4-19.54-3.65a36.8,36.8,0,0,0-16.38-6.82c-6.27-.88-12.82-.84-18.84,1.34s-11.68,6.48-14.62,12.1a14.09,14.09,0,0,0-1.49,4.74,2.7,2.7,0,0,0-1.07-.4c-2.26-.31-4.65,1-6.37,2.3s-3.44,3.15-3.49,5.36c-.06,2.59,2.3,5.07,4.16,6.6a8.91,8.91,0,0,0,4.09,1.81c1.49.31,3.12.44,4.32,1.49a.78.78,0,0,0-.48.76,12.91,12.91,0,0,1-2,.21c-4.17.26-8.39-.36-11.49,3.17a7.26,7.26,0,0,0-.41,9.2,15.79,15.79,0,0,0-3.46,3.79c-1.45,1.93-3.16,4.26-2.64,6.81a4.56,4.56,0,0,0,.28.86,12.91,12.91,0,0,0-2.93,1.63,17.18,17.18,0,0,0-2.46,2.28c.35-7.38.3-14.79.26-22.18q-.1-16.8-.64-33.62a38.09,38.09,0,0,0,4.84-5,9.08,9.08,0,0,0,1.89-6.47,6.94,6.94,0,0,0-3.72-4.92,7.14,7.14,0,0,0-3.71-.62c0-.23,0-.46,0-.69-.21-3-.73-5.89-1-8.85-.17-1.69.08-4.41-.44-6.58a8.24,8.24,0,0,1,.56,1.06c.5,1.15,2.65,5.87,4.57,3.67,1.15-1.33.76-4.25.25-5.76a8.17,8.17,0,0,0-4.21-4.78,6,6,0,0,0,.64-1.93,1,1,0,0,0-.09-.51c5.51,1,6.29,8.75,11.13,11.38,4.59,2.5,11,1.77,15.45-.71,3-1.66,4.75-4.62,7-7,2.48-2.61,5.44-4.86,7.43-7.92s1.59-6.76,2.65-10.07c1.28-4,3.07-7.86,3.35-12.11a16.51,16.51,0,0,0-.91-6.19c-.57-1.72-1.65-3.25-2.13-5a11.34,11.34,0,0,1-.15-4.11,8.33,8.33,0,0,1,.74-3.13,3.2,3.2,0,0,0,.57-.78.69.69,0,0,0-1.08-.84,3.89,3.89,0,0,0-.63.82c-1.67,1.56-5.47,1.25-7.43,1.17a29.38,29.38,0,0,1-6.67-1.36,44,44,0,0,0-6.92-1.31,22.78,22.78,0,0,0-6.44,0,28.7,28.7,0,0,0-6.18,2.1c-2.07.84-4.07,1.68-6.24.9a15,15,0,0,0-6.1-.56c-4,.28-7.72,2.05-11.45,3.43-2.89,1.08-5.77,2.33-8,4.57a16.79,16.79,0,0,0-4.48,8.62c-.51,3.13.79,6.2,2.63,8.69,3.82,5.17,10,8.21,14.86,12.25a15.24,15.24,0,0,1,3.84,4c.43.79.62,1.83,1.43,2.34a2.54,2.54,0,0,0,.39.21c-.06.23-.12.47-.17.71-1.23-.68-2.48-1.34-3.76-1.95a20.79,20.79,0,0,0-6.23-2.46c-.41-.08-.83-.15-1.24-.21l-.12,0a25,25,0,0,0-6.62-.54c-1.08.06-2.17.14-3.26.11l.12-.11a2.14,2.14,0,0,0,.39-.57,3.43,3.43,0,0,0,2.56-1.35c1.8-2.39.74-6.14-.35-8.61a27.36,27.36,0,0,0-2.2-4.14,4.73,4.73,0,0,0-2.44-2.23,22.21,22.21,0,0,0-3.74-7.68c-.82-1.06-2-2.47-3.41-2.61a2.36,2.36,0,0,0-2.41,2.18,8.15,8.15,0,0,0,1.09,4.16c-3-2.65-7.21-3.92-11.08-4.7-5.27-1-11-1.45-16.17.08a14.88,14.88,0,0,0-5.92,3.18,11.82,11.82,0,0,0-3.25,5.67,2.93,2.93,0,0,1-2.35,2.46,15.26,15.26,0,0,1-2.87.09c-1.48,0-3.57-.14-4.57,1.17-.28.37,0,.87.41,1,2,.66,4.37-.1,6.4-.3a25.65,25.65,0,0,1,8.2.33,35.08,35.08,0,0,1,7.41,2.41,11.24,11.24,0,0,1,4.68,4.28,20.74,20.74,0,0,0,7.75,7,67.28,67.28,0,0,0,10.37,4.13,21.26,21.26,0,0,1,5.57,2.85,7.89,7.89,0,0,0,5.23,1.14c.58,0,1.16-.08,1.74-.14-.16,2.77.51,5.48,1,8.2.52,3.21.59,6.51.94,9.75,0,.11,0,.22,0,.34l-.56-.26a33.33,33.33,0,0,0-8.58-2.09c-2.42-.33-5.27-.17-7.53-1.17-1.91-.85-2.91-2.92-4.76-3.89-2.29-1.2-5.49-1.23-8-1a14.82,14.82,0,0,0-4.18,1,16,16,0,0,1-3.44,1.32c-2.75.47-6-.92-8.49-1.86a44.53,44.53,0,0,0-8.18-2.62c-2.12-.35-4.27-.45-6.4-.73-4.49-.6-9.94-1.4-13.4-4.6a.73.73,0,0,0-1.15.88c2.38,3.91,4.3,7.52,4.56,12.19a72.08,72.08,0,0,1-.23,13.3,30.82,30.82,0,0,0,.77,12.57,23.78,23.78,0,0,0,4.68,9.4,15.46,15.46,0,0,0,6.8,4.07c-.72,3.33-1.83,6.65,1.25,9.26,2.78,2.35,6.39,1.7,8.89-.7s3.79-6.34,6.75-8.34a15.57,15.57,0,0,0-2,1.94,16.94,16.94,0,0,0-2.88,5.38,29.68,29.68,0,0,1-1.63,4,16.33,16.33,0,0,0-1.15,2,1.9,1.9,0,0,0,.72,2.49c-1.4.48-2.81.9-4.18,1.49a31.32,31.32,0,0,0-9,6.13,48.5,48.5,0,0,0-7.69,9.71,69.73,69.73,0,0,0-5.91,11.25,130.7,130.7,0,0,1-5.38,12.46,41.36,41.36,0,0,0-4.5,11.79c-.83,4.54-1.49,8.82-3.4,13.07a85.08,85.08,0,0,1-5.79,11.33,38.27,38.27,0,0,1-7,8c-2.93,2.57-6.23,4.7-9,7.48-5.57,5.62-9.11,12.71-12.81,19.61a92.51,92.51,0,0,1-14.17,20.4A.93.93,0,0,0,1214.76,846Zm121.52-107.7a31.19,31.19,0,0,0,1.3,8.42,29.39,29.39,0,0,1,1.66,6q-.6-.44-1.23-.84a16,16,0,0,1-4.3-3.31,16.75,16.75,0,0,1-2.17-4,.41.41,0,0,0,.08-.31,28.12,28.12,0,0,1-.1-7.1c.65-6.72,2-13.81.45-20.49,1.55.26,3.6-.49,4.81-.88,2.52-.79,4.9-1.76,7.49-2.36,2.32-.53,4.67-.9,7-1.36a7.67,7.67,0,0,0,1.6-.49.27.27,0,0,0,0,.09,2.79,2.79,0,0,0,.17.85c-7.62-.82-12.81,6.91-14.94,13.26A36.7,36.7,0,0,0,1336.28,738.26Zm23.91,103.19c0-.14,0-.28,0-.43a.13.13,0,0,0,.09-.07,18.48,18.48,0,0,0,.78-2.73,12.56,12.56,0,0,0,3.48,7,.84.84,0,0,0,1.39-.36,9,9,0,0,0,.31-2,12.08,12.08,0,0,0,1,3.34l-.23.39C1364.31,845.5,1362.27,843.43,1360.19,841.45Zm61.62,3.38c1.36-2.14,2.22-4.51,3.67-6.58.1.62.19,1.25.3,1.88a9.26,9.26,0,0,0,1.92,4.7A20.39,20.39,0,0,0,1421.81,844.83Zm3.55-12.6c.25,0,.49,0,.74-.06l-.15,1.57A13.88,13.88,0,0,0,1425.36,832.23Zm2.15,9.79c.16.35.32.71.47,1.07A6.92,6.92,0,0,1,1427.51,842Zm-10.58,2.85c-2.89-.6-4.36-2.26-5.16-5a28.92,28.92,0,0,0-2.45-7c1.19-1.53,2.18-3.37,4.09-4a.85.85,0,0,0,.37-1.41,5,5,0,0,1-2-3.11,11.69,11.69,0,0,1,1.72,2.45,9.07,9.07,0,0,0,2.6,2.94,15.35,15.35,0,0,0,7.77,2.53,14,14,0,0,1,1.22,3.75,26.45,26.45,0,0,0-3.56,5.54c-.47,1-.93,2.51-1.78,3.21S1417.78,845.05,1416.93,844.87ZM1415.69,827c-.82-1.08-1.39-2.33-2.21-3.35.64.34,1.29.67,1.92,1a24,24,0,0,1,7.38,5.77C1420.21,830.13,1417.23,829.06,1415.69,827Zm-6.45,12.05a.12.12,0,0,0,0-.1q-.33-.83-.72-1.62c-.24-.53-.48-1.05-.75-1.56a19.42,19.42,0,0,0-5-5.9l-.5-.38a31.73,31.73,0,0,0-9.93-5.41c-.82-.29-1.64-.54-2.48-.76a34,34,0,0,0-4-.9,5,5,0,0,0,1.1-2c1.83-4.75.79-10.94,3.93-15.14a6.06,6.06,0,0,1,0,2.93,40.14,40.14,0,0,1-1.23,5.09c-.82,2.78-2.21,6-1.86,8.94a.43.43,0,0,0,.86,0,17.63,17.63,0,0,1,1.25-4.6c.63-1.94,1.31-3.86,1.87-5.83.21-.71.47-1.6.68-2.53a13.25,13.25,0,0,0,3,5.59c.09.09.2.15.3.24l0,.08a15.68,15.68,0,0,0-1.35,2.91c-.65,2-.71,4,.63,5.69a.49.49,0,0,0,.49.16c.19.25.63.3.71-.09a4.92,4.92,0,0,1,.14-.55c1.44-1.54,1.88-4,2.37-6.11l.09-.28,1.15.52c1.62.74,3.24,1.44,4.87,2.15,1.93.84,3.87,1.68,5.77,2.59a.88.88,0,0,0-.27.39,5,5,0,0,0,1.43,5.16c-1.72,1.07-2.7,2.85-4.07,4.41a.88.88,0,0,0-.13,1c1.51,2.29,1.86,4.9,2.68,7.43a.74.74,0,0,0-.36.09C1409.68,840.2,1409.46,839.64,1409.24,839.08Zm-11.82-22.77a24.12,24.12,0,0,0-2,6.08c-.75-1.52-.14-3.47.52-4.94a13.72,13.72,0,0,1,.8-1.52C1397,816.06,1397.2,816.19,1397.42,816.31ZM1375,825.05l-.12.08c.13-.69.24-1.38.34-2.07a4.17,4.17,0,0,0,.63.94,1.84,1.84,0,0,0,.27.23C1375.7,824.49,1375.32,824.76,1375,825.05Zm4.55-31.34c-.51,2.3-1.18,4.57-1.72,6.86-.38,1.66-.85,3.31-1.32,5l.06-1.78a70.37,70.37,0,0,1,.87-10c.33-1.86.78-4.59,2.24-6.11l.55.8A17,17,0,0,1,1379.51,793.71ZM1372.07,821c.07-6.08,1.4-12.12,2.55-18.07.24-1.24.44-2.48.63-3.71-.07,1-.13,2-.18,2.95-.18,3.76-.29,7.55-.52,11.32a26.48,26.48,0,0,0-.34,4.18c0,.11,0,.23,0,.34a75.48,75.48,0,0,1-1.31,8.72C1372,825.09,1372.06,822.54,1372.07,821Zm6.72-34.59a10.65,10.65,0,0,0-2.43,5.12c.35-2.51.66-5,.8-7.54C1377.7,784.77,1378.24,785.58,1378.79,786.38Zm8,12c1.12,1.71,2.43,3.34,3.45,5.11l.09.17c-3.74,4.52-2.73,10.49-4.52,15.74-.17.5-.45,1.8-1,2.08-.37.18-1.25-.05-1.66,0a11.74,11.74,0,0,0-4.94,1.39c-.66.3-.94.54-1.41-.06a7.49,7.49,0,0,1-.94-3.43c0-.25,0-.51-.06-.76.18-1.8.31-3.61.42-5.42.13-.74.29-1.48.46-2.2,1.06-4.63,2.4-9.22,3.61-13.82a44,44,0,0,0,1.33-6.41c0-.08,0-.16,0-.24C1383.33,793.06,1385,795.71,1386.74,798.34ZM1362,760.54c.63,7.9,1.32,15.72,1.44,23.65s.33,15.81.87,23.73c.26,3.91.36,7.84.45,11.76-1-14.35-3-28.65-3.23-43-.13-7.4,0-14.74-1.07-22.09-.52-3.63-1.19-7.23-1.9-10.83a7.91,7.91,0,0,1,0-4.21,10.69,10.69,0,0,1,.43-1.06,51.8,51.8,0,0,0,1.14,9.69A78.42,78.42,0,0,1,1362,760.54Zm5.79,76.56a17.67,17.67,0,0,1,1.4-3.57c-.84,3.58-.19,7.41-1.26,10.83a12.31,12.31,0,0,1-.51-2.24.47.47,0,0,0,.23-.76,2.37,2.37,0,0,1-.32-.39A13.87,13.87,0,0,1,1367.81,837.1Zm-9-11.18c-1.45-10-3.84-19.71-6.16-29.48-1.13-4.71-2-9.45-3.73-14a22.79,22.79,0,0,1-1.87-6.48,5.53,5.53,0,0,1,1.1-3.47q2,7.14,3.77,14.34c2.31,9.39,4.67,18.82,6.43,28.33a133,133,0,0,1,1.71,13.64c.3,3.71.76,7.71.06,11.41A129.4,129.4,0,0,0,1358.84,825.92Zm-9.72-55.67a23.2,23.2,0,0,0,1.12-3.6c1-4.49,1.09-9.13,2.16-13.6a35,35,0,0,1,2.27-6.27c.37,3.19.9,6.37,1.31,9.57.53,4.08.79,8.19,1,12.29.46,7.56.71,15.14,1.4,22.68s1.58,14.84,2,22.31c.16,2.79.32,5.6.36,8.4a203.48,203.48,0,0,0-4.24-22.74c-2.24-9.65-4.42-19.33-7.33-28.8A.66.66,0,0,0,1349.12,770.25Zm6.93-26.36.75-1.53c0,.11,0,.21,0,.32.52,4.11,1.56,8.18,2.15,12.29,1.06,7.48.86,15,1,22.51.17,7.84.9,15.67,1.6,23.47.69,7.65,1.42,15.3,1.84,23,.21,3.8.23,7.6.42,11.4.12,2.4.89,5,.72,7.4-3-4.13-2.4-10.19-2.19-15,.6-13.52-1.6-26.93-2.6-40.37-.55-7.36-.78-14.74-1.29-22.11C1358,758.09,1356.6,751,1356.05,743.89Zm1.86-29a64.33,64.33,0,0,0-.45-8.63,3,3,0,0,0,.12-1.08,2.69,2.69,0,0,0-.47-1.46c-.24-1.51-.54-3-.89-4.47a19.86,19.86,0,0,0,2.12-4.64,12.13,12.13,0,0,0,.43-2.72c0,.33,0,.66,0,1a7.66,7.66,0,0,0,.68,4,.73.73,0,0,0,1,.25c1.86-.85,3-2.88,3.86-4.63,1-2.08,1.81-4.29,2.82-6.38a31,31,0,0,1,2.21-3.86c-.07,6-.23,11.9-.29,17.85-.07,6.86-.18,13.72,0,20.57.13,6.15.69,12.28.85,18.42a33.43,33.43,0,0,0-2.37,8.35,44.76,44.76,0,0,0,1.8,21,65.22,65.22,0,0,0,6.41,13.27c-.12,5.46-1.11,10.88-1.82,16.29-.75,5.63-2.18,11.16-2.89,16.8a39.49,39.49,0,0,0-.38,9,9,9,0,0,0,1.28,4.21l-.18.24a22.23,22.23,0,0,0-5.29,10,28.93,28.93,0,0,1,0-4.08c.1-2.91.21-5.77.18-8.69-.07-7.74-.39-15.41-.83-23.13-.44-7.53-.38-15.07-.63-22.6s-1-15-1.72-22.45a77.83,77.83,0,0,0-1.76-10.06c-.91-3.86-.87-7.84-1.16-11.77a.93.93,0,0,0-.54-.73,30.55,30.55,0,0,0,1.14-7.36C1361.21,723.41,1360.72,718,1357.91,714.84Zm13.5-39.27c0,.53,0,1.06,0,1.59-.24.27-.49.54-.73.82v-.11c.1-5.24-.08-10.41-.46-15.61l.59-.17C1371.14,666.58,1371.26,671.09,1371.41,675.57Zm-2.07,4.12a32.28,32.28,0,0,0-3.66,6c-.88,1.92-1.61,3.9-2.55,5.79a10,10,0,0,1-2.76,3.88c-.48-1.45-.17-3.46-.16-4.84a15.27,15.27,0,0,0-.51-5c-.92-2.68-2.86-6.63-5.84-7.62l-.31-.41c-.11-3-.13-6.09-.26-9.14-.1-2.18-.31-4.35-.55-6.52l.58.44c0,.59.1,1.19.14,1.78q.38,4.38.64,8.78c.1,1.65.31,3.33.25,5,0,.4.55.37.6,0a45.29,45.29,0,0,0,.11-6.59c0-2.6-.18-5.2-.34-7.81.43.37.86.74,1.31,1.11,1.7,1.4,3.59,2.27,5.79,1.62,2.4-.71,4.69-2.34,7.1-3.39C1369.29,668.41,1369.38,674,1369.34,679.69Zm-1.91-30.94c.55,3.18.83,6.34,1.14,9.55.09,1,.16,2,.23,3a38.89,38.89,0,0,0-3.72,1.71c-1.4.72-2.84,1.74-4.43,1.92a5.25,5.25,0,0,1-3.94-1.69c-.74-.63-1.42-1.24-2.11-1.83-.26-3.62-.62-7.24-1.08-10.84a53.6,53.6,0,0,0-1.45-8.06,9.28,9.28,0,0,0-.78-2.09,65.76,65.76,0,0,1,9.26-1.32,12.57,12.57,0,0,1,7.59,2.24.6.6,0,0,0-.23.22C1366.56,643.7,1367,646.43,1367.43,648.75Zm-8.65,42.57a20.5,20.5,0,0,0-1.76-8.06c-.23-.55-.49-1.09-.77-1.63.3.43.56.86.79,1.27a12.23,12.23,0,0,1,1.7,4.62A28.33,28.33,0,0,1,1358.78,691.32Zm-8.57,12.31c-1.14.29-2-.5-2.91-1.47a77.15,77.15,0,0,1-4.84-6.5,19.29,19.29,0,0,1-2.35-4.08c-.31-.79-1-3.2.12-3.74,1.42-.66,3.71,3.51,4.29,4.43,1.08,1.72,2.3,3.35,3.39,5.07C1348.77,698.7,1350.86,701.71,1350.21,703.63Zm-19,10.49a1.51,1.51,0,0,1,.73-.46,25.41,25.41,0,0,1,3.16-.53,42.89,42.89,0,0,0,4.87-1.24,34.19,34.19,0,0,0,8.55-4.16,37.35,37.35,0,0,1,4.79-3.15c.88-.13,1.63-.08,1.85.49.45,1.24-.68,3.38-1.46,4.27-1.27,1.44-3.16,1.54-4.94,1.89a53.56,53.56,0,0,0-8.65,2.13c-1.72.64-3.4,1.36-5.17,1.85a8.21,8.21,0,0,1-2.86.43,1.55,1.55,0,0,1-.41-.09C1331.56,715.07,1331.41,714.59,1331.24,714.12Zm22.43-11a8.69,8.69,0,0,0,1.33-1.82c.1.53.2,1.06.29,1.59A5.76,5.76,0,0,0,1353.67,703.07Zm3.17,10.79a7,7,0,0,0-2.44-1.14,2.18,2.18,0,0,1,.29-2.44c.42-.52.9-1,1.31-1.5.06-.08.12-.17.19-.25C1356.44,710.3,1356.65,712.08,1356.84,713.86Zm-26.3,27.61a23,23,0,0,1,0-8.72c.24-1.59.53-3.21.76-4.85,0,.47,0,.94,0,1.4C1331,733.38,1330.32,737.41,1330.54,741.47Zm-19.25-44.89a23.73,23.73,0,0,1,4.78-2.88,31.6,31.6,0,0,0,4.65-2.15c3.15-2.06,4.23-5.75,6.13-8.8a24.86,24.86,0,0,1,4-4.42,28.21,28.21,0,0,1,4.52-3.86c5.78-3.69,12.64-1.1,16.84,3.61,0,.1,0,.2,0,.3a.7.7,0,0,0,.69.69l.15,0c.15.21.32.41.46.62a22.86,22.86,0,0,1,3.76,9.46,13.15,13.15,0,0,1-1.74,8.31.78.78,0,0,0-1,.88c0,.26.09.51.14.77-.25.44-.5.9-.75,1.36a6.18,6.18,0,0,1-2.56,2.6,4.63,4.63,0,0,0,0-.74c-.34-2.84-2.19-5.5-3.72-7.83-1.27-1.94-2.37-4-3.81-5.82-1.07-1.36-3.28-3.6-4.84-1.54-1.82,2.38.15,5.87,1.49,8a82.4,82.4,0,0,0,5.43,7.45c.91,1.12,2.15,2.41,3.68,2.54h.18l0,.07a50.57,50.57,0,0,1-6.83,4.19,49.93,49.93,0,0,1-6.47,2.24c-1.45.44-3,.55-4.45,1.08a3.36,3.36,0,0,0-1,.65,11.75,11.75,0,0,0-5.35-6.4,15.32,15.32,0,0,0-8.56-1.22,30.7,30.7,0,0,0-8.8,2.37,38.52,38.52,0,0,0-3.53,1.89c-.48.27-1.2.62-1.11-.35,0-.29.39-.7.54-.93a14.14,14.14,0,0,0,1.09-2.12c.8-1.91,1.32-4,2.29-5.78A13.1,13.1,0,0,1,1311.29,696.58ZM1323,707.67c3.63,1.09,5.69,4.1,6.82,7.52a12.43,12.43,0,0,0-.83-1.26,17.44,17.44,0,0,0-13.54-6.48A16.45,16.45,0,0,1,1323,707.67Zm-43.19-60.39c6.39,3.19,11.29,8.37,16.25,13.42,5.34,5.42,10.7,10.83,16.13,16.16,2.25,2.21,4.69,4.26,6.89,6.52a4.37,4.37,0,0,1,1.6,3.74,5.75,5.75,0,0,1-2.64,3.67c-2.34,1.54-5.22,2-7.74,3.12-2.78,1.3-4.19,3.65-5.91,6.07s-4.73,6-8.19,4.16c-3.69-2-2-5.71-1.35-8.86a.94.94,0,0,0-.63-1.11c-4-1.25-6.9-3.22-8.88-7a28.16,28.16,0,0,1-3.23-15.51,85.3,85.3,0,0,0,.26-16.45A21.64,21.64,0,0,0,1279.84,647.28Zm71.4,13.57c.28,2.59.55,5.18.66,7.79.1,2.44.14,4.88.21,7.32a15.05,15.05,0,0,0-11.35-4.62c-4.25.22-7.37,2.49-10.33,5.36a33.09,33.09,0,0,0-4.31,4.55c-1.3,1.84-2.14,3.93-3.29,5.86a11,11,0,0,1-1,1.47,4.91,4.91,0,0,0,.14-3.6c-1-2.77-4.19-4.75-6.22-6.73-6.4-6.22-12.67-12.57-18.92-18.93-3.93-4-7.85-8.08-12.5-11.17a53.82,53.82,0,0,0,5.66,1.05c2.4.33,4.84.44,7.23.83a48.52,48.52,0,0,1,8.65,2.64c2.34.84,5,1.8,7.49,1.71s4.53-1.73,6.9-2.23c2.68-.57,6.78-.64,9.14.93,1.68,1.11,2.64,3,4.55,3.86,2.11.93,4.54.94,6.8,1.25a42,42,0,0,1,8.72,1.82A12,12,0,0,1,1351.24,660.85Zm-.76-18.65a21.79,21.79,0,0,1,.76,3,133.06,133.06,0,0,1,1.92,15.16l-.63-.42c0-.39-.09-.78-.13-1.17-.34-3.11-.44-6.26-.88-9.35A70.55,70.55,0,0,1,1350.48,642.2Zm-.63-1.34s0,0,0,0Zm-3.55-10.6.37.06-.28.18Zm-1.57.19a11.42,11.42,0,0,1-2.28-1.29c.11,0,.2.09.31.12.52.15,1.1.34,1.72.53C1344.55,630,1344.64,630.24,1344.73,630.45Zm-1.88-20.81c2.1,3.64,2.66,7.91,3.36,12,.23,1.36.5,2.72.76,4.07.2,1,.7,2.6.41,3.69a8.18,8.18,0,0,1-1.46-.17c-.26-.67-.51-1.33-.75-2-.15-1-.26-2-.46-2.87a69.6,69.6,0,0,0-3.09-8.5,48.46,48.46,0,0,0-2-4.49c-.73-1.46-1.83-3.27-1.84-5s1.5-1.23,2.36-.41A16.36,16.36,0,0,1,1342.85,609.64Zm5.9,19.57a8.16,8.16,0,0,0,0-1.4c-.37-3.33-1.16-6.68-1.77-10-.13-.65-.27-1.3-.41-1.94a13.07,13.07,0,0,1,2.19,3.62,17.39,17.39,0,0,1,1.65,4.5C1350.69,625.8,1350.85,628.56,1348.75,629.21Zm22.39,7.91c-.15.47-.36.91-.55.77a.51.51,0,0,0,.14-.82Zm.31-2.66.08-.1c.45-.59,1-1.12,1.45-1.71a19.49,19.49,0,0,0,2.71-5.12c.82-2.22,1.46-4.48,2.42-6.65a27.83,27.83,0,0,0,2-6,27.5,27.5,0,0,0,.15-9.66c-.28-1.63-1.25-4.67-3.5-4.23-1.43.27-2.11,2-2.54,3.24a31.39,31.39,0,0,0-1.34,6.06c-.31,2.17-.48,4.36-.81,6.52s-.79,4.28-1.15,6.43c-.32,1.91-.41,3.85-.6,5.78-.14,1.38-.32,2.75-.44,4.14-.07.71,0,1.39-.48.44-.22-.43-.37-.9-.6-1.32-1.48-2.82-4.61-4.87-7.06-6.76-4.88-3.76-11.15-6.9-13.55-12.93-1.47-3.69-.12-7.38,2-10.52,2-2.88,4.86-4.52,8-5.75,3.64-1.41,7.46-3.27,11.38-3.65a14.33,14.33,0,0,1,6.25.48,6,6,0,0,0,3.72.21c3.92-.91,7.22-3.27,11.36-3.38a42,42,0,0,1,12.23,2,25.64,25.64,0,0,0,8.88.94,13.22,13.22,0,0,0,3.3-.57,16.7,16.7,0,0,0-.28,4.91,12,12,0,0,0,1.54,4.5,16.21,16.21,0,0,1,1.77,7.06c0,4.17-1.78,8.21-3.15,12.08-1.22,3.44-.86,7.46-3,10.52s-5.14,5.29-7.56,8.08c-2.26,2.61-4.21,5.18-7.51,6.48-4.75,1.86-12,2.31-15.19-2.42C1379.14,639.49,1376.86,634.38,1371.45,634.46Zm-.17-2.43c.6-6.85,1.91-13.58,2.75-20.4a37.87,37.87,0,0,1,1.23-6.26c.28-.94,1.15-4,2.52-2.63,1.08,1,1.21,3.12,1.31,4.51a31.72,31.72,0,0,1,.06,3.38,24.39,24.39,0,0,1-1.17,6.88c-.58,1.79-1.46,3.46-2.1,5.22-.75,2.06-1.28,4.21-2.23,6.19a18.4,18.4,0,0,1-2.41,3.6C1371.26,632.33,1371.27,632.17,1371.28,632Zm0,10.23a13.46,13.46,0,0,0-8.93-4.53c-3.82-.34-7.64.67-11.37,1.3-2,.33-4.45.79-6.48.29-1.67-.41-3-2-4.56-2.67-3.17-1.46-6.64-2.26-9.86-3.6s-6.52-3.06-8.82-5.75c-2.12-2.47-3.3-5.22-6.35-6.76a32.71,32.71,0,0,0-11-3.22,21.42,21.42,0,0,0-2.89-.09,4.63,4.63,0,0,0,1.34-2.07c.74-2.23,1.45-4.14,3.31-5.71a14.72,14.72,0,0,1,6.33-2.87,37.11,37.11,0,0,1,15.8.47,24.1,24.1,0,0,1,7.62,2.58,11.76,11.76,0,0,1,3.77,4c.53,1.18,1,2.36,1.52,3.59s.87,2.18,1.31,3.28c.25.86.48,1.72.7,2.59.32,1.23.69,2.43,1.08,3.62.11.69.22,1.39.38,2.07l-1.55-.49c-4.23-1.32-6.15-5.27-9.42-7.91-2.78-2.26-6.75-4.75-10.49-4.31-.49.06-.79.72-.28,1a50.44,50.44,0,0,0,5.8,2.38,19.88,19.88,0,0,1,6,4c1.88,1.65,3.73,3.33,5.65,4.94a17.69,17.69,0,0,0,4.69,3.12,3.52,3.52,0,0,0,.43.13,3.76,3.76,0,0,0-.39.86.69.69,0,0,0,.67.87,25.1,25.1,0,0,0,6.15-.72,21.29,21.29,0,0,1,7.38.26l.6.14a34.94,34.94,0,0,1,3.94,1.42c1.88.92,3.69,2,5.59,3a2.73,2.73,0,0,0,0,.64c0,.1,0,.21,0,.31a.71.71,0,0,0,.67.88l.1,0,.23.13a1.44,1.44,0,0,0,1,.13c2.73.93,4.33,3.85,4.34,6.71a3.4,3.4,0,0,1-.21,1.68c-.3.44-.62-.07-1-.52C1372.83,645.87,1372.54,643.8,1371.28,642.26Zm-45.59-25a13.12,13.12,0,0,1,3.22,1.21C1327.84,618.08,1326.76,617.71,1325.69,617.3Zm45.1,43.42-.64.17c-.09-1.15-.17-2.3-.28-3.45-.25-2.63-.4-5.26-.88-7.86-.37-2-1-4.55-.24-6.55,1.06,1.26.88,3.94.92,5.32.07,2.53.43,4.95.7,7.46C1370.54,657.45,1370.67,659.08,1370.79,660.72Zm2.25,14.8c-.06-1.81-.12-3.62-.19-5.44-.1-2.75-.22-5.5-.38-8.24a7.2,7.2,0,0,1,1.84.11,5.33,5.33,0,0,1,4.18,5.44c-.19,2.79-2.16,5.19-4.17,7C1373.88,674.72,1373.46,675.12,1373,675.52Zm-.4,58.74a23.48,23.48,0,0,0-1.39,2c-.22-5.9-.76-11.78-.89-17.68-.27-12.77.05-25.56.32-38.33.27-.36.55-.7.84-1q.24,8,.39,16C1372.15,708.22,1372,721.27,1372.64,734.26Zm7.63-3.2a9.5,9.5,0,0,0,4.34,1.52,18,18,0,0,1,5.57,1.22c1.58.76,3,1.87,4.58,2.57a7.39,7.39,0,0,0,2.46.6,12.84,12.84,0,0,1,1,2.68c.74,2.91.44,5.78.5,8.73a32.87,32.87,0,0,0,.62,5.58c.4,2.08,1.29,5.42,3.23,6.78a6,6,0,0,0,.27,4.11c1.27,2.56,3.55,4.49,4.94,7a54.48,54.48,0,0,1,3.71,8.68c2,5.89,4.13,11.74,6.34,17.58,1.16,3,2.26,6.14,3.13,9.29s1.49,6.5,2.23,9.75,1.84,6.33,2.66,9.53a13,13,0,0,1,.33,3.82,12.46,12.46,0,0,1-1.73.1,14.63,14.63,0,0,0-1.89-2.38c-5.64-5.68-13.82-8.42-20.95-11.68-.84-.38-1.76-.76-2.64-1.19a.75.75,0,0,0-.69-.37c-.23-.14-.45-.29-.67-.44a1.39,1.39,0,0,0,.16-.58.46.46,0,0,0-.57-.43,1.24,1.24,0,0,0-.5.28,9.39,9.39,0,0,1-2-3.25c-1-2.53-1.54-5.23-2.8-7.67-.91-1.76-2.17-3.36-3.24-5s-2.15-3.46-3.23-5.18c-2.12-3.4-4.51-6.61-6.69-10-7.54-11.63-12.46-25.63-8.31-39.46.14-.49.3-1,.48-1.45a.66.66,0,0,0,.44-.65v-.49C1373.1,736.4,1376,732.65,1380.27,731.06ZM1406,753.51c.3,1.88.5,4.46-1,5.79a1.48,1.48,0,0,0-1.81.16c-2.52-1.76-3-8.86-3-10.89-.09-3.3.32-6.53-.52-9.78a13.13,13.13,0,0,0-.63-1.86c.32,0,.64-.08,1-.14,1-.2,2-.44,3-.62.41-.07.8-.08,1.17-.15a20.8,20.8,0,0,0,.09,10.48C1404.9,748.84,1405.66,751.12,1406,753.51ZM1395.74,727c-.6.93-1.2,1.86-1.75,2.83a25.09,25.09,0,0,1,.92-2.82c.19-.5,1.32-3.58,2.08-3.48C1397.93,723.64,1395.94,726.69,1395.74,727Zm0,7.77a14.31,14.31,0,0,1-2.19-.88,32.38,32.38,0,0,0-4.54-2.14c-1.74-.54-3.57-.61-5.34-1.06-.29-.07-.59-.16-.88-.26h0A14.18,14.18,0,0,1,1395.72,734.76Zm-11.39-14.08a8,8,0,0,1,1.52-1.41,9.34,9.34,0,0,0,1.76,1.35,22.18,22.18,0,0,0,7.82,2.62,11.42,11.42,0,0,0-1.17,2.15,17,17,0,0,0-1.57,4.59,17.59,17.59,0,0,0-12.11-1.19,2.44,2.44,0,0,1-.28-1,5.94,5.94,0,0,1,1.28-3.47A24.14,24.14,0,0,1,1384.33,720.68Zm12.94-31.55a14,14,0,0,0,.18,2.14,15.32,15.32,0,0,0,1.54,4.41c.72,1.4,1.41,2.82,2.13,4.21.18,1.28.29,3.41-.41,4.3a5.13,5.13,0,0,0-1.74-1.42,16.52,16.52,0,0,0-4.33-1.17,8,8,0,0,1-4-2.23,8.6,8.6,0,0,1-2.68-4,3.89,3.89,0,0,1,1.07-3.21c1.49-1.83,4.28-3.77,6.74-3.77A2,2,0,0,1,1397.27,689.13Zm6.13,13.35c.28.22.58.46.88.72.55.49,1.39,1.88.43,2.43-.73.43-1.47-.5-1.59-1.13A4.08,4.08,0,0,1,1403.4,702.48Zm1.77-.29a12.8,12.8,0,0,0-1.3-.87c.16-.36.32-.69.45-1,.72-1.6,1.49-3.19,2.29-4.76,1.63-3.21,3.28-6.41,4.91-9.62.48-1,1.24-2.74,2.33-3.16,1.81-.69.55,2.25.27,2.89-1.49,3.41-2.81,6.88-4.35,10.28-1.2,2.62-1.84,5.58-3.36,8A3.87,3.87,0,0,0,1405.17,702.19Zm33.7-29.5a40.44,40.44,0,0,1,9.46,5.33,37.59,37.59,0,0,1,8.05,7.52,56.14,56.14,0,0,1,4.86,8.66c1.32,2.68,2.62,5.52,4.73,7.68a8.86,8.86,0,0,0,3.37,2.3,4.58,4.58,0,0,0,3.22-.09c.47-.14,2-.38.77,0-.31.09-.62.15-.93.22-1.79.42-3.47,0-5.27.21a11.41,11.41,0,0,0-4.35,1.89c-1.47.88-2.9,1.81-4.38,2.66a82.76,82.76,0,0,0-7.86,5.26,30.64,30.64,0,0,1-8.2,4.59,47.55,47.55,0,0,1-11.57,1.8c-4,.29-8,.47-12,.95a73.46,73.46,0,0,1-11.84.86c-4.58-.2-9.23-.35-13.69-1.48a15.87,15.87,0,0,1-6.38-3.19.52.52,0,0,0-.18-.18l0,0a5.2,5.2,0,0,1-1.13-6.74c2.41-4.45,7.43-3.49,11.58-3.85,1.09-.1,2.83-.16,3.61-1.1a2.49,2.49,0,0,0,1-.81,2.93,2.93,0,0,0,1,1.51,2.27,2.27,0,0,0,3.63-1.12.5.5,0,0,0,.53-.16c1.86-2.24,2.66-5,3.81-7.68,1.41-3.24,3.08-6.29,4.3-9.62.65-1.76,2.64-4.86.69-6.43-1.7-1.38-3.38.17-4.37,1.58-1.65,2.36-2.74,5.18-4.09,7.71-1.61,3-3.26,6-4.58,9.13,0-.05-.06-.09-.08-.14A25.92,25.92,0,0,0,1402,697a35.39,35.39,0,0,0-2.47-6.77c-.21-.41-.44-.84-.69-1.26a13.64,13.64,0,0,1,3.46-8.55,27.46,27.46,0,0,1,16.67-9.57A39.76,39.76,0,0,1,1438.87,672.69Zm93,12.59,1,.14c-2.84.64-5.64,1.55-8.41,2.38a58.83,58.83,0,0,1-16.64,2.22c-5.17.05-10.38,0-15.43,1.2-4.89,1.2-9.51,3.28-14.32,4.74-2.55.77-5.23,2-7.93,2-1.75,0-3.55-.57-5.29-.39h0c-.56-1-1.05-2-1.52-3a72.25,72.25,0,0,0-4.72-9,34.42,34.42,0,0,0-7.2-7.46c-.35-.28-.7-.54-1.06-.81,7.56-.9,14.61,3.6,21.84,5.28,3.29.76,6.81,1.28,10.14.53,3.58-.81,6.85-2.74,10.58-2.84,3.23-.09,6.09,1.53,9.26,1.76s6.15-1.27,9.3-1.36C1518.53,680.47,1525,684.31,1531.91,685.28ZM1434,728.17a32.86,32.86,0,0,0-4.89-2.71c-6.17-2.72-13.53-2.54-19,1.67a16.31,16.31,0,0,0-5.5,7.66c-1.22-.59-3.44.08-4.56.25a11.2,11.2,0,0,1-1.78.14,13.17,13.17,0,0,0-3.78-4.12,23.16,23.16,0,0,0,3.73-5,4.12,4.12,0,0,0,.42-2.4c1.12.11,2.24.19,3.33.26,2.56.16,5.16.34,7.73.26,4.06-.13,8.07-.86,12.11-1.25s8.24-.51,12.35-.94a34.29,34.29,0,0,0,10.45-2.31,40.71,40.71,0,0,0,7.85-5c2.68-2,5.48-3.74,8.34-5.49,1.74-1.07,3.59-2.53,5.55-3.17,1.69-.56,3.49,0,5.23-.15,1.09-.11,4-.42,3.72-2.1a1.79,1.79,0,0,0-2.1-1.31c-1.45.14-2.3.79-3.78.07a9.93,9.93,0,0,1-3.84-3.77c2-.15,4,.68,6,.39a53.43,53.43,0,0,0,8.45-2.4c4.76-1.52,9.36-3.59,14.28-4.59,5.36-1.08,10.92-.7,16.36-.83a60.72,60.72,0,0,0,7.73-.63,56.78,56.78,0,0,0,8-2.08,111.9,111.9,0,0,1,11-2.81,28.41,28.41,0,0,0,2.93-.09,15.17,15.17,0,0,0-1.45,1.52,48.87,48.87,0,0,1-5.53,6.23,60.88,60.88,0,0,1-7.64,5.11c-2.18,1.33-4.62,2.6-7.25,2.55s-5-1.22-7.56-1.11c-4.38.19-7,3.57-8.71,7.22a35.34,35.34,0,0,1-2.74,5.38,11.29,11.29,0,0,1-5.51,4.13,17.53,17.53,0,0,1-13.44-1.23c-2.1-1.06-4.23-2.24-6.66-1.85s-4.38,2-6.6,2.94c-4.3,1.85-9.78,0-13,4.25-1.27,1.69-1.65,3.82-2.77,5.59-1.36,2.13-4,2.66-6.31,3a17.23,17.23,0,0,1-6.51-.53A16.14,16.14,0,0,0,1434,728.17Zm16.45,16a31,31,0,0,1,5.66,9.09.55.55,0,0,0,.3.81,18.74,18.74,0,0,1,.83,10.4c-.69,3.08-2.93,4.88-5.88,5.67-1.9.5-5.06,1.57-4,4.2,1.21,2.85,5.57,2.84,4.66,6.82-.44,1.94-1.4,3.66-1.68,5.67a25,25,0,0,0,0,5.4c.35,4.32.73,8.4-1.48,12.34a26.86,26.86,0,0,1-6.32,7.12c-4.83,4.07-10.51,7.49-13.64,13.18a24.52,24.52,0,0,0-1.69,3.81,13,13,0,0,0,0-2,24.47,24.47,0,0,0-1.15-4.35c-.45-1.61-.82-3.23-1.17-4.85a130.82,130.82,0,0,0-4.56-17.31c-1.94-5.36-4.12-10.62-5.93-16-1.7-5-3.35-10.35-6.31-14.83-1.25-1.87-3.58-3.6-4.13-5.83a5.4,5.4,0,0,1,0-2.12l0-.14a3.54,3.54,0,0,0,1.62-.12.73.73,0,0,0,.41-1.07c3.14-2.6,1.19-9.15.32-12.41-1-3.59-1.53-7.35-.6-11a15,15,0,0,1,7.83-9.62c6.31-3.14,13.12-1.24,18.78,2.26a.4.4,0,0,0,.18.1c.37.24.74.48,1.1.73,3.16,2.15,6,4.66,9,7.05A61.94,61.94,0,0,1,1450.44,744.21Zm14.76,40.42a12.28,12.28,0,0,1-5-.42,34.82,34.82,0,0,0-3.46-1.11,4.24,4.24,0,0,0-4.28,1l.06-.22c.58-1.58,1.27-3.18.82-4.89a5.3,5.3,0,0,0-2.25-2.95c-.8-.6-3.23-2-2.12-3.23.83-.93,2.69-.89,3.81-1.23,6.82-2.12,7.38-9.78,6-15.75-.18-.77-.4-1.52-.64-2.27,3.39-.9,7.21.54,10.21,2.09,3.94,2,7.65,4.5,11.4,6.84a104.75,104.75,0,0,0,20.51,9.89c7.16,2.56,14.47,4.66,21.54,7.44a62.66,62.66,0,0,1,9.89,4.53c2,1.2,3.69,2.76,5.5,4.14l1.56,1.19c-.72-.23-1.43-.46-2.17-.67-4.12-1.16-8.67-1.23-12.94-1.35a36.06,36.06,0,0,0-12,1.39c-3.36,1.07-6.5,2.91-10,3.46-3.79.59-7.13-.88-10.62-2.12a17.39,17.39,0,0,0-4.16-1.21,12.82,12.82,0,0,0-3.73.6c-2.18.54-3.85.78-5.73-.59-1.18-.86-2.17-2-3.31-2.85C1471.41,784.22,1468.5,784.37,1465.2,784.63Zm-11.54.66c1.17-1.33,3.41-.51,5.27.2A16.64,16.64,0,0,1,1453.66,785.29Zm-25.33,44.76a25.16,25.16,0,0,1,6.59-10.12c4.74-4.39,10.61-7.64,14.32-13.06a16.74,16.74,0,0,0,2.89-10.48c-.15-3.37-.74-6.66-.21-9.94a.89.89,0,0,0,.27.15,11.51,11.51,0,0,0,3.43.56,5.88,5.88,0,0,0-3.53,4.14.81.81,0,0,0,.56,1,49.74,49.74,0,0,0,9.36.66,9.71,9.71,0,0,0-2.19,3.24c-1,2.41-1.38,5.05-2.17,7.55a21.38,21.38,0,0,1-9.57,12.38,43.11,43.11,0,0,0-6,4c-1.82,1.52-3.51,3.19-5.28,4.76A23.08,23.08,0,0,1,1428.33,830.05Zm-8.91,17.19a20.33,20.33,0,0,1,5.36-1c1-.07,1.94-.09,2.9-.08,3.28.37,6.5,1.19,9.77,1.68,3.66.55,7.35.54,11,1.33a31.34,31.34,0,0,1,11.81,5.36c.61.44,1.19-.47.75-1l0,0-.11-.08h0l-.17-.12a30.71,30.71,0,0,0-13.08-5.69A85.78,85.78,0,0,0,1430,845a16.31,16.31,0,0,0-1.46-4.21,12.55,12.55,0,0,1-1.09-4.7,13.9,13.9,0,0,1,7.66-3.67,12,12,0,0,1,7.93,2.17c5,3.26,8.34,8.52,11.73,13.28a14.91,14.91,0,0,0,6.41,5.43c2.23,1,4.64,1.62,6.61,3a37.42,37.42,0,0,1-7.59-.8,30.18,30.18,0,0,0-8,0c-4.31.48-8.59,1.14-12.91,1.61-5.55.61-13.12,1.63-17.86-2.11-1.77-1.39-3.59-4.48-2.64-6.8A2.63,2.63,0,0,1,1419.42,847.24Zm-5.18.91a16.28,16.28,0,0,0-.76-2.86,8.72,8.72,0,0,0,3,1.21l1,.18a6.2,6.2,0,0,0-2.31,2.32A4.67,4.67,0,0,1,1414.24,848.15Zm-8.83,30.09a10.25,10.25,0,0,0,1.48,6,108.91,108.91,0,0,0-8.34-7.41c-3.86-3.32-7.67-6.71-11.36-10.22-3.11-3-6-6.1-9-9.15a79.26,79.26,0,0,1-8.32-9.44c-.31-.44-.59-.89-.85-1.33,2-4,.77-8.62,2-13a13.08,13.08,0,0,1,2.22-4.52.8.8,0,0,0,1-.54c.06-.24.1-.49.15-.73a11.41,11.41,0,0,1,3.82-2.5c4.08-1.6,8.59-1.14,12.66.19a33.92,33.92,0,0,1,12.66,7.24c2.83,2.72,4.75,6.52,6.43,10.08a21.14,21.14,0,0,0,2,4.1c.2.33.41.67.63,1a22.58,22.58,0,0,1,.25,5.5,44.1,44.1,0,0,1-2.69,11.82C1408.44,869.55,1405.71,873.6,1405.41,878.24ZM1363.92,901a23.93,23.93,0,0,1-2.39-.27l2.33.14.06,0Zm-3.05-23.68a60,60,0,0,0,9.19,3.25.76.76,0,0,0-.09.18,18.54,18.54,0,0,0-.35,6.66c-.14,1.34-.29,2.68-.43,4-.18,1.65-.28,3.31-.4,5,0,.56-.15,1.12-.23,1.68a2.72,2.72,0,0,1-2.32.89,4.12,4.12,0,0,1-.7-.11c.09-6.25.71-12.48.73-18.73a.81.81,0,0,0-1.62,0,81.9,81.9,0,0,1-.93,9.5c-.29,2.08-.81,4.08-1.15,6.15,0,.25-.08.5-.1.76a19.09,19.09,0,0,1-.6-5.92c.46-4.05,1.28-8.13.33-12.17a.8.8,0,0,0-1.21-.51C1361,877.71,1360.91,877.5,1360.87,877.29Zm10.78,3.66c2.58.64,5.18,1.14,7.79,1.56-1.36,1.22-1.67,3.51-1.74,5.48a4.83,4.83,0,0,0-.46,3.67,13.43,13.43,0,0,0,.5,1.56q.09,1.56.15,3.12a4.68,4.68,0,0,1-1.78,1.62,14.34,14.34,0,0,1-.68-3.6c.2-3.78,0-7.6-.06-11.37a.8.8,0,0,0-1.6,0c0,2.6-.15,5.19-.08,7.79,0,.67,0,2,.19,3.47a32.62,32.62,0,0,1-.54,4.73l-.39.09c-1,.09-1.92.12-2.87.13a2.83,2.83,0,0,1,0-.5,6.48,6.48,0,0,0,.86-1.84c.74-2.62.53-5.49.41-8.17,0-.31,0-.63,0-1A49.73,49.73,0,0,0,1371.65,881Zm11.47,8.92a28.22,28.22,0,0,0-4,.81q0-.9,0-1.8a2.29,2.29,0,0,1,1-.89c1.87-.91,5.62-.79,7.43.73A13.59,13.59,0,0,1,1383.12,889.87Zm-25.24-2.72c.15.65.25,1.31.34,2a23.1,23.1,0,0,0-5-3.5,40.26,40.26,0,0,0-7.6-3.13,7.92,7.92,0,0,1-2.88-1.17c-.34-.31-.21-.07-.1-.27s.9-.5,1.19-.62a11.71,11.71,0,0,1,6.51-.74A9.53,9.53,0,0,1,1357.88,887.15Zm-18-38a11.86,11.86,0,0,1,.07-3.9,3.55,3.55,0,0,1,.29,2.41C1340.17,848.19,1340,848.68,1339.9,849.18Zm-95.5,14.45a10.41,10.41,0,0,1,2.09-.48,18.71,18.71,0,0,0,3-.29c.54-.15.75-1.05.17-1.3h0c.32-.12.64-.23,1-.36a58.47,58.47,0,0,1,8.34-1.14c4.17-.38,8.26-1.17,12.4-1.81,4.44-.68,8.9-1.31,13.33-2.09,4.68-.83,9.31-1.92,13.94-2.95,4.11-.91,8.22-1.81,12.32-2.77,3.33-.78,6.74-1.43,10-2.53,4.75-1.62,9.62-4.13,14.72-4.33a8.32,8.32,0,0,1,1.75.11.7.7,0,0,0,.54.13,4.72,4.72,0,0,1,.53.18,15.69,15.69,0,0,0,.62,9.18c-.12,1-.19,2.08-.27,3.12-.49,6.61-3.36,12.56-9.88,15a43,43,0,0,1-10.32,2c-3.82.41-7.66.64-11.5.84s-7.55.5-11.33.56a57.59,57.59,0,0,1-12.14-1.19c-3.43-.68-7.13-1-10.36-2.4s-5.67-4.29-8.76-6a14.56,14.56,0,0,0-8.23-1.93c-2.59.17-5.13.66-7.72.8a.43.43,0,0,0-.48-.54A9.82,9.82,0,0,1,1244.4,863.63Zm92.39-21.22a13.62,13.62,0,0,0-2.13.13c-5.34.72-10.14,3.18-15.28,4.63-8.22,2.31-16.73,3.83-25.07,5.65-8.67,1.89-17.4,3.1-26.15,4.52-3.89.63-7.73,1.16-11.65,1.55l-1.29.14c2.33-1.22,4.6-2.57,6.89-3.91,5.49-3.22,11.31-5.82,16.94-8.77a22.12,22.12,0,0,0,8.82-8.07,90.6,90.6,0,0,0,5.2-10.78c3.62-8,9.76-15.93,18.42-18.74,8.51-2.77,17.94,2.12,23.39,8.68a12.85,12.85,0,0,1,2.82,5.41,19.47,19.47,0,0,1-.27,7C1336.78,833.9,1335.65,838.33,1336.79,842.41Zm12.4-4.15c3.78,0,6.66,1.82,9.37,4.22a.79.79,0,0,0,.84.76c2.31,2.12,4.6,4.32,7.64,5.32a.94.94,0,0,0,1-.41c0-.06.07-.12.11-.17a62.06,62.06,0,0,0,8.06,9.59c3.34,3.43,6.65,6.91,10.14,10.19q5.48,5.15,11.34,9.86c3.65,2.93,7.29,5.75,10.08,9.56a.63.63,0,0,0,.86.21,5.22,5.22,0,0,1,.25.88c-1.24-.82-2.38-1.77-3.64-2.58a17,17,0,0,0-6.62-2.18c-5.7-1-11.46-1.58-17.18-2.45-7.89-1.2-15.92-3-23-6.92a31.23,31.23,0,0,1-9.21-7.51,54,54,0,0,1-7.6-11.57c-.34-.75-.66-1.55-.94-2.37a19.74,19.74,0,0,1,.4-2.17c.57-2.23,1.4-4.95-.53-6.77a.88.88,0,0,0-.15-.12,8.58,8.58,0,0,1,.37-.82A9.29,9.29,0,0,1,1349.19,838.26Zm-19.28-51.15a276.65,276.65,0,0,1,11.9,25.25c3.31,7.68,6.82,15.56,7.22,24-.27,0-.55,0-.82,0,0,0,0,0,0-.07a.79.79,0,0,0-.51-1.07c-.09-.5-.1-1.23-.16-1.51-.2-1.09-.59-2.15-.89-3.23q-1.15-4.15-2.26-8.33a104.15,104.15,0,0,0-5.77-15.87,102.93,102.93,0,0,0-6-11.72C1332,793.53,1328.67,788.68,1329.91,787.11Zm.75-1.75.66-.08c4.75-.64,8.78-3.44,12.13-6.72a26.43,26.43,0,0,0,2.26-2.5,21,21,0,0,0,1.64,6.06,113.14,113.14,0,0,1,3.92,14.41c1.22,5.16,2.46,10.3,3.53,15.49,1.91,9.19,3.5,18.52,3.71,27.92-.32-.27-.64-.54-1-.79a13.94,13.94,0,0,0-7.45-2.75,30.6,30.6,0,0,0-1.59-11.38,118.71,118.71,0,0,0-4.78-12.5c-3.89-9.19-7.83-18.28-12.84-26.94A.62.62,0,0,0,1330.66,785.36Zm-87,33.12.21-.22a27.84,27.84,0,0,1,4.88-4.7,75.39,75.39,0,0,1,7-4.11c4.25-2.31,8.6-4.4,13-6.39a131.9,131.9,0,0,0,12.48-5.93c7.33-4.3,13.39-10.06,19.44-16,3-2.92,6.23-5.62,10.18-7.15s8.51-.91,12.32-2.92c3.65-1.92,5.81-5.64,8.67-8.46s6.84-4,9.78-6.72a.72.72,0,0,0,0-1,9.47,9.47,0,0,0-1.11-1.17,11.93,11.93,0,0,0-.45-5.12,39,39,0,0,1-1.81-8.21,38.24,38.24,0,0,1,.18-7.41,31.13,31.13,0,0,1,3.4-11c1.81-3.33,4.5-6.37,8.31-7.29,2.85-.7,5.44,0,7,2.47h0a.32.32,0,0,0,.19.28.86.86,0,0,1,.07.1c1.45,2.6,1.74,5.81,1.74,8.74a28.33,28.33,0,0,1-2,10.72c-1.82,4.49-4.44,8.63-6,13.25-1.42,4.3-1.64,8.84-2.33,13.28s-2.17,8.67-5.28,12.09-7.22,6.83-12,7.66-9.86.77-14.53,2.69c-3.89,1.6-7,4.55-9.75,7.67-5.66,6.43-10.41,15.19-19.74,16.39-2.31.3-4.58,0-6.89.09a22.18,22.18,0,0,0-6.73,1.82c-5.2,1.95-10.89,2.14-16.35,2.89A49.16,49.16,0,0,0,1243.65,818.48Zm-17.35,13.68c-.79,1-1.62,1.93-2.41,2.92a121.84,121.84,0,0,0,6.82-11.46c4.16-7.85,8.47-15.77,15.7-21.25,5.52-4.19,10.5-8.71,13.86-14.87a100.14,100.14,0,0,0,5.51-11.61c1.58-4.07,1.86-8.36,2.83-12.58s3.29-8.12,5.28-12c1.87-3.7,3.12-7.6,4.65-11.43,3.11-7.76,7.82-15.47,14.24-20.9a34,34,0,0,1,9.66-5.7,43.37,43.37,0,0,0,5.23-2.29,14.86,14.86,0,0,1,5.64-2c7.76-.8,16.17,3.5,17,11.89.7,6.6-2.64,13.16-1.43,19.72a20.67,20.67,0,0,0,4,9.18c1.72,2,4.22,3.1,6.21,4.78,0,.16,0,.31,0,.46a.53.53,0,0,0,.53.66,49,49,0,0,1-5.09,3.15,21.14,21.14,0,0,0-5.08,4.15,64.12,64.12,0,0,1-4.73,5.16,12.79,12.79,0,0,1-7.12,3,34.41,34.41,0,0,0-6.29,1.12,24,24,0,0,0-5.4,2.6,57.46,57.46,0,0,0-8.9,7.81c-6.25,6.18-13.11,11.8-21.09,15.63-4.25,2-8.64,3.79-12.9,5.82-4.45,2.12-8.82,4.4-13.06,6.92a25,25,0,0,0-5,3.69c-1.35,1.35-2.55,2.83-3.9,4.17a15.84,15.84,0,0,1-4.7,3.09,8.45,8.45,0,0,0-3.68,3,.61.61,0,0,0-.11.37c-.57.48-1.13,1-1.66,1.48A56.42,56.42,0,0,0,1226.3,832.16Zm-8.75,11.19c1.49-1.7,2.89-3.47,4.23-5.28C1220.63,840,1219.37,842.2,1217.55,843.35Z" transform="translate(-62.32 -27.25)"/><path class="cls-4" d="M403.38,858.43a53.25,53.25,0,0,0-6.8-8.87c-.34-.85-.68-1.7-1.05-2.53a37.74,37.74,0,0,0-6.17-9.47c-1-4-1.29-8.17-2.32-12.15a30.34,30.34,0,0,0-6.53-12.73,40.61,40.61,0,0,0-8.81-6.95c-3.17-2-6.58-4.1-8.82-7.19-2.39-3.32-3.66-7.27-5.05-11.06-1.55-4.19-3.48-8.2-5.24-12.3a87.69,87.69,0,0,1-4.15-11.79c-1.31-4.87-2-9.76-4-14.44-3.36-8.1-7.46-16.13-13.67-22.43a39.7,39.7,0,0,0-19.73-11.16,39.18,39.18,0,0,0-12.17-.69c-4,.41-8.18,1.14-11.35,3.79-5,4.19-3.85,11.23-3.32,17a22.5,22.5,0,0,1-.87,9.72A27.47,27.47,0,0,1,282,748.6a33.3,33.3,0,0,0-.36-6c0-.19-.25-1.47-.15-.82a14.81,14.81,0,0,0-.35-1.76c-.24-.88-.51-1.76-.83-2.62a36.16,36.16,0,0,0-2.38-5.27,23.33,23.33,0,0,0-6.7-7.77,11.29,11.29,0,0,0-8.92-2c-3.61.79-6.35,3.63-8.27,6.64a21.29,21.29,0,0,0-2.42,18.24,36.64,36.64,0,0,0,3.12,6.76c-4.51,25.8-2.43,52.28-3.67,78.37-.08,1.48-.17,3-.26,4.45-.24-2.39-.61-4.76-1.06-7.11-1.79-9.31-5.12-18.25-7.37-27.45-.63-2.56-1-5.15-1.53-7.74-.07-.32-.12-.64-.18-1a19.07,19.07,0,0,0,1.47-5.07,17.35,17.35,0,0,0-.26-6.34c1.24-1.34,2.46-2.69,3.63-4.09a36.11,36.11,0,0,0,7-11.65,23.69,23.69,0,0,0,0-14.31c-1.18-3.87-3.12-8-6.13-10.81.33-10.4.24-20.83.64-31.23.18-4.74.41-9.48.65-14.22,1.05,1.21,2.11,2.42,3.12,3.67.08.1.16.21.25.31l.05.06,0,0a7.77,7.77,0,0,1,.48.69c.15,2,2.73,3.67,4.54,1.81a3.09,3.09,0,0,0,.71-1.13c1,.19,2.27-.71,1.89-1.91-1.28-3.94.65-8.15,3.62-10.81.33-.29.67-.55,1-.81a1.52,1.52,0,0,0,1.27-.86,16.76,16.76,0,0,1,9.5-2.45,9.27,9.27,0,0,1,5.89,2.36,27.3,27.3,0,0,1,3.39,4.84A15.45,15.45,0,0,0,289,697.1c2.53,1.32,5.32,1.87,8,2.83,7.46,2.68,14.36,16.66,23.48,9.73a15.92,15.92,0,0,0,2.89-2.91c1-1.29,2.37-2.76,2.45-4.47a7.94,7.94,0,0,0-.18-1.61s0-.2-.06-.39c.38-.15,1.14-.5,1.19-.51a5.91,5.91,0,0,0,1.87-1.07c.9-.8,1.69-1.72,2.6-2.52a27.67,27.67,0,0,0,2.94-2.89,15.6,15.6,0,0,0,3.34-8.12c.89-6.42,0-12.95.58-19.4a25.17,25.17,0,0,1,1.75-7.61,16.93,16.93,0,0,1,5.3-7.07c1.51-1.06.65-3.88-1.34-3.18a43.72,43.72,0,0,0-7.53,3.52,33.91,33.91,0,0,1-6.23,3.12c-5.7,1.91-11.64.45-17.52.7a48.15,48.15,0,0,0-16.21,3.66c-2.93,1.19-5.57,2.35-8.78,2.33-3,0-5.85-.37-8.8,0a23.55,23.55,0,0,0-8.68,3.31,50.26,50.26,0,0,1-4.67,2.54c0-2.62,0-5.23.18-7.85a81.24,81.24,0,0,1,1.3-8.22,3,3,0,0,0-5.8-1.6,32.46,32.46,0,0,0-1.45,8.87,77.2,77.2,0,0,0-.06,9.5c0,.13,0,.27,0,.4-3.21-.13-6.61-1.13-9.76-1.44-.46,0-.91-.07-1.37-.08l.09-5.18c.06-3.22.34-6.46-.57-9.58a2.13,2.13,0,0,0-4.07,0c-.83,2.85-.7,5.74-.8,8.7q-.13,3.6-.38,7.21a9.55,9.55,0,0,0-4.34,4.2c-2.1,3.93-1.51,7.72.37,11.59a33.21,33.21,0,0,0,2.41,4.11l0,.42c-.75,13.28-1.44,26.58-1.44,39.88,0,3.34.08,6.66.29,10a14.85,14.85,0,0,0-2-.26,7.43,7.43,0,0,0,.77-3.58,6.91,6.91,0,0,0-5.33-6.91c-2.82-.67-5.75-.14-8.56.31a107.41,107.41,0,0,1-30.85.79c-9.27-1.23-19-2.22-27.36-6.69-2.35-1.26-4.58-2.69-7-3.85s-5.06-2.24-7.63-3.26c-3.46-1.38-6.94-2.71-10.3-4.3a19,19,0,0,0,4.87-3.07c2.45-2.13,4.12-4.86,5.9-7.53,3.48-5.25,6.54-10.72,12.86-12.81a2,2,0,0,0,1.07-.75L167,686c2.49-.29,2.64-4,0-4a50,50,0,0,1-6.44-.93,23.47,23.47,0,0,0-6.9-.17c-3.42.49-6.26,2.76-9,4.74-2.45,1.8-5,3.37-8.06,3-2.68-.31-5.39-2-8.12-3.06a18.85,18.85,0,0,0-9.8-1.4,16.56,16.56,0,0,0-5.3,1.93,22,22,0,0,1-4.52,2.21c-3.24.89-6.49-1.19-9.46-2.19a16.39,16.39,0,0,0-10.9.44c-4.55,1.58-9.3,4.35-14.07,5.2a18.3,18.3,0,0,0-3.18-1.35,20.91,20.91,0,0,0-7.18-.61,1.88,1.88,0,0,0-.94,3.47,14.68,14.68,0,0,0,10.9,2.86l.47-.07a21.75,21.75,0,0,1,2.19,1.71c3.55,3.19,6.65,6.88,9.94,10.33,3.53,3.72,7.72,6.82,13.11,5.81,2.15-.41,4.2-1.63,6.39-1.73a5.84,5.84,0,0,1,4.32,2.12c2.79,2.87,4.45,6.66,7.28,9.52,3.37,3.41,8.76,4.89,13.45,4.31s8.87-2.71,13.53-2.45c4.21.22,7.76,2.94,11.05,5.29,3.58,2.56,7.26,5,11.66,5.81a38.29,38.29,0,0,0,5.65.62l2.33.11,1,.06.39,0c-.13.2-.25.41-.4.6a26.62,26.62,0,0,1-2.21,2.54c-3.06,3.21-6.5,6-9.6,9.19a43.27,43.27,0,0,0-4.36,5.07c-4.44-1.11-9,.27-13.39,2.14-6.14,2.65-11.48,7.19-16.8,11.16-2.64,2-5.28,3.94-8.06,5.69a28.68,28.68,0,0,1-7.3,3.65c-3.87,1.1-7.88,1.72-11.76,2.84a65,65,0,0,0-11,4.28c-4.42,2.22-8.35,5.18-12.55,7.76a44.09,44.09,0,0,1-13.17,5.66,1.36,1.36,0,0,0,.36,2.65c6.61,0,13-1.91,19.55-2.41a36.14,36.14,0,0,1,17.67,3.09c2.69,1.2,5.29,2.6,7.89,4,2.17,1.15,4.47,2.63,6.91,3.14,4.42,1,7.26-3.17,10.41-5.51.4-.31.83-.57,1.26-.84a2.52,2.52,0,0,1,.4-.21l.05,0c.15-.06.31-.08.46-.13h0c.3,0,.6,0,.9,0a36.59,36.59,0,0,0,5.64.18,16.48,16.48,0,0,0,7.68-2.6c2-1.3,3.79-2.93,5.76-4.29a13.16,13.16,0,0,1,6.8-2.38c0,.09,0,.19,0,.29a18.6,18.6,0,0,0,.09,4,21.83,21.83,0,0,0-6.54.48,2.3,2.3,0,0,0-1.35,3.32c5.41,12.79,8.56,28.81,22.54,35.15a21.24,21.24,0,0,0,4,1.33,15.7,15.7,0,0,0-3.36,1.15c-4.54,2.21-7.82,6.36-11.23,9.93a29.6,29.6,0,0,1-6.33,5.21c-2.46,1.46-5.12,2.82-6.92,5.12-.74.94-1.13,2.55,0,3.44,3.67,2.91,8.62,3.83,13.13,4.6,5.32.9,10.69,1.46,16.06,2,4.73.44,9.22.58,13.72-1.27a17.09,17.09,0,0,0,7.4-5.33,51.33,51.33,0,0,0,.89,8.53c.86,4.67,2.44,9.24,3,14a19.42,19.42,0,0,1-3.27,13.42c-1.43,2.18,1.3,4.31,3.33,3.32,10.88-5.32,23-7.42,34.65-10.73a41.44,41.44,0,0,0-.09,9.77,2.75,2.75,0,0,0,.29.85c0,1.59.07,3.19.14,4.78a3.53,3.53,0,0,0,3.46,3.45c.52,0,1,0,1.55.11h.06a3.9,3.9,0,0,0,2.07.76,8.15,8.15,0,0,0,1.91-.12,11.17,11.17,0,0,0,4.64-.11c4.3-1.21,6.4-5.84,6.5-10a54.73,54.73,0,0,0-.45-6.26,28.84,28.84,0,0,1,.12-6.5,54.81,54.81,0,0,1,1.12-5.82c.64-.42,1.27-.85,1.9-1.31a68.15,68.15,0,0,0,13.91-12.79A21.37,21.37,0,0,0,280.58,878a20.59,20.59,0,0,0,10.1,5.54c4.94,1,9.79-.22,14.75,0,4.48.22,8.63,2.44,13,3.34a29,29,0,0,0,13.11-.25c7-1.84,12.21-6.89,18.46-10.21,9.5-5.06,20.54-5.75,31-5,1.81.12,2.48-2.2,1.4-3.38a15.15,15.15,0,0,0-7.11-4.66,25,25,0,0,0-7.22-.51,26.13,26.13,0,0,1-7.34-.33,13.05,13.05,0,0,1-6.2-3.94c-1.85-1.89-3.38-4.06-5.24-5.94a21.09,21.09,0,0,0-8.06-5c-2.55-.93-5.24-1.38-7.79-2.3a15.32,15.32,0,0,1-6.18-4.49c-6.66-7.43-10.14-17.52-18.35-23.71a22.54,22.54,0,0,0-29.73,2.55c-.33.34-.63.71-.94,1.07,1-2.56,2-5.13,3-7.7,2.21-5.78,4.44-11.64,7.19-17.21,1.6-.33,3.19-.69,4.78-1a27.71,27.71,0,0,1,3.52-.3,18,18,0,0,1,2.78.14,11.37,11.37,0,0,1,2.3.64l.73.38.55.33.41.29a13.91,13.91,0,0,1,3.19,3.79c2.69,4.25,4.51,8.93,7.87,12.76a23.1,23.1,0,0,0,11,6.76,43.76,43.76,0,0,0,8,1.55c3.37.35,6.84-.21,10.18.4a12,12,0,0,1,5.61,2.41,38.55,38.55,0,0,0,6,4.78,19.75,19.75,0,0,0,9.22,2.4c2.78.12,5.62-.15,8.37.35,3.1.57,5.51,2.29,7.86,4.3a50.84,50.84,0,0,1,4.5,4.31,23.81,23.81,0,0,0,3.32,7.08,56.69,56.69,0,0,0,3.92,4.81,25.29,25.29,0,0,0,2.09,4.28,18.51,18.51,0,0,0,5.51,5.28C402.18,863,404.5,860.39,403.38,858.43Zm-195-20.55c-1.73-1.42-3.45-2.92-5.26-4.27a8.28,8.28,0,0,0,2-3.08c2.91-1.84,5.91-3.54,8.78-5.49.58-.4,1.15-.8,1.72-1.22a24.89,24.89,0,0,0,2.14,3.85l1.42,2.12a53.12,53.12,0,0,0-9,7.53l-1.12,1.16Zm15.76-10.66a51.45,51.45,0,0,1-4.67-6.63,29.31,29.31,0,0,0,4-4.72l.36,1.25c.85,3.11,1.59,6.24,2.51,9.32C225.63,826.67,224.88,826.93,224.15,827.22ZM177.3,736.81c0-.07,0-.08,0,0Zm.39,1,.05,0C177.85,738,177.73,737.89,177.69,737.83Zm80.7,62.33c0-10.31-.06-20.62.26-30.93.09-2.88.23-5.76.39-8.64.53.8,1,1.6,1.5,2.44,2.8,5.2,1.61,11.68,2.41,17.33a23.85,23.85,0,0,0,1.21,4.77q-1.08,2.16-2,4.4A98.6,98.6,0,0,0,258.39,800.16ZM238.9,814c1.16,4.69,2.5,9.38,3.55,14.13a21.46,21.46,0,0,0-9.11-2.61c-.46,0-.91,0-1.36,0-1-3.19-1.76-6.45-2.65-9.68a58.61,58.61,0,0,0-1.93-5.93c2.83-3.22,6.07-6.22,8.82-9.51A116.9,116.9,0,0,0,238.9,814Zm-45.09,36a9.55,9.55,0,0,0-.94-7.26,10,10,0,0,0-.68-1,33.25,33.25,0,0,1,4.4-4.79A21.05,21.05,0,0,0,199.5,836c2,1.95,3.9,4.09,5.79,6.14.12.14.25.27.38.41a36.43,36.43,0,0,0-3.11,4.67,26.62,26.62,0,0,0-2.73,7.37C198.64,852.44,196.3,851,193.81,850Zm79-13.21c.13,2.25.46,4.46.8,6.67a11.83,11.83,0,0,0-2.71-1.12l-.36-.08c.12-.39.23-.79.34-1.18.58-1.94,1.22-3.86,1.88-5.77C272.77,835.84,272.79,836.34,272.82,836.83Zm4.54-31.08c-1.94,4.27-3.69,8.64-5.45,13s-3.74,8.94-5.35,13.5c-1.19,3.38-2.21,6.8-3.18,10.23a30.34,30.34,0,0,0-5.95,2.28L257,845c.22-1.68.43-3.37.64-5.05.63-5.09,1.22-10.18,1.91-15.25a194.93,194.93,0,0,1,6.33-30.94c.34-1.11.72-2.2,1.11-3.28a15.36,15.36,0,0,0,5,4.34,18.81,18.81,0,0,0,9.84,2C280.21,799.68,278.75,802.7,277.36,805.75Z" transform="translate(-62.32 -27.25)"/><path class="cls-5" d="M220.52,711.87a25.79,25.79,0,0,1-3.16-.3l-.85-.18c.82-.26,1.67-.45,2.5-.65,4.4-1.06,9.19-2.43,9.71-7.68a8.36,8.36,0,0,0-2.83-7.22,6.91,6.91,0,0,0-6.19-1.67,16.88,16.88,0,0,0-2.35-6.73c-3.57-6-9.55-10.24-15.91-12.87-6.81-2.8-13.94-2.42-21.06-1a34.08,34.08,0,0,0-11.87,4.6c-3.87,2.52-6.51,6-9.07,9.79-1.4,2.08-2.91,4.1-4.41,6.11-1.67,2.21-3,4.7-4.52,7s-2.79,4.38-5.32,5.54c-2,.91-4,1.48-5.74,3a1.34,1.34,0,0,0,.58,2.21c3,1,6.09,1.38,9.09,2.29,3.31,1,6.17,3.25,9,5.12,5.27,3.43,10.39,6.61,16.54,8.19s12.17,1.71,18.26,2.75c3.11.54,6.2,1.14,9.34,1.49a52.39,52.39,0,0,0,9.7,0c6.43-.48,12.79-1.6,18.66-4.34,1.78-.82,4.18-1.45,5.23-3.25,1.22-2.07.64-5.11-.58-7C232.27,712.23,225.54,712.12,220.52,711.87Zm-5.83-1c-.09,0,0-.12,0-.06S214.68,710.79,214.69,710.83Z" transform="translate(-62.32 -27.25)"/><path class="cls-5" d="M324.22,621.17a9.72,9.72,0,0,1-6.58-1.37c-2-1.29-3.44-3.18-5.26-4.66-4.2-3.41-9.89-3.32-15-3.47a45.44,45.44,0,0,0-17.61,3,49.7,49.7,0,0,0-7.93,3.87c-1.14.69-2.3,1.43-3.4,2.24a14.78,14.78,0,0,0,0-11.24A18.15,18.15,0,0,0,249,598.24c-1.74.26-4,.92-5.74.31-1.12-.39-1.87-1.77-2.83-2.47a6.74,6.74,0,0,0-5.12-1.11c-2.24.27-4.5.44-6.74.7-4.94.59-9.77,1.84-14.76,2a32.07,32.07,0,0,1-14-2.63c-1.11-.47-2.63.59-1.83,1.83,4.11,6.33-1.47,12.86-1.48,19.4,0,3.2,1.58,6,1.91,9.16.36,3.46-1.27,6.71.07,10.11,1.18,3,3.79,5,6.07,7.11,2.71,2.56,5.08,5.41,7.65,8.11a15.2,15.2,0,0,0,7.13,4.5c1.38.36,2.81.48,4.21.76a20.94,20.94,0,0,0,4.58.74c3.44-.07,5.88-2.34,7.8-4.95.9-1.22,1.72-2.5,2.65-3.69a7,7,0,0,1,2.78-2.62,1.84,1.84,0,0,0,.55.41,12.85,12.85,0,0,0-2.48,2.28c-1.64,2-3.51,5.95-1.14,8.15,2,1.82,5.07.38,7-.76,3.09-1.84,5.57-4.59,9-5.9a17.25,17.25,0,0,1,6.69-.91c2.24.05,4.47,0,6.71,0a35.75,35.75,0,0,0,6.78-.39,28.76,28.76,0,0,0,5.94-2.1,101.56,101.56,0,0,0,11.42-5.37c3.59-2.16,6-5.16,8.58-8.35a16.85,16.85,0,0,1,11.62-6.65c4.38-.47,9.16.7,13.09-1.91C326.15,623.26,325.85,621,324.22,621.17Zm-60.79,10.69c.82,1.66,2.65,2.71,3.69,4.2a14.31,14.31,0,0,1-4.13.51,24.36,24.36,0,0,0-6,.73,33.63,33.63,0,0,0-8.56,3.89,17.52,17.52,0,0,1,2.67-2,48,48,0,0,0,9.78-8c.67-.71,1.34-1.43,2-2.17A5.69,5.69,0,0,0,263.43,631.86Z" transform="translate(-62.32 -27.25)"/><path class="cls-5" d="M304.08,698.55c-1.51-1-3.25-1.56-4.81-2.45a8.51,8.51,0,0,1-3.28-3.76,46.12,46.12,0,0,0-5.93-9.09,10.89,10.89,0,0,0-4.16-3.14,13.73,13.73,0,0,0-5.18-.64,37.72,37.72,0,0,0-9.92,1.28,20.7,20.7,0,0,0-12.41,11.77c-2.51,6-1.9,12.92,2.61,17.7a1.82,1.82,0,0,0-.88.63c-2.06,2.53-2.06,5.56.55,7.71s6.22,3.09,9.5,3.8a101.64,101.64,0,0,0,10.12,1.52,25.17,25.17,0,0,0,3.78.24,12.84,12.84,0,0,0,7.05-2.51c2.71-1.91,5.12-3.92,8.59-4,3.7-.11,7.33,1,11,.49a1.81,1.81,0,0,0,1.75-1.75C312.81,709.79,309.66,702.23,304.08,698.55Z" transform="translate(-62.32 -27.25)"/><path class="cls-3" d="M211.48,700.51c-2.25-3.32-4.62-7-7.81-9.46-2.3-1.8-4.91-.55-4.95,2.36,0,3.55,2,7.22,3.62,10.28A51,51,0,0,0,208.2,713c.83,1,2.49.35,2.82-.74h.12a2.11,2.11,0,0,0,1.54,2h0a2.32,2.32,0,0,0,.51,0h0c1.41,0,2.73-1,3.79-1.8a2.1,2.1,0,0,0,.32-2.54C215.48,706.76,213.57,703.58,211.48,700.51Z" transform="translate(-62.32 -27.25)"/><path class="cls-3" d="M247.08,635.8c-.42-1.46-.81-2.92-1.19-4.39-.77-3-1.51-6-2.39-9-1.73-5.89-4-11.78-7.92-16.57a1.88,1.88,0,0,0-2.92.38c-3.48,5.41-1.22,13,.9,18.52a58.75,58.75,0,0,0,4.7,9.59c1.46,2.39,3.13,5.27,5.55,6.79a1.38,1.38,0,0,0,.86.21l0,.07c1.08,2.13,4.12.58,3.68-1.55C248.1,638.49,247.47,637.16,247.08,635.8Z" transform="translate(-62.32 -27.25)"/><path class="cls-3" d="M276.14,612.13a2.1,2.1,0,0,0-2.91,0c-3.66,3.1-5.5,8.29-6.51,12.83s-1.43,10,.73,14.23a1.22,1.22,0,0,0,2.24-.32,1.85,1.85,0,0,0,1.59-.14l0,.07a2.66,2.66,0,0,0,.46-.35l0,0,0,0a4.35,4.35,0,0,0,.92-1.6c.29-.81.57-1.62.85-2.44.86-2.5,1.69-5,2.4-7.57a45.83,45.83,0,0,0,1.66-8.36C277.75,616.27,277.64,613.88,276.14,612.13Z" transform="translate(-62.32 -27.25)"/><path class="cls-3" d="M271.68,638.49c-.29.32-.09.09,0,0Z" transform="translate(-62.32 -27.25)"/><path class="cls-3" d="M273.58,695.43c-1.77,2.48-3.91,4.68-5.68,7.17a15.5,15.5,0,0,0-2.66,8.39.84.84,0,0,0,1.65.23c.05-.21.11-.42.17-.62l.15-.06a2.11,2.11,0,0,0,3.92-.23.31.31,0,0,0,0-.11l0-.06c.1-.2.19-.41.3-.61a16.55,16.55,0,0,1,.92-1.43c.8-1.17,1.64-2.31,2.39-3.51,1.64-2.66,2.76-5.56,2.2-8.72C276.68,694.13,274.42,694.26,273.58,695.43Z" transform="translate(-62.32 -27.25)"/><path class="cls-6" d="M190,844.88a.4.4,0,0,0,0-.79.4.4,0,0,0,0,.79Z" transform="translate(-62.32 -27.25)"/><path class="cls-6" d="M402.27,851.82a92.42,92.42,0,0,1-14.18-20.4c-3.7-6.89-7.24-14-12.8-19.61-2.76-2.78-6.05-4.91-9-7.48a37.64,37.64,0,0,1-7-8A85.69,85.69,0,0,1,353.52,785c-1.91-4.26-2.57-8.53-3.4-13.08a41.89,41.89,0,0,0-4.5-11.79,134.35,134.35,0,0,1-5.39-12.45,68.58,68.58,0,0,0-5.9-11.26,48.47,48.47,0,0,0-7.7-9.71,31.24,31.24,0,0,0-8.94-6.12c-1.37-.59-2.78-1-4.18-1.49a1.93,1.93,0,0,0,.72-2.5,17.12,17.12,0,0,0-1.15-2,28.66,28.66,0,0,1-1.63-4,17.18,17.18,0,0,0-2.89-5.38,15,15,0,0,0-2-1.94c3,2,4.2,5.88,6.76,8.34s6.11,3.05,8.89.7c3.08-2.6,2-5.92,1.24-9.26a15.51,15.51,0,0,0,6.81-4.06,23.78,23.78,0,0,0,4.68-9.4,31,31,0,0,0,.77-12.57,73.06,73.06,0,0,1-.24-13.31c.27-4.66,2.19-8.28,4.57-12.19.44-.72-.55-1.43-1.15-.88-3.46,3.2-8.91,4-13.41,4.6-2.12.28-4.28.39-6.39.73a45.34,45.34,0,0,0-8.18,2.63c-2.53.94-5.74,2.32-8.49,1.86a16.62,16.62,0,0,1-3.45-1.33,15,15,0,0,0-4.18-1c-2.5-.26-5.7-.22-8,1-1.85,1-2.85,3-4.77,3.9-2.25,1-5.1.83-7.52,1.17a33.63,33.63,0,0,0-8.58,2.08c-.2.08-.37.17-.56.26,0-.11,0-.23,0-.34.35-3.23.42-6.53.93-9.74.44-2.73,1.12-5.44,1-8.21.57.07,1.15.12,1.73.15a8,8,0,0,0,5.24-1.14,21.28,21.28,0,0,1,5.57-2.86,67.64,67.64,0,0,0,10.37-4.12,21,21,0,0,0,7.75-7,11.27,11.27,0,0,1,4.67-4.28,35.17,35.17,0,0,1,7.42-2.41,25.65,25.65,0,0,1,8.2-.34c2,.2,4.4,1,6.4.3a.69.69,0,0,0,.41-1c-1-1.31-3.1-1.16-4.57-1.16a15.36,15.36,0,0,1-2.88-.1,2.93,2.93,0,0,1-2.35-2.46,12,12,0,0,0-3.24-5.67,14.71,14.71,0,0,0-5.93-3.17c-5.21-1.54-10.89-1.14-16.16-.08-3.87.77-8.05,2-11.08,4.69a8.25,8.25,0,0,0,1.09-4.16,2.35,2.35,0,0,0-2.42-2.17c-1.44.14-2.58,1.54-3.4,2.6a22.29,22.29,0,0,0-3.74,7.68,4.75,4.75,0,0,0-2.44,2.24,26.79,26.79,0,0,0-2.2,4.13c-1.09,2.47-2.15,6.22-.36,8.62a3.46,3.46,0,0,0,2.57,1.34,2.19,2.19,0,0,0,.39.58s.08.07.11.11c-1.08,0-2.17-.06-3.25-.11a24.94,24.94,0,0,0-6.62.53l-.12,0-1.24.21a20.87,20.87,0,0,0-6.24,2.47q-1.91.92-3.75,2c-.06-.25-.12-.49-.17-.72a2.81,2.81,0,0,0,.38-.2c.82-.52,1-1.55,1.43-2.34a15.29,15.29,0,0,1,3.85-4.05c4.87-4,11-7.09,14.86-12.26,1.84-2.48,3.14-5.56,2.63-8.69a16.77,16.77,0,0,0-4.49-8.62c-2.18-2.24-5.07-3.49-7.95-4.56-3.73-1.39-7.43-3.16-11.45-3.44a15,15,0,0,0-6.1.57c-2.17.77-4.18-.06-6.24-.9a28.91,28.91,0,0,0-6.18-2.11,23.15,23.15,0,0,0-6.44.05,44.93,44.93,0,0,0-6.92,1.31,29.37,29.37,0,0,1-6.68,1.37c-1.95.08-5.76.39-7.42-1.17a4.25,4.25,0,0,0-.63-.82.69.69,0,0,0-1.09.83,3.52,3.52,0,0,0,.58.78,8.57,8.57,0,0,1,.74,3.14,11.58,11.58,0,0,1-.15,4.11c-.48,1.74-1.56,3.26-2.13,5a16.31,16.31,0,0,0-.91,6.19c.28,4.25,2.07,8.12,3.35,12.12,1.06,3.3.69,7.07,2.64,10.07s5,5.31,7.44,7.92c2.29,2.41,4.07,5.38,7,7,4.45,2.48,10.86,3.2,15.45.71,4.85-2.64,5.62-10.39,11.14-11.39a.85.85,0,0,0-.09.52,6.25,6.25,0,0,0,.63,1.92,8.18,8.18,0,0,0-4.2,4.79c-.51,1.51-.9,4.43.25,5.75,1.92,2.2,4.07-2.52,4.57-3.66a10.8,10.8,0,0,1,.55-1.07c-.51,2.18-.26,4.9-.43,6.59-.3,3-.82,5.87-1,8.85,0,.23,0,.46,0,.69a7.14,7.14,0,0,0-3.71.62,6.9,6.9,0,0,0-3.72,4.91,9.07,9.07,0,0,0,1.89,6.48,40,40,0,0,0,4.83,5q-.54,16.8-.63,33.62c0,7.39-.09,14.79.26,22.17a17.19,17.19,0,0,0-2.47-2.27,13.28,13.28,0,0,0-2.92-1.64,5,5,0,0,0,.28-.85c.51-2.55-1.19-4.89-2.64-6.81a15.63,15.63,0,0,0-3.46-3.8,7.25,7.25,0,0,0-.41-9.19c-3.1-3.54-7.33-2.91-11.5-3.17a12.92,12.92,0,0,1-1.94-.21.8.8,0,0,0-.49-.77c1.21-1,2.83-1.18,4.33-1.48a9,9,0,0,0,4.09-1.82c1.86-1.53,4.21-4,4.16-6.6-.05-2.2-1.85-4.1-3.49-5.36s-4.11-2.6-6.37-2.29a2.6,2.6,0,0,0-1.08.4,13.9,13.9,0,0,0-1.48-4.75c-2.94-5.62-8.75-10-14.62-12.09s-12.57-2.22-18.85-1.35a36.92,36.92,0,0,0-16.37,6.82c-6.85-1.75-13.13,1.54-19.54,3.65a32.92,32.92,0,0,1-11.43,2.08c-3.77-.16-7.16-2.16-10.84-2.81-3.21-.57-6,.05-9.08.89a11.34,11.34,0,0,1-4.74.38c-1.72-.28-3.39-.84-5.12-1.12-6.81-1.08-13.2,2.5-19.64,4-4.08,1-8.79,1.56-12.94.76-3.42-.66-6.83-2.19-10.37-1.53-.69.13-.63,1-.18,1.34,1.64,1.22,3.61,1.24,5.57,1.27,2.67,0,4.74.39,6.57,2.5,1.64,1.87,3,4,4.71,5.8a36.15,36.15,0,0,0,6,4.71c4,2.81,8.24,5.62,13.36,4.75,2.72-.47,5.36-1.51,8-.19a9.5,9.5,0,0,1,4,4.49c1.9,3.77,3.12,7.59,6.8,10.07s8.23,2.83,12.41,2a24,24,0,0,0,6.47-2.36,9.21,9.21,0,0,1,3.71-1.27,8.07,8.07,0,0,1,3.9,1.26,18.18,18.18,0,0,0,6.46,2.48c2.53.32,5.46.06,7.65,1.6s2.47,4.28,3.73,6.38a7.93,7.93,0,0,0,5.37,3.58,17,17,0,0,0,7.14.29c1.56-.34,3.19-1.2,4.84-1.62-.86.62-1.71,1.26-2.54,1.92-2.88,2.26-5.75,4.56-8.57,6.9a35.6,35.6,0,0,0-10.81,14.19c-5.64-2-12.09,1.81-16.77,4.66-6.86,4.18-13.42,8.57-20.89,11.62-7,2.87-14.33,5-21.48,7.55-5.9,2.09-12.39,4.26-17.38,8.16-2.29,1.79-4.47,3.73-6.9,5.34-.6.4-1.3.85-2,1.25a18.27,18.27,0,0,1-5.46.69.56.56,0,0,0-.27,1c2.26,1.07,4.75.31,7-1l3-.87a30.54,30.54,0,0,1,5.27-1.22c1.89-.22,3.82-.21,5.71-.26a58,58,0,0,1,12.07.62c3.67.67,6.91,2.32,10.4,3.55a16.67,16.67,0,0,0,10,.56,33.25,33.25,0,0,0,4.19-1.51,21.53,21.53,0,0,1,4.51-1.63,9.9,9.9,0,0,1,3.72.59,7.4,7.4,0,0,0,5,0c2.55-1.09,4.06-3.61,6.5-4.86a6.61,6.61,0,0,1,1.92-.61l-.13.06a.82.82,0,0,0,.41,1.52c2.9.17,5.81-.16,8.72,0,2.49.17,5.63.67,6.8,3.06-3.7.49-7.57.86-11.22-.06-.9-.23-1.54,1.1-.65,1.55a8.9,8.9,0,0,1,4.74,5.58c.79,2.47,1.18,5,2,7.51a23.14,23.14,0,0,0,9.23,11.91,66.44,66.44,0,0,1,6.63,4.3c1.92,1.59,3.71,3.34,5.61,4.95a22.77,22.77,0,0,0,9.74,5.29,16.1,16.1,0,0,1,.34,1.92c-4.63-3.46-10.41-4.19-15.51-1.28-4.87,2.78-8.39,7.56-11.58,12-.95,1.33-1.81,2.77-2.84,4.05a11.59,11.59,0,0,1-4.2,3.12c-2.87,1.36-6.11,2.1-8.31,4.56a.69.69,0,0,0,.49,1.16c2.57.3,5-.27,7.53-.7a31.31,31.31,0,0,1,8.64-.37c4.44.44,8.84,1.22,13.27,1.75,6,.72,13.88,1.88,19.11-1.93,2.34-1.7,4.06-5.18,3.46-7.86a4,4,0,0,1,1.27,1.74c.12.31.47.62.83.47a4.43,4.43,0,0,0,.86-.46,33.5,33.5,0,0,0,.72,8.7,51.34,51.34,0,0,0,2.62,8.82c1.51,3.77,4.07,7.58,3.88,11.78-.18,3.93-4,6.41-3.48,10.47a.9.9,0,0,0,1.33.76,53.69,53.69,0,0,0,4.72-3.21,15.86,15.86,0,0,1,6.5-2.21c5.61-1,11.27-1.56,16.9-2.4l.38-.07a.6.6,0,0,0,.29.49c1,.61,1.14,2.13,1.26,3.24a6.06,6.06,0,0,0-1.68-.59c-2.82-.53-6.86,0-8.64,2.52a.88.88,0,0,0,.13,1.06c2.66,2.41,6.67,1.75,9.9,2.85a7.1,7.1,0,0,0-.49,2.42,6.59,6.59,0,0,0-.26,1.07,3.49,3.49,0,0,0,.86,2.94,2.62,2.62,0,0,0,.17,1.17c-1-.11-2-.21-3-.29-4.76-.36-9.55-.11-14.32-.5a44.7,44.7,0,0,1-11.57-2.45c-1.77-.63-3.54-1.29-5.35-1.8a6.83,6.83,0,0,0-3.76-.38c-1.37.46-.78,2.63.6,2.17.9-.3,2.31.31,3.17.58,1.66.5,3.28,1.11,4.9,1.69a42.24,42.24,0,0,0,11.19,2.33c5,.4,10,.07,14.93.39,4.29.27,8.55.92,12.85,1.17s8.9.12,13-1.66a1,1,0,0,0,.82-.66l0-.06a.73.73,0,0,0-.21-.84.88.88,0,0,0-.42-1.43,2.6,2.6,0,0,0-1.86.62v0a20.64,20.64,0,0,0,.36-7.11,20,20,0,0,1,6.85-5.21c2.64-1.32,5.47-2,8.16-3.12.89-.38,2.14-1,2.23-2.08s-1.16-1.82-2.07-2.21c-5.87-2.51-12.73-.58-15.54,4.92,0-.4,0-.8.05-1.2a14,14,0,0,0-.62-6.21l-.07-.12c.68-.35,1.37-.69,2-1.08a32.31,32.31,0,0,0,9.43-8A60.08,60.08,0,0,0,276,864a26.37,26.37,0,0,0,.58,4.52,17.12,17.12,0,0,0,4.38,8.09c4.78,4.81,12.06,5.38,18.45,6,4,.38,8,.59,12,.8s8,.56,12,.43a97.16,97.16,0,0,0,13.15-1.71c4.14-.7,7.81-1.6,11.21-4.17,3.23-2.45,6.37-5.17,10.62-5.41,3.56-.2,7.07.78,10.65.68a.89.89,0,0,0,.87-1,4.69,4.69,0,0,0,4.67-.69.93.93,0,0,0-.18-1.44,11.17,11.17,0,0,0-4.28-1.43l0,0h0a22.47,22.47,0,0,0-3.43-1.19,83.25,83.25,0,0,1-11.07-5.95c-5.07-3-10.43-5.5-15.68-8.2a27.61,27.61,0,0,1-6.25-3.89,21.78,21.78,0,0,1-3.95-5c-2.15-3.62-3.57-7.6-5.3-11.42-3.63-8-10.06-15.57-18.51-18.61-8.68-3.13-17.88,1.14-24.15,7.23-3.37,3.27-5.58,7.19-5.14,12,.49,5.33,3.17,11.11,1.57,16.43-.2,0-.39.1-.59.16a10.41,10.41,0,0,0-6.85-5.89,10.26,10.26,0,0,0-1.1-.24,1.4,1.4,0,0,0,.28-.51,12.84,12.84,0,0,0,.31-1.94,30.52,30.52,0,0,1,.83-3.26c1.4-5.12,2.55-10.39,4.4-15.38a143,143,0,0,1,6.94-15.42c1.41-2.74,3.2-5.26,4.59-8,1-2,2.29-5.17,0-6.57,4.58.5,9.31.8,13.4,3.07,8.13,4.51,11.9,13.87,19.06,19.49a18.51,18.51,0,0,0,12.27,3.76c2.71-.07,5.13-.3,7.76.59a52.54,52.54,0,0,0,7.64,2.42c5.87,1.05,11.85,1.42,17.68,2.76A42.1,42.1,0,0,1,379,831.54a36,36,0,0,1,6.16,5c1.75,1.85,3.28,3.89,4.9,5.85a48.36,48.36,0,0,1,3.63,5,18.18,18.18,0,0,0,3.47,4.42,6.36,6.36,0,0,0,4.5,1.58A.94.94,0,0,0,402.27,851.82Zm-124-118.64c-2.13-6.34-7.32-14.07-14.94-13.26a2.67,2.67,0,0,0,.17-.84V719a7.12,7.12,0,0,0,1.6.49c2.33.47,4.69.83,7,1.37,2.58.59,5,1.56,7.49,2.36,1.21.38,3.26,1.14,4.81.87-1.54,6.69-.21,13.77.45,20.49a29.07,29.07,0,0,1-.1,7.1.4.4,0,0,0,.08.31,16.56,16.56,0,0,1-2.17,4,16,16,0,0,1-4.3,3.32c-.43.26-.84.54-1.24.84a28.89,28.89,0,0,1,1.67-6,31.11,31.11,0,0,0,1.29-8.41A36.71,36.71,0,0,0,278.27,733.18ZM249.43,854c-.08-.13-.16-.26-.23-.39a11.65,11.65,0,0,0,1-3.33,8.89,8.89,0,0,0,.32,2,.84.84,0,0,0,1.39.37,12.66,12.66,0,0,0,3.48-7,16.5,16.5,0,0,0,.78,2.72.13.13,0,0,0,.08.08c0,.14,0,.28,0,.43C254.11,850.87,252.06,853,249.43,854Zm-60.75-1.75a9.21,9.21,0,0,0,1.91-4.7c.12-.63.21-1.25.3-1.88,1.46,2.08,2.32,4.45,3.67,6.58A20.33,20.33,0,0,0,188.68,852.27Zm1.74-11.08c0-.53-.09-1.05-.14-1.58l.73.07A15.25,15.25,0,0,0,190.42,841.19Zm-2,9.34c.15-.36.31-.71.48-1.07A5.79,5.79,0,0,1,188.39,850.53Zm8.2,1.68c-.84-.71-1.3-2.27-1.78-3.22a26.2,26.2,0,0,0-3.55-5.53,13.9,13.9,0,0,1,1.22-3.76,15.29,15.29,0,0,0,7.77-2.53,9.11,9.11,0,0,0,2.59-2.93,11.47,11.47,0,0,1,1.73-2.45,5,5,0,0,1-2,3.11.84.84,0,0,0,.37,1.4c1.91.66,2.9,2.51,4.09,4-1.28,2.17-1.76,4.56-2.46,7-.79,2.76-2.27,4.42-5.15,5C198.6,852.49,197.34,852.84,196.59,852.21Zm-3-14.29a24.15,24.15,0,0,1,7.38-5.77c.63-.35,1.27-.69,1.92-1-.82,1-1.4,2.27-2.21,3.35C199.15,836.51,196.17,837.58,193.6,837.92Zm12.88,10.29a.73.73,0,0,0-.35-.09c.82-2.53,1.17-5.14,2.68-7.43a.86.86,0,0,0-.14-1c-1.36-1.57-2.34-3.35-4.07-4.41,1.31-1.45,2.09-3.07,1.44-5.16a.85.85,0,0,0-.28-.4c1.91-.9,3.84-1.75,5.78-2.59,1.62-.7,3.25-1.41,4.87-2.15l1.15-.51c0,.09.06.18.09.28.48,2.13.92,4.56,2.37,6.1,0,.19.1.37.14.56.08.38.52.34.7.08a.48.48,0,0,0,.5-.15c1.34-1.68,1.27-3.72.62-5.69a15.11,15.11,0,0,0-1.34-2.92l0-.08.3-.24a13.27,13.27,0,0,0,3-5.58c.2.93.47,1.81.67,2.53.57,2,1.24,3.88,1.88,5.82a17.23,17.23,0,0,1,1.24,4.6.43.43,0,0,0,.86,0c.36-3-1-6.15-1.85-8.93a40.71,40.71,0,0,1-1.23-5.1,6,6,0,0,1,0-2.92c3.15,4.19,2.11,10.39,3.94,15.13a5,5,0,0,0,1.1,2,34.66,34.66,0,0,0-4,.89c-.83.22-1.66.47-2.47.76a31.55,31.55,0,0,0-9.93,5.42l-.5.37a19.2,19.2,0,0,0-5,5.91c-.28.51-.52,1-.75,1.56s-.51,1.06-.73,1.62a.09.09,0,0,0,0,.09Zm13.12-24.84c.29.5.56,1,.8,1.52.66,1.48,1.26,3.42.51,4.94a23.83,23.83,0,0,0-1.95-6.08C219.18,823.63,219.39,823.5,219.6,823.37Zm20.7,8.31a1.86,1.86,0,0,0,.26-.23,4.07,4.07,0,0,0,.63-.94c.11.69.22,1.38.34,2.07l-.11-.09C241.05,832.2,240.68,831.93,240.3,831.68Zm-4.11-35.83c.18-.26.36-.53.55-.79,1.46,1.51,1.91,4.25,2.24,6.11a71.58,71.58,0,0,1,.87,10l.06,1.78c-.47-1.65-.94-3.31-1.33-5-.53-2.3-1.21-4.56-1.71-6.87A17,17,0,0,1,236.19,795.85Zm7.28,38.29a74.84,74.84,0,0,1-1.31-8.72c0-.11,0-.23,0-.34a26.47,26.47,0,0,0-.35-4.17c-.22-3.78-.33-7.57-.52-11.32-.05-1-.1-2-.18-3,.2,1.24.4,2.47.64,3.71,1.15,5.95,2.48,12,2.54,18.08C244.32,830,244.4,832.54,243.47,834.14Zm-4.25-42.74c.13,2.52.45,5,.8,7.54a10.59,10.59,0,0,0-2.44-5.11C238.14,793,238.68,792.22,239.22,791.4Zm-4.42,6.49c0,.08,0,.16,0,.24a44.05,44.05,0,0,0,1.32,6.42c1.22,4.59,2.56,9.18,3.62,13.81.17.73.33,1.46.46,2.21.1,1.81.24,3.61.42,5.41,0,.26,0,.51-.06.77a7.74,7.74,0,0,1-.94,3.42c-.47.6-.75.37-1.41.06a11.89,11.89,0,0,0-4.94-1.39c-.41,0-1.29.23-1.66,0-.56-.27-.84-1.57-1-2.08-1.8-5.25-.78-11.21-4.52-15.74l.08-.16c1-1.77,2.33-3.4,3.46-5.11C231.36,803.16,233.05,800.51,234.8,797.89Zm21.4-42.31a52.54,52.54,0,0,0,1.14-9.68c.16.35.3.7.43,1.06a8,8,0,0,1,0,4.2c-.71,3.61-1.38,7.2-1.9,10.84-1.05,7.35-.94,14.68-1.07,22.09-.25,14.38-2.21,28.69-3.24,43,.1-3.92.2-7.84.46-11.76.54-7.91.75-15.79.87-23.73s.81-15.75,1.44-23.65A78.6,78.6,0,0,1,256.2,755.58ZM249,848.41a4.31,4.31,0,0,1-.32.4.47.47,0,0,0,.22.76,11,11,0,0,1-.51,2.24c-1.06-3.43-.41-7.26-1.25-10.84a17.08,17.08,0,0,1,1.39,3.57A13.57,13.57,0,0,1,249,848.41Zm7.2-.74c-.7-3.7-.25-7.7,0-11.41A135.68,135.68,0,0,1,258,822.63c1.76-9.51,4.13-18.94,6.44-28.33q1.77-7.2,3.76-14.35a5.5,5.5,0,0,1,1.11,3.47,22.61,22.61,0,0,1-1.87,6.48c-1.75,4.53-2.61,9.27-3.73,14-2.33,9.78-4.71,19.53-6.16,29.48A127,127,0,0,0,256.23,847.67Zm10.91-69.74c-2.9,9.48-5.08,19.16-7.32,28.81a203.35,203.35,0,0,0-4.25,22.73c.05-2.8.21-5.61.37-8.4.43-7.46,1.33-14.86,2-22.3s.95-15.12,1.41-22.68c.24-4.11.51-8.22,1-12.3.41-3.19.94-6.37,1.3-9.57a33.77,33.77,0,0,1,2.27,6.27c1.08,4.48,1.16,9.12,2.16,13.6a23.34,23.34,0,0,0,1.13,3.61A.84.84,0,0,0,267.14,777.93Zm-9.26-5.23c-.52,7.36-.75,14.74-1.29,22.1-1,13.44-3.2,26.86-2.61,40.38.22,4.79.77,10.86-2.18,15-.17-2.44.59-5,.71-7.4.19-3.8.21-7.61.42-11.41.43-7.67,1.16-15.31,1.85-23,.7-7.81,1.43-15.64,1.6-23.48.17-7.53,0-15,1-22.51.59-4.11,1.63-8.18,2.15-12.29,0-.11,0-.21,0-.32.26.51.51,1,.76,1.53C259.77,758.48,258.38,765.53,257.88,772.7Zm-2.6-38a29.59,29.59,0,0,0,1.14,7.36.9.9,0,0,0-.54.72c-.3,3.93-.25,7.92-1.16,11.77A76.44,76.44,0,0,0,253,764.66c-.76,7.47-1.48,15-1.72,22.46s-.19,15.07-.63,22.59c-.44,7.73-.76,15.4-.83,23.14,0,2.91.08,5.78.18,8.68a30.55,30.55,0,0,1,0,4.08,22.12,22.12,0,0,0-5.3-10c-.06-.08-.11-.17-.17-.24a9,9,0,0,0,1.27-4.21,38.9,38.9,0,0,0-.37-9c-.72-5.65-2.15-11.17-2.89-16.81-.71-5.4-1.7-10.83-1.83-16.29a64.36,64.36,0,0,0,6.41-13.26,44.76,44.76,0,0,0,1.81-21,33.23,33.23,0,0,0-2.38-8.36c.17-6.14.73-12.27.86-18.41.14-6.86,0-13.72,0-20.57-.06-6-.22-11.91-.3-17.85a32.22,32.22,0,0,1,2.22,3.85c1,2.1,1.77,4.3,2.82,6.38.87,1.76,2,3.78,3.86,4.64a.74.74,0,0,0,1-.26,7.64,7.64,0,0,0,.68-4c0-.33,0-.67,0-1A12.55,12.55,0,0,0,258,702a20.24,20.24,0,0,0,2.11,4.64c-.35,1.47-.64,3-.88,4.48a2.74,2.74,0,0,0-.48,1.45,3.61,3.61,0,0,0,.12,1.09,64.23,64.23,0,0,0-.44,8.63C255.66,725.4,255.16,730.86,255.28,734.75Zm-9.77-65.21.6.16c-.38,5.2-.56,10.38-.46,15.62v.11l-.73-.83c0-.52,0-1.05.05-1.58C245.12,678.53,245.24,674,245.51,669.54Zm2,.68c2.41,1,4.69,2.67,7.09,3.38,2.21.66,4.1-.22,5.79-1.61l1.32-1.11c-.16,2.6-.29,5.2-.35,7.8a46.89,46.89,0,0,0,.12,6.6c0,.37.61.39.6,0a48.9,48.9,0,0,1,.25-5q.27-4.39.63-8.79l.15-1.78c.19-.15.38-.3.58-.44-.24,2.17-.45,4.34-.55,6.53-.14,3-.16,6.09-.26,9.14-.11.13-.21.27-.32.41-3,1-4.91,4.93-5.83,7.61a15.33,15.33,0,0,0-.51,5c0,1.38.32,3.39-.17,4.84a10.22,10.22,0,0,1-2.76-3.88c-.93-1.89-1.66-3.88-2.54-5.8a33.16,33.16,0,0,0-3.66-6C247,681.49,247.09,675.85,247.46,670.22Zm1-21.18a1.19,1.19,0,0,0-.23-.22,12.62,12.62,0,0,1,7.59-2.24,67.13,67.13,0,0,1,9.25,1.33,9.64,9.64,0,0,0-.77,2.08,55.15,55.15,0,0,0-1.46,8.06q-.68,5.4-1.07,10.85c-.69.58-1.38,1.2-2.11,1.83-1.13,1-2.38,1.85-3.94,1.68s-3-1.2-4.43-1.91a36.79,36.79,0,0,0-3.73-1.72c.08-1,.14-2,.24-3,.31-3.22.59-6.38,1.14-9.56C249.35,653.88,249.82,651.14,248.47,649ZM257.64,695a12.13,12.13,0,0,1,1.7-4.62c.22-.4.49-.84.78-1.26-.27.53-.53,1.07-.76,1.62a20.41,20.41,0,0,0-1.77,8.06A30.12,30.12,0,0,1,257.64,695Zm10.83,9.82c1.09-1.72,2.31-3.34,3.39-5.07.57-.91,2.87-5.09,4.28-4.43,1.17.54.43,3,.13,3.74a19.48,19.48,0,0,1-2.35,4.08,75.82,75.82,0,0,1-4.85,6.51c-.85,1-1.76,1.75-2.9,1.46C265.52,709.16,267.61,706.14,268.47,704.78ZM284.68,723a1.64,1.64,0,0,1-.41.1,8.22,8.22,0,0,1-2.86-.44c-1.77-.49-3.46-1.21-5.18-1.85a54.36,54.36,0,0,0-8.65-2.13c-1.77-.34-3.66-.44-4.93-1.89-.78-.88-1.91-3-1.46-4.26.21-.58,1-.63,1.85-.5a38.44,38.44,0,0,1,4.79,3.15,33.85,33.85,0,0,0,8.55,4.16,45.15,45.15,0,0,0,4.87,1.25,25.7,25.7,0,0,1,3.16.52,1.5,1.5,0,0,1,.72.46C285,722,284.82,722.51,284.68,723Zm-23.59-12.71c.09-.52.19-1,.29-1.58a8.6,8.6,0,0,0,1.33,1.82A5.44,5.44,0,0,0,261.09,710.28Zm-.9,5.7.19.24c.41.52.89,1,1.31,1.5a2.2,2.2,0,0,1,.29,2.44,7.13,7.13,0,0,0-2.44,1.14C259.72,719.52,259.94,717.75,260.19,716Zm25,20.77c0-.47,0-.94,0-1.41.23,1.64.52,3.27.76,4.86a22.78,22.78,0,0,1,0,8.71C286.06,744.86,285.33,740.82,285.15,736.75Zm23.7-28.49c1,1.84,1.49,3.87,2.3,5.78a13.68,13.68,0,0,0,1.09,2.12,3.13,3.13,0,0,1,.54.93c.08,1-.64.62-1.12.36a37.17,37.17,0,0,0-3.52-1.9,31,31,0,0,0-8.81-2.36,15.28,15.28,0,0,0-8.55,1.21,11.77,11.77,0,0,0-5.35,6.4,3.37,3.37,0,0,0-1.05-.64c-1.42-.54-3-.65-4.45-1.09a51,51,0,0,1-6.47-2.23,53,53,0,0,1-6.83-4.2.15.15,0,0,0,.05-.06h.18c1.53-.14,2.78-1.42,3.69-2.54a85.88,85.88,0,0,0,5.43-7.45c1.34-2.1,3.31-5.58,1.49-8-1.57-2-3.77.18-4.85,1.54-1.43,1.83-2.54,3.89-3.81,5.83-1.53,2.33-3.37,5-3.71,7.83a4.51,4.51,0,0,0,0,.73,6.06,6.06,0,0,1-2.56-2.6c-.25-.46-.51-.91-.75-1.36,0-.25.09-.51.13-.76a.78.78,0,0,0-1-.89,13.1,13.1,0,0,1-1.74-8.3,22.79,22.79,0,0,1,3.75-9.46c.15-.22.31-.42.47-.63l.15,0a.72.72,0,0,0,.69-.7c0-.1,0-.2,0-.3,4.2-4.71,11.05-7.29,16.84-3.6a28.51,28.51,0,0,1,4.51,3.85,25.74,25.74,0,0,1,4,4.43c1.9,3,3,6.74,6.13,8.79a30.16,30.16,0,0,0,4.65,2.15,24.24,24.24,0,0,1,4.78,2.89A12.92,12.92,0,0,1,308.85,708.26Zm-8,6.64a17.42,17.42,0,0,0-13.53,6.47c-.31.42-.58.84-.83,1.26,1.12-3.42,3.19-6.42,6.82-7.51A16.27,16.27,0,0,1,300.89,714.9ZM334,662.69a84.49,84.49,0,0,0,.26,16.45A28.08,28.08,0,0,1,331,694.65c-2,3.75-4.89,5.72-8.87,7a.93.93,0,0,0-.63,1.11c.59,3.14,2.34,6.87-1.35,8.85-3.46,1.86-6.39-1.63-8.19-4.16s-3.13-4.77-5.91-6.06c-2.52-1.17-5.4-1.58-7.74-3.13a5.71,5.71,0,0,1-2.65-3.67c-.25-1.5.61-2.71,1.61-3.74,2.19-2.25,4.64-4.3,6.89-6.51,5.43-5.33,10.78-10.74,16.12-16.17,5-5,9.87-10.22,16.26-13.41A21.65,21.65,0,0,0,334,662.69Zm-67,4.76a42.39,42.39,0,0,1,8.72-1.82c2.25-.31,4.69-.31,6.8-1.24,1.9-.85,2.86-2.75,4.54-3.87,2.37-1.56,6.47-1.49,9.15-.93,2.37.51,4.43,2.14,6.9,2.23s5.14-.86,7.48-1.7a48.09,48.09,0,0,1,8.66-2.65c2.39-.38,4.83-.5,7.23-.83a51.12,51.12,0,0,0,5.65-1c-4.65,3.09-8.56,7.16-12.49,11.16-6.25,6.37-12.53,12.71-18.92,18.94-2,2-5.19,4-6.22,6.73a4.88,4.88,0,0,0,.14,3.59,10.37,10.37,0,0,1-1-1.47c-1.15-1.92-2-4-3.29-5.85a34.42,34.42,0,0,0-4.31-4.56c-3-2.86-6.08-5.14-10.33-5.36a15,15,0,0,0-11.36,4.63c.07-2.44.12-4.89.22-7.33.11-2.6.37-5.19.66-7.79A12.58,12.58,0,0,1,267,667.45Zm-2.09-10.63c-.44,3.09-.54,6.24-.88,9.35,0,.39-.09.78-.13,1.17l-.63.43a132.49,132.49,0,0,1,1.92-15.16,22.91,22.91,0,0,1,.75-3A67.63,67.63,0,0,1,264.86,656.82Zm1.67-8.52s0,0,0,0ZM270,637.94l-.29-.17.37-.07A2.25,2.25,0,0,1,270,637.94Zm1.91-.69,1.71-.53.32-.11a12.2,12.2,0,0,1-2.28,1.28C271.74,637.68,271.82,637.47,271.9,637.25Zm4.31-23.82c.85-.81,2.38-1.4,2.36.41s-1.11,3.5-1.84,5a45.75,45.75,0,0,0-2,4.48,67,67,0,0,0-3.09,8.5c-.21.89-.31,1.89-.46,2.88l-.75,2a7.37,7.37,0,0,1-1.47.17c-.29-1.09.22-2.68.42-3.68.26-1.36.53-2.71.76-4.07.7-4.08,1.25-8.36,3.36-12A16.11,16.11,0,0,1,276.21,613.43Zm-10.19,18a17.25,17.25,0,0,1,1.65-4.5,12.87,12.87,0,0,1,2.19-3.63c-.15.64-.29,1.29-.41,1.95-.62,3.28-1.4,6.64-1.77,10a8.28,8.28,0,0,0-.06,1.41C265.52,636,265.68,633.24,266,631.47Zm-20.37,13a.51.51,0,0,0,.14.82c-.19.14-.4-.29-.55-.76A2.7,2.7,0,0,0,245.65,644.51ZM234.47,651c-3.21,4.74-10.43,4.29-15.18,2.42-3.3-1.29-5.25-3.87-7.52-6.48-2.42-2.78-5.39-5-7.55-8.08s-1.82-7.08-3-10.52c-1.37-3.86-3.14-7.9-3.15-12.08a16.11,16.11,0,0,1,1.77-7.06,12.1,12.1,0,0,0,1.54-4.5,17,17,0,0,0-.28-4.9,14.11,14.11,0,0,0,3.3.57,25.59,25.59,0,0,0,8.87-1,42.77,42.77,0,0,1,12.23-2c4.14.11,7.45,2.47,11.37,3.38a6,6,0,0,0,3.72-.21,14.45,14.45,0,0,1,6.24-.48c3.93.38,7.74,2.25,11.39,3.66,3.18,1.23,6.08,2.87,8,5.75,2.13,3.13,3.48,6.83,2,10.51-2.4,6-8.68,9.18-13.55,12.93-2.46,1.89-5.58,4-7.07,6.76-.22.43-.37.89-.59,1.32-.5,1-.42.27-.48-.43-.12-1.39-.31-2.76-.44-4.15-.19-1.93-.28-3.86-.6-5.78-.37-2.14-.81-4.27-1.15-6.42s-.5-4.35-.81-6.52a31.23,31.23,0,0,0-1.34-6.06c-.43-1.21-1.11-3-2.55-3.25-2.24-.43-3.21,2.6-3.5,4.24a26.63,26.63,0,0,0,2.12,15.63c1,2.16,1.6,4.43,2.41,6.64a19.14,19.14,0,0,0,2.72,5.13c.45.59,1,1.11,1.45,1.7l.08.1C239.51,641.83,237.23,646.93,234.47,651Zm10.66-11a19.75,19.75,0,0,1-2.41-3.61c-.94-2-1.48-4.13-2.22-6.18-.64-1.77-1.52-3.43-2.1-5.22a24,24,0,0,1-1.17-6.89,29.37,29.37,0,0,1,.06-3.38c.1-1.39.23-3.46,1.3-4.5,1.38-1.34,2.24,1.69,2.53,2.62a37,37,0,0,1,1.22,6.26c.85,6.82,2.15,13.56,2.76,20.4C245.11,639.61,245.12,639.78,245.13,640Zm-2.83,14.87c-.37.45-.68,1-1,.52a3.56,3.56,0,0,1-.2-1.69c0-2.86,1.61-5.77,4.34-6.71a1.4,1.4,0,0,0,.94-.12,1.38,1.38,0,0,0,.24-.14h.1a.71.71,0,0,0,.67-.88c0-.11,0-.21-.05-.32a3.29,3.29,0,0,0,0-.63c1.9-.94,3.7-2.05,5.59-3a31.87,31.87,0,0,1,3.94-1.42c.2-.05.39-.11.6-.15a21.79,21.79,0,0,1,7.38-.26,25.05,25.05,0,0,0,6.15.73.7.7,0,0,0,.67-.88,3.88,3.88,0,0,0-.39-.85l.42-.13a17.61,17.61,0,0,0,4.7-3.13c1.92-1.6,3.77-3.28,5.64-4.93a20.08,20.08,0,0,1,6.05-4,49.51,49.51,0,0,0,5.79-2.37c.52-.28.22-1-.27-1-3.75-.45-7.71,2-10.49,4.3-3.27,2.64-5.19,6.59-9.43,7.91l-1.54.5c.15-.69.27-1.38.38-2.07.39-1.2.76-2.4,1.08-3.63.22-.86.45-1.72.7-2.58.43-1.1.89-2.19,1.31-3.28s1-2.42,1.52-3.59a11.79,11.79,0,0,1,3.77-4c2.24-1.41,5.06-2,7.62-2.58a37.11,37.11,0,0,1,15.8-.46,14.61,14.61,0,0,1,6.32,2.86c1.87,1.57,2.58,3.49,3.32,5.72a4.45,4.45,0,0,0,1.33,2.06,23.1,23.1,0,0,0-2.88.1,32.69,32.69,0,0,0-11,3.21c-3.05,1.54-4.23,4.29-6.35,6.76-2.3,2.7-5.6,4.41-8.82,5.75s-6.69,2.14-9.86,3.6c-1.56.72-2.89,2.26-4.56,2.67-2,.51-4.47,0-6.48-.29-3.74-.62-7.56-1.64-11.37-1.29a13.49,13.49,0,0,0-8.94,4.52C243.84,651.25,243.55,653.32,242.3,654.84ZM287.46,626a13.31,13.31,0,0,1,3.23-1.2C289.62,625.15,288.53,625.53,287.46,626ZM246,663.26c.26-2.51.62-4.94.7-7.46,0-1.38-.14-4.06.92-5.32.79,2,.13,4.55-.24,6.54-.48,2.61-.63,5.23-.88,7.87-.11,1.15-.2,2.3-.29,3.44l-.63-.16C245.7,666.53,245.84,664.89,246,663.26Zm-3.95,18.53c-2-1.77-4-4.16-4.18-7a5.34,5.34,0,0,1,4.19-5.43,7.21,7.21,0,0,1,1.84-.12c-.16,2.75-.28,5.5-.39,8.25-.07,1.81-.12,3.62-.18,5.44C242.92,682.56,242.49,682.17,242.06,681.79Zm2.41,20.87c.09-5.33.23-10.66.39-16q.44.51.84,1.05c.27,12.76.59,25.55.31,38.32-.12,5.9-.67,11.79-.89,17.68a20.08,20.08,0,0,0-1.39-2C244.42,728.72,244.23,715.66,244.47,702.66ZM245,748.1c0,.17,0,.33,0,.5a.66.66,0,0,0,.45.65c.17.48.34,1,.48,1.44,4.15,13.83-.77,27.84-8.31,39.46-2.18,3.36-4.57,6.58-6.7,10-1.08,1.73-2.13,3.47-3.23,5.19s-2.33,3.27-3.24,5c-1.26,2.43-1.77,5.14-2.79,7.67a9.58,9.58,0,0,1-2,3.25,1.4,1.4,0,0,0-.5-.29.46.46,0,0,0-.57.44,1.29,1.29,0,0,0,.16.58,7.82,7.82,0,0,1-.68.43.75.75,0,0,0-.68.37c-.88.44-1.81.81-2.65,1.2-7.12,3.25-15.3,6-20.94,11.68a13.36,13.36,0,0,0-1.89,2.38,14.1,14.1,0,0,1-1.73-.11,12.94,12.94,0,0,1,.32-3.81c.83-3.2,1.94-6.3,2.67-9.54s1.34-6.53,2.23-9.75,2-6.23,3.13-9.29c2.21-5.83,4.29-11.68,6.34-17.58a54.37,54.37,0,0,1,3.71-8.67c1.39-2.51,3.67-4.44,4.94-7a6.06,6.06,0,0,0,.27-4.12c1.93-1.35,2.82-4.69,3.23-6.78a32.64,32.64,0,0,0,.62-5.58c.06-2.94-.24-5.82.5-8.72a11.93,11.93,0,0,1,1-2.68,7.73,7.73,0,0,0,2.46-.61c1.6-.7,3-1.8,4.58-2.56a17.66,17.66,0,0,1,5.57-1.23,9.6,9.6,0,0,0,4.34-1.51C240.39,740.09,243.27,743.85,245,748.1Zm-33,5.85a20.92,20.92,0,0,0,.09-10.48c.36.07.76.07,1.16.15,1,.17,2,.42,3,.61.32.06.64.11,1,.14a15.26,15.26,0,0,0-.64,1.87c-.83,3.25-.42,6.48-.51,9.77-.06,2-.48,9.14-3,10.9a1.5,1.5,0,0,0-1.81-.17c-1.47-1.32-1.28-3.91-1-5.79C210.72,758.57,211.47,756.28,212.07,754Zm7.31-23c.77-.1,1.89,3,2.09,3.48a25.72,25.72,0,0,1,.91,2.82c-.55-1-1.15-1.89-1.74-2.82C220.44,734.13,218.45,731.08,219.38,731Zm14.19,6.89h0c-.29.1-.59.19-.89.27-1.76.44-3.59.52-5.34,1.06a31.74,31.74,0,0,0-4.53,2.14,15.41,15.41,0,0,1-2.19.88A14.15,14.15,0,0,1,233.57,737.85Zm1.23-6.1a5.94,5.94,0,0,1,1.28,3.47,2.53,2.53,0,0,1-.29,1,17.56,17.56,0,0,0-12.1,1.18,16.87,16.87,0,0,0-1.58-4.59,11.05,11.05,0,0,0-1.16-2.15,22.23,22.23,0,0,0,7.82-2.61,9.83,9.83,0,0,0,1.76-1.36,8.2,8.2,0,0,1,1.51,1.41A23.16,23.16,0,0,1,234.8,731.75Zm-14.21-35.89c2.46,0,5.24,1.94,6.73,3.77a3.87,3.87,0,0,1,1.08,3.21,8.63,8.63,0,0,1-2.68,4,8,8,0,0,1-4,2.22,16.52,16.52,0,0,0-4.33,1.17,5.37,5.37,0,0,0-1.74,1.42c-.7-.88-.59-3-.42-4.3.73-1.39,1.42-2.81,2.14-4.2a15.36,15.36,0,0,0,1.53-4.42,12.88,12.88,0,0,0,.18-2.14A2.09,2.09,0,0,1,220.59,695.86Zm-7.33,16.08c-.12.63-.86,1.56-1.59,1.14-1-.56-.12-1.94.43-2.43.3-.27.6-.5.88-.72A4.14,4.14,0,0,1,213.26,711.94Zm-3.3-.48c-1.52-2.47-2.16-5.43-3.35-8.06-1.54-3.39-2.86-6.86-4.36-10.27-.28-.65-1.53-3.59.28-2.89,1.09.42,1.84,2.19,2.33,3.15,1.62,3.22,3.28,6.41,4.91,9.63.8,1.57,1.57,3.15,2.29,4.76l.45,1a12.3,12.3,0,0,0-1.31.86A4,4,0,0,0,210,711.46ZM197.45,678.3a27.47,27.47,0,0,1,16.67,9.58,13.61,13.61,0,0,1,3.46,8.55c-.26.41-.48.85-.69,1.26a34.64,34.64,0,0,0-2.47,6.76,26.42,26.42,0,0,0-.66,2.93l-.09.15c-1.32-3.15-3-6.14-4.57-9.14-1.36-2.52-2.44-5.35-4.09-7.7-1-1.41-2.67-3-4.37-1.59-1.95,1.58,0,4.68.68,6.43,1.22,3.34,2.9,6.39,4.31,9.63,1.14,2.63,1.94,5.43,3.81,7.68a.48.48,0,0,0,.52.15,2.27,2.27,0,0,0,3.63,1.12,2.92,2.92,0,0,0,1.06-1.5,2.34,2.34,0,0,0,1,.8c.77,1,2.52,1,3.6,1.1,4.16.37,9.18-.6,11.58,3.86a5.18,5.18,0,0,1-1.13,6.73l0,0a.66.66,0,0,0-.19.18,15.83,15.83,0,0,1-6.37,3.19c-4.46,1.14-9.12,1.29-13.69,1.48a72.18,72.18,0,0,1-11.84-.86c-4-.48-8-.66-12-1A48,48,0,0,1,174,726.37a30.52,30.52,0,0,1-8.2-4.6,86.07,86.07,0,0,0-7.86-5.26c-1.49-.84-2.92-1.78-4.38-2.65a11.48,11.48,0,0,0-4.36-1.9c-1.8-.2-3.47.22-5.26-.2-.31-.07-.63-.13-.93-.23-1.19-.38.3-.13.77,0a4.55,4.55,0,0,0,3.21.09,8.87,8.87,0,0,0,3.38-2.29c2.1-2.17,3.41-5,4.73-7.68A55,55,0,0,1,160,693a37.54,37.54,0,0,1,8.05-7.51,37,37,0,0,1,29.4-7.17Zm-92.59,9.81c3.16.09,6.13,1.59,9.31,1.36s6-1.85,9.26-1.76c3.73.1,7,2,10.57,2.83,3.34.76,6.85.23,10.15-.53,7.23-1.67,14.27-6.18,21.83-5.28-.35.27-.71.53-1,.82a34.89,34.89,0,0,0-7.21,7.45,72.31,72.31,0,0,0-4.71,9c-.47,1-1,2-1.52,3h0c-1.74-.19-3.54.39-5.29.39-2.7,0-5.38-1.23-7.93-2-4.81-1.45-9.43-3.54-14.32-4.74-5-1.25-10.26-1.15-15.43-1.19a58.83,58.83,0,0,1-16.64-2.23c-2.78-.83-5.57-1.74-8.41-2.37l1-.14C91.34,691.76,97.84,687.92,104.86,688.11Zm72.88,48.17a17.47,17.47,0,0,1-6.51.54c-2.35-.3-5-.82-6.31-3-1.12-1.77-1.5-3.89-2.77-5.59-3.2-4.28-8.68-2.4-13-4.24-2.22-1-4.16-2.56-6.6-2.95s-4.56.8-6.66,1.85a17.55,17.55,0,0,1-13.45,1.23A11.28,11.28,0,0,1,117,720a35.65,35.65,0,0,1-2.73-5.37c-1.7-3.66-4.33-7-8.71-7.23-2.58-.11-5,1.06-7.56,1.11s-5.07-1.21-7.25-2.55a59.81,59.81,0,0,1-7.64-5.11,49,49,0,0,1-5.54-6.23,14.08,14.08,0,0,0-1.45-1.52,26,26,0,0,0,2.93.09c3.72.76,7.37,1.69,11,2.82a56.74,56.74,0,0,0,8,2.07,60.57,60.57,0,0,0,7.73.63c5.43.14,11-.25,16.35.84,4.93,1,9.52,3.07,14.29,4.59a53.4,53.4,0,0,0,8.45,2.39c2,.29,4-.53,5.95-.39a9.77,9.77,0,0,1-3.83,3.77c-1.48.73-2.33.07-3.78-.06a1.78,1.78,0,0,0-2.1,1.31c-.3,1.67,2.63,2,3.72,2.09,1.73.17,3.54-.4,5.23.15,1.95.65,3.81,2.1,5.55,3.17,2.86,1.76,5.65,3.46,8.34,5.49a40.45,40.45,0,0,0,7.85,5,34.58,34.58,0,0,0,10.45,2.31c4.1.43,8.24.55,12.34.94s8.06,1.12,12.12,1.24c2.56.08,5.17-.09,7.72-.25,1.09-.07,2.21-.15,3.34-.26a4.22,4.22,0,0,0,.41,2.4,23.52,23.52,0,0,0,3.73,5,13.37,13.37,0,0,0-3.77,4.12,10.09,10.09,0,0,1-1.78-.13c-1.12-.18-3.34-.84-4.57-.26a16.25,16.25,0,0,0-5.49-7.65c-5.48-4.21-12.85-4.4-19-1.68a32.86,32.86,0,0,0-4.89,2.71A16.14,16.14,0,0,0,177.74,736.28Zm-4,8.37c3-2.39,5.85-4.91,9-7.06l1.11-.72a.42.42,0,0,0,.18-.11c5.66-3.5,12.46-5.39,18.78-2.26a15,15,0,0,1,7.82,9.63c.94,3.66.36,7.41-.6,11-.87,3.26-2.81,9.82.33,12.41a.73.73,0,0,0,.41,1.08,3.68,3.68,0,0,0,1.62.12l0,.13a5.4,5.4,0,0,1,0,2.12c-.54,2.24-2.88,4-4.12,5.84-3,4.48-4.61,9.78-6.31,14.83-1.82,5.4-4,10.67-5.93,16a128.79,128.79,0,0,0-4.57,17.3c-.34,1.63-.72,3.25-1.17,4.85a25.32,25.32,0,0,0-1.14,4.35,13.09,13.09,0,0,0,0,2,25,25,0,0,0-1.68-3.82c-3.13-5.68-8.81-9.11-13.64-13.17a26.89,26.89,0,0,1-6.32-7.13c-2.22-3.94-1.83-8-1.48-12.34a25,25,0,0,0,0-5.4c-.27-2-1.23-3.72-1.68-5.67-.9-4,3.46-4,4.66-6.82,1.11-2.62-2.06-3.69-3.95-4.2-2.95-.79-5.2-2.59-5.89-5.66a18.86,18.86,0,0,1,.84-10.41.56.56,0,0,0,.3-.81,30.82,30.82,0,0,1,5.66-9.08A61.18,61.18,0,0,1,173.76,744.65Zm-31.52,49.16c-1.15.91-2.14,2-3.32,2.86-1.88,1.36-3.54,1.13-5.72.59a12.5,12.5,0,0,0-3.73-.61,16.84,16.84,0,0,0-4.16,1.22c-3.49,1.24-6.83,2.7-10.62,2.11-3.53-.54-6.67-2.39-10-3.45a36,36,0,0,0-12-1.39c-4.27.11-8.82.18-13,1.35q-1.09.32-2.16.66c.56-.41,1.08-.82,1.56-1.18a64.79,64.79,0,0,1,5.5-4.14,62.61,62.61,0,0,1,9.88-4.54c7.08-2.78,14.39-4.88,21.55-7.43A104.75,104.75,0,0,0,136.59,770c3.75-2.35,7.46-4.81,11.4-6.85,3-1.54,6.81-3,10.21-2.08a21.61,21.61,0,0,0-.64,2.26c-1.37,6-.82,13.63,6,15.75,1.12.35,3,.31,3.81,1.23,1.11,1.23-1.32,2.63-2.12,3.23a5.29,5.29,0,0,0-2.25,3c-.45,1.71.23,3.3.81,4.89,0,.07,0,.14.07.21a4.26,4.26,0,0,0-4.28-1,35.06,35.06,0,0,0-3.47,1.12,12.21,12.21,0,0,1-5,.41C147.87,791.81,145,791.66,142.24,793.81Zm15.21-.87c1.86-.72,4.1-1.53,5.27-.21A16.64,16.64,0,0,1,157.45,792.94Zm22.09,39.34c-1.77-1.58-3.46-3.24-5.29-4.76a41.72,41.72,0,0,0-6-4,21.39,21.39,0,0,1-9.57-12.38c-.78-2.49-1.14-5.13-2.16-7.55a9.73,9.73,0,0,0-2.2-3.24,49,49,0,0,0,9.37-.66c.43-.05.64-.6.55-1a5.85,5.85,0,0,0-3.52-4.14,11,11,0,0,0,3.43-.56.81.81,0,0,0,.27-.15c.52,3.28-.06,6.57-.21,10a16.71,16.71,0,0,0,2.89,10.47c3.71,5.43,9.58,8.67,14.31,13.07a25,25,0,0,1,6.6,10.11A23.11,23.11,0,0,1,179.54,832.28Zm18.07,23.31c1,2.33-.86,5.41-2.63,6.81-4.74,3.73-12.31,2.71-17.86,2.1-4.32-.47-8.61-1.12-12.92-1.61a30.53,30.53,0,0,0-8,0,38.17,38.17,0,0,1-7.6.81c2-1.41,4.39-2.06,6.62-3a14.84,14.84,0,0,0,6.41-5.43c3.39-4.76,6.75-10,11.73-13.28a12.07,12.07,0,0,1,7.93-2.16A13.87,13.87,0,0,1,189,843.5a12.5,12.5,0,0,1-1.09,4.69,16.33,16.33,0,0,0-1.47,4.21,86,86,0,0,0-17.67,2.69,30.83,30.83,0,0,0-13.07,5.68l-.17.12,0,0-.11.08,0,0c-.44.52.13,1.43.75,1a31.48,31.48,0,0,1,11.81-5.35c3.64-.79,7.33-.79,11-1.34,3.27-.49,6.49-1.31,9.77-1.68,1,0,1.93,0,2.89.09a20.07,20.07,0,0,1,5.37,1A2.57,2.57,0,0,1,197.61,855.59Zm3.58.85a6.2,6.2,0,0,0-2.31-2.32l1-.18a8.57,8.57,0,0,0,3-1.2,16.15,16.15,0,0,0-.75,2.85A4.21,4.21,0,0,1,201.19,856.44Zm5.2,16.27a43.63,43.63,0,0,1-2.69-11.82,22,22,0,0,1,.25-5.49c.22-.33.43-.66.62-1a21.75,21.75,0,0,0,2-4.1c1.68-3.56,3.6-7.36,6.42-10.08A34,34,0,0,1,225.62,833c4.07-1.34,8.58-1.79,12.65-.19a11.19,11.19,0,0,1,3.82,2.49c.06.25.1.49.16.73a.8.8,0,0,0,.95.55,13.23,13.23,0,0,1,2.23,4.51c1.21,4.39,0,8.95,2,13-.26.45-.54.89-.85,1.33a79.37,79.37,0,0,1-8.32,9.44c-3,3-6,6.19-9.05,9.15-3.69,3.51-7.5,6.91-11.37,10.22a110.73,110.73,0,0,0-8.34,7.42,10.13,10.13,0,0,0,1.48-6C210.67,881,207.94,877,206.39,872.71Zm46.06,35.61.07,0,2.33-.14c-.79.13-1.59.21-2.4.27Zm2.93-23a.79.79,0,0,0-1.21.5c-.94,4-.12,8.13.34,12.17a19.15,19.15,0,0,1-.6,5.93c0-.26-.06-.52-.1-.77-.34-2.06-.87-4.07-1.15-6.14a79.93,79.93,0,0,1-.93-9.51.81.81,0,0,0-1.62,0c0,6.25.63,12.48.73,18.73a4.29,4.29,0,0,1-.7.11,2.67,2.67,0,0,1-2.32-.89c-.08-.56-.19-1.12-.23-1.68-.12-1.66-.22-3.31-.4-5-.14-1.34-.29-2.68-.43-4a18.72,18.72,0,0,0-.35-6.65.57.57,0,0,0-.1-.19,59.08,59.08,0,0,0,9.2-3.25C255.47,884.94,255.42,885.16,255.38,885.37Zm-10.32,9.81-.06,1c-.11,2.68-.32,5.56.42,8.17a6.2,6.2,0,0,0,.85,1.84,2.16,2.16,0,0,1,0,.5c-1,0-1.92,0-2.87-.13l-.4-.09a34.09,34.09,0,0,1-.53-4.72c.14-1.48.17-2.8.19-3.48.07-2.6-.08-5.19-.08-7.78a.8.8,0,0,0-1.6,0c0,3.77-.26,7.59-.06,11.37a14.17,14.17,0,0,1-.68,3.59,4.66,4.66,0,0,1-1.78-1.61c0-1,.09-2.08.14-3.13a11.3,11.3,0,0,0,.5-1.56,4.84,4.84,0,0,0-.45-3.67c-.08-2-.39-4.25-1.74-5.47,2.6-.43,5.21-.93,7.79-1.56A49.51,49.51,0,0,0,245.06,895.18Zm-16.28,1c1.81-1.52,5.56-1.64,7.43-.72a2.27,2.27,0,0,1,1,.88q0,.9,0,1.8a29.54,29.54,0,0,0-4-.81A13.53,13.53,0,0,1,228.78,896.16Zm37.25-9a11.66,11.66,0,0,1,6.52.75c.29.11,1,.31,1.19.61s.24,0-.11.27a7.88,7.88,0,0,1-2.87,1.17,40.93,40.93,0,0,0-7.6,3.13,23.15,23.15,0,0,0-5,3.51,18.86,18.86,0,0,1,.34-2A9.52,9.52,0,0,1,266,887.13Zm10.09-32a3.42,3.42,0,0,1,.29-2.4,11.79,11.79,0,0,1,.07,3.89C276.34,856.13,276.21,855.63,276.12,855.13Zm92.2,15.63a.44.44,0,0,0-.48.54c-2.58-.14-5.12-.63-7.71-.8a14.65,14.65,0,0,0-8.23,1.93c-3.1,1.75-5.5,4.59-8.77,6s-6.92,1.71-10.35,2.4a57.61,57.61,0,0,1-12.15,1.18c-3.77,0-7.55-.36-11.32-.56s-7.68-.43-11.5-.84a42.56,42.56,0,0,1-10.33-1.94c-6.51-2.41-9.38-8.37-9.87-15-.08-1-.15-2.08-.27-3.11a15.64,15.64,0,0,0,.61-9.19c.17-.07.35-.12.54-.18a.7.7,0,0,0,.54-.12,7.65,7.65,0,0,1,1.74-.11c5.11.2,10,2.71,14.73,4.32,3.24,1.1,6.65,1.76,10,2.53,4.1,1,8.21,1.87,12.32,2.78,4.64,1,9.26,2.12,13.94,2.94,4.44.78,8.89,1.41,13.34,2.1,4.14.64,8.23,1.42,12.4,1.81a57.27,57.27,0,0,1,8.34,1.14l.95.35h0c-.59.26-.37,1.16.17,1.31a21.31,21.31,0,0,0,3,.29,10.55,10.55,0,0,1,2.09.47A9.49,9.49,0,0,1,368.32,870.76ZM279,837.27a19.48,19.48,0,0,1-.28-7,13,13,0,0,1,2.83-5.42c5.44-6.55,14.87-11.44,23.38-8.68C313.54,819,319.68,827,323.31,835c1.65,3.62,3.08,7.39,5.2,10.77a22.06,22.06,0,0,0,8.82,8.07c5.63,3,11.45,5.55,16.94,8.78,2.28,1.34,4.56,2.68,6.89,3.9l-1.3-.14c-3.91-.39-7.76-.92-11.64-1.55-8.75-1.42-17.48-2.62-26.15-4.52-8.35-1.82-16.85-3.33-25.08-5.65-5.13-1.44-9.93-3.9-15.28-4.63a13.42,13.42,0,0,0-2.12-.13C280.73,845.77,279.59,841.34,279,837.27Zm-3.41,13a6.6,6.6,0,0,1,.38.81l-.16.12c-1.93,1.83-1.09,4.54-.52,6.77a18.11,18.11,0,0,1,.39,2.18c-.28.82-.59,1.62-.93,2.37a54,54,0,0,1-7.6,11.57,31.27,31.27,0,0,1-9.22,7.5c-7,3.89-15.07,5.72-23,6.92-5.71.87-11.47,1.46-17.17,2.45a17.1,17.1,0,0,0-6.62,2.19c-1.26.81-2.41,1.75-3.64,2.58a4.52,4.52,0,0,1,.25-.89.63.63,0,0,0,.86-.21c2.79-3.81,6.43-6.63,10.08-9.56,3.9-3.13,7.69-6.43,11.33-9.85s6.81-6.76,10.14-10.2a61,61,0,0,0,8.06-9.59l.12.17a.93.93,0,0,0,1,.42c3-1,5.34-3.2,7.64-5.33a.79.79,0,0,0,.85-.76c2.7-2.4,5.59-4.21,9.37-4.21A9.23,9.23,0,0,1,275.54,850.26Zm8.22-48.2A118.7,118.7,0,0,0,272,829.66c-.74,2.78-1.49,5.55-2.27,8.33-.3,1.07-.68,2.13-.89,3.23-.05.28-.06,1-.16,1.5a.79.79,0,0,0-.5,1.08.21.21,0,0,0,0,.06l-.82-.05c.4-8.45,3.91-16.32,7.22-24a278,278,0,0,1,11.89-25.25C287.71,796.12,284.42,801,283.76,802.06Zm1.74-9c-5,8.65-8.94,17.74-12.83,26.93a117.37,117.37,0,0,0-4.78,12.5,30.82,30.82,0,0,0-1.6,11.38,13.92,13.92,0,0,0-7.44,2.76c-.34.25-.66.52-1,.79.21-9.4,1.8-18.73,3.7-27.92,1.08-5.19,2.32-10.34,3.54-15.49A112.09,112.09,0,0,1,269,789.56a21.21,21.21,0,0,0,1.64-6,29.07,29.07,0,0,0,2.25,2.49c3.36,3.28,7.39,6.09,12.14,6.73l.65.08A.73.73,0,0,0,285.5,793Zm73.35,29.24c-5.45-.74-11.14-.93-16.34-2.88a21.7,21.7,0,0,0-6.73-1.82c-2.31-.09-4.58.2-6.9-.1-9.32-1.2-14.07-10-19.74-16.39-2.74-3.12-5.85-6.06-9.75-7.67-4.67-1.92-9.63-1.85-14.52-2.69s-8.83-4.13-12-7.65-4.58-7.59-5.28-12.1-.91-9-2.33-13.28c-1.53-4.62-4.14-8.75-6-13.25a28.14,28.14,0,0,1-2-10.72c0-2.92.29-6.13,1.74-8.74a.86.86,0,0,0,.07-.1.31.31,0,0,0,.19-.27v0c1.58-2.43,4.17-3.16,7-2.47,3.82.93,6.51,4,8.31,7.29a31,31,0,0,1,3.41,11,39.15,39.15,0,0,1,.18,7.42,39.89,39.89,0,0,1-1.81,8.21,12,12,0,0,0-.46,5.11,10.15,10.15,0,0,0-1.1,1.17.74.74,0,0,0,0,1c2.94,2.7,6.92,3.91,9.77,6.72s5,6.53,8.68,8.45c3.81,2,8.34,1.38,12.32,2.92s7.18,4.24,10.18,7.16c6,5.88,12.11,11.65,19.44,15.94a128.08,128.08,0,0,0,12.47,5.93c4.41,2,8.76,4.09,13,6.39,2.36,1.29,4.78,2.59,7,4.11a28.56,28.56,0,0,1,4.88,4.7l.21.23A49.15,49.15,0,0,0,358.85,822.27Zm26.55,12c-.52-.51-1.08-1-1.65-1.47a.61.61,0,0,0-.11-.37,8.52,8.52,0,0,0-3.68-3,15.89,15.89,0,0,1-4.71-3.09c-1.35-1.34-2.55-2.82-3.89-4.16a25.06,25.06,0,0,0-5-3.7c-4.24-2.51-8.61-4.79-13.06-6.92-4.26-2-8.65-3.78-12.91-5.82-8-3.82-14.83-9.44-21.08-15.63-2.81-2.77-5.57-5.65-8.9-7.8a23.68,23.68,0,0,0-5.41-2.61,35.13,35.13,0,0,0-6.29-1.12,12.72,12.72,0,0,1-7.11-3,60.63,60.63,0,0,1-4.73-5.15,21.23,21.23,0,0,0-5.09-4.16,49.9,49.9,0,0,1-5.08-3.14.54.54,0,0,0,.53-.66c0-.16,0-.31-.06-.46,2-1.69,4.5-2.76,6.22-4.78a20.88,20.88,0,0,0,4-9.18c1.2-6.56-2.13-13.13-1.44-19.73.89-8.39,9.3-12.68,17.05-11.89a14.86,14.86,0,0,1,5.65,2,41.79,41.79,0,0,0,5.23,2.28,34,34,0,0,1,9.65,5.71c6.43,5.43,11.14,13.13,14.25,20.89,1.53,3.84,2.78,7.74,4.65,11.43,2,3.92,4.27,7.71,5.27,12s1.25,8.51,2.84,12.59A101.74,101.74,0,0,0,356.1,795c3.37,6.16,8.34,10.67,13.87,14.86,7.22,5.48,11.54,13.4,15.7,21.26a125.1,125.1,0,0,0,6.81,11.45c-.79-1-1.61-1.94-2.41-2.92A56.07,56.07,0,0,0,385.4,834.28Zm9.2,11.23q2,2.73,4.23,5.29C397,849.65,395.75,847.4,394.6,845.51Z" transform="translate(-62.32 -27.25)"/></g></svg>