<?xml version="1.0" encoding="utf-8"?>
<!-- Generator: Adobe Illustrator 24.3.0, SVG Export Plug-In . SVG Version: 6.00 Build 0)  -->
<svg version="1.1" id="Capa_1" xmlns="http://www.w3.org/2000/svg" xmlns:xlink="http://www.w3.org/1999/xlink" x="0px" y="0px"
	 viewBox="0 0 1513.9 947.7" style="enable-background:new 0 0 1513.9 947.7;" xml:space="preserve">
<style type="text/css">
	.st0{clip-path:url(#SVGID_2_);}
	.st1{clip-path:url(#SVGID_4_);fill:#87C6A2;}
	.st2{fill:#F1CB8C;}
	.st3{fill:#87C6A2;}
	.st4{fill:#F3D199;}
	.st5{fill:#4C372B;}
	.st6{fill:#1D362D;}
	.st7{fill:#312828;}
	.st8{clip-path:url(#SVGID_2_);fill:none;stroke:#87C6A2;stroke-miterlimit:10;}
</style>
<g>
	<defs>
		<rect id="SVGID_1_" x="109.4" y="39.2" width="1346.5" height="800.6"/>
	</defs>
	<clipPath id="SVGID_2_">
		<use xlink:href="#SVGID_1_"  style="overflow:visible;"/>
	</clipPath>
	<g class="st0">
		<defs>
			<rect id="SVGID_3_" x="109.4" y="39.2" width="1346.5" height="800.6"/>
		</defs>
		<use xlink:href="#SVGID_3_"  style="overflow:visible;fill:#87C6A2;"/>
		<clipPath id="SVGID_4_">
			<use xlink:href="#SVGID_3_"  style="overflow:visible;"/>
		</clipPath>
		<rect x="109.4" y="39.2" class="st1" width="1346.5" height="800.6"/>
	</g>
	<g class="st0">
		<g>
			<path class="st2" d="M349.9,856.7c-0.9-4.1-3.9-7.1-7.5-9c-3.4-1.8-7.1-2.9-10.7-4c-5.1-1.5-10.1-2.9-15.4-3.6
				c-11.6-1.7-23.4-1.5-35.1-1.5c-12,0.1-24,0.4-36,1.4c-11.8,0.9-23.6,0.9-35.4,2c-3,0.3-5.9,0.6-8.8,1c-1.6,0.2-3.3,0.3-4.9,0.5
				c-0.2-0.1-0.4-0.2-0.6-0.3c-1.2-0.2-2.3-0.3-3.5-0.4c-1.7-0.1-2.3-0.2-4-0.1c-3.3,0.2-6.6,0.7-9.9,1.4c-3.4,0.7-6.7,2-9.8,3.5
				c-2.6,1.3-5.3,3-7.1,5.3c-2,2.5-3.2,5.5-2.9,8.7c0.6,5.3,3,10.1,5,14.9c2.1,5.1,3.4,10.5,4.8,15.8c1.5,5.6,2.9,11.3,4.6,16.9
				c1.6,5.6,3.1,11.3,4.2,17c1.1,5.7,2.1,11.5,3.2,17.2c0.5,2.6,1,5.3,1.9,7.9c0.8,2.4,1.9,4.7,3.1,7c2.1,4,4.6,7.8,6,12.2
				c2.5,7.8,4.1,16.4,8.9,23.3c2.6,3.8,6.2,6.3,10.2,8.6c4.4,2.5,9.2,4.4,14,6.1c10,3.4,20.3,5.6,30.8,6c10.7,0.4,21.6-0.8,32-3.6
				c5.1-1.4,10.1-3.1,14.9-5.2c4.2-1.8,8.2-4,11.6-7c3.8-3.4,5.6-7.8,6.9-12.6c1.5-5.4,2.4-10.9,3.3-16.3
				c1.9-11.4,4.5-22.7,7.3-33.9c1.4-5.7,2.9-11.4,4.3-17c1.4-5.7,2.5-11.5,3.9-17.3c1.4-5.4,3.7-10.5,5.7-15.7
				c1.8-4.6,3.3-9.3,4.3-14.1C350.4,866.7,351,861.6,349.9,856.7z"/>
			<g>
				<path class="st3" d="M247.4,848.5c-0.7-7-1-14.1-2.4-21.1c-2.8-13.5-8.8-26.2-14.5-38.5c-2.8-5.9-5.6-11.8-9-17.4
					c-3.4-5.6-7.3-10.9-11.6-15.9c-2.1-2.4-4.3-4.6-6.5-6.9c-2.2-2.4-4.3-5-6.5-7.3c-4.2-4.4-9.4-7.2-14.8-9.9
					c-13.2-6.5-26.9-13.7-42-14.1c-1.8,0-2.8,2.8-1,3.6c2.2,1,4.1,2.1,5.8,3.8c1.8,1.7,3.2,3.6,4.4,5.8c2.6,4.4,4.2,9.2,5.5,14.1
					c1.4,5.4,2.2,10.8,4.5,15.9c2.4,5.4,5.9,10.3,9.2,15.2c1.8,2.6,3.4,5.3,4.8,8.2c1.3,2.9,2.5,5.9,3.9,8.8
					c2.9,5.8,7.5,10.3,11.5,15.3c8.1,10.2,18.2,18.5,27.5,27.6c5.3,5.1,9.1,11.3,13.8,17c4.5,5.5,10.4,9.6,15,14.8
					c0.4,0.5,0.9,0.7,1.4,0.7c1,2.5,5.3,2.2,5.2-0.9c-0.1-3.3-1.1-6.4-2.1-9.4C248.5,854.7,247.8,851.7,247.4,848.5z"/>
				<path class="st3" d="M228.3,856.4c-1.4-1.7-2.3-3.8-3.4-5.8c-1.1-2.1-2.2-4.1-3.5-6.1c-2.8-4.2-6.5-7.2-10.6-10.2
					c-2.9-2.1-5.6-4.3-8.3-6.8c-1.4-1.3-2.7-2.5-4.1-3.7c-1-0.9-2.1-2-3.5-2.3c-0.3-0.1-0.6-0.1-0.8-0.1c0-0.2-0.1-0.4-0.1-0.7
					c-0.4-1.5-2.6-1.4-3,0c-1.9,6.7-3.6,14.1-2.5,21.1c0.4,2.4,1.5,4.4,3.5,5.8c1.9,1.2,4.1,1.8,6.1,3c0.2,0.1,0.3,0.2,0.5,0.3
					c0,0,0,0,0.1,0.1c0.2,0.1,0.3,0.3,0.4,0.5c0.6,0.9,1,1.8,1.4,2.8c1.2,2.6,2.5,5,4.3,7.1c3.5,4.2,8.5,6.7,13.7,8.1
					c2.9,0.8,5.8,1.4,8.8,1.8c3.1,0.4,6.7,0.4,9.3-1.6c1.6-1.2,1.8-3,0.6-4.5C234.5,862,230.9,859.6,228.3,856.4z M198.9,851.3
					C198.9,851.2,198.9,851.2,198.9,851.3L198.9,851.3z"/>
				<path class="st3" d="M371.9,725c-1.8,1.6-4.2,2.5-6.4,3.3c-2.4,0.9-4.8,1.6-7.1,2.6c-5.8,2.4-11.1,5.5-16.7,8.3
					c-5.3,2.7-10.6,5.1-15.5,8.5c-4.7,3.2-9.1,6.8-13.3,10.6c-4,3.6-7.8,7.3-11.8,10.9c-0.8,0-1.6,0.4-2.1,1.3
					c-0.4,0.7-0.8,1.4-1.1,2.2c-0.5,1.3,0.1,2.2,1,2.8c0.8,10.9-0.9,22.2-5.6,32.1c-0.5,0.3-1,0.7-1.6,1c-0.2,0.1-0.4,0.1-0.6,0.2
					c1.7-6.6,2.8-13.4,2.8-20.2c-0.1-5.4-1.2-10.6-2-15.9c-0.9-5.8-1.4-11.7-1.8-17.6c-1-13.3-0.4-26.7-0.6-40.1
					c0-0.6-0.3-1.1-0.7-1.4c1.1-1.5,1.9-3.1,2.3-5.1c1.3-7.2-0.2-14.6-0.9-21.7c-0.2-1.9-2.4-3.1-3.9-1.6
					c-10.9,10.8-18.3,24.4-25.9,37.5c-3.8,6.6-7.9,13-11.3,19.7c-1.7,3.5-3.2,7.1-4.2,10.9c-1.1,4-1.8,8.1-2.5,12.2
					c-0.8,4.4-1.8,8.8-1.8,13.2c0,2,0.1,4,0,6.1c-0.7,1.4-1.3,2.7-1.7,4.2c-0.2-3.3,0.6-6.8,0.8-10c0.4-5.8-1-11.5-2.5-17
					c-2.7-9.4-7.4-18-13.6-25.5c-2.9-3.6-6.5-7.4-11.1-8.6c-1.2-0.3-2.4,0.4-2.8,1.6c-1.5,4.5-0.6,9.3-1.3,14
					c-0.3,2.1-1,4.2-0.8,6.3c0.2,2.4,1.5,4.5,3.1,6.3c1.5,1.8,3.5,3.2,4.9,5.1c1.5,2,2.9,4.1,4.2,6.2c2.8,4.4,5.4,8.9,7.7,13.6
					c1.3,2.6,2.5,5.2,3.7,7.8c1.2,2.5,2,5.7,4.1,7.6c0.4,0.4,1.1,0.4,1.5,0.1c0.3,0,0.6,0,0.9-0.1c0.2-0.1,0.4-0.1,0.6-0.2
					c1.2,1.4,4.2,0.9,4.3-1.5c0.1-3.7,2.1-7.2,3.8-10.4c1-1.9,2-3.8,2.9-5.7c-1.1,5.3-1.2,10.5-1,15.9c0.6,12.6,2,25,3.4,37.5
					c0.4,3.6,0.8,7.2,1.2,10.8c0.4,3.4,0.9,6.8,1.1,10.2c0.3,6.3-0.4,12.6,2.3,18.5c0.6,1.3,2,0.8,2.6-0.2c1.2,0.3,2.4,0,3.1-1.3
					l0,0c0.2,0,0.8,0,0.9,0c0.7,0,1.4-0.1,2-0.2c0,0,0,0.1-0.1,0.1c-0.5,1.9,0.7,3.5,2.4,4.1c2,0.8,4.4,0.9,6.6,0.9
					c2.6,0.1,5.2-0.1,7.7-0.6c5-0.9,7.8-5.1,9.8-9.5c1.1-2.4,2-4.9,3-7.4c0-0.1,0-0.1,0.1-0.1c0,0,0-0.1,0.1-0.1
					c0.1-0.2,0.2-0.4,0.2-0.5c0.3-0.7,0.7-1.5,1-2.2c0.8-1.7,1.5-3.5,2.1-5.3c1-2.7,1.8-5.4,2.6-8.1c0.9-2.2,1.7-4.4,2.4-6.6
					c1.1-3.2,2.1-6.5,3.4-9.7c1.3-3.2,3.2-6.2,4.8-9.3c1.9-3.7,3.7-7.6,4-11.8c0-0.3,0-0.5-0.1-0.7c6.3-3.9,11.6-9.2,16.5-14.7
					c5.3-5.9,10.6-11.7,15.6-17.8c5.1-6.4,9.5-13.2,13.6-20.2c4.4-7.5,8.7-15.1,14.7-21.4C377.5,726.1,374.2,723,371.9,725z
					 M270.8,863.1c1.8-5.1,3-10.3,4.9-15.3c1.8-4.8,4.3-9.2,6.4-13.9c2.2-4.9,4.2-9.8,6-14.8c0.5-1.4,1-2.8,1.4-4.3
					c0.1,0.1,0.3,0.2,0.5,0.3c0.5,0.6,1.5,0.9,2.2,0.3c0.3-0.1,0.5-0.2,0.8-0.3c0.9-0.5,1.8-1.1,2.6-1.6c-0.6,0.7-1.1,1.4-1.6,2.1
					c-5.6,7.5-9.1,16.3-12.2,25c-1.6,4.4-2.9,8.8-4.3,13.2c-2.2,3.7-4.5,7.2-7.2,10.5C270.5,863.9,270.6,863.5,270.8,863.1z
					 M262.8,748.5c3.4-6.3,7.3-12.2,11.3-18.1c-1.2,2.1-2.4,4.1-3.5,6.2c-3.4,6.1-7.3,11.9-11,17.9
					C260.7,752.5,261.7,750.5,262.8,748.5z M261.8,869.6C261.8,869.6,261.7,869.7,261.8,869.6C261.6,869.8,261.5,869.6,261.8,869.6z
					"/>
			</g>
			<g>
				<path class="st4" d="M237.9,860.5c-3.4-3.4-6.5-7.1-9.5-10.7c-1.7-2-3.2-4-5-6c-1.7-1.9-3.6-3.8-5.4-5.7
					c-1.7-1.8-3.5-3.7-4.9-5.8c-1.4-2-2.6-4.1-3.8-6.2c-2.4-4-5-7.8-8.3-11.1c-3.2-3.2-6.8-6-10.2-9.1c-3.5-3.2-6.6-6.8-9.2-10.8
					c-2.8-4.1-5.2-8.5-8.1-12.5c-2.9-4.2-6.3-8-8.6-12.7c-0.6-1.4-1.2-2.8-1.7-4.2c-0.2-1-0.4-2-0.6-2.9c-1.6-7-3.6-14-6.1-20.8
					c-2.1-5.9-6.9-10.1-9.5-15.6c-0.3-0.6-1.3-0.2-1.1,0.5c1.1,3.7,3.1,6.8,4.9,10.2l2.7,6.5c0.8,2.5,1.4,5,2.2,7.5
					c1,3.2,1.9,6.4,2.6,9.7c1.5,6.3,2.5,12.7,4.2,18.9c1.6,6,4.2,11.6,7.2,17.1c5.6,10.1,13,19.7,22,27c4.9,4,10.3,7.3,14.7,11.8
					c2.1,2.2,4.1,4.6,6.1,7c2,2.4,4.2,4.7,6.2,7.2c2.3,2.9,4.6,5.8,6.7,8.8c1.7,2.5,3.4,5,5.2,7.4c3,3.8,8.1,8.5,13.4,6.5
					c0.9-0.3,1.5-1.2,1.2-2.1C244.1,866.4,240.8,863.4,237.9,860.5z"/>
				<path class="st4" d="M375.9,728.9c-0.1-0.7-0.5-1.2-1-1.4c1.2-0.9,0.1-3.2-1.4-2.6c-6.2,2.4-13,2.5-19.3,4.6
					c-6.6,2.3-13.2,4.8-19.7,7.5c-9.8,4.2-19.4,9.5-27.3,16.7c-2.4,2.2-4.6,4.6-6.6,7.3c-0.2-1.5-0.3-3-0.5-4.5
					c-0.5-5.1-1.4-10.1-2.1-15.2c-0.4-2.4-0.7-4.8-0.8-7.2c0-0.5-0.4-0.9-0.8-1c-0.5-9.4-0.3-18.8-0.1-28.2c0-0.5-0.3-1-0.7-1.3
					c0.7-1.4,1.3-2.9,1.9-4.4c0.4-1.1-1.3-1.8-1.9-0.8c-3.1,5-7.2,9.1-11.4,13.1c-4.1,3.9-8.7,7.4-12.7,11.4
					c-3.7,3.8-6.8,8.2-9.7,12.6c-2.9,4.5-5.7,9-8.1,13.8c-4.9,10-8.6,21-9.7,32.1c-0.6,6-0.5,12.1-0.7,18.1
					c-0.1,4.4-0.3,8.8-0.2,13.3c-1.8-6.3-3.7-12.5-5.9-18.6c-2.5-7.1-6.4-13.6-10-20.2c-3-5.7-6.4-12.8-12.6-15.5
					c-0.3-0.1-0.7-0.1-1,0.1c-0.6-1-1.2-2-1.8-3c-3.5-5.6-8-10.8-12.6-15.5c-4.7-4.9-9.9-9.3-15.6-13.1c-5.3-3.6-11.1-5.9-17.4-7.3
					c-6-1.3-12.2-2.1-18.3-1.6c-1.5,0.1-2.1,1.6-1.8,2.7c-0.2,0-0.4,0-0.6,0c-0.8,0-1.1,1.4-0.2,1.5c25,4.4,45,21.8,61.1,40.3
					c8.6,9.9,15.1,21.4,20.1,33.4c2.6,6.1,4.8,12.3,6.9,18.5c2.2,6.5,4.6,13,6.3,19.6c1,3.9,1.9,7.9,3.1,11.7
					c0.9,2.9,1.9,5.6,2.6,8.5c0.1,1.9,0.4,3.8,0.8,5.6c0.4,2.1,1,4.7,2.6,6.3c0.2,0.2,0.3,0.3,0.5,0.4c0.6,1.1,1.4,2.1,2.3,2.8
					c1,0.8,2.2,0.5,2.7-0.7c0.5-1.4,0.7-2.9,0.7-4.4c1.6-2.7,2-5.9,2.2-9c0.2-3.8-0.2-7.7-0.5-11.5c-0.4-4.1-0.6-8.2-1-12.4
					c-1-9.8-2.7-19.6-3.4-29.4c0.2-1.6,0.5-3.1,0.7-4.7c1.2-8.7,1.9-17.5,3.6-26.1c1.7-8.8,4.7-17,9.2-24.8
					c4.4-7.6,9.6-14.9,14.9-21.9c2.8-3.7,5.9-7.4,8.7-11.2c-0.7,5-0.2,10.4,0.1,15.2c0.1,1.8,0.3,3.5,0.6,5.3
					c-0.2,20.5,1.7,41-0.8,61.4c-0.9,7.3-2.4,14.5-4.4,21.6c-1.7,4.6-3.5,9.1-5.3,13.7c-2.1,5.6-4.5,11.1-6.6,16.8
					c-1.2,2.6-2.4,5.2-3.7,7.8c-0.8,1.7-1.6,3.4-2.6,5.1c-0.8,1.5-1.7,3.1-2.2,4.8c-0.8,3,0.6,6.6,4.2,6.7c2.7,0.1,4.6-2.4,5.8-4.5
					c1.5-2.6,2.6-5.5,3.6-8.3c0.4-1,0.7-2,1.1-3c0,0,0.4-0.9,0.5-1.1c0.3-0.6,0.5-1.1,0.8-1.7c0.5-1.2,1.1-2.4,1.6-3.6
					c2.1-4.9,4.2-9.8,6.1-14.7c3.9-10,7.3-20.2,9.6-30.6c2.3-10.3,3.6-21,3.6-31.5c0,0,0,0,0-0.1c6.1-7.1,14.4-12.5,21.9-17.8
					c4.8-3.4,9.6-6.8,14.7-9.7c5.6-3.2,11.5-5.9,17.3-8.5c5.7-2.6,11.4-5.2,16.9-8c-3.7,3.6-5.9,8.5-9.1,12.5
					c-4.6,5.6-9.8,10.6-14.8,15.8c-8.5,9-15.4,19.1-23,28.8c-4.3,5.5-8.9,10.9-14.1,15.5c-1.1,1,0.2,2.4,1.4,1.9l0,0
					c-0.1,0.2-0.3,0.3-0.5,0.5c-0.3,0.3-0.4,0.6-0.5,1c-1.5,2-3,4-4.2,6.1c-2.9,4.8-4.6,10.1-6.1,15.5c-1.6,5.6-3.2,11.1-5.5,16.5
					c-1.9,4.5-4.3,8.6-6.9,12.7c-2.5,3.9-5.5,8.4-5.6,13.2c0,0.8,0.6,1.5,1.3,1.7c8.7,2.7,13.5-7.5,15.9-14c3.3-9,4.8-18.6,7.1-27.9
					c1.9-8,4.4-15.9,8.4-23.1c0,0,0,0,0,0c5.2-4.8,10-10.2,14.9-15.3c5.2-5.5,10.4-10.9,15.4-16.5c4.9-5.5,9.6-11.2,14.1-17
					c3.1-4.1,6.4-8.1,9.3-12.3C372.9,740.1,376.4,734.5,375.9,728.9z M249.2,839.3c0-4.8,0.2-9.6,0.5-14.4c0.1-1.9,0.3-3.9,0.5-5.8
					l-0.2,24.6C249.8,842.2,249.5,840.7,249.2,839.3z"/>
			</g>
			<g>
				<path class="st5" d="M174.8,864.3C174.5,864.3,174.4,864.4,174.8,864.3L174.8,864.3z"/>
				<path class="st5" d="M211.7,863.6c-1.4-0.6-2.9-1.4-3.8-2.8c-0.9-1.3-1.3-2.9-2-4.3c-1.4-2.9-3.7-4.6-7-3.9
					c-1.2,0.3-2.4,0.9-3.3,1.8c-1.4-0.6-3-0.5-4.4,0.2c-0.6,0.3-1.1,0.7-1.5,1.1c-1.9-0.7-4.1-0.8-6-0.3c-1.8-1.5-4-2.5-6.3-1.3
					c-1.7,0.9-2.8,2.8-3.1,4.7c-1.4,0-2.7,0.4-3.7,1.5c-0.7,0.8,0,2.2,1.1,1.9c0.1,0,0.1,0,0.2,0c0.3,1.3,1.9,2.4,3.4,1.8
					c-0.1,0-0.2,0.1-0.2,0.1c-0.1,0-0.2,0-0.2,0.1c0,0,0.1,0,0.1,0c0.2,0,0.5,0,0.7,0.1c0.6,0.1,0.9,0.1,1.6,0.2
					c1.4,0.2,2.7,0.4,4.1,0.7c2.1,0.4,4.1,1.2,6.1,1.8c2.5,0.7,4.9,1.1,7.5,1.4c4.3,0.5,8.7,1.2,13,1.8c2,0.3,4.1,0.5,6.2,0.5
					c2.1,0,3.9-0.4,5.9-0.8c1.4-0.3,1.8-2.2,0.8-3.1C218.6,864.4,214.7,864.9,211.7,863.6z"/>
				<path class="st5" d="M338.5,856.6c-1.5,0.3-3.1-0.1-4.6-0.3c-1.4-0.2-2.9-0.2-4.3-0.1c-2,0.1-3.9,0.4-5.8,1
					c-0.6-1.3-1.6-2.4-3-2.8c-1.3-0.4-2.8-0.4-4.1-0.2c-2.1-4.1-8.7-5.2-12-2.3c-0.8-0.6-1.8-0.9-2.9-0.7c-3,0.5-3.1,3.3-3.6,5.7
					c-0.5,2.9-2.5,7-5.6,8.2c-0.5,0.2-0.8,0.9-0.3,1.3c1.3,1.3,2.8,1.1,4.1,0.3c0.3,0.7,0.9,1.2,1.8,1.3c2,0.1,4-0.4,6-0.6
					c2.1-0.2,4.1-0.3,6.2-0.6c4.3-0.6,8.6-1.1,12.8-1.9c3.1-0.6,6.3-1.2,9.4-2c2.7-0.7,5.5-1.5,7.7-3.4
					C341.4,858.2,340,856.2,338.5,856.6z"/>
			</g>
		</g>
		<g>
			<path class="st6" d="M378.3,723.6c-0.8,0.1-1.7,0.1-2.5,0.2c-0.2-0.2-0.4-0.2-0.7-0.2c-0.5,0.1-1,0.3-1.4,0.4
				c-10.6,1.5-20.7,5.7-30.6,9.7c-5.8,2.4-11.5,4.8-16.9,7.9c-5.6,3.2-10.9,6.9-16.1,10.8c-4.4,3.3-9.1,6.7-11.9,11.5
				c0-0.1,0-0.2,0-0.3c-0.2-6.5-1-12.9-1.7-19.3c-0.7-6.3-0.8-12.5-0.9-18.8c-0.1-11.2-1.5-24.3,4.9-34.1c0.5-0.8-0.7-1.7-1.3-1
				c-1.8,2-2.8,4.3-3.8,6.8c-1.1,2.9-2.3,5.4-4.1,7.9c-0.7,1-1.5,2-2.2,3c0.4-6.1,1.6-12.1,0.9-18.2c0-0.4-0.5-0.6-0.8-0.5
				c0-0.1,0-0.2,0.1-0.3c0.2-0.9-1.1-1.5-1.5-0.6c-3.7,8.1-10.2,14.5-15.5,21.5c-5.8,7.7-11.6,15.4-16.2,23.9
				c-4.6,8.4-7.8,17.5-10.2,26.7c-1.2,4.7-2.2,9.5-3.1,14.3c-0.6,3.4-1.3,6.8-1.5,10.2c-0.2,3.1-0.4,6.2-0.8,9.4
				c-0.2,1.5-0.5,3.1-1,4.6c-0.1,0.3-0.2,0.6-0.3,0.9c-0.1-0.4-0.3-0.7-0.4-1.1c0-4.7,0.2-9.4,0.3-14.1c0.1-5.7-0.2-11.6-1.5-17.2
				c-1.4-5.6-4-10.6-7.2-15.4c-3.1-4.7-5.9-9.7-9.4-14.2c-1.5-2-3.1-3.7-4.9-5.4c-1.5-1.5-3.9-3.5-3.9-5.8c0-1.1-1.7-1.1-1.7,0
				c0.2,7.5-2.6,15.1-1.5,22.6c-2.8-2.6-5.6-5.1-8.5-7.6c-5.2-4.5-10.4-9-16.2-12.8c-6.4-4.3-13.6-7.6-21-9.7
				c-3.9-1.1-7.8-1.5-11.9-1c-4.2,0.5-8.4,1.3-12.5-0.3c-0.9-0.3-1.7,1-0.9,1.6c0.7,0.5,1.3,1.1,1.9,1.6c-0.3,0.3-0.3,0.8,0.2,1.1
				c0.9,0.5,1.7,1.1,2.5,1.7c6.4,7.3,10.1,17,12.9,26c4,13,5.6,26.7,11.5,39c5.4,11.3,13.9,20.9,22.8,29.6c1.3,5.1,0.3,10.2,0,15.4
				c-0.1,2.6,0,5.3,0.9,7.8c1.1,2.8,3.1,5,5.6,6.7c2.8,2,6.8,3.5,7.7,7.2c0.4,1.5,0.3,3.1,0.7,4.6c0.4,1.5,1.3,2.7,2.5,3.6
				c4.7,3.6,11.7,4,17.4,4.2c3.1,0.1,6.1-0.3,9.2-0.5c1.6-0.1,3.6-0.4,5.5-0.3c0.3,0.1,0.5,0.3,0.8,0.4c-8.9,2.9-18.7-0.4-27.9,0.5
				c-0.7,0.1-1.1,0.8-0.6,1.4c1.4,1.4,3.5,1.8,5.4,2.1c2.8,0.3,5.7,0.3,8.5,0.1c2.7-0.1,5.4-0.4,8-0.5c3.5-0.2,7-0.1,10.5-0.1
				c3.6,0,7.3-0.1,10.9-0.2c0,0,0,0,0,0c0.1,0.4,0.6,0.6,0.9,0.5c2.4-0.8,5.8-0.4,8.5-1.1c1-0.1,2.1-0.2,3.1-0.3
				c0.3,0.5,0.7,0.9,1.4,1.2c1.9,0.9,4.2,0.4,6.2,0.3c2.5-0.2,4.8,0.1,7.3,0.4c2,0.2,5,0.8,6.7-0.7c0.1-0.1,0.2-0.2,0.2-0.3
				c0.6,0.5,1.8,0,1.5-0.9c-0.2-0.5-0.5-0.9-0.9-1.2c6.7-3.6,10.7-11.8,13.3-18.5c1.6-4.1,2.9-8.4,4.1-12.7c1.9-6.9,1.7-14.3,4-21.1
				c2.7-7.8,7.9-14.5,13-20.9c0.2-0.3,0.3-0.6,0.2-0.9c2.8-1.9,5.5-4.1,8-6.4c4.6-4.1,8.9-8.4,13.2-12.8c4.8-4.8,9.3-9.8,13.5-15.2
				c4-5.1,7.3-10.5,10.6-16c3.7-6.2,7.4-12.5,9.3-19.5C379.3,724.2,378.9,723.5,378.3,723.6z M317.3,797.6c-0.6,0.3-1.1,0.5-1.7,0.8
				c-2.7,1.2-5.3,2.4-7.9,3.9c-5.8,3.3-11,7.5-15.5,12.4c-0.8,0.8-1.5,1.7-2.3,2.5c2.2-5.4,4.4-10.9,5.8-16.6
				c2-8.4,2.7-17.2,2.7-25.9c0,0,0.1,0,0.1,0c1.7-0.8,3-2.6,4.1-4c1.5-1.9,2.9-4,4.5-5.8c3.8-4.5,8.9-8.1,13.7-11.4
				c5.4-3.7,11-7.4,16.7-10.7c5.7-3.3,11.7-5.8,17.5-8.7c5.4-2.7,10.8-5.5,16.4-7.7c1-0.2,1.9-0.4,2.9-0.5c-0.6,2.3-2.1,4.5-3.5,6.5
				c-1.8,2.7-3.5,5.3-5.2,8.1c-3.9,6.1-7.7,12.4-12.1,18.2c-4.1,5.4-8.7,10.2-13.5,15c-3.9,3.8-8.1,7.1-12.3,10.6
				c-4.1,3.5-8.7,7.6-10.5,13C317.2,797.3,317.2,797.5,317.3,797.6z M284.6,867.5c-0.8,0-1.6-0.1-2.4-0.1c-4.6-0.1-9.2,0.3-13.8,0.6
				c0-0.1,0-0.3,0-0.4c0.2-0.1,0.3-0.3,0.4-0.6c0-0.2,0.1-0.4,0.1-0.6c1.7-1.9,3.3-3.8,4.9-5.9c1.8-2.4,3.2-5.1,4.6-7.8
				c3-6,5.8-12,8.5-18.2c3.9-8.9,8.6-17.9,15.6-24.8c3.3-3.3,7.2-5.9,11.6-7.4c-3,4-6.2,7.9-8.3,12.4c-2.5,5.3-3.7,11-5.4,16.5
				c-1.8,5.8-3.1,11.7-5.1,17.5c-0.8,2.2-1.6,4.3-2.8,6.2c-1.1,1.6-2.2,3.2-3.4,4.8c-1.3,1.8-2.5,3.6-3.5,5.5
				C285.2,866,284.8,866.7,284.6,867.5z M244.8,790.7c2.9-11.6,5.8-23.4,10.8-34.3c1.6-3.6,3.6-6.9,5.7-10.1
				c-3.5,6.1-6.3,12.6-8.4,19.4c-6.6,21.9-6,45.3-3.6,67.8c1,8.7,2.3,17.3,3.7,25.9c-1-3-2.3-6-3.3-8.9c-1.1-3.2-1.9-6.5-2.6-9.8
				c-0.4-3.6-0.5-7.2-0.8-10.7c-0.5-6.4-1.8-12.6-3.5-18.7C242.5,804.4,243,797.5,244.8,790.7z M256.1,868.9
				c-3.7-21.5-7.3-43.3-7-65.2c0.3-22.5,4.8-45.4,18.2-63.8c3.7-5.1,8.3-9.6,12.2-14.6c3.2-4.2,6.2-8.7,10-12.4
				c-1.5,10.8-1.2,21.6-0.1,32.4c1.3,11.7,3.3,23.3,2.9,35.1c-0.4,12.1-3.6,23.9-7.2,35.4c-1.7,5.4-3.4,10.6-5.6,15.8
				c-2.6,4.6-5,9.4-6.9,14.4c-0.6,1.5-1.1,2.9-1.6,4.4c-1.6,2.8-2.9,5.8-3.7,8.9c-0.8,2.1-1.6,4.7-0.8,6.8c0,0.2,0,0.4,0,0.7
				c0,0.1,0,0.2,0.1,0.2c-0.4,0.6-0.9,1-1.5,1.4C262.1,868.6,259.1,868.8,256.1,868.9z M299.3,810.6c-2,2.3-3.8,4.7-5.4,7.2
				c-6.1,9.4-9.8,20.2-14.7,30.2c-1.6,3.3-3.1,6.7-5.1,9.8c-1.3,2-2.9,3.9-4.4,5.7c0.9-3.8,2-7.7,3.3-11.5c0.3-0.6,0.6-1.1,0.9-1.7
				c2.8-4.8,6.5-9.3,8.6-14.5c1.1-2.8,2-5.7,3.1-8.4c0.5-1.2,1-2.3,1.5-3.5C290.5,819.1,294.6,814.5,299.3,810.6z M281,833.4
				c-1,2.5-2.2,4.9-3.6,7.2c0,0,0,0,0,0C278.5,838.1,279.7,835.7,281,833.4z M310.1,754.7c5-3.6,10-7.1,15.3-10.3
				c5.4-3.2,11-5.8,16.7-8.1c5.5-2.2,11.1-4.5,16.7-6.4c1-0.3,2-0.7,3.1-1c-1.5,0.7-3.1,1.5-4.6,2.3c-5.9,2.9-12.1,5.5-17.9,8.6
				c-5.8,3.1-11.3,6.8-16.8,10.4c-5.2,3.5-10.4,7.1-14.9,11.5c-1.9,1.8-3.4,3.9-5,6c-1.2,1.6-2.6,3.8-4.4,5c0-2.2-0.1-4.3-0.1-6.5
				C301.1,761.4,305.6,757.9,310.1,754.7z M291.1,708.2c1.3-1.7,2.5-3.3,3.5-5.1c-0.9,5.7-0.7,11.8-0.6,17.4
				c0.2,5.7,0.1,11.5,0.5,17.2c0.5,6.6,1.5,13.2,2.1,19.9c0.5,6.4,0.4,12.8,0.2,19.1c-0.2,6.4-0.7,12.8-2,19
				c-1.3,6.3-3.4,12.2-5.8,18.2c-1.3,3.2-2.7,6.3-4.1,9.5c-0.4,0.6-0.9,1.2-1.3,1.8c0.9-2.4,1.7-4.8,2.5-7.2
				c3.5-11,6.7-22.3,7.6-33.8c0.9-11.5-0.8-23-2.2-34.3c-1.5-12.9-2.2-26-0.2-38.9c0.1-0.8-0.7-1.4-1.4-0.8c-0.4,0.3-0.7,0.6-1.1,1
				c0-0.1,0-0.1,0-0.2C289.7,710.1,290.4,709.2,291.1,708.2z M288.4,699c-0.1-2.7,0-5.4,0.5-8.1C289,693.6,288.7,696.3,288.4,699z
				 M241,798c0.6-2.9,0.9-5.8,1.1-8.7c0.6-7.5,1.8-14.9,3.4-22.2c2.2-9.7,5.1-19.4,9.5-28.3c4.4-8.8,10.2-16.8,16.1-24.6
				c3.2-4.2,6.4-8.3,9.8-12.3c2.1-2.6,4.2-5.3,6-8.1c-0.5,5.6,0.4,11.2,0.4,16.8c-0.6,0.8-1.2,1.5-1.8,2.3c-2,2.7-4,5.5-6.1,8.1
				c-8,10-17.3,19.3-23.3,30.8c-5.6,10.7-8.8,22.5-11.8,34.2c-1.6,6.2-2.9,12.3-3.2,18.7c0,0.3,0,0.5,0,0.8
				c-0.4-1.2-0.8-2.5-1.3-3.7C240.4,800.6,240.7,799.1,241,798z M211.9,730.8c1.4,1.9,3.5,3.6,5,5.1c3.9,4,6.5,9,9.4,13.6
				c3.1,4.9,6.5,9.6,8.3,15.1c1.9,5.7,2.4,11.7,2.4,17.7c0,3.9-0.2,7.8-0.2,11.7c-0.9-2.2-1.7-4.4-2.6-6.6
				c-4.7-11.8-10.9-22.7-19.5-32.2c-1.4-1.5-2.8-2.9-4.2-4.3c0-0.1,0-0.1,0-0.2C209.3,744.1,211.3,737.4,211.9,730.8z M159.3,720.1
				c3.7,0.7,7.3,2,10.8,3.4c3.1,1.2,6.1,2.6,9,4.3c6,3.5,11.4,7.8,16.6,12.2c5,4.2,10,8.5,14.6,13.1c8.8,8.9,15.7,19.3,20.6,30.8
				c2.2,5.1,4.2,10.3,6.1,15.6c0.1,0.9,0.1,1.9,0.2,2.8c0.1,0.5,0.5,0.8,1,0.6c0.1,0.4,0.3,0.8,0.4,1.3c0.8,2.4,1.6,4.8,2.3,7.2
				c0.1,4.3,0.6,8.6,1.2,12.8c0.8,5.1,1.8,10.2,2.9,15.2c0.3,3.4,0.8,6.9,1.8,10.2c1.3,4.2,3.8,8.3,5.1,12.7c0.3,1.5,0.5,3,0.4,4.5
				c-0.5-0.1-0.9-0.2-1.4-0.3c-1.1-1.4-1.8-3.5-2.2-4.4c-1.7-4.2-2.8-8.6-3.8-13c-0.9-4-1.7-8-2.6-12c-1.2-5.6-3.1-11-5-16.4
				c-2.8-7.6-6-15.1-9.3-22.5c-3.4-7.5-6.6-15.1-10.6-22.3c-3.7-6.8-8.1-13.3-13.1-19.2c-5-5.8-10.9-10.7-17.2-15
				c-3.6-2.4-7.3-4.7-11-6.9c-3.8-2.3-7.6-4.6-11.6-6.5c-7-3.3-14.5-5.6-22-7.3c-0.2-0.2-0.4-0.4-0.7-0.6
				C147.6,721.2,153.5,719.1,159.3,720.1z M144.8,723.8c-0.1-0.2-0.3-0.4-0.4-0.5c6.2,1.5,12.3,3.4,18.1,6c7.2,3.3,14,7.6,20.6,11.8
				c6.6,4.2,12.9,8.9,18.2,14.7c5.5,6,10.2,12.7,14.3,19.7c4,7,7.2,14.3,10.5,21.6c3.5,7.8,6.9,15.6,9.8,23.6
				c2,5.5,3.9,11.2,5.1,16.9c0.8,4,1.5,8,2.4,12c1.1,4.9,2.2,9.8,4.3,14.4c0.2,0.5,0.5,1.1,0.8,1.7c-8.7-3.1-14.9-11.1-20.6-18.1
				c-8.2-10.1-17.9-18.8-26.9-28.3c-4.6-4.8-8.7-10-12.8-15.2c-4.2-5.3-8.2-10.8-11.8-16.5c-3.6-5.7-6.7-11.6-9.4-17.8
				c-2.7-6.3-5-12.9-7.3-19.4C156.4,741,152.6,730.4,144.8,723.8z M228,865.9c-2.8,0.2-5.7,0-8.5-0.4c-3-0.3-6.2-0.9-9-2.2
				c-1.2-0.6-2.5-1.3-3.2-2.5c-0.9-1.5-0.7-3.3-1-5c-0.5-3.2-2.9-5.3-5.5-7c-2.9-1.9-5.9-3.4-7.7-6.6c-1.3-2.3-1.6-5-1.5-7.6
				c0.1-4.9,0.9-9.7,0-14.4c0,0,0.1,0.1,0.1,0.1c4.8,4.6,9.9,8.7,14.8,13.1c4.8,4.3,9.1,9,12.9,14.3c4.5,6.3,9.6,13.2,16.3,17.5
				C233.1,865.4,230.5,865.8,228,865.9z M220,870.2c-1.5,0-3.5,0-5.1-0.6c3.2-0.1,6.5,0.2,9.8,0.5
				C223.1,870.2,221.5,870.2,220,870.2z M240.9,869.3c0.7-0.2,1.4-0.4,2.1-0.7c1.1,0.3,2.3,0.5,3.5,0.6c1,0.1,1-1.4,0-1.6
				c-0.8-0.1-1.5-0.2-2.2-0.4c-0.1-0.3-0.2-0.5-0.5-0.7c-1.4-1-3.1-1.3-4.8-1.3c-7.1-3.8-12.5-11.2-17-17.6
				c-3.6-5-7.4-9.7-11.9-13.9c-4.8-4.4-9.9-8.5-14.7-12.9c-1.8-1.6-3.5-3.3-5.3-5c0-0.1,0-0.1-0.1-0.2c-0.1-0.2-0.2-0.2-0.4-0.3
				c-7.6-7.5-14.7-15.8-19.7-25.1c-6.4-12-8.2-25.6-11.9-38.5c-1.4-4.9-3.1-9.8-5.2-14.5c1.9,3.9,3.4,8.1,4.8,12
				c4.5,12.9,9.3,25.6,16.5,37.2c3.5,5.7,7.3,11.1,11.4,16.4c4.1,5.3,8.2,10.6,12.7,15.6c8.9,9.7,18.9,18.4,27.2,28.7
				c6.7,8.3,13.9,18.1,24.6,21c0.3,0.4,0.7,0.7,1.1,1C247.7,869.2,244.3,869.2,240.9,869.3z M254.5,869c0,0,0-0.1,0-0.1
				C254.6,868.9,254.6,869,254.5,869C254.6,869,254.6,869,254.5,869z M288,869.9c0.1,0,0.1,0,0.2,0.1c-0.1,0-0.1,0.1-0.2,0.1
				c-0.6,0.5-1.8,0.4-2.5,0.4c-1.1,0-2.2-0.1-3.3-0.2c-2-0.2-3.9-0.5-5.9-0.4c-1.8,0.1-3.6,0.4-5.4,0.3c-0.5,0-1-0.2-1.3-0.3
				c2.7-0.2,5.4-0.4,8-0.5c2.3-0.1,4.5-0.1,6.8,0c0,0.1,0,0.2,0,0.3c0.1,0.5,0.7,0.7,1.2,0.7c0.7-0.1,1.4-0.3,2-0.6
				C287.7,869.9,287.9,869.9,288,869.9z M311.4,811.5c-3.1,6.5-3.6,13.4-4.8,20.4c-0.8,4.8-2.3,9.6-3.8,14.2
				c-1.6,4.7-3.5,9.3-6.2,13.4c-2.3,3.5-5.3,6.8-9.2,8.3c-0.3-0.1-0.6-0.1-1-0.2c0.3-0.8,0.8-1.7,1.2-2.3c1-1.7,2.1-3.2,3.2-4.8
				c2.3-3.2,4.3-6.2,5.7-9.8c2.1-5.5,3.5-11.3,5.1-17c1.6-5.5,3-11.1,5.1-16.4c2.5-6.1,6.8-10.9,10.6-16.2c0.3-0.5,0.1-1-0.3-1.2
				c0.9-0.4,1.7-0.8,2.6-1.2C316.5,802.7,313.6,806.9,311.4,811.5z M369.5,741.4c-3.2,5.4-6.4,10.9-10.2,15.9
				c-7.5,10.1-16.6,19.2-25.8,27.7c-4.4,4-9,7.8-14.1,10.8c1.7-4.3,5.7-7.6,9.1-10.5c4.2-3.5,8.6-6.8,12.6-10.6
				c4.7-4.6,9.3-9.5,13.3-14.7c4.4-5.6,8.1-11.8,11.9-17.8c2-3.2,4-6.3,6.1-9.4c1.4-2.2,2.9-4.5,3.5-7c0.4-0.1,0.8-0.1,1.2-0.1
				C375.3,731.2,372.4,736.4,369.5,741.4z"/>
			<path class="st7" d="M348.2,851.4c-0.6-0.4-1.1-0.7-1.7-1c0,0,0,0,0,0c-2.1-2.6-5.9-3.5-8.9-4c-2.7-0.5-5.5-0.7-8.2-0.8
				c-2.8-0.7-5.6-1.5-8.5-2.1c-4-0.9-8.3-1.6-12.3-1c-1.6,0.3-3,0.8-4.2,1.8c-0.6,0.5-0.2,1.5,0.4,1.7c7.6,2.4,15.9,1.3,23.8,1.5
				c4.9,1.3,10,2.2,14.8,4c0.5,0.2,1.2,0.4,1.8,0.7c0.5,0.8,0.7,1.7,0.2,2.8c-0.2,0.4-0.4,0.7-0.6,1.1c-0.5,0.3-0.9,0.6-1.3,0.9
				c-0.5-1.3-1.8-2-3.4-1.6c-1.6,0.4-2.6,1.6-2.4,3c-1.6-0.1-3.2,0.3-4.7,1c-0.9-2.2-3.5-3.6-5.9-3.4c-0.1-0.1-0.1-0.1-0.2-0.2
				c-2.3-1.4-4.8-0.3-6.5,1.5c-0.8-1.4-2.3-2-3.9-1.9c-0.4-0.7-1.1-1.3-1.9-1.5c-0.3-0.7-0.7-1.4-1.3-1.8c-1.3-1-2.6-0.5-3.6,0.4
				c-1.4-1.3-3.2-1.3-4.7-0.1c-1.9-0.4-4,0.7-5.4,2.1c-0.4,0.4,0.2,0.9,0.6,0.6c1-0.8,2.5-1.7,3.8-1.6c-0.9,1.3-1.3,3.3,0.6,3.8
				c2.3,0.6,3.9-1.6,2.4-3.5c-0.1-0.2-0.3-0.3-0.4-0.5c0.8-0.3,1.7-0.1,2.3,0.9c0.4,0.5,1,0.5,1.4,0c1.1-1.4,2-0.9,2.5,0.1
				c-0.5,0.4-0.9,0.9-1.3,1.4c-0.2,0.3-0.1,0.8,0.1,1c0.1,0.1,0.2,0.2,0.4,0.3c-1.3,1.1-2.1,2.5-1.4,4c0.9,2,4.4,3.1,5.9,1.3
				c1.2-1.4,1-3.6,0.5-5.3c1,0.1,1.9,0.8,2.1,2.3c0.1,0.7,1.1,0.7,1.5,0.2c0.8-1.3,2.4-2.7,4-2.5c-1.1,1-0.7,2.9,0.4,3.9
				c0.5,0.4,1.1,0.3,1.4-0.2c0.6-0.8,1.3-1.8,1.4-2.8c0.4,0,0.8,0.1,1,0.2c1.3,0.4,2.4,1.5,2.6,2.8c0.1,0.4,0.4,0.6,0.8,0.6
				c-3.2,0.9-6.5,1.6-9.8,2.1c-9.8,1.6-19.7,1.9-29.6,2.7c-10.5,0.9-20.9,2.2-31.3,3.2c-10.5,1-21.1,2.1-31.6,2
				c-10.5-0.1-20.8-1.7-31.1-3.3c-4.9-0.8-9.7-1.4-14.6-2c-2.2-0.3-4.3-0.9-6.4-1.6c-0.9-0.3-1.8-0.6-2.7-0.9
				c0.7-0.8,1.1-1.9,1.1-2.9c0.5,0.3,1.3-0.1,1.2-0.7c-0.2-1.7,1.5-3.9,3.4-3.7c0.9,0.1,1.6,1.1,1.4,1.9c-1.3-0.2-2.9,0.3-3.7,1.3
				c-0.3,0.4-0.2,1,0.3,1.1c1.3,0.3,2.9,0.2,4-0.6c0,0.1,0.1,0.3,0.1,0.5c0,0.7,1.1,0.9,1.3,0.2c0.3-1.7,1.5-2.4,2.6-2.1
				c-0.1,0.2-0.2,0.4-0.3,0.6c-1,2.4,1.3,3.4,3.3,2.9c0.3-0.1,0.5-0.4,0.5-0.7c0-0.7-0.2-1.4-0.4-2c0.3,0.1,0.6,0.2,1,0.2
				c0.6,0,0.9-0.7,0.5-1.1c-0.4-0.4-0.8-0.6-1.2-0.8c0.1-0.4,0.6-0.8,1-1.1c0.8-0.7,1.9-1.1,3-0.7c0.2,0.1,0.4,0.2,0.5,0.3
				c-1.4,1-2.3,2.5-1.8,4.3c0.1,0.5,0.6,0.6,1,0.6c1.8-0.3,3.5-1.5,3.3-3.5c0-0.2-0.1-0.4-0.1-0.6c1-0.3,2.1-0.4,2.9-0.4
				c0.6,0.1,1-0.6,0.8-1.1c-0.1-0.2-0.1-0.5-0.2-0.7c0,0,0,0,0.1-0.1c0.1-0.1,0.2-0.2,0.3-0.3c0.9,0.5,1.7,0.7,2.8,1
				c1.1,0.3,1.5-1.3,0.5-1.7c-1-0.3-1.9-0.4-2.7-1.1c-0.3-0.3-0.9-0.4-1.2,0c-0.4,0.5-1,0.8-1.3,1.3c-0.2,0.3-0.2,0.6-0.1,0.9
				c-0.9,0.1-1.8,0.3-2.7,0.6c-0.6-0.6-1.5-1-2.3-1.1c-1.8-0.2-3.7,0.9-4.7,2.5c-0.2,0.3-0.3,0.5-0.3,0.7c-0.2,0-0.4,0.1-0.6,0.1
				c-0.4-0.2-0.8-0.3-1.3-0.4c-1.3-0.1-2.3,0.3-3,1.2c0.1-1.1-0.4-2.2-1.3-2.9c-2.5-1.9-6,0.8-6.6,3.6c-0.2,0-0.5-0.1-0.8-0.1
				c-0.1-0.1-0.2-0.1-0.3-0.2c-1.1-0.5-2.5,0-3.6,0.5c-0.4,0.2-1.9,1-2.6,1.1c-0.1-0.1-0.2-0.2-0.3-0.3c0-0.4,0.2-1,0.2-1.1
				c0.3-1,0.9-1.7,1.7-2.4c1.9-1.6,4.3-2.5,6.6-3.4c2.4-0.9,4.9-1.7,7.5-2.1c3.8-0.6,7.8-0.3,11.6-1.6c0.9-0.3,0.8-1.8-0.2-1.8
				c-5.2,0.1-10.2,0.7-15.2,2c-2.5,0.7-5,1.5-7.5,2.4c-1.8,0.7-3.8,1.3-5.4,2.4c-1.7,1.1-3.1,2.9-2.3,5c0.8,2.1,3,3.4,4.9,4.4
				c0.4,0.2,0.9,0.5,1.3,0.7c0.1,0.1,0.2,0.2,0.4,0.2c0.1,0,0.1,0,0.2,0.1c4.4,2,9.1,3.2,13.9,3.8c9.7,1.2,19.4,3,29.1,4.2
				c-1.2,0-2.4,0-3.5,0.1c-10.5,0.2-21.4-0.1-31.5-3.2c-4.2-1.3-8.1-3.2-12-5.3c-0.7-0.4-1.5-0.8-2.4-1.4c-0.4-1-0.8-2-1.4-2.9
				c-0.3-0.5-1.1-0.8-1.6-0.4c-0.1,0.1-0.3,0.2-0.4,0.3c-0.5-0.7-0.7-1.5-0.6-2.3c0.2-1.6,2-2.6,3.3-3.4c1.7-1,3.6-1.7,5.4-2.4
				c4.8-1.7,9.9-2.9,14.9-3.9c2.9-0.5,5.9-0.9,8.9-1c1.3,0,1.3-2,0-2c-6.4-0.1-12.7,1-18.9,2.6c-4.2,1.1-8.6,2.3-12.3,4.7
				c-3.1,1.9-5.2,5.2-3.1,8.7c1,1.6,2.5,2.9,4.1,4c0.8,2.2,1.3,4.6,1.9,6.8c1.1,3.8,2.2,7.5,3.2,11.3c2,7.4,3.9,14.8,5.9,22.2
				c4,15,8.4,29.8,14.1,44.3c5.4,13.7,5.4,28.9,10.1,42.8c2.7,7.9,10.5,12.6,18,15.8c0.9,0.6,1.9,1.1,3,1.2c0.5,0.2,1,0.4,1.4,0.6
				c4.4,1.7,9,3.1,13.5,4.3c6.8,1.8,13.7,1.7,20.6,1.5c7.4-0.3,14.8-0.1,22.1-1c6.7-0.8,13.1-2.8,19.4-5.1c5.2-1.9,11.3-4.2,14.5-9
				c1.6-2.4,2.5-5.2,3.2-8c0.8-2.9,1.5-5.8,2.5-8.7c2.5-7.5,5-15,7-22.7c2-7.7,3.3-15.5,4.7-23.3c1.4-7.8,3.1-15.6,5.2-23.3
				c2.1-7.7,4.6-15.4,6.9-23.1c2.3-7.5,4.7-15.1,6.6-22.8c0.7-2.9,1.8-6,1.9-9c0-0.2,0-0.4,0-0.5c0.5-0.6,0.9-1.2,1.1-1.9
				C351.7,854.7,350.1,852.7,348.2,851.4z M306.2,855.3c-0.1,0.3-1,0.6-1.2,0.3c-0.4-0.4,0.2-1.1,0.6-1.6c0,0,0.1,0.1,0.1,0.1
				C305.9,854.3,306.4,854.9,306.2,855.3z M314.6,861.2c-0.7,0.1-2.3-0.6-2.4-1.4c-0.1-0.8,1-1.7,1.5-2.1c0.1-0.1,0.2-0.1,0.3-0.2
				c0.3,0,0.6-0.1,0.7-0.4c0.2-0.1,0.3-0.1,0.5-0.2c0.1,0.2,0.1,0.4,0.2,0.6C315.8,858.6,316.1,861.1,314.6,861.2z M325.9,858.1
				c0.1-0.1,0.1-0.1,0.2-0.2c0,0.2-0.2,0.4-0.3,0.6C325.8,858.3,325.8,858.2,325.9,858.1z M195.5,857.4c0,0.8-0.5,1.2-1.2,1.5
				c0.1-0.7,0.5-1.2,1.2-1.6C195.5,857.3,195.5,857.4,195.5,857.4z M187.7,859.3c0.1-0.1,0.1-0.3,0.2-0.4c0.4,0.4,0.8,0.9,0.9,1.6
				C187.9,860.7,187.2,860.5,187.7,859.3z M172.3,862.3c0-0.4,0.2-0.8,0.5-1c0.4-0.3,1-0.7,1.6-0.8c0.3,0.7-0.3,2-1,2.4
				C173.1,862.6,172.7,862.5,172.3,862.3z M171,861c-0.1,0.1-0.1,0.3-0.2,0.5c-0.1,0-0.1-0.1-0.2-0.1c0,0-0.1-0.1-0.2-0.1
				C170.6,861.2,170.8,861.1,171,861z M311.8,845.1c-1.4-0.1-2.7-0.3-4.1-0.6c2.6-0.9,5.8-0.5,8.2-0.1c1.7,0.2,3.4,0.6,5.1,1
				C317.9,845.4,314.8,845.4,311.8,845.1z M348.7,855c0.1,0.3,0.2,0.7,0.1,1c-0.2-0.2-0.5-0.4-0.8-0.6c-0.2-0.1-0.4-0.1-0.6-0.1
				c0.2-0.5,0.2-1.1,0.2-1.7C348.2,854,348.5,854.5,348.7,855z M342.1,858c-0.8,0.4-1.6,0.7-2.4,1c0-0.1-0.1-0.2-0.1-0.2
				C338,856.9,342.1,855.9,342.1,858z M336.7,860c-1.2,0.4-2.4,0.8-3.6,1.1C334.2,860.6,335.5,860.1,336.7,860z M286.9,869
				c10.7-1.1,21.5-1.5,32.2-2.9c5.2-0.7,10.4-1.7,15.5-3.2c3.6-1.1,7.8-2.3,10.8-4.7c0.5-0.4,0.9-0.8,1.2-1.3c0.1,0,0.3,0,0.4,0
				c0.5,0,0.8,0.4,0.8,0.9c-1.2,1.3-3.2,2.4-4.2,2.9c-8.4,4.6-18.7,4.8-28,5.9c-12,1.3-23.8,4-35.8,5c-9.1,0.8-18.3,0.9-27.5,0.8
				c0.1,0,0.2,0,0.4,0C264.2,871.5,275.6,870.2,286.9,869z M202.5,993.6c-1.4-2.7-2.1-5.9-2.9-8.8c-0.9-3.6-1.6-7.2-2.2-10.8
				c-0.7-4-1.4-8.1-2.2-12.1c2.7,2.3,6.1,3.9,9.6,5c0.7,0.8,0.6,2.7,0.6,3.6c0.1,2,0.1,4,0.1,6c0,3.2,0.2,6.3,1,9.4
				c1.5,5.5,3,11.5,5.9,16.5c-0.2-0.1-0.3-0.2-0.5-0.3C208.4,1000,204.6,997.4,202.5,993.6z M247.4,1005.6c0.4,2.2,0.9,4.4,0.8,6.6
				c-3.3,0.2-6.9,0.7-9.2-2.2c-2.2-2.8-2.8-6.9-3.3-10.3c-0.6-4-1.1-8.1-1.3-12.2c-0.3-5.2-0.1-10.5-0.3-15.7c0.2,0,0.5,0,0.7,0.1
				c4.7,0.5,9.5,0.8,14.3,1c-0.5,0.8-0.9,1.7-1.2,2.9c-0.7,3.3-0.6,6.6-0.7,10c-0.1,4.2-1,8.2-0.9,12.4
				C246.5,1000.7,246.9,1003.1,247.4,1005.6z M218.1,979.8c0.3,3.6,0.1,7.2,0.4,10.8c0.4,5.3,1.5,10.5,2.3,15.7
				c-1.5-0.6-3-1.3-4.5-2c-0.4-0.4-0.7-0.9-1-1.3c-1.9-2.9-3.2-6.2-4.4-9.5c-1-2.9-1.8-5.8-2.6-8.7c-0.9-3.2-0.8-6.4-0.8-9.6
				c0-2,0-4-0.2-6c0-0.5-0.1-1.1-0.2-1.6c1.2,0.3,2.5,0.6,3.7,0.9c2.6,0.6,5.2,1,7.8,1.5c-0.2,0.2-0.3,0.5-0.4,0.9
				C217.4,973.6,217.9,977,218.1,979.8z M226.2,1008.3c-1.1-0.4-2.1-0.7-3.1-1.1c-0.7-4.7-1.7-9.3-2.2-14c-0.4-3.7-0.1-7.5-0.4-11.2
				c-0.2-2.9-0.6-5.8-0.4-8.7c0-0.7,0-2.1,0.7-2.5c0.8-0.5,2.5-0.1,3.3,0c2.7,0.3,5.5,1.2,8.2,1.4c0.1,5.7-0.1,11.4,0.3,17.1
				c0.3,4.2,0.8,8.5,1.5,12.7c0.6,3.4,1.4,7.2,3.8,9.8C233.9,1010.9,230,1009.6,226.2,1008.3z M250.2,1012.8c0.4-3.8-1-7.6-1.5-11.3
				c-0.6-4.4,0.1-8.8,0.6-13.2c0.3-2.9,0.1-5.8,0.3-8.7c0.2-2.2,0.3-5.4,2.4-6.6c3,0.1,6,0.1,8.9,0c0.3,0.1,0.6,0.1,1,0.2
				c-1.7,6.5-0.3,13.4-0.4,20c0,6.3-0.6,13.1,1.4,19.2c-0.8,0-1.6,0-2.4,0.1C257,1012.6,253.6,1012.8,250.2,1012.8z M276.1,984.6
				c0,4.2,0.2,8.3,0.5,12.4c0.4,4.8,1.1,10-0.2,14.7c-0.3,0-0.6,0.1-0.9,0.1c-3.5-0.5-7.1-0.1-10.6,0.5c-2-6.1-1.6-12.7-1.5-19.1
				c0-6.6-1.5-13.8,0.4-20.3c4.4-0.1,8.8-0.4,13.2-0.9c-0.2,0.6-0.4,1.1-0.5,1.7C275.8,977.3,276,981,276.1,984.6z M278.6,1011.5
				c0.8-3.5,0.6-7.3,0.3-10.8c-0.3-4.5-1-9-0.9-13.5c0.1-3.3-0.1-6.6,0-10c0.1-1.5,0.1-3.4,0.9-4.8c0.2-0.3,0.4-0.5,0.6-0.7
				c4.4-0.5,8.7-1.2,13-2.1c1,3.2,1,6.6,0.9,9.9c-0.1,3.5-0.1,7-0.6,10.4c-0.5,3.6-1.2,7.1-1.6,10.7c-0.3,2.6-0.5,5.3-0.1,7.9
				c-3.2,1-6.4,1.9-9.5,2.5C280.6,1011.2,279.6,1011.4,278.6,1011.5z M308.7,969.5c0.2,2.5-0.3,5-0.9,7.4c-0.7,3-1.2,5.9-1.8,8.9
				c-0.6,3-1.2,5.9-1.9,8.9c-0.6,2.5-0.9,5.4-2.1,7.7c-0.8,1.5-2,2.5-3.4,3.4c-1.8,0.7-3.6,1.4-5.5,2.1c-0.4-2.6-0.1-5.3,0.2-7.8
				c0.5-3.7,1.2-7.3,1.6-10.9c0.4-3.4,0.4-6.9,0.4-10.3c0-3.2,0-6.6-1-9.6c4.8-1,9.5-2.3,14.1-3.9
				C308.4,966.7,308.6,968.2,308.7,969.5z M316.7,976.6c-1.1,3.3-2.3,6.7-3.3,10c-0.8,2.8-1.3,5.6-2.2,8.3c-0.9,2.6-2.1,4.8-4.2,6.5
				c-1,0.8-2,1.4-3.1,2c0.5-1,0.9-2,1.2-3.1c0.8-3,1.4-6.2,2.1-9.2c0.6-3,1.2-6.1,1.7-9.1c0.6-3,1.4-6,1.8-9c0.3-2.1-0.1-4-0.2-6.1
				c0-0.7-0.1-1.6,0.2-2.3c1.7-0.6,3.5-1.3,5.2-2c1-0.1,2.1-0.1,3.1-0.3c0.9-0.2,1.6-0.5,2.3-0.9
				C319.9,966.4,318.3,971.5,316.7,976.6z M339.1,888.2c-4.6,14.6-9.1,29.2-12,44.3c-1.5,7.6-2.6,15.2-4.3,22.7
				c-0.2,0.7-0.3,1.3-0.5,2c-2.4,1.3-4.9,2.4-7.4,3.5c-0.8,0.1-1.7,0.2-2.5,0.4c-1,0.3-2,0.8-2.7,1.6c-4.1,1.4-8.2,2.7-12.4,3.7
				c-3,0.7-5.9,1.4-8.9,1.9c-2,0.2-4,0.3-6,0.7c-0.9,0.2-1.8,0.3-2.7,0.7c-3.1,0.4-6.2,0.7-9.3,0.9c-3.9,0.2-7.8,0.3-11.7,0.4
				c-1.8-0.3-3.5-0.4-5.3-0.2c-0.3,0-0.6,0.1-0.8,0.2c-12.4-0.2-24.9-1.4-37.2-3.5c-4-0.7-8.1-1.5-11.9-3c-3.1-1.1-6.2-2.5-8.6-4.8
				c-0.5-2-1-4-1.6-6c-1-3.4-2.5-6.7-3.7-10.1c-1.4-3.6-2.6-7.2-3.9-10.9c-2.3-6.9-4.3-13.9-6.2-21c-3.9-14.2-7.3-28.6-11.7-42.6
				c-0.3-0.8-0.5-1.7-0.7-2.5c0.6,0.3,1.1,0.6,1.7,0.9c4.6,2.3,9.2,4.3,14.2,5.5c5.6,1.3,11.2,1.8,16.9,2c11.5,0.3,23-0.5,34.4-0.4
				c12.8,0.1,25.7,0.5,38.5-0.1c6.1-0.3,12.2-0.9,18.3-1.8c6.6-1,13.2-2.2,19.8-3.1c10.4-1.4,21.5-1.3,31.4-5.5
				c1.7-0.7,3.7-1.7,5.4-3c-0.5,2-1.4,4.1-2,6C343.3,873.9,341.4,881.1,339.1,888.2z"/>
		</g>
	</g>
	<g class="st0">
		<g>
			<path class="st2" d="M1197.3,857c0.9-4.1,3.9-7.1,7.5-9c3.4-1.8,7.1-2.9,10.7-4c5.1-1.5,10.1-2.9,15.4-3.6
				c11.6-1.7,23.4-1.5,35.1-1.5c12,0.1,24,0.4,36,1.4c11.8,0.9,23.6,0.9,35.4,2c3,0.3,5.9,0.6,8.8,1c1.6,0.2,3.3,0.3,4.9,0.5
				c0.2-0.1,0.4-0.2,0.6-0.3c1.2-0.2,2.3-0.3,3.5-0.4c1.7-0.1,2.3-0.2,4-0.1c3.3,0.2,6.6,0.7,9.9,1.4c3.4,0.7,6.7,2,9.8,3.5
				c2.6,1.3,5.3,3,7.1,5.3c2,2.5,3.2,5.5,2.9,8.7c-0.6,5.3-3,10.1-5,14.9c-2.1,5.1-3.4,10.5-4.8,15.8c-1.5,5.6-2.9,11.3-4.6,16.9
				c-1.6,5.6-3.1,11.3-4.2,17c-1.1,5.7-2.1,11.5-3.2,17.2c-0.5,2.6-1,5.3-1.9,7.9c-0.8,2.4-1.9,4.7-3.1,7c-2.1,4-4.6,7.8-6,12.2
				c-2.5,7.8-4.1,16.4-8.9,23.3c-2.6,3.8-6.2,6.3-10.2,8.6c-4.4,2.5-9.2,4.4-14,6.1c-10,3.4-20.3,5.6-30.8,6
				c-10.7,0.4-21.6-0.8-32-3.6c-5.1-1.4-10.1-3.1-14.9-5.2c-4.2-1.8-8.2-4-11.6-7c-3.8-3.4-5.6-7.8-6.9-12.6
				c-1.5-5.4-2.4-10.9-3.3-16.3c-1.9-11.4-4.5-22.7-7.3-33.9c-1.4-5.7-2.9-11.4-4.3-17c-1.4-5.7-2.5-11.5-3.9-17.3
				c-1.4-5.4-3.7-10.5-5.7-15.7c-1.8-4.6-3.3-9.3-4.3-14.1C1196.9,867,1196.3,861.9,1197.3,857z"/>
			<g>
				<path class="st3" d="M1299.8,848.8c0.7-7,1-14.1,2.4-21.1c2.8-13.5,8.8-26.2,14.5-38.5c2.8-5.9,5.6-11.8,9-17.4
					c3.4-5.6,7.3-10.9,11.6-15.9c2.1-2.4,4.3-4.6,6.5-6.9c2.2-2.4,4.3-5,6.5-7.3c4.2-4.4,9.4-7.2,14.8-9.9
					c13.2-6.5,26.9-13.7,42-14.1c1.8,0,2.8,2.8,1,3.6c-2.2,1-4.1,2.1-5.8,3.8c-1.8,1.7-3.2,3.6-4.4,5.8c-2.6,4.4-4.2,9.2-5.5,14.1
					c-1.4,5.4-2.2,10.8-4.5,15.9c-2.4,5.4-5.9,10.3-9.2,15.2c-1.8,2.6-3.4,5.3-4.8,8.2c-1.3,2.9-2.5,5.9-3.9,8.8
					c-2.9,5.8-7.5,10.3-11.5,15.3c-8.1,10.2-18.2,18.5-27.5,27.6c-5.3,5.1-9.1,11.3-13.8,17c-4.5,5.5-10.4,9.6-15,14.8
					c-0.4,0.5-0.9,0.7-1.4,0.7c-1,2.5-5.3,2.2-5.2-0.9c0.1-3.3,1.1-6.4,2.1-9.4C1298.7,855,1299.5,852,1299.8,848.8z"/>
				<path class="st3" d="M1310,865.5c-1.3,1.5-1,3.3,0.6,4.5c2.6,1.9,6.2,1.9,9.3,1.6c3-0.4,5.9-1,8.8-1.8
					c5.2-1.4,10.2-3.9,13.7-8.1c1.8-2.2,3.2-4.6,4.3-7.1c0.4-0.9,0.9-1.9,1.4-2.8c0.1-0.2,0.3-0.3,0.4-0.5c0,0,0,0,0.1-0.1
					c0.2-0.1,0.3-0.2,0.5-0.3c1.9-1.2,4.2-1.7,6.1-3c2-1.4,3.1-3.4,3.5-5.8c1.2-6.9-0.5-14.4-2.5-21.1c-0.4-1.4-2.6-1.5-3,0
					c-0.1,0.2-0.1,0.4-0.1,0.7c-0.3,0-0.5,0-0.8,0.1c-1.3,0.3-2.5,1.4-3.5,2.3c-1.4,1.2-2.8,2.5-4.1,3.7c-2.7,2.4-5.3,4.7-8.3,6.8
					c-4.1,2.9-7.8,5.9-10.6,10.2c-1.3,2-2.4,4-3.5,6.1c-1,2-2,4.1-3.4,5.8C1316.3,859.9,1312.7,862.2,1310,865.5z M1348.3,851.5
					C1348.4,851.5,1348.4,851.5,1348.3,851.5L1348.3,851.5z"/>
				<path class="st3" d="M1172,728.7c6,6.3,10.4,13.9,14.7,21.4c4.1,7.1,8.5,13.8,13.6,20.2c4.9,6.1,10.3,12,15.6,17.8
					c4.9,5.4,10.2,10.8,16.5,14.7c-0.1,0.2-0.1,0.4-0.1,0.7c0.3,4.2,2.1,8.1,4,11.8c1.6,3.1,3.5,6.1,4.8,9.3
					c1.3,3.2,2.3,6.5,3.4,9.7c0.8,2.2,1.6,4.4,2.4,6.6c0.8,2.7,1.6,5.4,2.6,8.1c0.6,1.8,1.4,3.6,2.1,5.3c0.3,0.7,0.7,1.5,1,2.2
					c0.1,0.2,0.2,0.4,0.2,0.5c0,0.1,0,0.1,0.1,0.1c0,0,0,0.1,0.1,0.1c1,2.5,1.9,5,3,7.4c1.9,4.4,4.7,8.6,9.8,9.5
					c2.5,0.5,5.2,0.7,7.7,0.6c2.2-0.1,4.6-0.1,6.6-0.9c1.7-0.7,2.9-2.2,2.4-4.1c0,0,0-0.1-0.1-0.1c0.7,0.1,1.3,0.2,2,0.2
					c0.1,0,0.6,0,0.9,0l0,0c0.7,1.4,2,1.7,3.1,1.3c0.5,1,2,1.5,2.6,0.2c2.7-5.8,1.9-12.2,2.3-18.5c0.2-3.4,0.7-6.8,1.1-10.2
					c0.4-3.6,0.8-7.2,1.2-10.8c1.4-12.5,2.8-24.9,3.4-37.5c0.2-5.4,0.2-10.6-1-15.9c0.9,1.9,1.9,3.8,2.9,5.7
					c1.7,3.2,3.7,6.7,3.8,10.4c0.1,2.4,3.1,2.9,4.3,1.5c0.2,0.1,0.4,0.2,0.6,0.2c0.3,0.1,0.6,0.1,0.9,0.1c0.4,0.3,1.1,0.3,1.5-0.1
					c2.1-1.8,2.9-5,4.1-7.6c1.2-2.6,2.4-5.2,3.7-7.8c2.4-4.6,4.9-9.2,7.7-13.6c1.3-2.1,2.7-4.2,4.2-6.2c1.4-1.9,3.4-3.3,4.9-5.1
					c1.6-1.8,2.8-3.9,3.1-6.3c0.2-2.2-0.5-4.2-0.8-6.3c-0.7-4.6,0.2-9.4-1.3-14c-0.4-1.2-1.6-1.9-2.8-1.6c-4.6,1.3-8.2,5.1-11.1,8.6
					c-6.2,7.6-10.9,16.1-13.6,25.5c-1.6,5.5-2.9,11.2-2.5,17c0.2,3.2,0.9,6.7,0.8,10c-0.5-1.4-1.1-2.8-1.7-4.2c0-2,0.1-4.1,0-6.1
					c0-4.4-1-8.9-1.8-13.2c-0.7-4.1-1.5-8.2-2.5-12.2c-1-3.8-2.5-7.4-4.2-10.9c-3.4-6.8-7.5-13.2-11.3-19.7
					c-7.6-13.2-15-26.8-25.9-37.5c-1.5-1.5-3.7-0.3-3.9,1.6c-0.7,7.2-2.3,14.6-0.9,21.7c0.4,2,1.2,3.6,2.3,5.1
					c-0.4,0.3-0.6,0.8-0.7,1.4c-0.2,13.4,0.4,26.7-0.6,40.1c-0.5,5.9-1,11.8-1.8,17.6c-0.8,5.3-2,10.5-2,15.9
					c-0.1,6.8,1,13.6,2.8,20.2c-0.2-0.1-0.4-0.2-0.6-0.2c-0.5-0.4-1-0.7-1.6-1c-4.7-9.9-6.3-21.2-5.6-32.1c0.9-0.5,1.5-1.5,1-2.8
					c-0.3-0.8-0.6-1.5-1.1-2.2c-0.5-0.9-1.3-1.3-2.1-1.3c-3.9-3.6-7.8-7.3-11.8-10.9c-4.2-3.8-8.6-7.4-13.3-10.6
					c-4.9-3.4-10.2-5.7-15.5-8.5c-5.5-2.9-10.9-5.9-16.7-8.3c-2.3-1-4.8-1.8-7.1-2.6c-2.2-0.8-4.7-1.7-6.4-3.3
					C1173,723.2,1169.8,726.4,1172,728.7z M1277,864.6c-2.7-3.3-5-6.8-7.2-10.5c-1.4-4.4-2.7-8.8-4.3-13.2
					c-3.1-8.7-6.6-17.6-12.2-25c-0.5-0.7-1.1-1.4-1.6-2.1c0.9,0.5,1.7,1.1,2.6,1.6c0.2,0.1,0.5,0.2,0.8,0.3c0.8,0.5,1.8,0.3,2.2-0.3
					c0.2-0.1,0.3-0.2,0.5-0.3c0.5,1.4,0.9,2.9,1.4,4.3c1.8,5,3.8,9.9,6,14.8c2.1,4.6,4.6,9.1,6.4,13.9c1.9,5,3.2,10.2,4.9,15.3
					C1276.6,863.8,1276.8,864.2,1277,864.6z M1287.6,754.8c-3.6-6-7.5-11.8-11-17.9c-1.2-2.1-2.3-4.2-3.5-6.2
					c4.1,5.8,7.9,11.8,11.3,18.1C1285.5,750.8,1286.6,752.8,1287.6,754.8z M1285.5,869.9C1285.5,869.9,1285.5,869.9,1285.5,869.9
					C1285.8,869.9,1285.7,870.1,1285.5,869.9z"/>
			</g>
			<g>
				<path class="st4" d="M1309.3,860.8c3.4-3.4,6.5-7.1,9.5-10.7c1.7-2,3.2-4,5-6c1.7-1.9,3.6-3.8,5.4-5.7c1.7-1.8,3.5-3.7,4.9-5.8
					c1.4-2,2.6-4.1,3.8-6.2c2.4-4,5-7.8,8.3-11.1c3.2-3.2,6.8-6,10.2-9.1c3.5-3.2,6.6-6.8,9.2-10.8c2.8-4.1,5.2-8.5,8.1-12.5
					c2.9-4.2,6.3-8,8.6-12.7c0.6-1.4,1.2-2.8,1.7-4.2c0.2-1,0.4-2,0.6-2.9c1.6-7,3.6-14,6.1-20.8c2.1-5.9,6.9-10.1,9.5-15.6
					c0.3-0.6,1.3-0.2,1.1,0.5c-1.1,3.7-3.1,6.8-4.9,10.2l-2.7,6.5c-0.8,2.5-1.4,5-2.2,7.5c-1,3.2-1.9,6.4-2.6,9.7
					c-1.5,6.3-2.5,12.7-4.2,18.9c-1.6,6-4.2,11.6-7.2,17.1c-5.6,10.1-13,19.7-22,27c-4.9,4-10.3,7.3-14.7,11.8
					c-2.1,2.2-4.1,4.6-6.1,7c-2,2.4-4.2,4.7-6.2,7.2c-2.3,2.9-4.6,5.8-6.7,8.8c-1.7,2.5-3.4,5-5.2,7.4c-3,3.8-8.1,8.5-13.4,6.5
					c-0.9-0.3-1.5-1.2-1.2-2.1C1303.2,866.7,1306.4,863.6,1309.3,860.8z"/>
				<path class="st4" d="M1177.3,744.7c2.9,4.2,6.2,8.2,9.3,12.3c4.5,5.8,9.2,11.5,14.1,17c5,5.6,10.2,11.1,15.4,16.5
					c4.9,5.1,9.7,10.5,14.9,15.3c0,0,0,0,0,0c4,7.2,6.5,15.1,8.4,23.1c2.2,9.3,3.8,18.9,7.1,27.9c2.4,6.5,7.2,16.6,15.9,14
					c0.8-0.2,1.3-0.9,1.3-1.7c0-4.8-3.1-9.3-5.6-13.2c-2.6-4.1-4.9-8.2-6.9-12.7c-2.3-5.3-3.9-10.9-5.5-16.5
					c-1.5-5.4-3.3-10.7-6.1-15.5c-1.3-2.1-2.7-4.2-4.2-6.1c-0.1-0.3-0.2-0.7-0.5-1c-0.1-0.2-0.3-0.3-0.5-0.5l0,0
					c1.2,0.5,2.5-0.9,1.4-1.9c-5.3-4.6-9.8-10-14.1-15.5c-7.6-9.7-14.5-19.8-23-28.8c-4.9-5.2-10.2-10.2-14.8-15.8
					c-3.3-4-5.4-8.9-9.1-12.5c5.6,2.8,11.3,5.4,16.9,8c5.9,2.7,11.7,5.4,17.3,8.5c5.1,2.9,9.9,6.3,14.7,9.7
					c7.6,5.3,15.8,10.6,21.9,17.8c0,0,0,0,0,0.1c0.1,10.5,1.4,21.2,3.6,31.5c2.3,10.5,5.7,20.7,9.6,30.6c1.9,4.9,4,9.8,6.1,14.7
					c0.5,1.2,1.1,2.4,1.6,3.6c0.3,0.6,0.5,1.1,0.8,1.7c0.1,0.2,0.5,1,0.5,1.1c0.4,1,0.7,2,1.1,3c1,2.8,2.1,5.7,3.6,8.3
					c1.2,2.1,3.1,4.5,5.8,4.5c3.6-0.1,5-3.7,4.2-6.7c-0.5-1.7-1.3-3.3-2.2-4.8c-0.9-1.7-1.7-3.3-2.6-5.1c-1.2-2.6-2.5-5.2-3.7-7.8
					c-2.1-5.6-4.4-11.2-6.6-16.8c-1.7-4.6-3.6-9.1-5.3-13.7c-2-7.1-3.5-14.3-4.4-21.6c-2.6-20.4-0.6-41-0.8-61.4
					c0.3-1.7,0.5-3.5,0.6-5.3c0.3-4.8,0.8-10.2,0.1-15.2c2.8,3.8,5.8,7.5,8.7,11.2c5.3,7,10.4,14.3,14.9,21.9
					c4.6,7.8,7.5,16,9.2,24.8c1.7,8.6,2.4,17.4,3.6,26.1c0.2,1.6,0.5,3.1,0.7,4.7c-0.7,9.8-2.4,19.6-3.4,29.4
					c-0.4,4.1-0.6,8.2-1,12.4c-0.4,3.8-0.7,7.7-0.5,11.5c0.2,3,0.6,6.3,2.2,9c0,1.5,0.2,2.9,0.7,4.4c0.4,1.2,1.7,1.5,2.7,0.7
					c1-0.8,1.7-1.8,2.3-2.8c0.2-0.1,0.3-0.2,0.5-0.4c1.6-1.6,2.1-4.2,2.6-6.3c0.4-1.8,0.6-3.7,0.8-5.6c0.7-2.9,1.7-5.7,2.6-8.5
					c1.2-3.9,2.1-7.8,3.1-11.7c1.7-6.7,4.1-13.1,6.3-19.6c2.1-6.2,4.4-12.5,6.9-18.5c5.1-12,11.5-23.5,20.1-33.4
					c16.2-18.5,36.2-35.9,61.1-40.3c0.9-0.2,0.6-1.5-0.2-1.5c-0.2,0-0.4,0-0.6,0c0.3-1.1-0.3-2.6-1.8-2.7
					c-6.1-0.5-12.4,0.3-18.3,1.6c-6.3,1.4-12.1,3.7-17.4,7.3c-5.6,3.8-10.8,8.2-15.6,13.1c-4.6,4.7-9.1,9.9-12.6,15.5
					c-0.6,1-1.2,2-1.8,3c-0.3-0.2-0.6-0.3-1-0.1c-6.2,2.7-9.6,9.8-12.6,15.5c-3.5,6.7-7.4,13.1-10,20.2c-2.2,6.1-4.1,12.3-5.9,18.6
					c0-4.4-0.1-8.8-0.2-13.3c-0.2-6-0.2-12.1-0.7-18.1c-1-11.1-4.7-22.2-9.7-32.1c-2.4-4.8-5.2-9.3-8.1-13.8
					c-2.9-4.4-6-8.9-9.7-12.6c-4-4-8.6-7.5-12.7-11.4c-4.2-4-8.3-8.1-11.4-13.1c-0.6-1-2.3-0.3-1.9,0.8c0.5,1.5,1.2,3,1.9,4.4
					c-0.4,0.3-0.7,0.8-0.7,1.3c0.2,9.4,0.4,18.8-0.1,28.2c-0.4,0.2-0.8,0.5-0.8,1c-0.1,2.4-0.4,4.8-0.8,7.2
					c-0.8,5.1-1.6,10.1-2.1,15.2c-0.2,1.5-0.3,3-0.5,4.5c-1.9-2.6-4.1-5.1-6.6-7.3c-7.9-7.2-17.5-12.5-27.3-16.7
					c-6.5-2.7-13-5.2-19.7-7.5c-6.3-2.2-13.1-2.3-19.3-4.6c-1.5-0.6-2.6,1.7-1.4,2.6c-0.5,0.2-1,0.6-1,1.4
					C1170.9,734.7,1174.3,740.3,1177.3,744.7z M1297.2,843.9l-0.2-24.6c0.2,1.9,0.3,3.9,0.5,5.8c0.3,4.8,0.5,9.6,0.5,14.4
					C1297.7,841,1297.5,842.4,1297.2,843.9z"/>
			</g>
			<g>
				<path class="st5" d="M1372.4,864.6C1372.7,864.6,1372.9,864.7,1372.4,864.6L1372.4,864.6z"/>
				<path class="st5" d="M1335.5,863.9c1.4-0.6,2.9-1.4,3.8-2.8c0.9-1.3,1.3-2.9,2-4.3c1.4-2.9,3.7-4.6,7-3.9
					c1.2,0.3,2.4,0.9,3.3,1.8c1.4-0.6,3-0.5,4.4,0.2c0.6,0.3,1.1,0.7,1.5,1.1c1.9-0.7,4.1-0.8,6-0.3c1.8-1.5,4-2.5,6.3-1.3
					c1.7,0.9,2.8,2.8,3.1,4.7c1.4,0,2.7,0.4,3.7,1.5c0.7,0.8,0,2.2-1.1,1.9c-0.1,0-0.1,0-0.2,0c-0.3,1.3-1.9,2.4-3.4,1.8
					c0.1,0,0.2,0.1,0.2,0.1c0.1,0,0.2,0,0.2,0.1c0,0-0.1,0-0.1,0c-0.2,0-0.5,0-0.7,0.1c-0.6,0.1-0.9,0.1-1.6,0.2
					c-1.4,0.2-2.7,0.4-4.1,0.7c-2.1,0.4-4.1,1.2-6.1,1.8c-2.5,0.7-4.9,1.1-7.5,1.4c-4.3,0.5-8.7,1.2-13,1.8c-2,0.3-4.1,0.5-6.2,0.5
					c-2.1,0-3.9-0.4-5.9-0.8c-1.4-0.3-1.8-2.2-0.8-3.1C1328.6,864.6,1332.5,865.1,1335.5,863.9z"/>
				<path class="st5" d="M1208.8,856.9c1.5,0.3,3.1-0.1,4.6-0.3c1.4-0.2,2.9-0.2,4.3-0.1c2,0.1,3.9,0.4,5.8,1c0.6-1.3,1.6-2.4,3-2.8
					c1.3-0.4,2.8-0.4,4.1-0.2c2.1-4.1,8.7-5.2,12-2.3c0.8-0.6,1.8-0.9,2.9-0.7c3,0.5,3.1,3.3,3.6,5.7c0.5,2.9,2.5,7,5.6,8.2
					c0.5,0.2,0.8,0.9,0.3,1.3c-1.3,1.3-2.8,1.1-4.1,0.3c-0.3,0.7-0.9,1.2-1.8,1.3c-2,0.1-4-0.4-6-0.6c-2.1-0.2-4.1-0.3-6.2-0.6
					c-4.3-0.6-8.6-1.1-12.8-1.9c-3.1-0.6-6.3-1.2-9.4-2c-2.7-0.7-5.5-1.5-7.7-3.4C1205.8,858.5,1207.2,856.5,1208.8,856.9z"/>
			</g>
		</g>
		<g>
			<path class="st6" d="M1168.1,725c1.9,7,5.6,13.4,9.3,19.5c3.3,5.5,6.7,10.9,10.6,16c4.2,5.3,8.7,10.4,13.5,15.2
				c4.3,4.3,8.6,8.7,13.2,12.8c2.5,2.2,5.2,4.4,8,6.4c-0.1,0.3-0.1,0.6,0.2,0.9c5,6.4,10.3,13.1,13,20.9c2.3,6.8,2.2,14.2,4,21.1
				c1.2,4.3,2.4,8.6,4.1,12.7c2.6,6.8,6.6,14.9,13.3,18.5c-0.4,0.3-0.7,0.7-0.9,1.2c-0.3,1,0.9,1.5,1.5,0.9c0,0.1,0.1,0.2,0.2,0.3
				c1.7,1.4,4.7,0.9,6.7,0.7c2.5-0.2,4.8-0.6,7.3-0.4c2,0.2,4.3,0.6,6.2-0.3c0.7-0.3,1.1-0.7,1.4-1.2c1,0.1,2.1,0.2,3.1,0.3
				c2.7,0.7,6.1,0.3,8.5,1.1c0.3,0.1,0.8-0.1,0.9-0.5c0,0,0,0,0,0c3.6,0.1,7.3,0.2,10.9,0.2c3.5,0,7-0.1,10.5,0.1
				c2.7,0.2,5.4,0.4,8,0.6c2.8,0.1,5.7,0.2,8.5-0.1c1.9-0.2,4-0.6,5.4-2.1c0.5-0.5,0.1-1.3-0.6-1.4c-9.1-0.9-19,2.3-27.9-0.5
				c0.3-0.1,0.5-0.2,0.8-0.4c1.9-0.1,3.9,0.2,5.5,0.3c3.1,0.3,6.1,0.6,9.2,0.5c5.7-0.2,12.7-0.6,17.4-4.2c1.2-0.9,2.1-2.2,2.5-3.6
				c0.4-1.5,0.3-3.1,0.7-4.6c0.9-3.6,4.9-5.2,7.7-7.2c2.4-1.7,4.5-3.9,5.6-6.7c1-2.5,1.1-5.2,0.9-7.8c-0.3-5.2-1.3-10.3,0-15.4
				c8.9-8.7,17.5-18.3,22.8-29.6c5.9-12.3,7.5-26.1,11.5-39c2.8-9,6.5-18.8,12.9-26c0.8-0.6,1.6-1.2,2.5-1.7
				c0.5-0.3,0.5-0.8,0.2-1.1c0.6-0.6,1.2-1.1,1.9-1.6c0.7-0.6-0.1-1.9-0.9-1.6c-4.1,1.6-8.3,0.8-12.5,0.3c-4.1-0.5-8-0.1-11.9,1
				c-7.4,2.1-14.6,5.4-21,9.7c-5.7,3.8-11,8.3-16.2,12.8c-2.9,2.5-5.7,5-8.5,7.6c1.1-7.5-1.7-15.1-1.5-22.6c0-1.1-1.7-1.1-1.7,0
				c0,2.3-2.4,4.4-3.9,5.8c-1.8,1.7-3.4,3.4-4.9,5.4c-3.5,4.5-6.3,9.5-9.4,14.2c-3.2,4.8-5.8,9.8-7.2,15.4
				c-1.3,5.6-1.6,11.4-1.5,17.2c0.1,4.7,0.2,9.4,0.3,14.1c-0.1,0.4-0.3,0.7-0.4,1.1c-0.1-0.3-0.2-0.6-0.3-0.9c-0.5-1.5-0.7-3-1-4.6
				c-0.4-3.1-0.6-6.2-0.8-9.4c-0.3-3.4-0.9-6.9-1.5-10.2c-0.9-4.8-1.9-9.5-3.1-14.3c-2.4-9.2-5.6-18.3-10.2-26.7
				c-4.6-8.5-10.5-16.2-16.2-23.9c-5.3-7.1-11.9-13.4-15.5-21.5c-0.4-0.9-1.8-0.2-1.5,0.6c0,0.1,0,0.2,0.1,0.3
				c-0.3-0.1-0.8,0.1-0.8,0.5c-0.7,6.1,0.5,12.1,0.9,18.2c-0.8-1-1.5-1.9-2.2-3c-1.8-2.5-3-5.1-4.1-7.9c-0.9-2.4-2-4.8-3.8-6.8
				c-0.6-0.7-1.8,0.2-1.3,1c6.5,9.9,5,22.9,4.9,34.1c-0.1,6.3-0.2,12.5-0.9,18.8c-0.7,6.4-1.5,12.9-1.7,19.3c0,0.1,0,0.2,0,0.3
				c-2.8-4.8-7.5-8.2-11.9-11.5c-5.2-3.9-10.5-7.6-16.1-10.8c-5.4-3.1-11.1-5.6-16.9-7.9c-9.9-4-20-8.2-30.6-9.7
				c-0.5-0.2-1-0.3-1.4-0.4c-0.2-0.1-0.5,0-0.7,0.2c-0.8-0.1-1.7-0.2-2.5-0.2C1168.4,723.8,1167.9,724.5,1168.1,725z M1230,797.5
				c-1.7-5.3-6.3-9.4-10.5-13c-4.1-3.5-8.4-6.8-12.3-10.6c-4.8-4.7-9.4-9.6-13.5-15c-4.4-5.8-8.2-12-12.1-18.2
				c-1.7-2.7-3.4-5.4-5.2-8.1c-1.3-2-2.8-4.1-3.5-6.5c1,0.1,1.9,0.3,2.9,0.5c5.6,2.1,11,5,16.4,7.7c5.8,2.9,11.8,5.4,17.5,8.7
				c5.7,3.3,11.2,7,16.7,10.7c4.8,3.3,9.9,6.9,13.7,11.4c1.6,1.9,3,3.9,4.5,5.8c1.1,1.5,2.4,3.2,4.1,4c0,0,0.1,0,0.1,0
				c0,8.7,0.6,17.5,2.7,25.9c1.4,5.7,3.5,11.2,5.8,16.6c-0.7-0.9-1.5-1.7-2.3-2.5c-4.6-4.8-9.8-9.1-15.5-12.4
				c-2.6-1.5-5.2-2.6-7.9-3.9c-0.6-0.3-1.1-0.5-1.7-0.8C1230,797.7,1230,797.6,1230,797.5z M1261.7,865.5c-1-1.9-2.3-3.7-3.5-5.5
				c-1.1-1.6-2.3-3.2-3.4-4.8c-1.2-1.9-2-4.1-2.8-6.2c-2-5.7-3.4-11.7-5.1-17.5c-1.7-5.5-2.9-11.2-5.4-16.5
				c-2.1-4.6-5.3-8.4-8.3-12.4c4.4,1.5,8.3,4.2,11.6,7.4c7,6.9,11.7,15.9,15.6,24.8c2.7,6.1,5.5,12.2,8.5,18.2
				c1.4,2.7,2.8,5.4,4.6,7.8c1.5,2,3.2,4,4.9,5.9c0,0.2,0.1,0.4,0.1,0.6c0.1,0.3,0.2,0.5,0.4,0.6c0,0.1,0,0.3,0,0.4
				c-4.6-0.4-9.2-0.7-13.8-0.6c-0.8,0-1.6,0-2.4,0.1C1262.4,867,1262.1,866.2,1261.7,865.5z M1304.5,811.5c-1.7,6.1-3,12.3-3.5,18.7
				c-0.3,3.6-0.4,7.2-0.8,10.7c-0.7,3.3-1.6,6.6-2.6,9.8c-1,3-2.3,5.9-3.3,8.9c1.4-8.6,2.7-17.2,3.7-25.9
				c2.5-22.5,3.1-45.9-3.6-67.8c-2.1-6.8-4.9-13.3-8.4-19.4c2.1,3.2,4.1,6.6,5.7,10.1c5,10.9,7.8,22.7,10.8,34.3
				C1304.2,797.8,1304.7,804.6,1304.5,811.5z M1282.1,868.6c-0.6-0.3-1.1-0.7-1.5-1.4c0-0.1,0.1-0.2,0.1-0.2c0-0.2,0-0.4,0-0.7
				c0.8-2.1,0-4.7-0.8-6.8c-0.8-3.1-2.2-6.1-3.7-8.9c-0.5-1.5-1.1-2.9-1.6-4.4c-2-4.9-4.3-9.7-6.9-14.4c-2.2-5.2-3.9-10.5-5.6-15.8
				c-3.6-11.5-6.8-23.3-7.2-35.4c-0.4-11.8,1.7-23.4,2.9-35.1c1.2-10.8,1.4-21.7-0.1-32.4c3.8,3.7,6.8,8.2,10,12.4
				c3.9,5,8.4,9.5,12.2,14.6c13.5,18.5,17.9,41.4,18.2,63.8c0.3,21.9-3.2,43.7-7,65.2C1288.1,869.1,1285.1,868.9,1282.1,868.6z
				 M1260.3,824.3c0.5,1.2,1,2.3,1.5,3.5c1.1,2.8,1.9,5.7,3.1,8.4c2.1,5.2,5.8,9.6,8.6,14.5c0.3,0.6,0.6,1.1,0.9,1.7
				c1.3,3.8,2.4,7.7,3.3,11.5c-1.6-1.8-3.1-3.7-4.4-5.7c-2-3.1-3.5-6.5-5.1-9.8c-4.9-10.1-8.6-20.8-14.7-30.2
				c-1.6-2.5-3.4-5-5.4-7.2C1252.6,814.8,1256.7,819.3,1260.3,824.3z M1269.9,840.8C1269.9,840.8,1269.9,840.8,1269.9,840.8
				c-1.5-2.3-2.6-4.7-3.6-7.2C1267.5,836,1268.8,838.4,1269.9,840.8z M1249,766.6c-0.1,2.2-0.1,4.3-0.1,6.5c-1.8-1.2-3.1-3.4-4.4-5
				c-1.6-2.1-3.1-4.2-5-6c-4.5-4.4-9.6-8.1-14.9-11.5c-5.5-3.6-11-7.3-16.8-10.4c-5.8-3.1-12-5.7-17.9-8.6c-1.5-0.8-3-1.5-4.6-2.3
				c1,0.3,2,0.7,3.1,1c5.6,1.9,11.2,4.2,16.7,6.4c5.8,2.3,11.4,4.9,16.7,8.1c5.3,3.1,10.3,6.7,15.3,10.3
				C1241.6,758.2,1246.2,761.7,1249,766.6z M1258.3,711.3c0,0.1,0,0.1,0,0.2c-0.4-0.3-0.7-0.6-1.1-1c-0.7-0.5-1.5,0-1.4,0.8
				c2,12.9,1.4,25.9-0.2,38.9c-1.4,11.4-3.1,22.8-2.2,34.3c0.9,11.5,4.2,22.8,7.6,33.8c0.8,2.4,1.6,4.8,2.5,7.2
				c-0.4-0.6-0.9-1.2-1.3-1.8c-1.4-3.2-2.8-6.3-4.1-9.5c-2.4-5.9-4.4-11.9-5.8-18.2c-1.3-6.2-1.8-12.7-2-19
				c-0.2-6.4-0.4-12.8,0.2-19.1c0.6-6.6,1.5-13.2,2.1-19.9c0.5-5.7,0.4-11.5,0.5-17.2c0.2-5.6,0.3-11.7-0.6-17.4
				c1,1.8,2.2,3.4,3.5,5.1C1256.9,709.4,1257.6,710.3,1258.3,711.3z M1258.4,691.1c0.5,2.7,0.6,5.4,0.5,8.1
				C1258.5,696.6,1258.3,693.9,1258.4,691.1z M1307.5,801.9c-0.4,1.2-0.9,2.5-1.3,3.7c0-0.3,0-0.5,0-0.8c-0.3-6.4-1.6-12.5-3.2-18.7
				c-3-11.7-6.1-23.5-11.8-34.2c-6-11.4-15.3-20.8-23.3-30.8c-2.1-2.7-4.1-5.4-6.1-8.1c-0.6-0.8-1.2-1.5-1.8-2.3
				c0-5.7,0.9-11.2,0.4-16.8c1.8,2.9,3.8,5.5,6,8.1c3.3,4,6.6,8.1,9.8,12.3c5.9,7.8,11.7,15.8,16.1,24.6c4.4,9,7.4,18.6,9.5,28.3
				c1.6,7.4,2.8,14.7,3.4,22.2c0.2,2.9,0.5,5.9,1.1,8.7C1306.5,799.4,1306.9,800.8,1307.5,801.9z M1336.7,751c0,0.1,0,0.1,0,0.2
				c-1.4,1.4-2.8,2.8-4.2,4.3c-8.6,9.4-14.8,20.4-19.5,32.2c-0.9,2.2-1.7,4.4-2.6,6.6c0-3.9-0.2-7.8-0.2-11.7c0-6,0.5-12,2.4-17.7
				c1.8-5.5,5.2-10.3,8.3-15.1c3-4.6,5.6-9.6,9.4-13.6c1.5-1.5,3.6-3.1,5-5.1C1336,737.7,1338,744.4,1336.7,751z M1405.3,720.8
				c-0.2,0.2-0.4,0.4-0.7,0.6c-7.6,1.7-15,4-22,7.3c-4,1.9-7.8,4.2-11.6,6.5c-3.7,2.2-7.4,4.5-11,6.9c-6.4,4.3-12.2,9.2-17.2,15
				c-5,5.9-9.4,12.4-13.1,19.2c-4,7.2-7.2,14.8-10.6,22.3c-3.3,7.4-6.5,14.8-9.3,22.5c-1.9,5.4-3.8,10.8-5,16.4c-0.8,4-1.6,8-2.6,12
				c-1,4.4-2.1,8.8-3.8,13c-0.4,0.9-1.1,3-2.2,4.4c-0.4,0.1-0.9,0.2-1.4,0.3c0-1.5,0.1-3,0.4-4.5c1.3-4.3,3.8-8.5,5.1-12.7
				c1-3.3,1.5-6.7,1.8-10.2c1.1-5,2.1-10.1,2.9-15.2c0.7-4.2,1.1-8.5,1.2-12.8c0.7-2.4,1.5-4.9,2.3-7.2c0.1-0.4,0.3-0.8,0.4-1.3
				c0.5,0.2,0.9-0.1,1-0.6c0.1-0.9,0.2-1.9,0.2-2.8c1.9-5.2,3.9-10.5,6.1-15.6c4.9-11.5,11.8-21.9,20.6-30.8
				c4.6-4.6,9.6-8.9,14.6-13.1c5.2-4.5,10.6-8.8,16.6-12.2c2.9-1.7,5.9-3,9-4.3c3.5-1.4,7.1-2.8,10.8-3.4
				C1393.7,719.3,1399.6,721.5,1405.3,720.8z M1387.6,750.7c-2.3,6.5-4.6,13-7.3,19.4c-2.7,6.2-5.8,12.1-9.4,17.8
				c-3.6,5.7-7.6,11.2-11.8,16.5c-4.1,5.2-8.2,10.4-12.8,15.2c-9,9.5-18.6,18.2-26.9,28.3c-5.7,7-11.9,15-20.6,18.1
				c0.3-0.6,0.6-1.2,0.8-1.7c2-4.6,3.2-9.5,4.3-14.4c0.9-4,1.6-8,2.4-12c1.2-5.8,3.1-11.4,5.1-16.9c2.9-8,6.3-15.8,9.8-23.6
				c3.3-7.3,6.5-14.7,10.5-21.6c4-7.1,8.7-13.8,14.3-19.7c5.3-5.8,11.6-10.5,18.2-14.7c6.7-4.2,13.4-8.6,20.6-11.8
				c5.8-2.6,11.9-4.5,18.1-6c-0.1,0.2-0.3,0.4-0.4,0.5C1394.7,730.7,1390.9,741.3,1387.6,750.7z M1311.6,865.5
				c6.6-4.3,11.7-11.2,16.3-17.5c3.8-5.3,8.1-9.9,12.9-14.3c4.9-4.4,10.1-8.5,14.8-13.1c0,0,0.1-0.1,0.1-0.1
				c-0.9,4.7-0.1,9.5,0,14.4c0.1,2.6-0.2,5.3-1.5,7.6c-1.8,3.1-4.8,4.7-7.7,6.6c-2.6,1.7-5,3.8-5.5,7c-0.3,1.6-0.1,3.5-1,5
				c-0.7,1.2-2,2-3.2,2.5c-2.8,1.3-5.9,1.9-9,2.2c-2.8,0.3-5.7,0.5-8.5,0.4C1316.7,866.1,1314.2,865.7,1311.6,865.5z M1322.6,870.3
				c3.3-0.3,6.5-0.5,9.8-0.5c-1.7,0.5-3.6,0.5-5.1,0.6C1325.7,870.5,1324.2,870.4,1322.6,870.3z M1296.2,869.4
				c0.4-0.3,0.7-0.6,1.1-1c10.7-2.9,17.9-12.6,24.6-21c8.3-10.3,18.3-18.9,27.2-28.7c4.5-4.9,8.6-10.2,12.7-15.6
				c4-5.3,7.9-10.7,11.4-16.4c7.2-11.7,12-24.4,16.5-37.2c1.4-3.9,2.9-8.1,4.8-12c-2.1,4.7-3.8,9.6-5.2,14.5
				c-3.7,12.9-5.5,26.5-11.9,38.5c-5,9.4-12.1,17.6-19.7,25.1c-0.1,0-0.3,0.1-0.4,0.3c0,0.1,0,0.1-0.1,0.2c-1.7,1.7-3.5,3.4-5.3,5
				c-4.8,4.4-9.9,8.4-14.7,12.9c-4.5,4.2-8.4,8.8-11.9,13.9c-4.5,6.4-9.9,13.8-17,17.6c-1.7,0.1-3.4,0.3-4.8,1.3
				c-0.2,0.2-0.4,0.4-0.5,0.7c-0.7,0.2-1.5,0.3-2.2,0.4c-1,0.1-1,1.7,0,1.6c1.2-0.1,2.3-0.3,3.5-0.6c0.7,0.3,1.4,0.5,2.1,0.7
				C1302.9,869.5,1299.6,869.5,1296.2,869.4z M1292.6,869.3c0,0,0-0.1,0-0.1C1292.7,869.2,1292.7,869.2,1292.6,869.3
				C1292.7,869.3,1292.7,869.3,1292.6,869.3z M1259.7,870.1c0.7,0.2,1.3,0.4,2,0.6c0.5,0.1,1.1-0.1,1.2-0.7c0-0.1,0-0.2,0-0.3
				c2.3-0.2,4.5-0.1,6.8,0c2.7,0.1,5.4,0.3,8,0.5c-0.4,0.2-0.8,0.3-1.3,0.3c-1.8,0.2-3.6-0.2-5.4-0.3c-2-0.1-3.9,0.2-5.9,0.4
				c-1.1,0.1-2.2,0.2-3.3,0.2c-0.7,0-1.9,0.1-2.5-0.4c-0.1-0.1-0.1-0.1-0.2-0.1c0.1,0,0.1,0,0.2-0.1
				C1259.4,870.2,1259.5,870.1,1259.7,870.1z M1227.7,798.9c0.9,0.4,1.7,0.8,2.6,1.2c-0.4,0.3-0.7,0.8-0.3,1.2
				c3.7,5.3,8.1,10.2,10.6,16.2c2.1,5.3,3.5,10.9,5.1,16.4c1.6,5.7,3,11.4,5.1,17c1.4,3.7,3.5,6.6,5.7,9.8c1.1,1.6,2.2,3.1,3.2,4.8
				c0.4,0.6,0.9,1.5,1.2,2.3c-0.3,0-0.6,0.1-1,0.2c-3.9-1.5-6.9-4.8-9.2-8.3c-2.7-4.2-4.6-8.8-6.2-13.4c-1.6-4.6-3-9.4-3.8-14.2
				c-1.2-7-1.6-13.9-4.8-20.4C1233.6,807.2,1230.8,803,1227.7,798.9z M1170.3,725.8c0.4,0,0.8,0.1,1.2,0.1c0.6,2.6,2,4.9,3.5,7
				c2.1,3.1,4.1,6.2,6.1,9.4c3.8,6,7.5,12.2,11.9,17.8c4.1,5.2,8.6,10.1,13.3,14.7c4,3.8,8.3,7.1,12.6,10.6
				c3.4,2.9,7.4,6.2,9.1,10.5c-5.1-3-9.7-6.7-14.1-10.8c-9.2-8.5-18.3-17.6-25.8-27.7c-3.8-5-7-10.5-10.2-15.9
				C1174.8,736.7,1172,731.4,1170.3,725.8z"/>
			<path class="st7" d="M1196.5,857.4c0.3,0.7,0.6,1.3,1.1,1.9c0,0.2,0,0.4,0,0.5c0.2,3,1.2,6.1,1.9,9c1.9,7.7,4.3,15.2,6.6,22.8
				c2.4,7.7,4.8,15.3,6.9,23.1c2.1,7.7,3.7,15.4,5.2,23.3c1.4,7.8,2.7,15.6,4.7,23.3c2,7.7,4.5,15.2,7,22.7c1,2.9,1.7,5.8,2.5,8.7
				c0.7,2.7,1.6,5.6,3.2,8c3.2,4.8,9.3,7.1,14.5,9c6.3,2.3,12.7,4.3,19.4,5.1c7.3,0.9,14.7,0.7,22.1,1c6.9,0.2,13.8,0.3,20.6-1.5
				c4.6-1.2,9.1-2.6,13.5-4.3c0.5-0.2,0.9-0.4,1.4-0.6c1.1-0.2,2.1-0.6,3-1.2c7.6-3.3,15.3-7.9,18-15.8c4.8-13.9,4.7-29.1,10.1-42.8
				c5.7-14.5,10.1-29.3,14.1-44.3c2-7.4,3.9-14.8,5.9-22.2c1-3.8,2.1-7.5,3.2-11.3c0.6-2.2,1.2-4.5,1.9-6.8c1.6-1.1,3.1-2.4,4.1-4
				c2.1-3.5,0-6.8-3.1-8.7c-3.7-2.3-8.1-3.5-12.3-4.7c-6.2-1.6-12.5-2.7-18.9-2.6c-1.3,0-1.3,1.9,0,2c3,0.1,5.9,0.5,8.9,1
				c5,0.9,10.1,2.2,14.9,3.9c1.9,0.7,3.7,1.4,5.4,2.4c1.3,0.7,3,1.8,3.3,3.4c0.1,0.8-0.1,1.6-0.6,2.3c-0.1-0.1-0.3-0.2-0.4-0.3
				c-0.6-0.3-1.3-0.1-1.6,0.4c-0.6,0.9-1,1.9-1.4,2.9c-0.9,0.6-1.8,1-2.4,1.4c-3.8,2.1-7.8,4-12,5.3c-10.1,3.1-21,3.4-31.5,3.2
				c-1.2,0-2.4,0-3.5-0.1c9.7-1.2,19.4-3,29.1-4.2c4.8-0.6,9.5-1.7,13.9-3.8c0.1,0,0.1,0,0.2-0.1c0.1-0.1,0.2-0.1,0.4-0.2
				c0.5-0.2,0.9-0.4,1.3-0.7c1.8-1,4.1-2.3,4.9-4.4c0.8-2.1-0.6-3.9-2.3-5c-1.6-1.1-3.6-1.7-5.4-2.4c-2.5-0.9-5-1.7-7.5-2.4
				c-5-1.3-10-1.9-15.2-2c-1.1,0-1.2,1.5-0.2,1.8c3.7,1.3,7.7,1,11.6,1.6c2.5,0.4,5.1,1.2,7.5,2.1c2.3,0.8,4.7,1.8,6.6,3.4
				c0.8,0.7,1.4,1.4,1.7,2.4c0,0.2,0.2,0.8,0.2,1.1c-0.1,0.1-0.2,0.2-0.3,0.3c-0.7-0.1-2.3-1-2.6-1.1c-1.1-0.5-2.4-1-3.6-0.5
				c-0.1,0-0.2,0.1-0.3,0.2c-0.3,0-0.5,0-0.8,0.1c-0.6-2.8-4-5.5-6.6-3.6c-0.9,0.7-1.4,1.8-1.3,2.9c-0.7-0.8-1.8-1.3-3-1.2
				c-0.5,0.1-0.9,0.2-1.3,0.4c-0.2-0.1-0.4-0.1-0.6-0.1c-0.1-0.2-0.2-0.5-0.3-0.7c-1-1.5-2.8-2.7-4.7-2.5c-0.9,0.1-1.7,0.5-2.3,1.1
				c-0.9-0.4-1.8-0.6-2.7-0.6c0-0.3,0-0.7-0.1-0.9c-0.3-0.5-0.9-0.8-1.3-1.3c-0.3-0.4-0.9-0.3-1.2,0c-0.9,0.7-1.7,0.8-2.7,1.1
				c-1.1,0.3-0.6,2,0.5,1.7c1-0.3,1.9-0.5,2.8-1c0.1,0.1,0.2,0.2,0.3,0.3c0,0,0,0,0.1,0.1c-0.1,0.3-0.1,0.5-0.2,0.7
				c-0.1,0.5,0.3,1.2,0.8,1.1c0.7-0.1,1.8,0,2.9,0.4c-0.1,0.2-0.1,0.4-0.1,0.6c-0.2,2,1.5,3.2,3.3,3.5c0.4,0.1,0.9-0.1,1-0.6
				c0.5-1.8-0.4-3.3-1.8-4.3c0.2-0.1,0.3-0.2,0.5-0.3c1.1-0.4,2.1,0,3,0.7c0.4,0.3,0.9,0.8,1,1.1c-0.4,0.2-0.8,0.4-1.2,0.8
				c-0.4,0.4-0.1,1.1,0.5,1.1c0.4,0,0.7-0.1,1-0.2c-0.3,0.6-0.4,1.3-0.4,2c0,0.3,0.2,0.6,0.5,0.7c2.1,0.6,4.3-0.4,3.3-2.9
				c-0.1-0.2-0.2-0.4-0.3-0.6c1.1-0.2,2.3,0.4,2.6,2.1c0.1,0.7,1.3,0.5,1.3-0.2c0-0.2,0-0.3,0.1-0.5c1.1,0.8,2.7,1,4,0.6
				c0.5-0.1,0.6-0.7,0.3-1.1c-0.8-1-2.4-1.5-3.7-1.3c-0.2-0.8,0.5-1.8,1.4-1.9c1.8-0.2,3.6,2,3.4,3.7c-0.1,0.6,0.7,1,1.2,0.7
				c-0.1,1,0.3,2.1,1.1,2.9c-0.9,0.3-1.8,0.7-2.7,0.9c-2.1,0.7-4.3,1.3-6.4,1.6c-4.9,0.6-9.8,1.3-14.6,2
				c-10.3,1.6-20.6,3.3-31.1,3.3c-10.5,0.1-21.2-1-31.6-2c-10.4-1-20.9-2.3-31.3-3.2c-9.9-0.9-19.8-1.2-29.6-2.7
				c-3.3-0.5-6.6-1.2-9.8-2.1c0.4,0,0.7-0.2,0.8-0.6c0.3-1.4,1.3-2.4,2.6-2.8c0.2-0.1,0.6-0.1,1-0.2c0.1,0.9,0.8,1.9,1.4,2.8
				c0.3,0.5,1,0.6,1.4,0.2c1.1-1,1.5-2.8,0.4-3.9c1.6-0.2,3.1,1.2,4,2.5c0.3,0.5,1.4,0.5,1.5-0.2c0.2-1.5,1-2.1,2.1-2.3
				c-0.6,1.7-0.7,4,0.5,5.3c1.6,1.8,5,0.7,5.9-1.3c0.7-1.5,0-2.9-1.4-4c0.1-0.1,0.2-0.2,0.4-0.3c0.3-0.2,0.3-0.7,0.1-1
				c-0.3-0.5-0.8-1.1-1.3-1.4c0.5-1,1.4-1.6,2.5-0.1c0.4,0.5,1.1,0.5,1.4,0c0.6-0.9,1.5-1.2,2.3-0.9c-0.1,0.1-0.3,0.3-0.4,0.5
				c-1.4,1.9,0.1,4.1,2.4,3.5c1.9-0.5,1.5-2.5,0.6-3.8c1.3-0.1,2.8,0.7,3.8,1.6c0.4,0.3,1-0.2,0.6-0.6c-1.4-1.4-3.5-2.5-5.4-2.1
				c-1.5-1.2-3.3-1.1-4.7,0.1c-1-0.9-2.3-1.4-3.6-0.4c-0.6,0.5-1,1.1-1.3,1.8c-0.8,0.2-1.4,0.8-1.9,1.5c-1.6-0.1-3.1,0.5-3.9,1.9
				c-1.7-1.8-4.1-2.9-6.5-1.5c-0.1,0.1-0.2,0.1-0.2,0.2c-2.4-0.2-5,1.2-5.9,3.4c-1.5-0.6-3.1-1.1-4.7-1c0.2-1.4-0.8-2.6-2.4-3
				c-1.6-0.4-2.9,0.4-3.4,1.6c-0.4-0.3-0.8-0.6-1.3-0.9c-0.3-0.3-0.5-0.7-0.6-1.1c-0.5-1.1-0.3-2.1,0.2-2.8c0.7-0.3,1.3-0.5,1.8-0.7
				c4.8-1.8,9.8-2.7,14.8-4c7.9-0.2,16.2,0.9,23.8-1.5c0.7-0.2,1-1.2,0.4-1.7c-1.2-1-2.7-1.6-4.2-1.8c-4.1-0.7-8.4,0.1-12.3,1
				c-2.8,0.6-5.6,1.4-8.5,2.1c-2.7,0.1-5.5,0.3-8.2,0.8c-3.1,0.6-6.9,1.5-8.9,4c0,0,0,0,0,0c-0.6,0.3-1.2,0.7-1.7,1
				C1197.1,853,1195.6,855,1196.5,857.4z M1241.5,854.4c0,0,0.1-0.1,0.1-0.1c0.4,0.5,0.9,1.2,0.6,1.6c-0.3,0.3-1.1,0-1.2-0.3
				C1240.9,855.2,1241.3,854.6,1241.5,854.4z M1231.7,857.9c0-0.2,0.1-0.4,0.2-0.6c0.2,0.1,0.3,0.1,0.5,0.2c0.1,0.2,0.4,0.4,0.7,0.4
				c0.1,0.1,0.2,0.1,0.3,0.2c0.6,0.4,1.7,1.2,1.5,2.1c-0.1,0.8-1.6,1.5-2.4,1.4C1231.1,861.4,1231.5,858.8,1231.7,857.9z
				 M1221.4,858.8c-0.1-0.2-0.2-0.4-0.3-0.6c0.1,0.1,0.2,0.1,0.2,0.2C1221.4,858.5,1221.4,858.6,1221.4,858.8z M1351.8,857.6
				c0.6,0.4,1.1,1,1.2,1.6c-0.7-0.2-1.2-0.7-1.2-1.5C1351.8,857.7,1351.8,857.6,1351.8,857.6z M1358.5,860.8
				c0.1-0.7,0.5-1.2,0.9-1.6c0.1,0.1,0.1,0.2,0.2,0.4C1360.1,860.7,1359.3,861,1358.5,860.8z M1373.8,863.1c-0.7-0.4-1.3-1.7-1-2.4
				c0.6,0.2,1.2,0.5,1.6,0.8c0.3,0.3,0.5,0.7,0.5,1C1374.6,862.7,1374.2,862.9,1373.8,863.1z M1376.8,861.5c-0.1,0-0.1,0.1-0.2,0.1
				c-0.1,0-0.1,0.1-0.2,0.1c-0.1-0.2-0.1-0.3-0.2-0.5C1376.4,861.4,1376.6,861.5,1376.8,861.5z M1226.3,845.6c1.7-0.4,3.4-0.7,5.1-1
				c2.4-0.3,5.6-0.7,8.2,0.1c-1.4,0.3-2.7,0.5-4.1,0.6C1232.4,845.6,1229.4,845.7,1226.3,845.6z M1199.5,853.9
				c0,0.6,0.1,1.1,0.2,1.7c-0.2,0-0.4,0-0.6,0.1c-0.3,0.1-0.6,0.3-0.8,0.6c0-0.3,0-0.7,0.1-1
				C1198.7,854.8,1199.1,854.3,1199.5,853.9z M1207.7,859.1c-0.1,0.1-0.1,0.1-0.1,0.2c-0.8-0.3-1.6-0.6-2.4-1
				C1205.1,856.2,1209.2,857.2,1207.7,859.1z M1214.2,861.4c-1.2-0.3-2.4-0.7-3.6-1.1C1211.8,860.4,1213.1,860.9,1214.2,861.4z
				 M1294.4,872.7c0.1,0,0.2,0,0.4,0c-9.2,0.1-18.3,0-27.5-0.8c-12-1-23.8-3.7-35.8-5c-9.3-1-19.6-1.2-28-5.9c-1-0.5-3-1.6-4.2-2.9
				c0.1-0.5,0.3-0.8,0.8-0.9c0.1,0,0.3,0,0.4,0c0.3,0.5,0.7,0.9,1.2,1.3c3,2.4,7.2,3.6,10.8,4.7c5.1,1.5,10.3,2.5,15.5,3.2
				c10.7,1.4,21.5,1.8,32.2,2.9C1271.7,870.5,1283,871.8,1294.4,872.7z M1335.2,1002.4c-0.2,0.1-0.3,0.2-0.5,0.3
				c2.9-5,4.4-11,5.9-16.5c0.9-3.1,1-6.2,1-9.4c0-2,0-4,0.1-6c0-0.9-0.1-2.8,0.6-3.6c3.5-1.1,6.9-2.6,9.6-5c-0.8,4-1.5,8.1-2.2,12.1
				c-0.6,3.6-1.3,7.2-2.2,10.8c-0.7,2.9-1.4,6.1-2.9,8.8C1342.6,997.6,1338.8,1000.3,1335.2,1002.4z M1300.8,998.4
				c0.1-4.2-0.8-8.2-0.9-12.4c-0.1-3.3,0-6.7-0.7-10c-0.2-1.1-0.6-2.1-1.2-2.9c4.8-0.2,9.6-0.5,14.3-1c0.2,0,0.5,0,0.7-0.1
				c-0.2,5.2,0,10.5-0.3,15.7c-0.2,4-0.7,8.1-1.3,12.2c-0.5,3.4-1,7.5-3.3,10.3c-2.3,2.8-5.9,2.4-9.2,2.2c-0.1-2.2,0.4-4.4,0.8-6.6
				C1300.4,1003.4,1300.7,1000.9,1300.8,998.4z M1329,971.1c-0.1-0.3-0.3-0.6-0.4-0.9c2.6-0.4,5.2-0.9,7.8-1.5
				c1.2-0.3,2.5-0.6,3.7-0.9c-0.1,0.5-0.1,1.1-0.2,1.6c-0.2,2-0.2,4-0.2,6c0,3.3,0.1,6.5-0.8,9.6c-0.8,2.9-1.6,5.8-2.6,8.7
				c-1.1,3.3-2.4,6.6-4.4,9.5c-0.3,0.4-0.6,0.9-1,1.3c-1.5,0.7-3,1.3-4.5,2c0.9-5.2,2-10.4,2.3-15.7c0.3-3.6,0.1-7.2,0.4-10.8
				C1329.4,977.2,1329.9,973.8,1329,971.1z M1309.4,1012c2.4-2.6,3.3-6.4,3.8-9.8c0.7-4.2,1.2-8.5,1.5-12.7
				c0.4-5.7,0.2-11.4,0.3-17.1c2.7-0.2,5.5-1.1,8.2-1.4c0.8-0.1,2.5-0.5,3.3,0c0.7,0.4,0.7,1.8,0.7,2.5c0.2,2.9-0.2,5.8-0.4,8.7
				c-0.3,3.7,0,7.4-0.4,11.2c-0.5,4.7-1.5,9.3-2.2,14c-1,0.4-2.1,0.8-3.1,1.1C1317.3,1009.9,1313.3,1011.2,1309.4,1012z
				 M1286.9,1012.7c-0.8,0-1.6,0-2.4-0.1c2-6.1,1.4-12.9,1.4-19.2c0-6.6,1.4-13.5-0.4-20c0.3,0,0.6-0.1,1-0.2c3,0.1,6,0,8.9,0
				c2.1,1.2,2.2,4.3,2.4,6.6c0.2,2.9,0,5.8,0.3,8.7c0.5,4.4,1.1,8.8,0.6,13.2c-0.5,3.7-1.9,7.5-1.5,11.3
				C1293.7,1013,1290.2,1012.8,1286.9,1012.7z M1270.7,974c-0.1-0.6-0.3-1.1-0.5-1.7c4.4,0.5,8.8,0.8,13.2,0.9
				c2,6.5,0.4,13.6,0.4,20.3c0,6.4,0.5,13-1.5,19.1c-3.5-0.6-7.1-1-10.6-0.5c-0.3,0-0.6,0-0.9-0.1c-1.2-4.7-0.6-9.9-0.2-14.7
				c0.4-4.2,0.5-8.3,0.5-12.4C1271.2,981.3,1271.5,977.6,1270.7,974z M1265.6,1011.3c-3.2-0.6-6.4-1.5-9.5-2.5
				c0.5-2.6,0.2-5.3-0.1-7.9c-0.4-3.6-1.1-7.1-1.6-10.7c-0.5-3.5-0.5-7-0.6-10.4c-0.1-3.3-0.1-6.7,0.9-9.9c4.3,0.9,8.6,1.6,13,2.1
				c0.2,0.2,0.5,0.4,0.6,0.7c0.7,1.4,0.8,3.2,0.9,4.8c0.2,3.3,0,6.6,0,10c0.1,4.5-0.6,9-0.9,13.5c-0.3,3.6-0.5,7.3,0.3,10.8
				C1267.7,1011.7,1266.6,1011.5,1265.6,1011.3z M1238.7,965.6c4.6,1.6,9.4,2.8,14.1,3.9c-1,3.1-1,6.4-1,9.6c0,3.4,0,6.9,0.4,10.3
				c0.4,3.7,1.2,7.3,1.6,10.9c0.3,2.5,0.6,5.3,0.2,7.8c-1.9-0.6-3.7-1.3-5.5-2.1c-1.4-0.9-2.6-1.9-3.4-3.4c-1.2-2.3-1.6-5.2-2.1-7.7
				c-0.7-2.9-1.3-5.9-1.9-8.9c-0.6-3-1.1-5.9-1.8-8.9c-0.6-2.5-1.1-4.9-0.9-7.4C1238.7,968.4,1238.9,967,1238.7,965.6z M1226,961.5
				c0.7,0.4,1.5,0.7,2.3,0.9c1,0.2,2.1,0.3,3.1,0.3c1.7,0.7,3.4,1.4,5.2,2c0.3,0.7,0.2,1.6,0.2,2.3c-0.1,2.1-0.4,4-0.2,6.1
				c0.4,3,1.2,6,1.8,9c0.6,3,1.1,6.1,1.7,9.1c0.7,3.1,1.3,6.2,2.1,9.2c0.3,1.1,0.7,2.1,1.2,3.1c-1.1-0.6-2.2-1.3-3.1-2
				c-2.1-1.7-3.4-4-4.2-6.5c-0.9-2.7-1.5-5.5-2.2-8.3c-0.9-3.4-2.2-6.7-3.3-10C1228.9,971.8,1227.4,966.7,1226,961.5z M1201.6,867.2
				c-0.6-1.9-1.5-3.9-2-6c1.7,1.3,3.8,2.2,5.4,3c9.8,4.2,20.9,4.1,31.4,5.5c6.6,0.9,13.2,2.1,19.8,3.1c6.1,1,12.2,1.5,18.3,1.8
				c12.8,0.6,25.7,0.2,38.5,0.1c11.5-0.1,23,0.6,34.4,0.4c5.7-0.1,11.4-0.7,16.9-2c5-1.2,9.6-3.1,14.2-5.5c0.5-0.3,1.1-0.6,1.7-0.9
				c-0.2,0.8-0.5,1.7-0.7,2.5c-4.4,14.1-7.8,28.4-11.7,42.6c-1.9,7-4,14-6.2,21c-1.2,3.6-2.5,7.3-3.9,10.9
				c-1.3,3.4-2.7,6.6-3.7,10.1c-0.6,2-1.1,4-1.6,6c-2.4,2.3-5.5,3.7-8.6,4.8c-3.9,1.4-7.9,2.3-11.9,3c-12.3,2.1-24.7,3.3-37.2,3.5
				c-0.3-0.1-0.5-0.1-0.8-0.2c-1.8-0.2-3.5-0.1-5.3,0.2c-3.9,0-7.8-0.1-11.7-0.4c-3.1-0.2-6.2-0.5-9.3-0.9c-0.9-0.3-1.8-0.5-2.7-0.7
				c-2-0.3-4-0.5-6-0.7c-3-0.6-6-1.2-8.9-1.9c-4.2-1-8.3-2.2-12.4-3.7c-0.7-0.8-1.8-1.3-2.7-1.6c-0.8-0.2-1.7-0.3-2.5-0.4
				c-2.5-1.1-5-2.2-7.4-3.5c-0.2-0.7-0.3-1.3-0.5-2c-1.7-7.5-2.8-15.1-4.3-22.7c-2.9-15.1-7.4-29.7-12-44.3
				C1205.9,881.4,1203.9,874.2,1201.6,867.2z"/>
		</g>
	</g>
	<rect x="109.4" y="39.2" class="st8" width="1346.5" height="800.6"/>
</g>
</svg>
