<svg id="Capa_1" data-name="Capa 1" xmlns="http://www.w3.org/2000/svg" viewBox="0 0 165.34 55.26">
  <defs>
    <style>
      .cls-1 {
        font-size: 19.82px;
        font-family: Constantia;
      }

      .cls-1, .cls-8 {
        fill: #f9f4f9;
      }

      .cls-2 {
        letter-spacing: -0.02em;
      }

      .cls-3 {
        letter-spacing: 0.02em;
      }

      .cls-4 {
        letter-spacing: -0.05em;
      }

      .cls-5 {
        letter-spacing: 0em;
      }

      .cls-6 {
        letter-spacing: -0.01em;
      }

      .cls-7 {
        letter-spacing: -0.01em;
      }
    </style>
  </defs>
  <g>
    <text class="cls-1" transform="translate(58.32 50.29) scale(0.92 1)"><tspan class="cls-2">P</tspan><tspan class="cls-3" x="11.14" y="0">L</tspan><tspan x="22.64" y="0">AN</tspan><tspan class="cls-4" x="50.85" y="0">T</tspan><tspan class="cls-5" x="61.94" y="0">A</tspan><tspan class="cls-6" x="75.3" y="0">S</tspan><tspan x="85.21" y="0">TI</tspan><tspan class="cls-7" x="104.1" y="0">C</tspan></text>
    <g>
      <path class="cls-8" d="M299.46,284.09c0-2.93,1.77-5.71,4.33-5.71a2.33,2.33,0,0,1,2.09,1.37l-.84.68a1.47,1.47,0,0,0-1.32-.92c-1.83,0-3.05,2.32-3.05,4.47,0,1.59.6,2.68,2,2.68a2.46,2.46,0,0,0,1.67-.77l.53.83a3.51,3.51,0,0,1-2.43,1.07C300.55,287.79,299.46,286.31,299.46,284.09Z" transform="translate(-240.19 -257.27)"/>
      <path class="cls-8" d="M308.53,285.89a3.07,3.07,0,0,1,.09-.76l1.22-6.31h-2l.2-1h3.14l-1.43,7.42a2.65,2.65,0,0,0-.06.58.8.8,0,0,0,.87.92,2.31,2.31,0,0,0,1.17-.35l.27,1a3.7,3.7,0,0,1-1.77.45A1.68,1.68,0,0,1,308.53,285.89Z" transform="translate(-240.19 -257.27)"/>
      <path class="cls-8" d="M314.39,286.09a5,5,0,0,1,.11-1.09l.76-4.15h1.18l-.74,4a4.81,4.81,0,0,0-.11.87.83.83,0,0,0,.89.95,3.29,3.29,0,0,0,2.3-1.52l.79-4.31h1.18l-1.23,6.77h-1l.14-1.32h-.05a3.91,3.91,0,0,1-2.66,1.49A1.49,1.49,0,0,1,314.39,286.09Z" transform="translate(-240.19 -257.27)"/>
      <path class="cls-8" d="M323,286.8h0l-.24.82h-1l1.8-9.82h1.17l-.46,2.52-.35,1.48h0a3.28,3.28,0,0,1,2.17-1.11c1.31,0,2.11.95,2.11,2.67,0,2.46-1.49,4.43-3.39,4.43A2.19,2.19,0,0,1,323,286.8Zm4-3.26c0-1.22-.53-1.79-1.31-1.79a2.79,2.79,0,0,0-1.94,1.25l-.53,2.84a1.64,1.64,0,0,0,1.46.88C326,286.72,327,285.29,327,283.54Z" transform="translate(-240.19 -257.27)"/>
    </g>
  </g>
  <g>
    <path class="cls-8" d="M271.93,276.17a20.2,20.2,0,0,0-6.76-6.21c.83,1.06,1.76,2,2.5,3.17a14.28,14.28,0,0,1,2.07,4.56.77.77,0,0,1-.5,1c-4.48,1.91-9,2.27-13.51.17a21.17,21.17,0,0,1-5.56-3.95,27.6,27.6,0,0,1-3.57-4.22,42.12,42.12,0,0,1-4.06-7.2,6,6,0,0,0-2.16-2.85c-.36-.23-.14-.37.09-.52a9,9,0,0,1,2.23-.92,25.8,25.8,0,0,1,17.76.75,18.61,18.61,0,0,1,8.49,7.57,23.32,23.32,0,0,1,2.89,7.67c0,.16.05.32.07.48S271.92,275.88,271.93,276.17Z" transform="translate(-240.19 -257.27)"/>
    <path class="cls-8" d="M278.1,269.69a13.78,13.78,0,0,0-3,5.48c0,.15,0,.38-.23.38s-.25-.21-.28-.37a21.17,21.17,0,0,1-.41-2.51,12.81,12.81,0,0,1,1.89-7.88,15.2,15.2,0,0,1,5.41-5.1,17.13,17.13,0,0,1,6-2.16,22.38,22.38,0,0,1,10.46.93,3.49,3.49,0,0,1,.44.2c.36.18.43.35.08.66a14.52,14.52,0,0,0-2.21,2.29,22.71,22.71,0,0,0-2.48,5.7A14.79,14.79,0,0,1,288,275,13.25,13.25,0,0,1,279,277l-.24,0c-1.61-.19-1.6-.19-1.7-1.78A13.28,13.28,0,0,1,278.1,269.69Z" transform="translate(-240.19 -257.27)"/>
    <path class="cls-8" d="M291,283.76a3.09,3.09,0,0,1-2.12,3.72c-1.5.52-3,1.13-4.46,1.72l-10.83,4.27-6.1,2.42a5.08,5.08,0,0,1-3.1.57,3.27,3.27,0,0,1-2.29-3.64,3.08,3.08,0,0,1,2.18-2.38c3.43-1.3,6.83-2.65,10.24-4l8.21-3.16c1.43-.55,2.88-1.06,4.3-1.67A3.12,3.12,0,0,1,291,283.76Z" transform="translate(-240.19 -257.27)"/>
    <path class="cls-8" d="M266.59,300.81c-.62-1.5.62-3.2,2-3.66,1.2-.38,2.37-.86,3.54-1.31.9-.36,1.8-.75,2.7-1.1,1.31-.51,2.58-1.1,3.89-1.59,2.58-1,5.13-2,7.72-3a3,3,0,0,1,3.9,2.47,3.24,3.24,0,0,1-2.27,3.41c-4.48,1.7-8.9,3.55-13.37,5.25-1.6.61-3.17,1.29-4.79,1.78a2.59,2.59,0,0,1-2.5-.73A2.13,2.13,0,0,1,266.59,300.81Z" transform="translate(-240.19 -257.27)"/>
    <path class="cls-8" d="M275.87,302.62l2.57-1c1.73-.71,3.44-1.47,5.23-2a3,3,0,0,1,3.62,1.86,3.06,3.06,0,0,1-1.6,3.87q-4.35,1.79-8.7,3.55a3.16,3.16,0,0,1-3.88-1.64,3.2,3.2,0,0,1,1.12-3.92A4.64,4.64,0,0,1,275.87,302.62Z" transform="translate(-240.19 -257.27)"/>
    <path class="cls-8" d="M272,282.66c-.16-.69-.33-1.38-.47-2.07a3.07,3.07,0,0,1,2.35-3.72,3,3,0,0,1,3.64,2.37c.27,1.14.52,2.28.81,3.42.1.42.05.65-.4.83-1.53.58-3,1.21-4.55,1.82-.61.24-.71.19-.87-.47l-.51-2.18Z" transform="translate(-240.19 -257.27)"/>
  </g>
</svg>
