<?xml version="1.0" encoding="utf-8"?>
<!-- Generator: Adobe Illustrator 24.3.0, SVG Export Plug-In . SVG Version: 6.00 Build 0)  -->
<svg version="1.1" id="Capa_1" xmlns="http://www.w3.org/2000/svg" xmlns:xlink="http://www.w3.org/1999/xlink" x="0px" y="0px"
	 viewBox="0 0 792.42 841.89" style="enable-background:new 0 0 792.42 841.89;" xml:space="preserve">
<style type="text/css">
	.st0{fill:#A4519A;}
	.st1{font-family:'Constantia';}
	.st2{font-size:19.8201px;}
</style>
<g>
	<text transform="matrix(0.9161 0 0 1 376.5341 443.7449)" class="st0 st1 st2">PLANTASTIC</text>
	<g>
		<g>
			<path class="st0" d="M377.48,420.27c0-2.93,1.78-5.71,4.33-5.71c0.95,0,1.66,0.55,2.09,1.37l-0.83,0.68
				c-0.32-0.58-0.73-0.92-1.32-0.92c-1.83,0-3.05,2.32-3.05,4.48c0,1.58,0.6,2.68,2.02,2.68c0.61,0,1.16-0.3,1.67-0.77l0.53,0.83
				c-0.59,0.56-1.39,1.07-2.43,1.07C378.58,423.97,377.48,422.49,377.48,420.27z"/>
			<path class="st0" d="M386.55,422.07c0-0.23,0.03-0.48,0.09-0.77l1.23-6.31h-1.98l0.2-1.02h3.14l-1.43,7.42
				c-0.04,0.18-0.06,0.37-0.06,0.58c0,0.65,0.36,0.92,0.88,0.92c0.4,0,0.73-0.11,1.17-0.34l0.27,0.97c-0.57,0.3-1.14,0.44-1.77,0.44
				C387.28,423.97,386.55,423.31,386.55,422.07z"/>
			<path class="st0" d="M392.41,422.27c0-0.37,0.04-0.72,0.11-1.09l0.77-4.15h1.17l-0.74,4.01c-0.06,0.33-0.11,0.59-0.11,0.87
				c0,0.61,0.32,0.95,0.89,0.95c0.75,0,1.52-0.56,2.29-1.52l0.79-4.31h1.18l-1.23,6.77h-0.97l0.14-1.32h-0.05
				c-0.71,0.76-1.62,1.49-2.66,1.49C392.93,423.97,392.41,423.31,392.41,422.27z"/>
			<path class="st0" d="M401.01,422.98h-0.04l-0.24,0.82h-0.97l1.8-9.82h1.17l-0.46,2.52l-0.35,1.48h0.05
				c0.6-0.62,1.4-1.11,2.17-1.11c1.31,0,2.11,0.96,2.11,2.68c0,2.46-1.49,4.43-3.39,4.43C402.07,423.97,401.39,423.57,401.01,422.98
				z M405.04,419.72c0-1.21-0.53-1.78-1.31-1.78c-0.58,0-1.32,0.45-1.94,1.24l-0.53,2.84c0.38,0.64,0.92,0.88,1.46,0.88
				C404.02,422.9,405.04,421.47,405.04,419.72z"/>
		</g>
	</g>
</g>
<g>
	<path class="st0" d="M349.96,412.35c-1.8-2.74-4.13-4.64-6.77-6.21c0.84,1.06,1.77,2.04,2.5,3.17c0.92,1.41,1.69,2.9,2.07,4.56
		c0.12,0.51-0.04,0.82-0.49,1.02c-4.48,1.91-8.99,2.26-13.51,0.17c-2.09-0.97-3.87-2.38-5.56-3.95c-1.37-1.28-2.5-2.73-3.57-4.23
		c-1.61-2.25-2.91-4.68-4.06-7.2c-0.51-1.11-1.07-2.18-2.16-2.85c-0.36-0.22-0.14-0.36,0.09-0.51c0.68-0.46,1.47-0.67,2.23-0.92
		c2.85-0.93,5.77-1.38,8.77-1.21c3.1,0.17,6.17,0.64,9,1.96c3.56,1.66,6.47,4.12,8.49,7.57c1.4,2.4,2.38,4.94,2.88,7.67
		c0.03,0.16,0.06,0.32,0.08,0.48C349.95,411.96,349.95,412.06,349.96,412.35z"/>
	<path class="st0" d="M356.13,405.87c-0.93,1.02-1.68,2.16-2.22,3.43c-0.29,0.67-0.57,1.34-0.74,2.05
		c-0.04,0.15-0.03,0.38-0.23,0.38c-0.16,0-0.25-0.2-0.28-0.36c-0.15-0.84-0.36-1.67-0.42-2.51c-0.18-2.81,0.37-5.47,1.89-7.88
		c1.36-2.17,3.2-3.83,5.41-5.11c1.88-1.08,3.88-1.82,6.02-2.16c3.56-0.56,7.05-0.17,10.46,0.94c0.15,0.05,0.3,0.12,0.44,0.19
		c0.36,0.18,0.42,0.35,0.08,0.66c-0.79,0.71-1.58,1.4-2.21,2.29c-1.24,1.74-1.78,3.75-2.48,5.7c-1.15,3.18-3,5.85-5.88,7.71
		c-2.73,1.77-5.74,2.29-8.94,1.93c-0.08-0.01-0.16-0.03-0.24-0.04c-1.61-0.19-1.6-0.19-1.71-1.78
		C354.97,409.42,355.49,407.64,356.13,405.87z"/>
	<path class="st0" d="M369.07,419.94c0.38,1.68-0.49,3.15-2.11,3.71c-1.51,0.53-2.98,1.14-4.47,1.72
		c-3.61,1.42-7.22,2.85-10.83,4.28c-2.03,0.8-4.06,1.62-6.09,2.42c-0.99,0.39-1.96,0.83-3.1,0.57c-1.49-0.33-2.61-2.13-2.3-3.64
		c0.27-1.27,1.03-1.94,2.19-2.38c3.42-1.3,6.82-2.65,10.24-3.97c2.73-1.06,5.47-2.1,8.21-3.16c1.43-0.55,2.88-1.07,4.3-1.67
		C366.76,417.11,368.89,418.56,369.07,419.94z"/>
	<path class="st0" d="M344.62,436.98c-0.62-1.49,0.62-3.2,2.05-3.65c1.2-0.38,2.36-0.86,3.53-1.32c0.91-0.35,1.8-0.74,2.71-1.1
		c1.3-0.51,2.58-1.1,3.88-1.59c2.58-0.96,5.14-2,7.72-2.96c1.7-0.63,3.67,0.67,3.91,2.47c0.17,1.29-0.55,2.75-2.27,3.41
		c-4.48,1.7-8.9,3.55-13.37,5.25c-1.59,0.6-3.16,1.28-4.79,1.78c-0.89,0.27-1.78-0.08-2.5-0.73
		C345,438.11,344.61,437.62,344.62,436.98z"/>
	<path class="st0" d="M353.9,438.8c0.73-0.29,1.65-0.66,2.57-1.03c1.73-0.71,3.45-1.47,5.23-2.04c1.48-0.47,3.09,0.39,3.62,1.86
		c0.55,1.54-0.15,3.27-1.6,3.87c-2.9,1.19-5.79,2.38-8.7,3.55c-1.42,0.57-3.13-0.17-3.87-1.64c-0.65-1.29-0.13-3.11,1.11-3.92
		C352.7,439.16,353.18,438.96,353.9,438.8z"/>
	<path class="st0" d="M350.02,418.84c-0.16-0.69-0.33-1.37-0.48-2.07c-0.36-1.74,0.65-3.34,2.35-3.72c1.66-0.37,3.24,0.65,3.64,2.37
		c0.27,1.14,0.52,2.29,0.81,3.42c0.11,0.42,0.06,0.65-0.4,0.83c-1.53,0.58-3.03,1.21-4.55,1.82c-0.62,0.25-0.71,0.19-0.87-0.46
		C350.35,420.3,350.19,419.57,350.02,418.84C350.02,418.84,350.02,418.84,350.02,418.84z"/>
</g>
</svg>
