<svg id="Capa_1" data-name="Capa 1" xmlns="http://www.w3.org/2000/svg" viewBox="0 0 195.08 116.95">
  <defs>
    <style>
      .cls-1, .cls-2, .cls-6 {
        fill: #88c7a3;
      }

      .cls-1, .cls-10, .cls-2, .cls-3, .cls-4, .cls-5, .cls-6, .cls-7, .cls-8, .cls-9 {
        fill-rule: evenodd;
      }

      .cls-10, .cls-2, .cls-8 {
        stroke: #000;
      }

      .cls-10, .cls-2, .cls-4, .cls-6, .cls-8 {
        stroke-miterlimit: 10;
      }

      .cls-3 {
        fill: #a4519a;
      }

      .cls-4 {
        fill: none;
      }

      .cls-4, .cls-6 {
        stroke: #0c0c0c;
      }

      .cls-5 {
        fill: #fff;
      }

      .cls-7, .cls-8 {
        fill: #a3c9bd;
      }

      .cls-10, .cls-9 {
        fill: #e7a521;
      }
    </style>
  </defs>
  <path class="cls-1" d="M363.09,418c-.11-.48-.33.06-.76,0-2.58.81-4.71-.28-7,.28-1.53.37-2.51,1.75-4,2-2.8.43-5.51-.42-8.81.28-1.5.19-1.24-1.63-2.76-1.42-11.23.09-23.2,1.13-34,0-2.84,2.49-7.39.93-12.33,1.42-1.18,0-.82-1.73-2-1.7-3.17.1-7.42-1.06-9.82,0-3.3,11.5-5.91,23.77-8.3,36.3,8.3,1.7,17.21.51,26.17,1.14,25.3,1.77,52.31,1.44,77,1.69-3.38-12.17-8.44-24.9-11.08-38.85C364.47,418.92,364.18,418,363.09,418Z" transform="translate(-181.35 -348.58)"/>
  <path class="cls-2" d="M360.55,419.84c-.1-.45-.32.06-.76,0-2.57.75-4.71-.26-7,.27-1.53.34-2.51,1.63-4,1.85-2.79.4-5.51-.4-8.81.26-1.5.18-1.23-1.52-2.76-1.32-11.23.08-23.19,1.05-34,0-2.84,2.32-7.39.87-12.33,1.32-1.18,0-.81-1.61-2-1.59-3.16.09-7.41-1-9.81,0-3.31,10.74-5.92,22.2-8.31,33.89,8.3,1.6,17.22.48,26.17,1.07,25.3,1.65,52.32,1.35,77,1.58-3.38-11.36-8.43-23.25-11.08-36.27C361.93,420.68,361.65,419.83,360.55,419.84Z" transform="translate(-181.35 -348.58)"/>
  <path class="cls-3" d="M354.54,374.32c-.09-6.21.13-12.45-1.77-17.21-7.11-1-15.57-.57-23.4-.8-.32,0-.35.34-.76.26-11.3.5-24.13,1.48-35.73,1.86-3.89.13-7.95-.38-10.32,2.38a495.79,495.79,0,0,0,2,49.78c10.41.78,22.74-.79,35-.79h18.37c5.93,0,12.41.95,16.37-2.39,1.49-4.07,1.34-9.79,1-15.09C354.92,386.52,354.62,380.35,354.54,374.32Z" transform="translate(-181.35 -348.58)"/>
  <path class="cls-4" d="M340.94,418.53c1,1.21,6.69,1.47,7.31-.26C347.7,416.25,341.66,416.71,340.94,418.53Z" transform="translate(-181.35 -348.58)"/>
  <path class="cls-4" d="M291.62,418c.87,2.09,7.48,2.42,8.56.26C298.62,416.93,293.57,417.28,291.62,418Z" transform="translate(-181.35 -348.58)"/>
  <path class="cls-5" d="M293.45,367.35c-2.08,0-4.17-.07-5.77.85-.33,3.47-.19,7.58-.26,11.39,0,.16.11.17.08.37.17,5.5.5,11.74.63,17.39,0,1.89-.13,3.87.8,5a114.05,114.05,0,0,0,16.69-1c.26-5.06-.27-11.07-.27-17v-8.94c0-2.88.32-6-.8-8-1.36-.73-3.28-.66-5.06-.49C297.54,367.16,295.48,367.3,293.45,367.35Z" transform="translate(-181.35 -348.58)"/>
  <path class="cls-5" d="M313.7,367.35c-2.08,0-4.17-.07-5.77.85-.33,3.47-.19,7.58-.27,11.39,0,.16.12.17.09.37.17,5.5.5,11.74.62,17.39.05,1.89-.12,3.87.8,5a113.89,113.89,0,0,0,16.69-1c.26-5.06-.26-11.07-.26-17v-8.94c0-2.88.32-6-.8-8-1.37-.73-3.29-.66-5.06-.49C317.79,367.16,315.72,367.3,313.7,367.35Z" transform="translate(-181.35 -348.58)"/>
  <path class="cls-5" d="M334.57,366.27c-2.08.05-4.17-.06-5.77.86-.33,3.46-.18,7.58-.26,11.39,0,.16.11.17.09.37.16,5.5.49,11.74.62,17.39,0,1.89-.13,3.87.8,5a115.29,115.29,0,0,0,16.69-1c.26-5.07-.27-11.07-.27-17v-8.94c0-2.89.32-6-.8-8-1.36-.72-3.28-.65-5.06-.48C338.67,366.09,336.6,366.23,334.57,366.27Z" transform="translate(-181.35 -348.58)"/>
  <path class="cls-3" d="M316.32,389.4c-.16-.22-.31-.4-.43-.6-.22-.37-.42-.74-.64-1.11a1,1,0,0,0-.19-.26,3.32,3.32,0,0,1-.71-1,11.06,11.06,0,0,0-1.26-1.86.39.39,0,0,0-.51-.16l-.13,0h-.18l-.22-.35c-.07-.11-.11-.23-.18-.37a5.65,5.65,0,0,0,1.73-.88,2.52,2.52,0,0,1,.61.73l.56.72c.18.24.37.48.55.73s.33.5.49.75.3.51.43.76a.75.75,0,0,0,.58-.24c.93-.81,1.95-1.53,2.81-2.41.43-.43.84-.88,1.26-1.33.15-.16.3-.32.46-.47.37-.36.75-.73,1.14-1.09a6.4,6.4,0,0,1,.51-.4c.15.1.09.2,0,.29a16.63,16.63,0,0,1-1.22,1.83,3.94,3.94,0,0,0-.31.48,4.12,4.12,0,0,1-.32.41c-.74.86-1.5,1.7-2.22,2.57-.41.5-.76,1.05-1.14,1.57a.94.94,0,0,1-.23.32,3.58,3.58,0,0,0-1,1.1A1.55,1.55,0,0,1,316.32,389.4Z" transform="translate(-181.35 -348.58)"/>
  <path class="cls-1" d="M362.36,349.9c-12.28-3.18-27.56.45-41,0a4.65,4.65,0,0,1,0,3.71c10.89-.08,23.17-1.32,33.72,0,.15,1.08,1.87.5,2,1.58,3.84,14.31,2.48,36.19,2,52.7-.86,1.21-2.35,1.77-3.27,2.91-20.76,2.89-49.3,1.81-72,1.32-2.39-14.1-1.88-33.24-2.52-50,.6-1.14.25-3.27,1-4.24,8.71-3.9,22.66-2.28,33.47-4,0-.78-.91-2.7,0-4-6.15.06-13,.23-19.38.53s-13.29-.66-18.37,1.59c-2.07,4.34-1.31,10.06-1,15.35.32,5.46.54,11.06.75,16.42.46,11.22.26,22.59,2.52,31.77,3.85,1.46,10.4,1.24,13.09-.79,2.39.57,5.75.12,8.55.27,1.37.24,1.85,1.29,3.28,1.58,4.67,1,10.75.53,16.35.53s11.53-.45,16.86-.26c1.89-3.62,9.13-2.89,13.84-2.65,1.32,0,.62,2.18,2,2.12,3.18-.54,7.1-.3,9.56-1.59.59-11.42-.75-23.54-.75-35.75C363.12,369.16,363.69,359.12,362.36,349.9Z" transform="translate(-181.35 -348.58)"/>
  <path class="cls-6" d="M360.83,350.49c-12.29-3.19-27.56.44-41,0a4.66,4.66,0,0,1,0,3.7c10.88-.07,23.17-1.32,33.72,0,.14,1.09,1.87.5,2,1.59,3.84,14.31,2.49,36.19,2,52.69-.86,1.22-2.34,1.77-3.26,2.92-20.77,2.89-49.31,1.81-72,1.32-2.39-14.1-1.88-33.25-2.51-50,.59-1.14.25-3.27,1-4.24,8.71-3.9,22.66-2.28,33.47-4,.05-.78-.9-2.7,0-4-6.15.05-13,.23-19.38.52s-13.29-.65-18.37,1.59c-2.07,4.35-1.31,10.07-1,15.36.31,5.45.54,11.05.75,16.42.45,11.22.26,22.59,2.52,31.77,3.84,1.46,10.39,1.23,13.08-.79,2.4.57,5.76.12,8.56.26,1.36.24,1.84,1.29,3.27,1.59,4.67,1,10.76.53,16.36.53s11.53-.45,16.86-.26c1.88-3.62,9.12-2.89,13.84-2.65,1.31,0,.62,2.18,2,2.12,3.18-.54,7.11-.3,9.56-1.59.6-11.42-.75-23.54-.75-35.75C361.58,369.74,362.15,359.71,360.83,350.49Z" transform="translate(-181.35 -348.58)"/>
  <path class="cls-5" d="M359.57,427a16.68,16.68,0,0,1-3.78.26,8.56,8.56,0,0,0,.51,2.91h3.52A11.55,11.55,0,0,1,359.57,427Z" transform="translate(-181.35 -348.58)"/>
  <path class="cls-5" d="M334.15,429.92h5.29a6.74,6.74,0,0,1-.26-2.65C336.79,427.26,332.53,426.58,334.15,429.92Z" transform="translate(-181.35 -348.58)"/>
  <path class="cls-5" d="M345.73,427.27h-4.79c.07.9-.19,2.15.26,2.65,1.7-.22,3.37.78,4.78,0C346.15,428.76,345.55,428.43,345.73,427.27Z" transform="translate(-181.35 -348.58)"/>
  <path class="cls-5" d="M354,427.27h-6.54a6.42,6.42,0,0,0,.5,2.91h6.3C354.43,429,353.84,428.54,354,427.27Z" transform="translate(-181.35 -348.58)"/>
  <path class="cls-5" d="M319.3,427.8c-.17,1,.43,1.14.25,2.12h4.53c.43-.44.21-1.55.26-2.38C322.71,427.68,320.52,427.23,319.3,427.8Z" transform="translate(-181.35 -348.58)"/>
  <path class="cls-5" d="M332.14,427.54h-6.29a6,6,0,0,0,.25,2.38h6C332.51,429.5,331.92,428.59,332.14,427.54Z" transform="translate(-181.35 -348.58)"/>
  <path class="cls-5" d="M282.71,451.24c-.15,1.15-.41,2.2-.56,3.36,2.25,0,3.55.45,5.57,0,0-1.16.49-1.76.28-3.08C286.74,450.92,284.42,451.38,282.71,451.24Z" transform="translate(-181.35 -348.58)"/>
  <path class="cls-5" d="M295.8,451.24c-3.09.08-7.37-1.06-6.13,3.36,1.16.24,3.86-.17,5.85,0C296.05,453.92,295.69,452.35,295.8,451.24Z" transform="translate(-181.35 -348.58)"/>
  <path class="cls-5" d="M298,454.32h3.9c.42-.79.27-2.16.56-3.08H298C298.31,452.54,297.51,453.66,298,454.32Z" transform="translate(-181.35 -348.58)"/>
  <path class="cls-5" d="M300.93,430.72h4a16.75,16.75,0,0,1,.5-2.92h-4.28C300.72,428.37,301,429.74,300.93,430.72Z" transform="translate(-181.35 -348.58)"/>
  <path class="cls-5" d="M306.72,427.8a6.26,6.26,0,0,1,0,2.92h5a11,11,0,0,0,.25-2.92Z" transform="translate(-181.35 -348.58)"/>
  <path class="cls-5" d="M314,427.8c.18,1.16-.43,1.5-.25,2.65,1.11-.41,3-.08,4-.53,0-.76-.13-1.73.25-2.12Z" transform="translate(-181.35 -348.58)"/>
  <path class="cls-5" d="M326.1,435.48c2.39-.27,4.73.8,6.79,0-.21-1.27-.34-2.64-.5-4C329,431.5,324.7,430.48,326.1,435.48Z" transform="translate(-181.35 -348.58)"/>
  <path class="cls-5" d="M334.15,431.51c.09,1.49.31,2.85.5,4.24,1.71-.15,4,.31,5.29-.27-.24-1.25-.17-2.82-.5-4Z" transform="translate(-181.35 -348.58)"/>
  <path class="cls-5" d="M341.45,431.51c-.28.77.17,2.73.25,4h5a9.9,9.9,0,0,0-.75-4Z" transform="translate(-181.35 -348.58)"/>
  <path class="cls-5" d="M348.25,431.51c-.31.87.3,2.78.5,4H355a25.78,25.78,0,0,0-.5-3.71A47,47,0,0,1,348.25,431.51Z" transform="translate(-181.35 -348.58)"/>
  <path class="cls-5" d="M356.55,431.51a25.65,25.65,0,0,0,.76,4c1.29-.21,2.74.81,3.77,0-.65-1-.49-2.84-1-4Z" transform="translate(-181.35 -348.58)"/>
  <path class="cls-5" d="M319.55,432.31c-.1,1.25.46,1.82.26,3.17h4.53C325.57,431.1,322.28,431.73,319.55,432.31Z" transform="translate(-181.35 -348.58)"/>
  <path class="cls-5" d="M317.79,432.31H314a7.55,7.55,0,0,0-.25,3.44c1.38-.14,3.29.29,4.27-.27C318,434.35,317.62,433.63,317.79,432.31Z" transform="translate(-181.35 -348.58)"/>
  <path class="cls-5" d="M306.72,432.83c.14,1.21-.45,1.65-.25,2.92h5c-.17-1.33.24-2.05.26-3.18C309.82,432.39,308.48,432.83,306.72,432.83Z" transform="translate(-181.35 -348.58)"/>
  <path class="cls-5" d="M289.67,456.83c.16,1.28-.49,1.74-.28,3.08h5.85a4.54,4.54,0,0,0,0-3.36A41,41,0,0,0,289.67,456.83Z" transform="translate(-181.35 -348.58)"/>
  <path class="cls-5" d="M301.64,456.55c-1.52-.12-2.29.5-3.9.28.2,1.23-.47,1.58-.27,2.8,1.1.68,2.93.06,4.17,0C301.43,458.41,302,457,301.64,456.55Z" transform="translate(-181.35 -348.58)"/>
  <path class="cls-5" d="M300.68,432.83c.14,1.21-.45,1.65-.25,2.92h4a11,11,0,0,0,.25-2.92Z" transform="translate(-181.35 -348.58)"/>
  <path class="cls-5" d="M281.88,459.63a28.15,28.15,0,0,1,5.56.28,10.5,10.5,0,0,0,.28-3.08C284.78,456.61,280.47,456.4,281.88,459.63Z" transform="translate(-181.35 -348.58)"/>
  <path class="cls-5" d="M324.34,437.07h-4.53c0,.71-.1,1.51.25,1.85,1.51-.17,3.68.35,4.78-.26C324.27,438.55,324.83,437.26,324.34,437.07Z" transform="translate(-181.35 -348.58)"/>
  <path class="cls-5" d="M326.35,437.07v1.85c1.94,0,3.66,1,5.28.53,1.15.21.93,1.86,2.27,1.86-.21-1.37-.79-2.35-.76-4A42.49,42.49,0,0,1,326.35,437.07Z" transform="translate(-181.35 -348.58)"/>
  <path class="cls-5" d="M313.52,437.33v1.59c1.64-.39,5.09,1.12,4.52-1.59Z" transform="translate(-181.35 -348.58)"/>
  <path class="cls-5" d="M334.9,437.33v4h5.54a14.87,14.87,0,0,0-.5-4Z" transform="translate(-181.35 -348.58)"/>
  <path class="cls-5" d="M342,437.33c-.19,1.62.33,2.48.25,4a32.65,32.65,0,0,0,5.79.26c-.17-1.41-.62-2.52-.75-4C345.28,437.72,344,437.13,342,437.33Z" transform="translate(-181.35 -348.58)"/>
  <path class="cls-5" d="M281,464.66h6.12c0-1.15.49-1.75.28-3.07C284.34,461.64,280.17,460.62,281,464.66Z" transform="translate(-181.35 -348.58)"/>
  <path class="cls-5" d="M289.39,461.59v3.07c1.8.59,3.92.11,5.85,0v-2.79C293.73,461.33,291.33,461.69,289.39,461.59Z" transform="translate(-181.35 -348.58)"/>
  <path class="cls-5" d="M306.22,440.51c.89-1.89,5.42.05,5.28-2.91h-5C306.21,438.22,306,440.22,306.22,440.51Z" transform="translate(-181.35 -348.58)"/>
  <path class="cls-5" d="M297.19,461.87v2.79h3.89c-.09-1.11.5-1.55.29-2.79Z" transform="translate(-181.35 -348.58)"/>
  <path class="cls-5" d="M299.93,440.51c1.69.2,2.61-.43,4.28-.26v-2.38h-4C300.26,438.92,299.73,439.34,299.93,440.51Z" transform="translate(-181.35 -348.58)"/>
  <path class="cls-5" d="M355.54,438.13a47.11,47.11,0,0,0-6.29-.26c0,1.37.47,2.33.51,3.7,2-.23,4-.34,6-.53C355.82,440,355.35,439.38,355.54,438.13Z" transform="translate(-181.35 -348.58)"/>
  <path class="cls-5" d="M357.8,437.87c-.43.65.37,1.76.25,2.91,1.6-.35,3.3.58,4.28,0-.47-.65-.45-1.82-.75-2.65C360.07,438.31,359.13,437.89,357.8,437.87Z" transform="translate(-181.35 -348.58)"/>
  <path class="cls-5" d="M326.6,441.57a144.74,144.74,0,0,0-19.38.8,85,85,0,0,1-.5,9.8,77,77,0,0,0,20.13-1.07C325.6,448.67,326.82,444.64,326.6,441.57Z" transform="translate(-181.35 -348.58)"/>
  <path class="cls-5" d="M328.11,441.84c.3,2.79.92,6.59.25,9.53,1.38-.38,2.69.69,3.53,0-1-2.77-.33-7.25-1.51-9.8C330.11,442.17,328.8,441.67,328.11,441.84Z" transform="translate(-181.35 -348.58)"/>
  <path class="cls-7" d="M367.83,462c-15.3,0-29.81-.82-45.05-1.06-16.88-.27-35-1-51.33-1.59-.43.11.05.34,0,.79.35.34.25,1.15.25,1.86,31.26,0,63.9,5.43,96.63,2.91,1.49-.12,4.38.16,5-1.85C372,461.25,369.57,462,367.83,462Z" transform="translate(-181.35 -348.58)"/>
  <path class="cls-8" d="M367.37,460.37c-15.3,0-29.81-.81-45.05-1.06-16.88-.27-35.05-.95-51.33-1.59-.43.11.05.34,0,.8.35.34.25,1.15.25,1.85,31.26,0,63.9,5.43,96.63,2.91,1.49-.11,4.38.17,5-1.85C371.57,459.67,369.11,460.37,367.37,460.37Z" transform="translate(-181.35 -348.58)"/>
  <g>
    <path class="cls-9" d="M212.2,426.58c1.08-19.22,4.27-36.33,4.55-56.34-2.27-2.33-5.1-2.86-7.28-1.38-4.61,3.13-7.76,11.07-11.87,17.41-4.35,6.72-8.54,13.23-11.39,17.87,2.21,15.56,13.65-.83,17.33-3.67a293.05,293.05,0,0,0-.92,29.78c-5.82,2.24-12.82,3.31-17.79,6.42,0,2.49-2.65,4.65-1.82,7.32,1,3.3,9.31,4.23,13.68,3.67,5.75-.74,13.13-4,21-6.88s16.06-7.24,15.95-12.36C233.4,417.37,217.41,426,212.2,426.58Z" transform="translate(-181.35 -348.58)"/>
    <path class="cls-9" d="M246.86,426.13a6.44,6.44,0,0,0-5.93,7.32c.94,11,16.44,1.8,10.5-5.95A5.59,5.59,0,0,0,246.86,426.13Z" transform="translate(-181.35 -348.58)"/>
  </g>
  <g>
    <path class="cls-10" d="M211.2,429.74c1.08-19.22,4.27-36.33,4.55-56.34-2.27-2.33-5.1-2.86-7.28-1.38-4.61,3.13-7.76,11.07-11.87,17.41-4.35,6.72-8.54,13.23-11.39,17.87,2.21,15.56,13.65-.83,17.33-3.67a293.05,293.05,0,0,0-.92,29.78c-5.82,2.24-12.82,3.31-17.79,6.42,0,2.49-2.65,4.65-1.82,7.32,1,3.3,9.31,4.23,13.68,3.67,5.75-.74,13.13-4,21-6.88s16.06-7.24,15.95-12.36C232.4,420.53,216.41,429.19,211.2,429.74Z" transform="translate(-181.35 -348.58)"/>
    <path class="cls-10" d="M245.86,429.29a6.44,6.44,0,0,0-5.93,7.32c.94,11,16.44,1.8,10.5-5.95A5.59,5.59,0,0,0,245.86,429.29Z" transform="translate(-181.35 -348.58)"/>
  </g>
</svg>
