<svg id="Capa_1" data-name="Capa 1" xmlns="http://www.w3.org/2000/svg" viewBox="0 0 255.3 112.46"><defs><style>.cls-1{fill:#a4519a;}.cls-1,.cls-10,.cls-11,.cls-12,.cls-13,.cls-2,.cls-3,.cls-4,.cls-5,.cls-6,.cls-7,.cls-8,.cls-9{fill-rule:evenodd;}.cls-11,.cls-2{fill:#88c7a3;}.cls-10,.cls-13,.cls-2,.cls-3,.cls-5,.cls-8{stroke:#000;stroke-miterlimit:10;}.cls-3{fill:#34b6c6;}.cls-4{fill:#fcc14b;}.cls-5,.cls-9{fill:#c2aecd;}.cls-6{fill:#e3eed3;}.cls-7{fill:#ffd032;}.cls-10,.cls-8{fill:none;}.cls-10{stroke-width:0.25px;}.cls-12,.cls-13{fill:#e7a521;}</style></defs><path class="cls-1" d="M384.18,441c-.25-3.71-.81-7.4-1.21-11.1-.22-2.05-.38-4.11-.57-6.17-.22-2.47-.29-5-.7-7.4-1.17-6.94-2.44-13.87-3.73-20.79a20.3,20.3,0,0,0-1.45-5.36c-1.65-3.24-1.95-6.75-2.51-10.2a5.68,5.68,0,0,1,3.91-6.26,28.4,28.4,0,0,1,4.23-.91c6.29-1.15,12.55-2.48,18.88-3.36a185.72,185.72,0,0,1,19.66-2c14.41-.48,28.84-.54,43.26-.75,2.3,0,3.1.47,3.53,2.56a62.85,62.85,0,0,1,1.6,16.61c-.47,8-.51,16.12-.23,24.16a131.89,131.89,0,0,1-.13,14.88c-.26,3.29-.21,6.6-.31,9.9-.08,2.64.21,5.35-1.07,7.82l-20.71,3.74c-4.54-2.68-8.4-5-12.32-7.24a6.08,6.08,0,0,0-2.92-.76c-5.7,0-10.53,1.76-13.2,7.35-.36.74-.74,1.47-1.28,2.55-1.72-.81-3.41-1.5-5-2.38a17.24,17.24,0,0,0-22.5,5.28c-.76,1.12-1,2.76-3.19,3.18C385.57,449.9,384.47,445.55,384.18,441Z" transform="translate(-279.88 -364.37)"/><path class="cls-2" d="M474.82,390.81c.15,8.82.45,17.46.39,26.11-.06,8.42-1.42,16.83-.5,25.12,3.26,2,6.63.9,9.83,1.24,3,.32,6.09,1.31,9.52-.08a8.84,8.84,0,0,0,1.3-1.6c2.73-5.09,7.51-6.11,12.6-6.36,3.56-.18,6.22,1.93,8.76,4.08a9.18,9.18,0,0,1,2,2.36c2,3.32,4.85,4.14,8.46,3.4,3.22-.65,3.35-.72,3.86-5.37-1.27-.42-2.62-.85-3.95-1.33a5,5,0,0,1-3.6-4.6c-.16-2.62-.11-5.26-.15-8.31-3.3-1.82-7.44-2.13-11.4-3-2.41-.54-5-.77-6-3.82-2.2.4-4.05.58-5.81,1.08-4.84,1.36-9.81.82-14.72,1.13a3.17,3.17,0,0,1-3.54-2.76,29.85,29.85,0,0,1-.17-3.68c-.09-1.85-.17-3.71-.33-5.55-.09-1-.39-2-.51-3.06-.95-7.72,1.79-10.94,9.32-10.89,4.3,0,8.6.18,12.89.25.77,0,1.54-.06,2.3-.09-.1-3.52-.39-4.05-2.35-4.23a13.59,13.59,0,0,0-2.47,0,41.23,41.23,0,0,1-12.28-.9,27.06,27.06,0,0,0-11,0A19.31,19.31,0,0,0,474.82,390.81Z" transform="translate(-279.88 -364.37)"/><path class="cls-3" d="M391.52,464.59c-.07-.41-.17-.81-.22-1.22-.54-5.11,1-9.42,5.19-12.46,4.05-2.92,8.37-2.91,12.79-.66,4.88,2.49,6.82,6.91,7.8,11.9a5.58,5.58,0,0,1-2.05,5.52c-1.56,1.33-2.89,2.93-4.42,4.29-4.9,4.31-16.18,4.48-18.64-5.56-.15-.6-.22-1.22-.33-1.83Zm14.8.64a2.49,2.49,0,0,0,.76-.94A5.88,5.88,0,0,0,404.3,457a4.45,4.45,0,0,0-4.67.49c-1.36,1-1.32,2.45-1.08,3.93.07.41.14.81.16.88C399.67,466.36,403.14,467.58,406.32,465.23Z" transform="translate(-279.88 -364.37)"/><path class="cls-4" d="M422.09,448.46c1.15-2.91,3.1-4.28,6.34-4.85,3.92-.69,6.74,1.15,9.84,2.64a6.59,6.59,0,0,1,3.72,4.68,89,89,0,0,1,1.77,11c.32,4-1.81,7-5.55,7.69a82,82,0,0,1-10.41.71,4,4,0,0,1-1.73-.58,7.75,7.75,0,0,1-4.81-7.44C420.39,457.3,420.37,452.82,422.09,448.46Zm14.37,5.93c-.71-2.93-1.8-3.94-3.92-3.69-3.21.38-4.79,2.18-4.62,5.25a5.15,5.15,0,0,0,6.85,4.73,2.83,2.83,0,0,0,2.12-2.68,7.32,7.32,0,0,0-.07-1.58C436.6,455.19,436.55,454.78,436.46,454.39Z" transform="translate(-279.88 -364.37)"/><path class="cls-4" d="M501.53,441.37c.07-.16.32-.26.5-.36,4.24-2.26,9.54-1.37,12.25,2.36a49.85,49.85,0,0,1,4.39,7.43c.8,1.63,1.33,3.63.34,5.35a29.2,29.2,0,0,1-3.7,4.83c-2.23,2.47-4.95,3.65-8.32,2.57l-4.7-1.48c-3.28-1-5.38-3-5.37-6.44C495.22,449.66,499.52,445.9,501.53,441.37Zm7.18,13.48a3,3,0,0,0,2.45-3.58,4,4,0,0,0-4-3.08c-1.57.07-2.55,1.69-2.22,3.66C505.33,454.06,506.78,455.22,508.71,454.85Z" transform="translate(-279.88 -364.37)"/><path class="cls-5" d="M505.31,399.12c-2.85-.24-5.56-1-8.07-.58-3.84.65-7.84-1.12-11.68,1-2.42,5.25.74,10.39.15,15.79,7,1.65,13.25-.23,19.8-1.82A45.9,45.9,0,0,0,505.31,399.12Z" transform="translate(-279.88 -364.37)"/><path class="cls-6" d="M533.56,449.46c-3.33.08-6.26.91-9.64,1.54-.11,1.53-.23,3.07-.36,4.87l7.61.37C533.14,454.35,534.32,452.4,533.56,449.46Z" transform="translate(-279.88 -364.37)"/><path class="cls-7" d="M534.59,428.74l-6.9-2.59c-2,2.11-.81,4.21-.24,6.24a3.09,3.09,0,0,0,2.72,2.12c1.75.34,2.74-.05,3.38-1.71A40.3,40.3,0,0,0,534.59,428.74Z" transform="translate(-279.88 -364.37)"/><path class="cls-5" d="M523.92,451c-.11,1.53-.23,3.07-.36,4.87l7.61.37c2-1.89,3.15-3.84,2.39-6.78C530.23,449.54,527.3,450.37,523.92,451Z" transform="translate(-279.88 -364.37)"/><path class="cls-8" d="M527.69,426.15c-2,2.11-.81,4.21-.24,6.24a3.09,3.09,0,0,0,2.72,2.12c1.75.34,2.74-.05,3.38-1.71a40.3,40.3,0,0,0,1-4.06Z" transform="translate(-279.88 -364.37)"/><path class="cls-1" d="M381.83,438.69c-.25-3.71-.81-7.4-1.21-11.11-.22-2.05-.38-4.11-.56-6.17-.23-2.46-.3-5-.71-7.39-1.16-6.95-2.44-13.87-3.73-20.8a20.13,20.13,0,0,0-1.45-5.36c-1.65-3.24-1.95-6.74-2.51-10.2a5.68,5.68,0,0,1,3.91-6.25,28.68,28.68,0,0,1,4.23-.91c6.29-1.15,12.55-2.48,18.88-3.37a183.11,183.11,0,0,1,19.66-2c14.41-.48,28.84-.54,43.26-.76,2.3,0,3.1.47,3.53,2.57a62.81,62.81,0,0,1,1.6,16.61c-.47,8-.5,16.11-.23,24.16a131.7,131.7,0,0,1-.13,14.87c-.26,3.29-.21,6.6-.31,9.9-.08,2.64.21,5.35-1.07,7.83l-20.71,3.74c-4.53-2.68-8.39-5-12.32-7.24A6,6,0,0,0,429,436c-5.7,0-10.53,1.77-13.2,7.36-.36.74-.74,1.47-1.28,2.55-1.72-.82-3.41-1.5-5-2.39a17.24,17.24,0,0,0-22.5,5.28c-.76,1.13-1,2.76-3.19,3.19C383.22,447.56,382.12,443.22,381.83,438.69Z" transform="translate(-279.88 -364.37)"/><path class="cls-8" d="M389.42,451.18a17.24,17.24,0,0,1,22.5-5.28c1.58.88,3.27,1.57,5,2.38.54-1.08.92-1.81,1.28-2.55,2.67-5.59,7.5-7.31,13.2-7.35a6.08,6.08,0,0,1,2.92.76c3.92,2.22,7.78,4.56,12.32,7.24l20.71-3.74c1.28-2.47,1-5.18,1.07-7.82.1-3.3,0-6.61.31-9.9a131.89,131.89,0,0,0,.13-14.88c-.28-8-.24-16.13.23-24.16a62.85,62.85,0,0,0-1.6-16.61c-.43-2.09-1.23-2.6-3.53-2.56-14.42.21-28.85.27-43.26.75a185.72,185.72,0,0,0-19.66,2c-6.33.88-12.59,2.21-18.88,3.36a28.4,28.4,0,0,0-4.23.91A5.68,5.68,0,0,0,374,380c.56,3.45.86,7,2.51,10.2a20.3,20.3,0,0,1,1.45,5.36c1.29,6.92,2.56,13.85,3.73,20.79.41,2.44.48,4.93.7,7.4.19,2.06.35,4.12.57,6.17.4,3.7,1,7.39,1.21,11.1.29,4.53,1.39,8.88,2.05,13.34C388.38,453.94,388.66,452.3,389.42,451.18Z" transform="translate(-279.88 -364.37)"/><path class="cls-9" d="M448.81,459.35c3.83-.21,7.56,0,11.12-.68,9.76-1.83,19.59-1.94,29.45-1.9a7,7,0,0,0,1.61-.58c.19-1.3.41-2.83.69-4.79-6.58-.33-12.58-3.2-19.05-1.47a8.17,8.17,0,0,1-3.07.23c-6.26-.79-12.28.86-18.37,1.76-3.59.53-4.57,2-3.29,5.63C448,457.94,448.27,458.29,448.81,459.35Z" transform="translate(-279.88 -364.37)"/><path class="cls-10" d="M459.93,456.91c9.76-1.83,19.59-1.94,29.45-1.9a6.51,6.51,0,0,0,1.61-.58c.19-1.3.41-2.83.69-4.79-6.58-.33-12.58-3.19-19.05-1.47a8.17,8.17,0,0,1-3.07.23c-6.26-.79-12.28.86-18.37,1.76-3.59.53-4.57,2-3.29,5.63.14.39.37.74.91,1.8C452.64,457.38,456.37,457.58,459.93,456.91Z" transform="translate(-279.88 -364.37)"/><path class="cls-5" d="M448.81,457.59c3.83-.21,7.56,0,11.12-.68,9.76-1.83,19.59-1.94,29.45-1.9a6.51,6.51,0,0,0,1.61-.58c.19-1.3.41-2.83.69-4.79-6.58-.33-12.58-3.19-19.05-1.47a8.17,8.17,0,0,1-3.07.23c-6.26-.79-12.28.86-18.37,1.76-3.59.53-4.57,2-3.29,5.63C448,456.18,448.27,456.53,448.81,457.59Z" transform="translate(-279.88 -364.37)"/><path class="cls-11" d="M392,468.48c2.46,10,13.74,9.87,18.64,5.56,1.53-1.36,2.86-3,4.42-4.29a5.59,5.59,0,0,0,2.05-5.53c-1-5-2.92-9.4-7.8-11.89-4.42-2.25-8.74-2.26-12.79.66-4.21,3-5.73,7.35-5.19,12.46.05.41.15.81.22,1.22l.12,0C391.75,467.26,391.82,467.88,392,468.48Z" transform="translate(-279.88 -364.37)"/><path class="cls-11" d="M426.07,471.81a4,4,0,0,0,1.73.58,82,82,0,0,0,10.41-.71c3.74-.65,5.87-3.66,5.55-7.69A89,89,0,0,0,442,453a6.59,6.59,0,0,0-3.72-4.68c-3.1-1.49-5.92-3.33-9.84-2.64-3.24.57-5.19,1.94-6.34,4.85-1.72,4.36-1.7,8.84-.83,13.83A7.75,7.75,0,0,0,426.07,471.81Z" transform="translate(-279.88 -364.37)"/><path class="cls-11" d="M502.29,464.15l4.7,1.48c3.37,1.08,6.09-.1,8.32-2.57a29.2,29.2,0,0,0,3.7-4.83c1-1.72.46-3.72-.34-5.35a49.85,49.85,0,0,0-4.39-7.43c-2.71-3.73-8-4.62-12.25-2.36-.18.1-.43.2-.5.36-2,4.53-6.31,8.29-4.61,14.26C496.91,461.15,499,463.13,502.29,464.15Z" transform="translate(-279.88 -364.37)"/><path class="cls-2" d="M392,466.4c2.46,10,13.74,9.87,18.64,5.56,1.53-1.36,2.86-3,4.42-4.29a5.58,5.58,0,0,0,2.05-5.52c-1-5-2.92-9.41-7.8-11.9-4.42-2.25-8.74-2.26-12.79.66-4.21,3-5.73,7.35-5.19,12.46.05.41.15.81.22,1.22l.12,0C391.75,465.18,391.82,465.8,392,466.4Z" transform="translate(-279.88 -364.37)"/><path class="cls-2" d="M426.07,469.73a4,4,0,0,0,1.73.58,82,82,0,0,0,10.41-.71c3.74-.65,5.87-3.66,5.55-7.69a89,89,0,0,0-1.77-11,6.59,6.59,0,0,0-3.72-4.68c-3.1-1.49-5.92-3.33-9.84-2.64-3.24.57-5.19,1.94-6.34,4.85-1.72,4.36-1.7,8.84-.83,13.83A7.75,7.75,0,0,0,426.07,469.73Z" transform="translate(-279.88 -364.37)"/><path class="cls-2" d="M502.29,462.07l4.7,1.48c3.37,1.08,6.09-.1,8.32-2.57a29.2,29.2,0,0,0,3.7-4.83c1-1.72.46-3.72-.34-5.35a49.85,49.85,0,0,0-4.39-7.43c-2.71-3.73-8-4.62-12.25-2.36-.18.1-.43.2-.5.36-2,4.53-6.31,8.29-4.61,14.26C496.91,459.07,499,461.06,502.29,462.07Z" transform="translate(-279.88 -364.37)"/><path class="cls-11" d="M474.35,388.94c.14,8.81.44,17.45.38,26.1-.05,8.42-1.41,16.83-.5,25.12,3.27,2,6.64.9,9.84,1.24,3,.32,6.09,1.31,9.52-.08a8.91,8.91,0,0,0,1.3-1.6c2.73-5.09,7.51-6.11,12.6-6.36,3.56-.18,6.22,1.93,8.76,4.08a9.56,9.56,0,0,1,2,2.36c2,3.33,4.85,4.14,8.46,3.41,3.21-.66,3.34-.73,3.86-5.37-1.28-.43-2.63-.86-4-1.34a5,5,0,0,1-3.59-4.6c-.17-2.62-.11-5.25-.16-8.31-3.29-1.82-7.43-2.13-11.39-3-2.41-.54-5-.77-6-3.82-2.21.4-4.06.59-5.81,1.08-4.85,1.37-9.81.82-14.72,1.13a3.16,3.16,0,0,1-3.54-2.75,28.24,28.24,0,0,1-.17-3.69c-.09-1.85-.17-3.71-.33-5.55-.09-1-.39-2-.51-3.06-.95-7.72,1.79-10.93,9.32-10.89,4.3,0,8.59.18,12.89.25.77,0,1.53-.06,2.29-.09-.09-3.52-.39-4-2.35-4.22a12.64,12.64,0,0,0-2.46,0,41.54,41.54,0,0,1-12.28-.89,26.72,26.72,0,0,0-11.05,0A16.59,16.59,0,0,0,474.35,388.94Z" transform="translate(-279.88 -364.37)"/><path class="cls-8" d="M475.21,416.92c-.06,8.42-1.42,16.83-.5,25.12,3.26,2,6.63.9,9.83,1.24,3,.32,6.09,1.31,9.52-.08a8.84,8.84,0,0,0,1.3-1.6c2.73-5.09,7.51-6.11,12.6-6.36,3.56-.18,6.22,1.93,8.76,4.08a9.18,9.18,0,0,1,2,2.36c2,3.32,4.85,4.14,8.46,3.4,3.22-.65,3.35-.72,3.86-5.37-1.27-.42-2.62-.85-3.95-1.33a5,5,0,0,1-3.6-4.6c-.16-2.62-.11-5.26-.15-8.31-3.3-1.82-7.44-2.13-11.4-3-2.41-.54-5-.77-6-3.82-2.2.4-4.05.58-5.81,1.08-4.84,1.36-9.81.82-14.72,1.13a3.17,3.17,0,0,1-3.54-2.76,29.85,29.85,0,0,1-.17-3.68c-.09-1.85-.17-3.71-.33-5.55-.09-1-.39-2-.51-3.06-.95-7.72,1.79-10.94,9.32-10.89,4.3,0,8.6.18,12.89.25.77,0,1.54-.06,2.3-.09-.1-3.52-.39-4.05-2.35-4.23a13.59,13.59,0,0,0-2.47,0,41.23,41.23,0,0,1-12.28-.9,27.06,27.06,0,0,0-11,0,19.31,19.31,0,0,0-2.41.91C475,399.63,475.27,408.27,475.21,416.92Z" transform="translate(-279.88 -364.37)"/><path class="cls-9" d="M506.52,400.12c-2.84-.24-5.55-1-8.06-.58-3.84.65-7.85-1.12-11.69,1-2.41,5.25.75,10.39.16,15.79,7,1.65,13.25-.23,19.79-1.82A45.31,45.31,0,0,0,506.52,400.12Z" transform="translate(-279.88 -364.37)"/><path class="cls-8" d="M497.24,398.54c-3.84.65-7.84-1.12-11.68,1-2.42,5.25.74,10.39.15,15.79,7,1.65,13.25-.23,19.8-1.82a45.9,45.9,0,0,0-.2-14.41C502.46,398.88,499.75,398.11,497.24,398.54Z" transform="translate(-279.88 -364.37)"/><path class="cls-12" d="M317,413.71h-6.29c2.95-6.51,10.23-11.26,8.71-20.46-7.72-4.8-16.79-.65-24.2,2.28-3.78,1.49-11.4,3.54-12.09,5.91-.62,2.08.74,5.36,1.93,6.35,4.34,3.66,14.19-.68,18.39-.45-2,4-6.34,8.25-4.36,14.54,2.78,2.41,9.59,1,14.52,1.37,2.18,4.27,4,11.61,1.94,16.36-2.5,5.77-12.53,6.12-20.81,6.36-4.75-2.35-2.39-11.39-6.3-14.53-8.17,4.78-6.19,20.68.49,24.53,8.73,5,23.16,4.76,30.49-.46C332.14,446.47,333.58,420.61,317,413.71Z" transform="translate(-279.88 -364.37)"/><path class="cls-12" d="M335.37,455.07c5.37,6.26,16.13.14,11.62-6.37C343.48,443.64,331.52,446.15,335.37,455.07Z" transform="translate(-279.88 -364.37)"/><path class="cls-13" d="M314.41,417h-6.29c2.95-6.51,10.23-11.26,8.71-20.45-7.72-4.81-16.79-.65-24.2,2.27-3.78,1.5-11.4,3.55-12.1,5.91-.61,2.09.75,5.37,1.94,6.36,4.34,3.65,14.19-.69,18.39-.45-2,4-6.34,8.25-4.36,14.54,2.78,2.4,9.59,1,14.52,1.36,2.18,4.27,4,11.62,1.93,16.37-2.49,5.77-12.52,6.12-20.8,6.35-4.75-2.35-2.39-11.38-6.3-14.53-8.17,4.79-6.19,20.68.49,24.54,8.73,5,23.16,4.75,30.49-.46C329.57,449.72,331,423.87,314.41,417Z" transform="translate(-279.88 -364.37)"/><path class="cls-13" d="M332.8,458.32c5.37,6.26,16.13.15,11.62-6.36C340.91,446.89,329,449.4,332.8,458.32Z" transform="translate(-279.88 -364.37)"/></svg>