<svg id="Capa_1" data-name="Capa 1" xmlns="http://www.w3.org/2000/svg" viewBox="0 0 251.13 109.97"><defs><style>.cls-1,.cls-2{fill:#88c7a3;}.cls-1,.cls-2,.cls-3,.cls-4,.cls-5,.cls-6,.cls-7{fill-rule:evenodd;}.cls-2,.cls-3,.cls-4,.cls-5,.cls-6,.cls-7{stroke:#000;stroke-miterlimit:10;}.cls-3{fill:#fefeff;}.cls-4{fill:#fff;}.cls-5{fill:none;}.cls-6,.cls-7{fill:#e7a521;}.cls-6{stroke-width:0.25px;}</style></defs><path class="cls-1" d="M530.53,388.09c-.11-7.81.17-15.65-2.32-21.64-9.37-1.25-20.51-.71-30.83-1-.42,0-.46.43-1,.34-14.89.62-31.79,1.85-47.08,2.33-5.12.16-10.47-.48-13.59,3a595.42,595.42,0,0,0,2.65,62.6c13.71,1,30-1,46.08-1h24.2c7.81,0,16.35,1.2,21.55-3,2-5.12,1.77-12.32,1.33-19C531,403.44,530.64,395.68,530.53,388.09Z" transform="translate(-280.69 -365.44)"/><path class="cls-2" d="M526.3,392.74c-.12-7.81.17-15.65-2.32-21.65-9.37-1.24-20.51-.71-30.83-1-.42,0-.47.43-1,.33-14.88.63-31.78,1.86-47.07,2.34-5.12.16-10.47-.48-13.59,3a595.61,595.61,0,0,0,2.65,62.61c13.71,1,30-1,46.08-1h24.2c7.81,0,16.34,1.2,21.55-3,2-5.12,1.77-12.31,1.32-19C526.8,408.08,526.41,400.32,526.3,392.74Z" transform="translate(-280.69 -365.44)"/><path class="cls-3" d="M431.45,383.13c8.46,2.75,17.6.76,26.46,0,13.41-1.19,27,.44,40.35-1.22,9.26-1.15,18.56-3.87,27.75-2.33l.06,7.94c-11.86-2.05-23.92,1-35.9,2.1-4.92.44-9.85.55-14.78.65l-28.13.62c-4,.09-10,1.37-13.87.3-2.48-.68-1.38.13-2-2C431.18,388.64,431.88,383.27,431.45,383.13Z" transform="translate(-280.69 -365.44)"/><path class="cls-1" d="M410.34,429.57c3.12-1.3,6-3.22,9.1-4.58a27.84,27.84,0,0,1,21.52-.34c3.45,1.38,6.7,3.44,10.26,4.33,5.35,1.34,10.88-.08,16.11-1.81C473,425.3,479,422.68,482,416.94c-2.67,4-3,9.51-2.89,14.61a126.74,126.74,0,0,0,6.48,37.75,57.17,57.17,0,0,0-6.16,3c-11.1,5.37-24.17,3.35-35.22-2.45a61.67,61.67,0,0,0-7.73-3.83,37.87,37.87,0,0,0-9.18-1.67c-7.14-.7-14.75-1.3-21,2.58-2.34,1.45-4.39,3.48-6.82,4.7-5.73,2.87-12.45.84-18.61,2.11,3.21-3.7,5-8.71,6.35-13.73a89.14,89.14,0,0,0,2.45-13.75c.48-4.88,0-9.74.27-14.58.16-2.53.61-2.28,2.67-1.6a26.43,26.43,0,0,0,6.06,1.3A25,25,0,0,0,410.34,429.57Z" transform="translate(-280.69 -365.44)"/><path class="cls-2" d="M408.46,426.14c3.12-1.29,6-3.21,9.11-4.57a27.79,27.79,0,0,1,21.52-.34c3.44,1.38,6.7,3.44,10.25,4.33,5.35,1.34,10.88-.08,16.11-1.81,5.64-1.87,11.62-4.49,14.65-10.23-2.67,4-3,9.5-2.89,14.61a126.94,126.94,0,0,0,6.48,37.74,61.2,61.2,0,0,0-6.16,3c-11.09,5.38-24.17,3.36-35.22-2.44a61,61,0,0,0-7.73-3.83,37.87,37.87,0,0,0-9.18-1.67c-7.14-.7-14.74-1.3-21,2.58-2.33,1.45-4.39,3.48-6.82,4.7-5.73,2.87-12.44.84-18.61,2.1,3.22-3.7,5-8.7,6.35-13.72a89.14,89.14,0,0,0,2.45-13.75c.48-4.88,0-9.75.27-14.58.16-2.54.62-2.28,2.67-1.6a26.53,26.53,0,0,0,6.06,1.29A24.75,24.75,0,0,0,408.46,426.14Z" transform="translate(-280.69 -365.44)"/><path class="cls-4" d="M411.86,429.47c2.82-1,5.43-2.58,8.24-3.67a28.4,28.4,0,0,1,19.41-.38c3.1,1.07,6,2.68,9.24,3.37,4.81,1,9.81-.12,14.54-1.52,5.09-1.51,10.5-3.61,13.27-8.17-2.43,3.21-2.75,7.53-2.69,11.57a88.63,88.63,0,0,0,5.64,29.79,58,58,0,0,0-5.57,2.39c-10,4.31-21.82,2.78-31.76-1.74a58.19,58.19,0,0,0-6.95-3,38.48,38.48,0,0,0-8.28-1.27c-6.43-.51-13.29-.94-19,2.16-2.12,1.16-4,2.77-6.19,3.75-5.18,2.3-11.23.73-16.8,1.76,2.93-2.94,4.6-6.9,5.81-10.88a63.2,63.2,0,0,0,2.28-10.88c.46-3.86,0-7.7.33-11.52.16-2,.56-1.81,2.41-1.28a26.76,26.76,0,0,0,5.46,1A25.54,25.54,0,0,0,411.86,429.47Z" transform="translate(-280.69 -365.44)"/><path class="cls-5" d="M435.89,433.92a11.74,11.74,0,0,0-7.41,1.79,3.1,3.1,0,0,0-1.41,1.56,2.34,2.34,0,0,0,1.47,2.64,5,5,0,0,0,3.23,0A23.86,23.86,0,0,1,435,439a6.17,6.17,0,0,1,5.84,2.66,4.25,4.25,0,0,1,.79,2.47,4.45,4.45,0,0,1-2.79,3.64,13,13,0,0,1-4.72.83,10.6,10.6,0,0,1-5.23-.64,10.49,10.49,0,0,1-2.89-2.47" transform="translate(-280.69 -365.44)"/><path class="cls-5" d="M434.38,454.32c-1.16-8.3-1.95-16.66-2.36-25" transform="translate(-280.69 -365.44)"/><path class="cls-6" d="M328.74,431.55c-8.76-2-16.92,1.19-23.37,2.45,4.93-7.77,15.71-21.31,18.5-33.25.92-4,1.9-9.14,1.45-12.71-.89-7.32-8.29-7.49-15.08-9.77-9.51,4.46-17.48,10.46-18,24,8.75,8,10.87-7.89,18.48-8.8,3.08,11.43-5.17,20-9.73,27.87-2.74,4.7-4.37,7.1-7.79,12.71-2.52,4.14-6.95,10-6.81,13.7.33,9,11.56,4.91,18,3.41,5-1.15,9.24-2,14.11-2.93,7.63-1.51,25.29-2.3,23.37-10.75C341.23,434.6,332,432.29,328.74,431.55Z" transform="translate(-280.69 -365.44)"/><path class="cls-6" d="M357.46,436c-7.47.77-8.3,11.51-2.44,13.2C364.93,452,367.67,434.92,357.46,436Z" transform="translate(-280.69 -365.44)"/><path class="cls-7" d="M323.54,434c-8.76-2-16.91,1.18-23.37,2.44,4.93-7.77,15.71-21.31,18.51-33.24.92-4,1.9-9.15,1.45-12.72-.9-7.32-8.29-7.49-15.09-9.77-9.51,4.47-17.48,10.46-18,23.95,8.75,8,10.88-7.89,18.48-8.79,3.09,11.43-5.17,20-9.72,27.86-2.75,4.7-4.38,7.1-7.8,12.71-2.52,4.15-6.95,10-6.81,13.7.34,9,11.56,4.91,18,3.41,5-1.15,9.24-2,14.12-2.93,7.62-1.5,25.29-2.3,23.36-10.75C336,437.08,326.79,434.77,323.54,434Z" transform="translate(-280.69 -365.44)"/><path class="cls-7" d="M352.26,438.43c-7.47.77-8.29,11.51-2.44,13.21C359.73,454.51,362.48,437.4,352.26,438.43Z" transform="translate(-280.69 -365.44)"/></svg>